<?xml version="1.0" standalone="no"?>
<!DOCTYPE svg PUBLIC "-//W3C//DTD SVG 20010904//EN"
 "http://www.w3.org/TR/2001/REC-SVG-20010904/DTD/svg10.dtd">
<svg version="1.0" xmlns="http://www.w3.org/2000/svg"
 width="260.000000pt" height="260.000000pt" viewBox="0 0 260.000000 260.000000"
 preserveAspectRatio="xMidYMid meet">
<metadata>
Created by potrace 1.11, written by Peter Selinger 2001-2013
</metadata>
<g transform="translate(0.000000,260.000000) scale(0.100000,-0.100000)"
fill="#000000" stroke="none">
<path d="M2 1304 l1 -1294 1293 0 1294 0 0 1294 0 1294 -1294 0 -1294 -1 0
-1293z m2498 1 l0 -1205 -1205 0 -1205 0 0 1205 0 1205 1205 0 1205 0 0 -1205z"/>
<path d="M599 1096 c-15 -33 4 -58 40 -54 22 3 26 8 26 38 0 31 -3 35 -27 38
-22 3 -30 -2 -39 -22z"/>
<path d="M1333 1113 c-18 -2 -33 -8 -33 -14 0 -5 4 -9 9 -9 11 0 9 -230 -2
-247 -10 -16 -12 -15 50 -17 35 -1 49 2 43 8 -6 6 -10 71 -10 148 0 105 -3
138 -12 136 -7 0 -28 -3 -45 -5z"/>
<path d="M383 1091 c-23 -14 -34 -30 -39 -56 -9 -51 12 -77 80 -98 67 -21 85
-46 61 -83 -31 -47 -88 -24 -125 51 l-19 40 -1 -60 0 -60 70 -3 c103 -4 150
26 152 99 1 40 -25 64 -91 87 -62 21 -82 42 -65 70 26 41 100 11 119 -48 11
-33 21 -15 17 32 l-4 43 -61 3 c-48 2 -69 -2 -94 -17z"/>
<path d="M828 1004 c-16 -8 -28 -10 -28 -4 0 5 -14 8 -32 6 -18 -3 -42 -5 -53
-6 -18 -1 -19 -1 -2 -11 13 -8 17 -24 17 -77 0 -38 -4 -72 -9 -77 -6 -6 10
-10 44 -10 35 0 51 3 45 9 -6 6 -10 41 -10 78 0 54 3 70 16 75 23 9 30 -9 32
-82 1 -43 -3 -65 -10 -65 -6 0 -8 -3 -4 -7 4 -4 29 -7 56 -8 33 -1 47 2 40 9
-6 6 -10 41 -10 78 0 53 4 70 15 75 9 3 19 3 22 -1 10 -10 11 -130 1 -142 -11
-15 6 -21 52 -19 25 1 34 6 31 16 -2 8 -5 41 -6 74 -1 33 -3 66 -4 73 -2 23
-50 34 -82 18 -25 -13 -33 -13 -57 0 -33 17 -30 17 -64 -2z"/>
<path d="M1139 1015 c-5 -5 -43 -13 -69 -14 -12 -1 -13 -3 -1 -10 19 -12 22
-218 3 -237 -11 -12 -4 -14 48 -14 53 0 59 2 47 14 -8 8 -13 27 -12 43 1 23 5
28 26 25 66 -7 126 82 100 147 -18 41 -52 55 -100 38 -15 -5 -27 -4 -31 3 -3
6 -9 8 -11 5z m61 -44 c11 -21 14 -100 4 -125 -7 -19 -30 -21 -40 -4 -8 13
-13 117 -6 136 6 18 30 15 42 -7z"/>
<path d="M1474 1004 c-39 -20 -53 -44 -54 -85 0 -73 73 -119 138 -85 28 14 42
34 42 58 0 5 -7 2 -16 -6 -22 -23 -60 -20 -78 6 -24 34 -20 38 39 38 46 0 55
3 55 18 0 21 -35 62 -53 63 -7 0 -20 2 -29 4 -9 2 -29 -3 -44 -11z m61 -25 c8
-25 -1 -39 -26 -39 -19 0 -25 23 -13 54 7 19 31 10 39 -15z"/>
<path d="M597 1003 c-23 -4 -25 -6 -13 -19 16 -16 20 -117 6 -145 -8 -14 -3
-16 45 -15 30 0 55 4 55 8 0 5 -4 8 -10 8 -6 0 -10 35 -10 85 0 94 4 89 -73
78z"/>
<path d="M645 705 c-34 -8 -44 -13 -32 -18 15 -6 17 -22 17 -125 0 -78 -4
-122 -12 -130 -9 -9 1 -12 48 -12 35 0 54 4 46 9 -9 5 -12 28 -10 77 3 61 5
69 23 69 18 0 20 -8 23 -63 2 -38 -2 -69 -9 -78 -10 -12 -2 -14 47 -14 33 0
54 4 48 8 -7 4 -13 42 -16 85 -2 54 -8 81 -18 88 -15 10 -52 7 -82 -5 -15 -7
-17 0 -20 56 l-3 63 -50 -10z"/>
<path d="M889 701 c-22 -18 -22 -19 -6 -45 20 -31 38 -33 60 -8 22 24 21 35
-1 55 -23 21 -25 21 -53 -2z"/>
<path d="M331 665 c-16 -64 -14 -74 9 -38 10 18 33 39 50 48 l30 16 0 -126 c0
-121 -1 -126 -22 -135 -17 -6 1 -9 62 -9 77 -1 83 0 63 14 -19 13 -21 24 -20
134 l0 119 34 -16 c18 -9 33 -18 33 -21 0 -3 9 -17 19 -30 18 -23 18 -23 8 27
l-11 51 -112 -1 c-61 0 -116 2 -122 6 -5 3 -15 -14 -21 -39z"/>
<path d="M1351 664 c-11 -8 -21 -23 -21 -33 0 -12 -10 -21 -27 -26 -40 -10
-63 -34 -63 -65 0 -21 8 -31 33 -44 18 -9 25 -16 15 -16 -25 0 -50 -30 -44
-53 2 -11 -2 -30 -10 -43 -14 -21 -14 -24 10 -40 31 -19 122 -22 155 -5 33 18
45 58 26 87 -15 23 -26 26 -107 27 -16 0 -28 4 -28 9 0 4 12 10 28 14 65 14
90 26 99 47 17 37 -13 78 -59 82 -5 0 -8 5 -8 10 0 10 4 11 35 14 19 1 20 37
1 44 -7 3 -23 -1 -35 -9z m-3 -122 c2 -40 0 -52 -11 -52 -24 0 -36 55 -21 95
12 31 29 8 32 -43z m47 -163 c19 -19 -21 -42 -72 -41 -51 1 -82 24 -63 47 11
13 120 8 135 -6z"/>
<path d="M890 601 c-32 -4 -40 -8 -27 -13 14 -6 17 -20 17 -76 0 -39 -5 -73
-12 -80 -9 -9 1 -12 47 -11 33 0 54 3 48 6 -9 3 -13 32 -13 94 0 49 -3 88 -7
87 -5 0 -28 -4 -53 -7z"/>
<path d="M1032 600 c-34 -8 -54 -20 -34 -20 17 0 16 -147 0 -153 -7 -3 13 -6
46 -6 49 -1 57 1 47 13 -7 9 -11 40 -9 78 3 57 5 63 26 66 21 3 22 0 22 -71 0
-51 -4 -77 -12 -80 -7 -3 14 -5 47 -5 33 0 54 2 48 5 -9 3 -13 29 -13 78 0 98
-20 120 -87 94 -19 -7 -29 -7 -31 0 -4 12 -4 12 -50 1z"/>
<path d="M1483 600 c-23 -9 -41 -36 -37 -57 1 -7 2 -17 3 -22 0 -5 26 -20 56
-35 38 -18 53 -30 49 -40 -13 -34 -69 -20 -90 22 -18 36 -22 36 -22 -2 0 -36
5 -40 58 -50 36 -6 89 19 99 46 14 38 -7 66 -60 83 -46 16 -62 36 -38 50 19
12 54 -4 71 -32 l17 -28 1 31 c0 24 -5 33 -22 38 -31 8 -58 7 -85 -4z"/>
</g>
</svg>
