<?xml version="1.0" encoding="UTF-8"?>
<svg width="168px" height="168px" viewBox="0 0 168 168" version="1.1" xmlns="http://www.w3.org/2000/svg" xmlns:xlink="http://www.w3.org/1999/xlink">
    <!-- Generator: Sketch 52.6 (67491) - http://www.bohemiancoding.com/sketch -->
    <title>logo</title>
    <desc>Created with Sketch.</desc>
    <g id="Page-1" stroke="none" stroke-width="1" fill="none" fill-rule="evenodd">
        <g id="logo" fill="#FFFFFF">
            <path d="M21.992,107.732 C21.992,107.254 22.148,107.124 22.334,107.124 C22.941,107.124 22.705,109.346 24.238,111.593 C25.506,113.442 27.066,114.42 28.839,114.42 C30.583,114.42 32.116,113.365 32.116,111.169 C32.116,106.013 22.018,109.027 22.018,102.259 C22.018,98.503 25.163,96.285 28.917,96.285 C31.085,96.285 32.751,97.235 33.439,97.235 C34.362,97.235 33.863,96.285 34.44,96.285 C34.68,96.285 34.733,96.469 34.76,96.866 C34.972,101.175 34.997,102.047 34.997,102.364 C34.997,102.632 34.946,102.79 34.681,102.79 C34.415,102.79 34.392,102.338 34.046,101.572 C33.171,99.561 31.483,96.92 28.705,96.92 C26.748,96.92 25.612,97.977 25.612,99.696 C25.612,103.951 36.401,101.387 36.401,108.603 C36.401,112.517 33.068,115.055 28.682,115.055 C26.113,115.055 24.395,114.102 23.365,114.102 C22.518,114.102 22.733,115.055 22.306,115.055 C22.098,115.055 21.992,114.922 21.992,114.526 L21.992,107.732 Z" id="Path"></path>
            <path d="M43.164,113.073 C43.164,114.366 44.695,113.865 44.695,114.42 C44.695,114.553 44.647,114.684 44.406,114.684 C43.404,114.684 42.266,114.633 40.916,114.633 C39.571,114.633 38.432,114.684 37.428,114.684 C37.19,114.684 37.137,114.553 37.137,114.42 C37.137,113.865 38.67,114.366 38.67,113.073 L38.67,105.511 C38.67,103.714 36.925,104.031 36.925,103.529 C36.925,103.106 38.592,103.58 43.164,102.418 L43.164,113.073 Z M40.916,95.546 C42.396,95.546 43.563,96.704 43.563,98.187 C43.563,99.672 42.396,100.833 40.916,100.833 C39.437,100.833 38.274,99.673 38.274,98.187 C38.274,96.704 39.438,95.546 40.916,95.546 Z" id="Shape" fill-rule="nonzero"></path>
            <path d="M66.935,113.126 C66.935,114.422 68.334,113.946 68.334,114.473 C68.334,114.66 68.202,114.686 67.885,114.686 C66.748,114.686 65.613,114.63 64.475,114.63 C63.338,114.63 62.201,114.686 61.355,114.686 C61.039,114.686 60.906,114.66 60.906,114.473 C60.906,113.947 62.44,114.422 62.44,113.126 L62.44,105.829 C62.44,104.586 61.779,104.059 60.932,104.059 C60.219,104.059 59.638,104.506 59.293,104.902 L59.293,113.126 C59.293,114.422 60.615,113.946 60.615,114.473 C60.615,114.66 60.481,114.686 60.166,114.686 C59.133,114.686 58.078,114.63 57.045,114.63 C56.016,114.63 54.957,114.686 53.928,114.686 C53.61,114.686 53.477,114.66 53.477,114.473 C53.477,113.947 54.798,114.422 54.798,113.126 L54.798,105.829 C54.798,104.586 54.139,104.059 53.293,104.059 C52.578,104.059 51.996,104.506 51.652,104.902 L51.652,113.126 C51.652,114.422 53.054,113.946 53.054,114.473 C53.054,114.66 52.921,114.686 52.605,114.686 C51.467,114.686 50.33,114.63 49.193,114.63 C48.057,114.63 46.922,114.686 46.074,114.686 C45.756,114.686 45.625,114.66 45.625,114.473 C45.625,113.947 47.158,114.422 47.158,113.126 L47.158,106.039 C47.158,103.767 45.387,104.189 45.387,103.767 C45.387,103.186 47.503,103.767 51.521,102.632 L51.521,104.268 C52.895,103.053 54.563,102.417 55.911,102.417 C57.6,102.417 58.53,103.29 59.134,104.295 C60.775,102.893 62.071,102.417 63.365,102.417 C66.009,102.417 66.935,104.06 66.935,106.358 L66.935,113.126 Z" id="Path"></path>
            <path d="M70.078,105.51 C70.078,103.714 68.333,104.031 68.333,103.527 C68.333,103.106 70,103.58 74.574,102.418 L74.574,104.059 C75.685,103.054 76.955,102.418 78.541,102.418 C81.155,102.418 83.219,104.271 83.219,107.918 C83.219,111.939 80.126,114.845 76.53,114.845 C75.79,114.845 75.157,114.74 74.575,114.579 L74.575,118.52 C74.575,119.813 76.109,119.313 76.109,119.864 C76.109,120 76.055,120.132 75.817,120.132 C74.812,120.132 73.676,120.081 72.327,120.081 C70.98,120.081 69.843,120.132 68.835,120.132 C68.598,120.132 68.549,120 68.549,119.864 C68.549,119.313 70.079,119.813 70.079,118.52 L70.079,105.51 L70.078,105.51 Z M74.574,111.565 C74.574,113.678 75.367,114.366 76.345,114.366 C77.508,114.366 78.407,113.625 78.407,108.788 C78.407,105.724 77.429,104.058 75.949,104.058 C75.261,104.058 74.946,104.321 74.574,104.639 L74.574,111.565 Z" id="Shape" fill-rule="nonzero"></path>
            <path d="M89.662,113.073 C89.662,114.366 91.193,113.865 91.193,114.42 C91.193,114.553 91.142,114.684 90.904,114.684 C89.899,114.684 88.763,114.633 87.416,114.633 C86.069,114.633 84.929,114.684 83.926,114.684 C83.686,114.684 83.635,114.553 83.635,114.42 C83.635,113.865 85.168,114.366 85.168,113.073 L85.168,98.454 C85.168,97.131 83.53,97.475 83.53,96.971 C83.53,96.364 85.115,97.05 89.662,95.331 L89.662,113.073 Z" id="Path"></path>
            <path d="M96.147,107.76 C96.387,110.453 97.785,111.989 99.768,111.989 C101.222,111.989 102.041,111.459 102.675,110.668 C103.101,110.137 103.201,109.85 103.416,109.85 C103.575,109.85 103.654,109.956 103.654,110.164 C103.654,110.668 102.833,114.844 97.838,114.844 C94.109,114.844 91.598,112.252 91.598,108.684 C91.598,105.166 94.323,102.416 98.048,102.416 C100.879,102.416 103.443,104.166 103.496,107.761 L96.147,107.761 L96.147,107.76 Z M99.426,107.122 C99.426,104.584 99.135,103.053 97.759,103.053 C96.388,103.053 96.093,104.584 96.093,107.122 L99.426,107.122 Z" id="Shape" fill-rule="nonzero"></path>
            <path d="M27.199,123.593 C24.898,123.936 22.731,125.47 21.647,127.981 C21.304,128.777 21.222,129.2 20.958,129.2 C20.775,129.2 20.697,129.091 20.697,128.907 C20.697,128.722 20.801,128.193 20.853,127.876 L21.912,122.802 C21.963,122.564 21.992,122.376 22.175,122.376 C22.388,122.376 22.545,122.96 23.605,122.96 L36.081,122.96 C37.139,122.96 37.297,122.376 37.512,122.376 C37.695,122.376 37.721,122.564 37.774,122.802 L38.833,127.876 C38.886,128.193 38.989,128.723 38.989,128.907 C38.989,129.091 38.911,129.2 38.726,129.2 C38.461,129.2 38.381,128.777 38.039,127.981 C36.953,125.47 34.784,123.936 32.483,123.593 L32.483,138.927 C32.483,140.78 35.024,139.776 35.024,140.619 C35.024,140.858 34.92,140.936 34.628,140.936 C33.28,140.936 31.773,140.884 29.842,140.884 C27.911,140.884 26.405,140.936 25.058,140.936 C24.767,140.936 24.662,140.858 24.662,140.619 C24.662,139.775 27.199,140.779 27.199,138.927 L27.199,123.593 Z" id="Path"></path>
            <path d="M40.629,124.703 C40.629,123.382 38.988,123.725 38.988,123.223 C38.988,122.612 40.578,123.302 45.123,121.582 L45.123,130.494 C46.975,129.065 48.033,128.669 49.486,128.669 C52.13,128.669 52.843,130.309 52.843,132.607 L52.843,139.321 C52.843,140.619 54.377,140.117 54.377,140.672 C54.377,140.804 54.321,140.937 54.085,140.937 C53.081,140.937 51.942,140.885 50.595,140.885 C49.248,140.885 48.109,140.937 47.317,140.937 C47.079,140.937 47.026,140.804 47.026,140.672 C47.026,140.117 48.349,140.619 48.349,139.321 L48.349,131.896 C48.349,130.728 47.739,130.308 47.104,130.308 C46.417,130.308 45.68,130.811 45.123,131.338 L45.123,139.32 C45.123,140.618 46.445,140.116 46.445,140.671 C46.445,140.803 46.39,140.936 46.154,140.936 C45.362,140.936 44.222,140.884 42.875,140.884 C41.529,140.884 40.393,140.936 39.387,140.936 C39.147,140.936 39.096,140.803 39.096,140.671 C39.096,140.116 40.629,140.618 40.629,139.32 L40.629,124.703 Z" id="Path"></path>
            <path d="M61.365,139.321 C61.365,140.619 62.899,140.116 62.899,140.672 C62.899,140.804 62.847,140.937 62.609,140.937 C61.605,140.937 60.467,140.885 59.119,140.885 C57.771,140.885 56.634,140.937 55.629,140.937 C55.391,140.937 55.339,140.804 55.339,140.672 C55.339,140.116 56.873,140.619 56.873,139.321 L56.873,131.763 C56.873,129.964 55.128,130.282 55.128,129.78 C55.128,129.355 56.791,129.831 61.365,128.669 L61.365,139.321 Z M59.119,121.795 C60.6,121.795 61.765,122.958 61.765,124.44 C61.765,125.919 60.601,127.082 59.119,127.082 C57.639,127.082 56.474,125.919 56.474,124.44 C56.475,122.958 57.639,121.795 59.119,121.795 Z" id="Shape" fill-rule="nonzero"></path>
            <path d="M65.342,131.764 C65.342,129.965 63.597,130.283 63.597,129.781 C63.597,129.356 65.266,129.832 69.837,128.67 L69.837,130.495 C71.69,129.066 72.744,128.67 74.198,128.67 C76.843,128.67 77.557,130.31 77.557,132.608 L77.557,139.322 C77.557,140.619 79.089,140.118 79.089,140.673 C79.089,140.805 79.035,140.938 78.796,140.938 C77.794,140.938 76.656,140.884 75.31,140.884 C73.961,140.884 72.824,140.938 72.031,140.938 C71.793,140.938 71.74,140.805 71.74,140.673 C71.74,140.118 73.06,140.619 73.06,139.322 L73.06,131.897 C73.06,130.729 72.453,130.309 71.819,130.309 C71.131,130.309 70.39,130.812 69.837,131.339 L69.837,139.321 C69.837,140.618 71.159,140.117 71.159,140.672 C71.159,140.804 71.107,140.937 70.868,140.937 C70.074,140.937 68.936,140.883 67.59,140.883 C66.24,140.883 65.104,140.937 64.099,140.937 C63.86,140.937 63.81,140.804 63.81,140.672 C63.81,140.117 65.342,140.618 65.342,139.321 L65.342,131.764 Z" id="Path"></path>
            <path d="M84.754,136.709 C82.403,136.495 80.129,135.357 80.129,133.059 C80.129,130.176 82.694,128.749 85.92,128.671 L85.92,127.795 C85.92,125.471 87.481,124.334 88.746,124.334 C89.807,124.334 90.36,124.942 90.36,125.894 C90.36,127.215 89.729,127.612 88.298,127.612 C86.527,127.612 86.315,127.718 86.29,128.672 C89.753,128.961 91.919,130.254 91.919,132.687 C91.919,135.016 90.229,136.311 87.054,136.789 C83.753,137.289 82.985,137.369 82.985,137.977 C82.985,138.401 83.408,138.534 83.911,138.557 L88.564,138.744 C91.576,138.848 92.793,140.173 92.793,142.604 C92.793,145.353 90.229,146.967 85.468,146.967 C81.186,146.967 79.363,145.565 79.363,144.191 C79.363,142.759 80.501,142.102 81.585,142.022 L81.585,141.968 C80.501,141.624 80.129,140.912 80.129,140.012 C80.129,137.95 81.822,136.917 84.754,136.76 L84.754,136.709 Z M85.577,146.33 C89.04,146.33 90.468,145.456 90.468,144.189 C90.468,141.916 87.823,142.999 82.196,142.415 C81.636,142.415 81.111,142.867 81.111,143.976 C81.11,145.563 82.931,146.33 85.577,146.33 Z M84.624,132.793 C84.624,135.939 85.181,136.442 86.026,136.442 C86.871,136.442 87.424,135.938 87.424,132.793 C87.424,129.648 86.87,129.146 86.026,129.146 C85.181,129.146 84.624,129.648 84.624,132.793 Z" id="Shape" fill-rule="nonzero"></path>
            <path d="M102.676,132.739 C102.676,133.032 102.625,133.187 102.411,133.187 C102.254,133.187 102.121,132.872 101.932,132.343 C101.537,131.178 100.351,129.147 98.208,129.147 C96.99,129.147 96.143,129.805 96.143,130.731 C96.143,133.001 103.655,132.343 103.655,136.654 C103.655,139.217 101.092,141.095 98.182,141.095 C96.408,141.095 94.692,140.827 93.261,140.221 L93.261,135.938 C93.261,135.676 93.342,135.572 93.58,135.572 C93.952,135.572 93.819,136.178 94.349,137.392 C95.141,139.27 96.382,140.619 98.261,140.619 C99.795,140.619 100.536,139.931 100.536,138.822 C100.536,136.072 93.29,137.205 93.29,132.766 C93.29,130.413 95.539,128.668 98.338,128.668 C99.926,128.668 101.222,128.985 102.675,129.434 L102.675,132.739 L102.676,132.739 Z" id="Path"></path>
            <path d="M167.285,167.285 L0.175,167.285 L0.175,0.175 L167.285,0.175 L167.285,167.285 Z M5.82,161.643 L161.644,161.643 L161.644,5.821 L5.82,5.821 L5.82,161.643 Z" id="Shape" fill-rule="nonzero"></path>
        </g>
    </g>
</svg>