<svg width="129" height="34" viewBox="0 0 129 34" fill="none" xmlns="http://www.w3.org/2000/svg">
<g id="Layer_1" clip-path="url(#clip0_719_5600)">
<path id="Vector" d="M24.5835 16.9465C24.5835 11.5987 24.5835 6.25209 24.5835 0.904251C24.5835 0.0191001 24.5861 0.0165529 25.4562 0.0165529C31.0501 0.0165529 36.6452 0.0216473 42.2391 0.00763769C42.7479 0.0063641 43.1183 0.151554 43.4796 0.511983C44.847 1.88238 46.2349 3.23239 47.6382 4.56712C48.0521 4.96066 48.2457 5.37204 48.2418 5.95534C48.2162 9.09604 48.22 12.2367 48.2392 15.3774C48.2418 15.8869 48.0932 16.2664 47.7177 16.6052C47.2589 17.0178 46.8513 17.4852 46.3926 17.8979C46.0888 18.1717 46.1324 18.378 46.4015 18.6289C46.7911 18.9919 47.1307 19.416 47.5549 19.728C48.0047 20.0592 48.1252 20.4476 48.1226 20.9787C48.1047 25.0313 48.1137 29.0852 48.1124 33.1378C48.1124 33.9809 48.1072 33.9847 47.255 33.986C44.073 33.9885 40.8922 33.9733 37.7102 33.9987C37.1425 34.0038 36.9913 33.8382 36.9951 33.2791C37.0195 29.6086 37.0105 25.9368 37.0028 22.2663C37.0028 22.0116 37.1425 21.6206 36.7939 21.5429C36.3056 21.4334 35.7661 21.3684 35.2945 21.5977C35.0728 21.7059 35.1766 22.0269 35.1766 22.2536C35.1715 25.8604 35.1741 29.4685 35.1728 33.0754C35.1728 33.9834 35.1702 33.986 34.2539 33.986C31.35 33.986 28.446 33.986 25.5421 33.986C24.5861 33.986 24.5835 33.9834 24.5835 33.0537C24.5835 27.6855 24.5835 22.316 24.5835 16.9478V16.9465ZM37.2796 12.601C37.2796 12.0075 37.2873 11.4127 37.2783 10.8192C37.254 9.17755 37.541 9.38769 35.7571 9.35076C35.2381 9.34057 35.0344 9.50486 35.0459 10.0423C35.0754 11.3783 35.0395 12.7143 35.0587 14.0503C35.0869 16.0206 34.7127 15.692 36.799 15.7455C37.1643 15.7544 37.2899 15.6296 37.2834 15.2717C37.2668 14.3815 37.2783 13.49 37.2796 12.5997V12.601Z" fill="white"/>
<path id="Vector_2" d="M112.4 8.06824C112.991 6.94875 113.593 5.83563 114.17 4.70849C114.876 3.32791 115.567 1.93969 116.247 0.547641C116.424 0.184666 116.642 0.00508807 117.076 0.00636167C120.879 0.0216449 124.68 0.0127297 128.482 0.0178241C129.07 0.0178241 129.12 0.117165 128.815 0.643161C125.782 5.87893 122.754 11.1172 119.696 16.339C119.37 16.8956 119.31 17.3069 119.659 17.889C121.737 21.371 123.778 24.8772 125.822 28.3796C126.785 30.0302 127.734 31.6884 128.678 33.3492C129 33.9147 128.956 33.9809 128.286 33.9822C124.527 33.986 120.767 33.9758 117.008 33.9936C116.525 33.9962 116.278 33.8077 116.079 33.3963C114.971 31.1026 113.844 28.8177 112.721 26.5303C112.621 26.3266 112.571 26.0858 112.335 25.9508C112.103 26.1304 112.208 26.3813 112.207 26.5915C112.198 28.7782 112.182 30.9637 112.212 33.1505C112.221 33.7657 112.072 34.0076 111.397 33.9987C108.429 33.9643 105.459 33.972 102.49 33.9949C101.911 34 101.716 33.8268 101.717 33.2371C101.731 22.4115 101.731 11.5872 101.717 0.761606C101.717 0.17193 101.91 -0.00127993 102.489 0.00381447C105.457 0.0267393 108.426 0.0343808 111.395 -6.32944e-06C112.069 -0.00764792 112.219 0.231789 112.21 0.848211C112.18 3.01333 112.199 5.17845 112.199 7.34357C112.199 7.57027 112.199 7.79697 112.199 8.0224C112.264 8.03768 112.331 8.05296 112.396 8.06824H112.4Z" fill="white"/>
<path id="Vector_3" d="M0.0115942 17.0128C0.0115942 13.2136 0.0231279 9.41446 6.04077e-05 5.61659C-0.00378418 5.01417 0.17563 4.58242 0.61135 4.16596C1.90185 2.92802 3.16031 1.65697 4.41749 0.385915C4.67764 0.123554 4.95189 0.00892976 5.32097 0.0102034C9.48466 0.017845 13.6496 0.017845 17.8133 0.0102034C18.1606 0.0102034 18.4182 0.121006 18.6617 0.36299C19.9419 1.64168 21.2286 2.91401 22.5242 4.17615C22.8497 4.49327 22.9997 4.83078 22.9971 5.29691C22.9792 8.58662 22.9894 11.8763 22.9868 15.1648C22.9868 15.999 22.9728 16.0117 22.1193 16.0117C19.1935 16.013 16.2678 15.9977 13.3421 16.0232C12.7269 16.0283 12.5244 15.8296 12.5347 15.2208C12.5667 13.4594 12.5168 11.6967 12.5603 9.93663C12.577 9.25908 12.2258 9.23233 11.7248 9.24252C11.2186 9.25271 10.7675 9.18012 10.7726 9.95956C10.7995 14.6502 10.7995 19.3396 10.7726 24.0303C10.7675 24.797 11.2006 24.7371 11.7158 24.7588C12.281 24.783 12.577 24.6747 12.5603 24.0061C12.5168 22.33 12.5655 20.6527 12.536 18.9766C12.5257 18.3921 12.7269 18.2087 13.3113 18.2125C16.2793 18.2354 19.2473 18.2354 22.2166 18.2125C22.7972 18.2074 22.9997 18.3857 22.9958 18.9728C22.974 22.2192 22.9843 25.4669 22.9881 28.7133C22.9881 29.0177 22.9561 29.2915 22.7203 29.5284C21.3375 30.9128 19.9612 32.3048 18.5886 33.7007C18.3759 33.9172 18.1337 33.9835 17.8415 33.9835C13.6137 33.9796 9.3847 33.9784 5.15693 33.9847C4.83399 33.9847 4.58793 33.8828 4.36239 33.6561C3.03857 32.3303 1.71603 31.0032 0.372985 29.6978C0.0410694 29.3743 0.0103126 29.0075 0.0103126 28.5961C0.0141572 24.7333 0.0128757 20.8705 0.0128757 17.0089L0.0115942 17.0128Z" fill="white"/>
<path id="Vector_4" d="M77.2699 17.0229C77.2699 13.1613 77.2763 9.29852 77.2622 5.43697C77.2609 4.95682 77.3904 4.59639 77.7428 4.25634C78.9667 3.07317 80.1687 1.8658 81.3695 0.658424C81.8116 0.213938 82.2935 -0.0038474 82.9548 0.00124699C86.9262 0.0305398 90.8977 0.0228982 94.8691 0.00634139C95.3561 0.00379419 95.7111 0.141343 96.052 0.490309C97.2874 1.75245 98.5446 2.99548 99.8094 4.22832C100.123 4.53526 100.254 4.86257 100.253 5.29815C100.241 8.60823 100.235 11.9196 100.257 15.2297C100.261 15.8435 100.049 16.032 99.4404 16.0269C96.4941 16.0015 93.5466 16.0015 90.6004 16.0269C89.9763 16.032 89.793 15.8193 89.8045 15.2182C89.8366 13.4568 89.7994 11.6954 89.825 9.93405C89.8327 9.40041 89.6431 9.19409 89.1215 9.24885C88.9318 9.26923 88.737 9.26413 88.5461 9.25012C88.1373 9.2221 87.9784 9.39531 87.9784 9.80796C87.9873 14.6043 87.9861 19.3994 87.9784 24.1958C87.9784 24.6097 88.1411 24.7447 88.5474 24.7575C89.8161 24.8008 89.8161 24.8135 89.8161 23.5577C89.8161 22.009 89.8327 20.4591 89.8084 18.9104C89.7994 18.3818 89.9916 18.215 90.5145 18.2175C93.5248 18.2354 96.5364 18.2354 99.5467 18.2175C100.081 18.2137 100.255 18.4086 100.253 18.9231C100.239 22.2128 100.241 25.5012 100.252 28.791C100.252 29.1832 100.117 29.4723 99.8402 29.7436C98.533 31.0248 97.2323 32.3137 95.9456 33.6153C95.665 33.8981 95.3651 33.9936 94.9781 33.9923C90.8362 33.9834 86.693 33.9821 82.5511 33.9923C82.1346 33.9923 81.8283 33.8713 81.5361 33.5759C80.2789 32.3035 79.0115 31.0427 77.7287 29.7971C77.3968 29.4749 77.2635 29.1323 77.2661 28.6738C77.2789 24.7906 77.2737 20.9074 77.2737 17.0242L77.2699 17.0229Z" fill="white"/>
<path id="Vector_5" d="M63.4778 0.0152664C65.0361 0.0152664 66.5957 0.0330968 68.1541 0.00380399C68.65 -0.0051112 68.8794 0.163004 68.996 0.636783C69.7034 3.51894 70.4262 6.39727 71.1516 9.27561C71.8718 12.131 72.6035 14.9851 73.3289 17.8393C74.1119 20.9201 74.8911 24.0022 75.6754 27.0843C76.1969 29.1387 76.7185 31.193 77.2491 33.246C77.431 33.9503 77.4234 33.9834 76.7224 33.9847C73.9248 33.9885 71.1272 33.9771 68.3296 33.9949C67.8427 33.9974 67.5928 33.8484 67.4825 33.3619C67.2147 32.1838 66.8815 31.0198 66.6226 29.8391C66.4894 29.2316 66.2459 28.9387 65.5577 28.9642C64.1288 29.0164 62.696 29.0087 61.2658 28.9667C60.6405 28.9476 60.4188 29.1909 60.2944 29.7691C60.0381 30.9701 59.6832 32.1507 59.4063 33.3479C59.2961 33.823 59.077 34 58.5772 33.9962C55.7796 33.9758 52.982 33.9885 50.1845 33.9847C49.4783 33.9847 49.4181 33.8892 49.5975 33.1849C50.4036 30.0213 51.2007 26.8551 52.0132 23.694C53.2422 18.9104 54.4866 14.1318 55.7143 9.3482C56.4524 6.47369 57.1842 3.59663 57.8839 0.711925C58.0146 0.173193 58.2491 -0.0076584 58.7989 0.00380399C60.3572 0.035644 61.9169 0.0152664 63.4752 0.0152664H63.4778ZM63.5444 17.7769C63.4842 17.782 63.4239 17.7871 63.365 17.7934C63.1958 18.42 63.0267 19.0454 62.8562 19.672C62.8229 19.793 62.778 19.9127 62.7524 20.035C62.4884 21.2844 62.5243 21.3239 63.834 21.2016C63.8968 21.1952 63.9609 21.1939 64.0237 21.1838C64.2275 21.1481 64.3249 21.0246 64.2774 20.8246C64.0365 19.8083 63.7892 18.7932 63.5444 17.7782V17.7769Z" fill="white"/>
</g>
<defs>
<clipPath id="clip0_719_5600">
<rect width="129" height="34" fill="white"/>
</clipPath>
</defs>
</svg>
