<svg width="1858" height="430" viewBox="0 0 1858 430" fill="none" xmlns="http://www.w3.org/2000/svg">
<g style="mix-blend-mode:exclusion" clip-path="url(#clip0_862_95)">
<path d="M151.053 0.10786V2.67103e-06H107.843V0.0719074M107.843 0.0719074V-0.0359497C97.0769 -0.0359497 75.4363 -0.0359497 64.6339 -0.0359497V0.035955C64.0938 0.035955 63.6257 0.035955 63.2656 0.10786C51.9592 0.826907 43.0293 10.1386 43.0293 21.5355C43.0293 26.7126 43.0293 26.7126 43.0293 21.5355C43.0293 33.3998 33.3432 43.035 21.4246 43.035V43.2148C-7.16553 44.1855 -7.16553 85.2071 21.4246 86.1779V86.3576C33.3432 86.3576 43.0293 95.9569 43.0293 107.857C43.0293 107.785 43.0293 107.713 43.0293 107.641C42.8852 119.11 51.8872 128.602 63.2656 129.285C63.6257 129.321 64.0578 129.357 64.5979 129.357V129.429H86.2026L107.807 129.536C119.726 129.536 129.412 139.136 129.412 151.036C129.412 162.9 119.726 172.5 107.807 172.5L86.2026 172.607H64.5979C53.8676 172.607 32.1549 172.607 21.3886 172.679C-7.23755 173.65 -7.20154 214.708 21.3886 215.642C40.6528 215.75 66.9384 215.75 86.2026 215.75H107.807C120.518 215.858 130.348 204.677 129.412 192.237C129.412 192.489 129.412 193.136 129.412 194.179C129.412 182.315 139.098 172.679 151.017 172.679V172.5C179.643 171.493 179.607 130.507 151.017 129.536V129.357C139.098 129.357 129.412 119.721 129.412 107.857C129.412 108.684 129.412 109.223 129.412 109.403C130.204 97.0355 120.338 86.2138 107.807 86.2857H86.2026L64.5979 86.2138C52.6433 86.2138 42.9933 76.5786 42.9933 64.7143C42.9933 52.85 52.6433 43.1429 64.5979 43.1429H86.2026C105.431 43.1429 131.752 43.1429 150.981 43.1429V43.071C148.748 43.071 146.588 42.7474 144.571 42.1002C158.11 46.5224 172.873 35.8445 172.585 21.5714C172.585 9.70715 162.935 0.0719074 150.981 0.0719074" fill="white"/>
<path d="M626.211 64.8221C626.211 76.6864 635.933 86.3936 647.815 86.3936C647.96 86.3936 648.104 86.3936 648.212 86.3936C660.022 86.4655 669.564 96.0648 669.564 107.857C669.564 108.145 669.564 108.468 669.6 108.756C669.6 108.468 669.564 108.217 669.564 107.929V194.107C669.564 205.971 679.394 215.606 691.241 215.606C703.087 215.606 712.773 205.971 712.773 194.107V150.964L712.593 129.465V107.893C712.593 108.181 712.593 108.432 712.557 108.72C712.557 108.432 712.593 108.073 712.593 107.821C712.593 95.9569 702.871 86.3576 690.989 86.3576C679.106 86.3576 669.564 76.5426 669.564 64.7143V21.6074C669.564 9.74309 659.914 0.107849 648.032 0.107849C636.149 0.107849 626.175 9.81499 626.175 21.6793" fill="white"/>
<path d="M216.119 87.6879C228.05 87.6879 237.723 78.03 237.723 66.1164C237.723 54.2029 228.05 44.545 216.119 44.545C204.187 44.545 194.514 54.2029 194.514 66.1164C194.514 78.03 204.187 87.6879 216.119 87.6879Z" fill="white"/>
<path d="M215.938 172.751C203.948 172.751 194.262 182.458 194.262 194.395C194.262 206.331 203.948 216.038 215.938 216.038C227.929 216.038 237.579 206.367 237.579 194.395C237.579 182.422 227.893 172.751 215.938 172.751Z" fill="white"/>
<path d="M215.938 172.571C227.893 172.571 237.579 162.9 237.579 150.964C237.579 139.028 227.893 129.321 215.938 129.321C203.984 129.321 194.262 138.992 194.262 150.964C194.262 162.936 203.948 172.571 215.938 172.571Z" fill="white"/>
<path d="M777.587 108.109C777.443 119.865 767.793 129.429 755.983 129.429H734.378V215.714H777.587H803.333C813.127 217.728 820.473 226.392 820.473 236.782L820.797 258.893H907.215V215.75H842.401C833.003 215.75 823.677 209.351 821.085 198.637V188.57C823.029 180.553 829.439 174.297 837.54 172.571H864.258V129.5H842.401C831.743 129.5 822.885 121.699 821.193 111.524L820.797 86.3217H777.587M837.612 129.429C837.612 129.429 837.396 129.429 837.288 129.5C837.288 129.5 837.504 129.5 837.612 129.429ZM798.94 171.888C788.498 171.888 779.82 164.482 777.839 154.667V146.182C779.532 137.841 786.013 131.262 794.331 129.429H803.549C828.358 135.253 824.686 171.421 798.94 171.888Z" fill="white"/>
<path d="M345.566 129.357L323.962 86.2857H280.752L302.429 129.357H345.566Z" fill="white"/>
<path d="M259.148 172.571L280.824 215.642H323.962L302.357 172.571H323.89L302.285 129.5H259.112L280.752 172.571H259.148Z" fill="white"/>
<path d="M388.74 172.643H410.272L388.668 129.536H345.458L367.135 172.643H345.53L367.207 215.714H410.344L388.74 172.643Z" fill="white"/>
<path d="M475.158 172.643H496.691L475.086 129.536H431.877L453.554 172.643H431.949L453.626 215.714H496.763L475.158 172.643Z" fill="white"/>
<path d="M431.949 129.357L410.344 86.2857H367.171L388.812 129.357H431.949Z" fill="white"/>
<path d="M550.775 172.571C544.797 172.571 539.972 177.389 539.972 183.357C539.972 189.325 544.797 194.143 550.775 194.143C556.752 194.143 561.577 189.325 561.577 183.357C561.577 177.389 556.752 172.571 550.775 172.571Z" fill="white"/>
<path d="M529.17 172.571C523.193 172.571 518.368 177.389 518.368 183.357C518.368 189.325 523.193 194.143 529.17 194.143C535.147 194.143 539.972 189.325 539.972 183.357C539.972 177.389 535.147 172.571 529.17 172.571Z" fill="white"/>
<path d="M518.368 204.929C518.368 210.825 523.121 215.606 529.026 215.714C523.121 215.786 518.368 220.568 518.368 226.5C518.368 232.468 523.193 237.286 529.17 237.286C535.147 237.286 539.972 232.468 539.972 226.5C539.972 220.604 535.219 215.822 529.314 215.714C535.219 215.642 539.972 210.861 539.972 204.929C539.972 198.996 535.147 194.143 529.17 194.143C523.193 194.143 518.368 198.96 518.368 204.929Z" fill="white"/>
<path d="M550.631 215.714C544.725 215.786 539.972 220.568 539.972 226.5C539.972 232.432 544.797 237.286 550.775 237.286C556.752 237.286 561.577 232.468 561.577 226.5C561.577 220.532 556.824 215.822 550.919 215.714C556.824 215.642 561.577 210.861 561.577 204.929C561.577 198.996 556.752 194.143 550.775 194.143C544.797 194.143 539.972 198.96 539.972 204.929C539.972 210.897 544.725 215.606 550.631 215.714Z" fill="white"/>
<path d="M593.984 194.143C599.961 194.143 604.786 189.325 604.786 183.357C604.786 177.389 599.961 172.571 593.984 172.571C588.007 172.571 583.182 177.389 583.182 183.357C583.182 189.325 588.007 194.143 593.984 194.143Z" fill="white"/>
<path d="M572.379 172.571C566.402 172.571 561.577 177.389 561.577 183.357C561.577 189.325 566.402 194.143 572.379 194.143C578.357 194.143 583.182 189.325 583.182 183.357C583.182 177.389 578.357 172.571 572.379 172.571Z" fill="white"/>
<path d="M561.577 204.929C561.577 210.897 566.402 215.714 572.379 215.714C578.357 215.714 583.182 210.897 583.182 204.929C583.182 198.96 578.357 194.143 572.379 194.143C566.402 194.143 561.577 198.96 561.577 204.929Z" fill="white"/>
<path d="M593.984 215.714C599.961 215.714 604.786 210.897 604.786 204.929C604.786 198.96 599.961 194.143 593.984 194.143C588.007 194.143 583.182 198.96 583.182 204.929C583.182 210.897 588.007 215.714 593.984 215.714Z" fill="white"/>
<path d="M637.193 151C643.17 151 647.996 146.182 647.996 140.214C647.996 134.246 643.17 129.429 637.193 129.429C631.216 129.429 626.391 134.246 626.391 140.214C626.391 146.182 631.216 151 637.193 151Z" fill="white"/>
<path d="M626.391 140.214C626.391 134.246 621.566 129.429 615.589 129.429C609.611 129.429 604.786 134.246 604.786 140.214C604.786 146.182 609.611 151 615.589 151C621.566 151 626.391 146.182 626.391 140.214Z" fill="white"/>
<path d="M615.589 151C609.611 151 604.786 155.818 604.786 161.786C604.786 167.754 609.611 172.571 615.589 172.571C621.566 172.571 626.391 167.754 626.391 161.786C626.391 155.818 621.566 151 615.589 151Z" fill="white"/>
<path d="M637.193 172.571C643.17 172.571 647.996 167.754 647.996 161.786C647.996 155.818 643.17 151 637.193 151C631.216 151 626.391 155.818 626.391 161.786C626.391 167.754 631.216 172.571 637.193 172.571Z" fill="white"/>
<path d="M593.984 107.857C599.961 107.857 604.786 103.04 604.786 97.0714C604.786 91.1033 599.961 86.2857 593.984 86.2857C588.007 86.2857 583.182 91.1033 583.182 97.0714C583.182 103.04 588.007 107.857 593.984 107.857Z" fill="white"/>
<path d="M583.182 97.0714C583.182 91.1033 578.357 86.2857 572.379 86.2857C566.402 86.2857 561.577 91.1033 561.577 97.0714C561.577 103.04 566.402 107.857 572.379 107.857C578.357 107.857 583.182 103.04 583.182 97.0714Z" fill="white"/>
<path d="M572.379 129.429C578.345 129.429 583.182 124.6 583.182 118.643C583.182 112.686 578.345 107.857 572.379 107.857C566.413 107.857 561.577 112.686 561.577 118.643C561.577 124.6 566.413 129.429 572.379 129.429Z" fill="white"/>
<path d="M593.984 129.429C599.961 129.429 604.786 124.611 604.786 118.643C604.786 112.675 599.961 107.857 593.984 107.857C588.007 107.857 583.182 112.675 583.182 118.643C583.182 124.611 588.007 129.429 593.984 129.429Z" fill="white"/>
<path d="M518.368 248.071C518.368 254.04 523.193 258.857 529.17 258.857C535.147 258.857 539.972 254.04 539.972 248.071C539.972 242.103 535.147 237.286 529.17 237.286C523.193 237.286 518.368 242.103 518.368 248.071Z" fill="white"/>
<path d="M550.775 258.857C556.752 258.857 561.577 254.04 561.577 248.071C561.577 242.103 556.752 237.286 550.775 237.286C544.797 237.286 539.972 242.103 539.972 248.071C539.972 254.04 544.797 258.857 550.775 258.857Z" fill="white"/>
<path d="M539.972 269.643C539.972 275.611 544.797 280.429 550.775 280.429C556.752 280.429 561.577 275.611 561.577 269.643C561.577 263.675 556.752 258.857 550.775 258.857C544.797 258.857 539.972 263.675 539.972 269.643Z" fill="white"/>
<path d="M529.17 258.857C523.193 258.857 518.368 263.675 518.368 269.643C518.368 275.611 523.193 280.429 529.17 280.429C535.147 280.429 539.972 275.611 539.972 269.643C539.972 263.675 535.147 258.857 529.17 258.857Z" fill="white"/>
<path d="M518.368 291.214C518.368 297.182 523.193 302 529.17 302C535.147 302 539.972 297.182 539.972 291.214C539.972 285.246 535.147 280.429 529.17 280.429C523.193 280.429 518.368 285.246 518.368 291.214Z" fill="white"/>
<path d="M550.775 302C556.752 302 561.577 297.182 561.577 291.214C561.577 285.246 556.752 280.429 550.775 280.429C544.797 280.429 539.972 285.246 539.972 291.214C539.972 297.182 544.797 302 550.775 302Z" fill="white"/>
<path d="M550.775 151C556.752 151 561.577 146.182 561.577 140.214C561.577 134.246 556.752 129.429 550.775 129.429C544.797 129.429 539.972 134.246 539.972 140.214C539.972 146.182 544.797 151 550.775 151Z" fill="white"/>
<path d="M539.972 140.214C539.972 134.246 535.147 129.429 529.17 129.429C523.193 129.429 518.368 134.246 518.368 140.214C518.368 146.182 523.193 151 529.17 151C535.147 151 539.972 146.182 539.972 140.214Z" fill="white"/>
<path d="M539.972 161.786C539.972 155.818 535.147 151 529.17 151C523.193 151 518.368 155.818 518.368 161.786C518.368 167.754 523.193 172.571 529.17 172.571C535.147 172.571 539.972 167.754 539.972 161.786Z" fill="white"/>
<path d="M550.775 172.571C556.752 172.571 561.577 167.754 561.577 161.786C561.577 155.818 556.752 151 550.775 151C544.797 151 539.972 155.818 539.972 161.786C539.972 167.754 544.797 172.571 550.775 172.571Z" fill="white"/>
<path d="M1069.18 193.747C1075.12 193.747 1079.94 188.935 1079.94 182.998C1079.94 177.061 1075.12 172.248 1069.18 172.248C1063.23 172.248 1058.41 177.061 1058.41 182.998C1058.41 188.935 1063.23 193.747 1069.18 193.747Z" fill="white"/>
<path d="M1047.61 172.248C1041.63 172.248 1036.84 177.065 1036.84 182.998C1036.84 188.93 1041.67 193.747 1047.61 193.747C1053.55 193.747 1058.38 188.93 1058.38 182.998C1058.38 177.03 1053.55 172.248 1047.61 172.248Z" fill="white"/>
<path d="M1036.84 204.533C1036.84 210.465 1041.67 215.283 1047.61 215.283C1053.55 215.283 1058.38 210.465 1058.38 204.533C1058.38 198.601 1053.55 193.783 1047.61 193.783C1041.67 193.783 1036.84 198.601 1036.84 204.533Z" fill="white"/>
<path d="M1069.18 215.319C1075.12 215.319 1079.94 210.501 1079.94 204.569C1079.94 198.637 1075.12 193.819 1069.18 193.819C1063.24 193.819 1058.41 198.637 1058.41 204.569C1058.41 210.501 1063.24 215.319 1069.18 215.319Z" fill="white"/>
<path d="M1036.84 161.462C1036.84 167.394 1041.67 172.212 1047.61 172.212C1053.55 172.212 1058.38 167.394 1058.38 161.462C1058.38 155.53 1053.55 150.712 1047.61 150.712C1041.67 150.712 1036.84 155.53 1036.84 161.462Z" fill="white"/>
<path d="M1069.18 172.248C1075.12 172.248 1079.94 167.43 1079.94 161.498C1079.94 155.566 1075.12 150.748 1069.18 150.748C1063.24 150.748 1058.41 155.566 1058.41 161.498C1058.41 167.43 1063.24 172.248 1069.18 172.248Z" fill="white"/>
<path d="M1047.68 43.0709C1053.59 43.035 1058.38 38.2174 1058.38 32.3212C1058.38 26.425 1053.55 21.5714 1047.61 21.5714C1041.67 21.5714 1036.84 26.389 1036.84 32.3212C1036.84 38.2533 1041.63 43.035 1047.54 43.0709C1041.6 43.1069 1036.84 47.8886 1036.84 53.8207C1036.84 59.7529 1041.67 64.5705 1047.61 64.5705C1053.55 64.5705 1058.38 59.7529 1058.38 53.8207C1058.38 47.8886 1053.59 43.1069 1047.68 43.0709Z" fill="white"/>
<path d="M1036.84 75.3562C1036.84 81.2883 1041.63 86.07 1047.54 86.1059C1041.6 86.1419 1036.84 90.9236 1036.84 96.8557C1036.84 102.788 1041.67 107.605 1047.61 107.605C1053.55 107.605 1058.38 102.788 1058.38 96.8557C1058.38 90.9236 1053.59 86.1419 1047.68 86.1059C1053.59 86.07 1058.38 81.2524 1058.38 75.3562C1058.38 69.46 1053.55 64.6064 1047.61 64.6064C1041.67 64.6064 1036.84 69.424 1036.84 75.3562Z" fill="white"/>
<path d="M1069.11 86.1059C1063.16 86.1419 1058.41 90.9236 1058.41 96.8557C1058.41 102.788 1063.24 107.605 1069.18 107.605C1075.12 107.605 1079.94 102.788 1079.94 96.8557C1079.94 90.9236 1075.16 86.1419 1069.25 86.1059C1075.16 86.07 1079.94 81.2524 1079.94 75.3562C1079.94 69.46 1075.12 64.6064 1069.18 64.6064C1063.24 64.6064 1058.41 69.424 1058.41 75.3562C1058.41 81.2883 1063.2 86.07 1069.11 86.1059Z" fill="white"/>
<path d="M1036.84 118.427C1036.84 124.359 1041.63 129.141 1047.54 129.177C1041.6 129.213 1036.84 133.995 1036.84 139.927C1036.84 145.859 1041.67 150.676 1047.61 150.676C1053.55 150.676 1058.38 145.859 1058.38 139.927C1058.38 133.995 1053.59 129.213 1047.68 129.177C1053.59 129.141 1058.38 124.323 1058.38 118.427C1058.38 112.531 1053.55 107.677 1047.61 107.677C1041.67 107.677 1036.84 112.495 1036.84 118.427Z" fill="white"/>
<path d="M1069.11 129.177C1063.16 129.213 1058.41 133.995 1058.41 139.927C1058.41 145.859 1063.24 150.676 1069.18 150.676C1075.12 150.676 1079.94 145.859 1079.94 139.927C1079.94 133.995 1075.16 129.213 1069.25 129.177C1075.16 129.141 1079.94 124.323 1079.94 118.427C1079.94 112.531 1075.12 107.677 1069.18 107.677C1063.24 107.677 1058.41 112.495 1058.41 118.427C1058.41 124.359 1063.2 129.141 1069.11 129.177Z" fill="white"/>
<path d="M1069.18 21.5355C1075.12 21.5355 1079.94 16.7179 1079.94 10.7857C1079.94 4.85357 1075.12 0.0359497 1069.18 0.0359497C1063.24 0.0359497 1058.41 4.85357 1058.41 10.7857C1058.41 16.7179 1063.24 21.5355 1069.18 21.5355Z" fill="white"/>
<path d="M1058.41 10.7857C1058.41 4.81762 1053.59 0.0359497 1047.65 0.0359497C1041.7 0.0359497 1036.88 4.85357 1036.88 10.7857C1036.88 16.7179 1041.7 21.5355 1047.65 21.5355C1053.59 21.5355 1058.41 16.7179 1058.41 10.7857Z" fill="white"/>
<path d="M1069.11 43.0709C1063.16 43.1069 1058.41 47.8886 1058.41 53.8207C1058.41 59.7529 1063.24 64.5705 1069.18 64.5705C1075.12 64.5705 1079.94 59.7529 1079.94 53.8207C1079.94 47.8886 1075.16 43.1069 1069.25 43.0709C1075.16 43.035 1079.94 38.2174 1079.94 32.3212C1079.94 26.425 1075.12 21.5714 1069.18 21.5714C1063.24 21.5714 1058.41 26.389 1058.41 32.3212C1058.41 38.2533 1063.2 43.035 1069.11 43.0709Z" fill="white"/>
<path d="M1112.32 21.5355C1118.26 21.5355 1123.08 16.7226 1123.08 10.7857C1123.08 4.84878 1118.26 0.0359497 1112.32 0.0359497C1106.37 0.0359497 1101.55 4.84878 1101.55 10.7857C1101.55 16.7226 1106.37 21.5355 1112.32 21.5355Z" fill="white"/>
<path d="M1101.51 10.8217C1101.51 4.85357 1096.69 0.0718994 1090.75 0.0718994C1084.81 0.0718994 1079.98 4.88952 1079.98 10.8217C1079.98 16.7538 1084.81 21.5714 1090.75 21.5714C1096.69 21.5714 1101.51 16.7538 1101.51 10.8217Z" fill="white"/>
<path d="M1090.75 21.5714C1084.77 21.5714 1079.98 26.389 1079.98 32.3212C1079.98 38.2533 1084.81 43.0709 1090.75 43.0709C1096.69 43.0709 1101.51 38.2533 1101.51 32.3212C1101.51 26.389 1096.69 21.5714 1090.75 21.5714Z" fill="white"/>
<path d="M1112.32 21.5714C1106.34 21.5714 1101.55 26.389 1101.55 32.3212C1101.55 38.2533 1106.37 43.0709 1112.32 43.0709C1118.26 43.0709 1123.08 38.2533 1123.08 32.3212C1123.08 26.389 1118.26 21.5714 1112.32 21.5714Z" fill="white"/>
<path d="M1155.42 21.5355C1161.36 21.5355 1166.18 16.7226 1166.18 10.7857C1166.18 4.84878 1161.36 0.0359497 1155.42 0.0359497C1149.47 0.0359497 1144.65 4.84878 1144.65 10.7857C1144.65 16.7226 1149.47 21.5355 1155.42 21.5355Z" fill="white"/>
<path d="M1133.88 0C1127.91 0 1123.12 4.81762 1123.12 10.7498C1123.12 16.6819 1127.94 21.4995 1133.88 21.4995C1139.83 21.4995 1144.65 16.6819 1144.65 10.7498C1144.65 4.78167 1139.83 0 1133.88 0Z" fill="white"/>
<path d="M1123.08 32.3212C1123.08 38.2533 1127.91 43.0709 1133.85 43.0709C1139.79 43.0709 1144.61 38.2533 1144.61 32.3212C1144.61 26.389 1139.79 21.5714 1133.85 21.5714C1127.91 21.5714 1123.08 26.389 1123.08 32.3212Z" fill="white"/>
<path d="M1155.42 43.1069C1161.36 43.1069 1166.18 38.2893 1166.18 32.3571C1166.18 26.425 1161.36 21.6074 1155.42 21.6074C1149.48 21.6074 1144.65 26.425 1144.65 32.3571C1144.65 38.2893 1149.48 43.1069 1155.42 43.1069Z" fill="white"/>
<path d="M1026.08 21.5714C1032.02 21.5714 1036.84 16.7538 1036.84 10.8217C1036.84 4.88952 1032.02 0 1026.08 0C1020.14 0 1015.31 4.81762 1015.31 10.7498C1015.31 16.6819 1020.14 21.4995 1026.08 21.4995V21.5714Z" fill="white"/>
<path d="M993.742 10.8217C993.742 16.7538 998.567 21.5714 1004.51 21.5714C1010.45 21.5714 1015.27 16.7538 1015.27 10.8217C1015.27 4.85357 1010.45 0.0718994 1004.51 0.0718994C998.567 0.0718994 993.742 4.88952 993.742 10.8217Z" fill="white"/>
<path d="M1004.51 21.5714C998.531 21.5714 993.742 26.389 993.742 32.3212C993.742 38.2533 998.567 43.0709 1004.51 43.0709C1010.45 43.0709 1015.27 38.2533 1015.27 32.3212C1015.27 26.389 1010.45 21.5714 1004.51 21.5714Z" fill="white"/>
<path d="M1026.08 21.5714C1020.1 21.5714 1015.31 26.389 1015.31 32.3212C1015.31 38.2533 1020.14 43.0709 1026.08 43.0709C1032.02 43.0709 1036.84 38.2533 1036.84 32.3212C1036.84 26.389 1032.02 21.5714 1026.08 21.5714Z" fill="white"/>
<path d="M982.94 21.5355C988.886 21.5355 993.706 16.7226 993.706 10.7857C993.706 4.84878 988.886 0.0359497 982.94 0.0359497C976.994 0.0359497 972.173 4.84878 972.173 10.7857C972.173 16.7226 976.994 21.5355 982.94 21.5355Z" fill="white"/>
<path d="M972.173 10.8217C972.173 4.85357 967.348 0.0718994 961.407 0.0718994C955.466 0.0718994 950.641 4.88952 950.641 10.8217C950.641 16.7538 955.466 21.5714 961.407 21.5714C967.348 21.5714 972.173 16.7538 972.173 10.8217Z" fill="white"/>
<path d="M961.371 21.5714C955.394 21.5714 950.605 26.389 950.605 32.3212C950.605 38.2533 955.43 43.0709 961.371 43.0709C967.312 43.0709 972.137 38.2533 972.137 32.3212C972.137 26.389 967.312 21.5714 961.371 21.5714Z" fill="white"/>
<path d="M982.94 21.5714C976.962 21.5714 972.173 26.389 972.173 32.3212C972.173 38.2533 976.998 43.0709 982.94 43.0709C988.881 43.0709 993.706 38.2533 993.706 32.3212C993.706 26.389 988.881 21.5714 982.94 21.5714Z" fill="white"/>
<path d="M1771.58 236.89C1771.58 226.32 1780.08 217.548 1790.23 215.75H1814.79V172.607L1793.19 172.535C1781.2 172.535 1772.37 162.397 1772.37 150.533C1772.37 139.783 1780.33 131.082 1790.7 129.465H1815.58H1857.96V86.2857H1814.39H1771.55V111.129C1769.71 121.195 1760.64 129.429 1749.94 129.429L1728.34 129.357V172.571H1753.97C1763.12 173.974 1769.93 180.912 1771.55 189.9V197.522C1769.71 207.553 1760.64 215.714 1749.94 215.714H1728.34V258.857H1771.55" fill="white"/>
<path d="M1404.63 172.284L1426.23 215.283H1469.3L1447.73 172.284H1404.63Z" fill="white"/>
<path d="M1404.3 129.429L1425.91 172.428H1468.97L1447.44 129.429H1404.3Z" fill="white"/>
<path d="M1490.86 172.284L1512.47 215.283H1555.53L1533.97 172.284H1490.86Z" fill="white"/>
<path d="M1490.86 129.177L1512.47 172.176H1555.53L1533.97 129.177H1490.86Z" fill="white"/>
<path d="M1490.86 129.105L1469.3 86.1419H1426.16L1447.8 129.105H1490.86Z" fill="white"/>
<path d="M1371.93 64.5705C1377.88 64.5705 1382.7 59.7576 1382.7 53.8207C1382.7 47.8838 1377.88 43.071 1371.93 43.071C1365.99 43.071 1361.17 47.8838 1361.17 53.8207C1361.17 59.7576 1365.99 64.5705 1371.93 64.5705Z" fill="white"/>
<path d="M1350.36 43.035C1344.39 43.035 1339.6 47.8526 1339.6 53.7848C1339.6 59.7169 1344.42 64.5345 1350.36 64.5345C1356.3 64.5345 1361.13 59.7169 1361.13 53.7848C1361.13 47.8167 1356.3 43.035 1350.36 43.035Z" fill="white"/>
<path d="M1339.56 75.3562C1339.56 81.2883 1344.39 86.1059 1350.33 86.1059C1356.27 86.1059 1361.09 81.2883 1361.09 75.3562C1361.09 69.424 1356.27 64.6064 1350.33 64.6064C1344.39 64.6064 1339.56 69.424 1339.56 75.3562Z" fill="white"/>
<path d="M1371.93 86.1059C1377.87 86.1059 1382.7 81.2883 1382.7 75.3562C1382.7 69.424 1377.87 64.6064 1371.93 64.6064C1365.99 64.6064 1361.17 69.424 1361.17 75.3562C1361.17 81.2883 1365.99 86.1059 1371.93 86.1059Z" fill="white"/>
<path d="M1371.93 150.676C1377.87 150.676 1382.7 145.859 1382.7 139.927C1382.7 133.995 1377.87 129.177 1371.93 129.177C1365.99 129.177 1361.17 133.995 1361.17 139.927C1361.17 145.859 1365.99 150.676 1371.93 150.676Z" fill="white"/>
<path d="M1350.36 129.141C1344.39 129.141 1339.6 133.959 1339.6 139.891C1339.6 145.823 1344.42 150.64 1350.36 150.64C1356.3 150.64 1361.13 145.823 1361.13 139.891C1361.13 133.923 1356.3 129.141 1350.36 129.141Z" fill="white"/>
<path d="M1339.56 161.462C1339.56 167.394 1344.35 172.176 1350.25 172.212C1344.31 172.248 1339.56 177.03 1339.56 182.962C1339.56 188.894 1344.39 193.711 1350.33 193.711C1356.27 193.711 1361.09 188.894 1361.09 182.962C1361.09 177.03 1356.3 172.248 1350.4 172.212C1356.3 172.176 1361.09 167.358 1361.09 161.462C1361.09 155.566 1356.27 150.712 1350.33 150.712C1344.39 150.712 1339.56 155.53 1339.56 161.462Z" fill="white"/>
<path d="M1371.86 172.212C1365.92 172.248 1361.17 177.03 1361.17 182.962C1361.17 188.894 1365.99 193.711 1371.93 193.711C1377.87 193.711 1382.7 188.894 1382.7 182.962C1382.7 177.03 1377.91 172.248 1372 172.212C1377.91 172.176 1382.7 167.358 1382.7 161.462C1382.7 155.566 1377.87 150.712 1371.93 150.712C1365.99 150.712 1361.17 155.53 1361.17 161.462C1361.17 167.394 1365.95 172.176 1371.86 172.212Z" fill="white"/>
<path d="M1350.36 215.247C1356.31 215.247 1361.13 210.434 1361.13 204.497C1361.13 198.56 1356.31 193.747 1350.36 193.747C1344.42 193.747 1339.6 198.56 1339.6 204.497C1339.6 210.434 1344.42 215.247 1350.36 215.247Z" fill="white"/>
<path d="M1371.93 215.247C1377.88 215.247 1382.7 210.434 1382.7 204.497C1382.7 198.56 1377.88 193.747 1371.93 193.747C1365.99 193.747 1361.17 198.56 1361.17 204.497C1361.17 210.434 1365.99 215.247 1371.93 215.247Z" fill="white"/>
<path d="M1620.31 129.465H1577.18V172.535H1620.31V129.465Z" fill="white"/>
<path d="M1706.77 129.429H1663.63V172.5H1706.77V129.429Z" fill="white"/>
<path d="M1706.77 215.714H1663.63V258.785H1706.77V215.714Z" fill="white"/>
<path d="M1663.52 258.893H1620.38V301.964H1663.52V258.893Z" fill="white"/>
<path d="M1620.28 258.929H1577.14V302H1620.28V258.929Z" fill="white"/>
<path d="M1641.95 86.2857C1630.03 86.2857 1620.35 95.9209 1620.35 107.857C1620.35 119.793 1630.03 129.429 1641.95 129.429C1653.87 129.429 1663.56 119.757 1663.56 107.857C1663.56 95.9569 1653.87 86.2857 1641.95 86.2857Z" fill="white"/>
<path d="M1641.99 215.714C1653.92 215.714 1663.59 206.056 1663.59 194.143C1663.59 182.229 1653.92 172.571 1641.99 172.571C1630.06 172.571 1620.38 182.229 1620.38 194.143C1620.38 206.056 1630.06 215.714 1641.99 215.714Z" fill="white"/>
<path d="M1188.26 171.996V215.714H1231.43V194.251C1231.43 194.035 1231.43 193.855 1231.43 193.675V150.389C1231.43 140.25 1238.45 131.765 1247.85 129.465H1258.18C1267.62 131.765 1274.6 140.25 1274.6 150.389C1274.6 150.173 1274.6 149.993 1274.6 149.814C1274.6 150.029 1274.6 150.209 1274.6 150.389V193.675C1274.6 193.46 1274.6 193.28 1274.6 193.1C1274.6 193.316 1274.6 193.496 1274.6 193.675C1274.6 193.855 1274.6 194.071 1274.6 194.251V215.75H1317.74V194.287C1317.74 194.071 1317.74 193.891 1317.74 193.711V150.425C1317.74 150.209 1317.74 150.029 1317.74 149.85V129.572H1301.57L1296.17 129.5C1284.25 129.5 1274.57 119.002 1274.57 107.102V85.4229H1252.96V85.351C1241.04 85.351 1231.36 75.6798 1231.36 63.7795C1231.36 63.9952 1231.36 64.175 1231.36 64.3548V0H1188.22V128.674V171.996H1188.26Z" fill="white"/>
</g>
<g style="mix-blend-mode:exclusion">
<path d="M1104.42 291.703L1104.26 280.765H1105.98C1106.49 283.871 1107.49 286.195 1108.93 287.757C1110.38 289.32 1112.29 290.101 1114.67 290.101C1116.41 290.101 1117.78 289.632 1118.8 288.695C1119.81 287.757 1120.32 286.488 1120.32 284.847C1120.32 282.464 1118.19 280.726 1113.93 279.613L1113.03 279.378C1109.64 278.48 1107.37 277.464 1106.22 276.292C1105.05 275.121 1104.48 273.48 1104.48 271.331C1104.48 269.085 1105.16 267.249 1106.57 265.843C1107.96 264.437 1109.77 263.734 1112 263.734C1113.4 263.734 1114.71 263.968 1115.89 264.417C1117.06 264.867 1118.05 265.511 1118.91 266.371L1120.32 264.085H1121.71L1122.08 273.851H1120.44C1119.81 271.136 1118.8 269.085 1117.41 267.679C1116.02 266.273 1114.3 265.57 1112.23 265.57C1110.71 265.57 1109.54 265.96 1108.72 266.722C1107.88 267.503 1107.47 268.558 1107.47 269.925C1107.47 272.171 1109.6 273.831 1113.87 274.886L1114.71 275.101C1118.01 275.96 1120.28 277.015 1121.51 278.285C1122.72 279.574 1123.35 281.351 1123.35 283.656C1123.35 286.273 1122.56 288.304 1121.02 289.73C1119.46 291.156 1117.25 291.859 1114.38 291.859C1112.97 291.859 1111.61 291.605 1110.32 291.097C1109.03 290.589 1108.01 289.925 1107.27 289.085L1105.79 291.703H1104.42ZM1129.5 289.535L1134.73 289.456C1135.24 289.456 1135.61 289.359 1135.81 289.163C1136 288.968 1136.1 288.578 1136.1 287.972V275.824C1136.1 275.218 1135.96 274.808 1135.71 274.593C1135.44 274.378 1134.97 274.261 1134.28 274.261H1129.93V272.699L1139.73 272.21V287.972C1139.73 288.597 1139.81 288.988 1140.01 289.183C1140.18 289.378 1140.55 289.456 1141.1 289.456L1146.22 289.535V291.214H1129.5V289.535ZM1140.16 264.652C1140.16 265.316 1139.93 265.863 1139.48 266.331C1139.01 266.8 1138.46 267.015 1137.82 267.015C1137.15 267.015 1136.59 266.8 1136.14 266.331C1135.67 265.863 1135.46 265.316 1135.46 264.652C1135.46 264.027 1135.67 263.46 1136.14 262.992C1136.61 262.523 1137.15 262.288 1137.82 262.288C1138.44 262.288 1138.99 262.523 1139.46 262.992C1139.93 263.46 1140.16 264.027 1140.16 264.652ZM1150.4 291.214V289.535C1151 289.535 1151.41 289.456 1151.63 289.261C1151.84 289.066 1151.96 288.656 1151.96 288.011V275.824C1151.96 275.121 1151.86 274.671 1151.67 274.515C1151.47 274.359 1151.06 274.261 1150.4 274.261V272.699L1154.99 272.21V275.101C1155.53 274.203 1156.16 273.48 1156.9 272.972C1157.64 272.464 1158.4 272.21 1159.19 272.21C1160.12 272.21 1160.94 272.484 1161.63 273.031C1162.29 273.578 1162.76 274.339 1162.99 275.296C1163.66 274.242 1164.36 273.46 1165.06 272.953C1165.77 272.464 1166.57 272.21 1167.43 272.21C1168.7 272.21 1169.71 272.66 1170.49 273.558C1171.28 274.456 1171.67 275.648 1171.67 277.132V277.581V288.011C1171.67 288.636 1171.76 289.046 1172 289.242C1172.21 289.437 1172.64 289.535 1173.27 289.535V291.214H1166.82V289.535H1167.04C1167.62 289.535 1168.01 289.456 1168.21 289.261C1168.4 289.066 1168.52 288.656 1168.52 288.011V278.246C1168.52 276.839 1168.33 275.882 1167.97 275.374C1167.62 274.867 1167.02 274.613 1166.16 274.613C1165.18 274.613 1164.46 275.023 1164.03 275.824C1163.6 276.644 1163.39 278.031 1163.39 279.984V288.011C1163.39 288.656 1163.48 289.066 1163.7 289.261C1163.89 289.456 1164.3 289.535 1164.91 289.535H1165.14V291.214H1158.52V289.535H1158.76C1159.34 289.535 1159.75 289.437 1159.97 289.242C1160.16 289.046 1160.28 288.636 1160.28 288.011V278.246C1160.28 276.839 1160.08 275.882 1159.73 275.374C1159.38 274.867 1158.78 274.613 1157.92 274.613C1156.92 274.613 1156.22 275.023 1155.79 275.804C1155.36 276.605 1155.14 277.992 1155.14 279.984V288.011C1155.14 288.636 1155.24 289.046 1155.46 289.242C1155.65 289.437 1156.06 289.535 1156.67 289.535H1156.88V291.214H1150.4ZM1186.72 289.691C1188.52 289.691 1189.83 289.085 1190.67 287.855C1191.51 286.644 1191.94 284.71 1191.94 282.054C1191.94 279.378 1191.53 277.425 1190.75 276.214C1189.95 275.003 1188.7 274.378 1186.98 274.378C1185.06 274.378 1183.68 274.984 1182.82 276.175C1181.96 277.367 1181.53 279.32 1181.53 282.054C1181.53 284.749 1181.94 286.703 1182.76 287.894C1183.58 289.105 1184.91 289.691 1186.72 289.691ZM1181.26 275.687C1182.02 274.476 1182.92 273.558 1183.93 272.953C1184.95 272.367 1186.1 272.054 1187.41 272.054C1189.91 272.054 1191.96 272.992 1193.6 274.828C1195.24 276.683 1196.06 279.066 1196.06 281.976C1196.06 284.867 1195.22 287.249 1193.54 289.105C1191.86 290.98 1189.71 291.898 1187.14 291.898C1185.96 291.898 1184.93 291.683 1184.05 291.214C1183.15 290.765 1182.31 290.023 1181.53 289.007V296.331C1181.53 296.937 1181.61 297.328 1181.78 297.484C1181.94 297.66 1182.31 297.757 1182.86 297.777L1184.54 297.855V299.535H1174.77V297.855L1176.53 297.777C1177.08 297.757 1177.43 297.66 1177.6 297.464C1177.76 297.288 1177.86 296.917 1177.86 296.331V276.097C1177.86 275.413 1177.72 274.964 1177.47 274.749C1177.19 274.535 1176.65 274.417 1175.81 274.417H1175.34H1175.28C1175.08 274.456 1174.93 274.456 1174.77 274.456V272.738L1181.26 272.249V275.687ZM1207.04 289.456C1207.55 289.456 1207.92 289.359 1208.11 289.163C1208.31 288.968 1208.4 288.578 1208.4 287.972V267.054C1208.4 266.449 1208.27 266.038 1208.01 265.843C1207.74 265.648 1207.21 265.531 1206.43 265.531H1206.33C1206.1 265.511 1205.87 265.492 1205.67 265.492C1205.61 265.492 1205.47 265.511 1205.26 265.511C1204.46 265.531 1203.7 265.531 1202.99 265.531V263.929L1212.04 263.499V287.972C1212.04 288.597 1212.12 288.988 1212.31 289.183C1212.49 289.378 1212.86 289.456 1213.4 289.456H1218.48V291.214H1201.84V289.456H1207.04ZM1229.19 282.249V282.894C1229.19 285.042 1229.69 286.703 1230.73 287.913C1231.76 289.124 1233.19 289.73 1235.03 289.73C1236.55 289.73 1237.92 289.378 1239.09 288.675C1240.26 287.972 1241.28 286.878 1242.14 285.413L1243.42 286.214C1242.45 288.089 1241.22 289.515 1239.69 290.453C1238.17 291.39 1236.37 291.859 1234.3 291.859C1231.53 291.859 1229.26 290.96 1227.53 289.124C1225.79 287.288 1224.93 284.906 1224.93 281.976C1224.93 279.046 1225.79 276.663 1227.53 274.828C1229.26 272.992 1231.53 272.054 1234.3 272.054C1237.08 272.054 1239.3 272.913 1240.96 274.593C1242.62 276.273 1243.46 278.558 1243.46 281.41C1243.46 281.507 1243.44 281.644 1243.44 281.839C1243.42 282.035 1243.42 282.171 1243.42 282.249H1229.19ZM1229.19 280.531H1237.58C1238.19 280.531 1238.6 280.453 1238.81 280.277C1239.01 280.101 1239.13 279.769 1239.13 279.3C1239.13 277.523 1238.72 276.136 1237.94 275.16C1237.15 274.183 1236.04 273.695 1234.62 273.695C1232.78 273.695 1231.45 274.242 1230.59 275.316C1229.73 276.41 1229.26 278.148 1229.19 280.531ZM1288.23 289.339V291.214H1276.3V289.339H1277.1C1278.58 289.339 1279.46 289.261 1279.77 289.066C1280.06 288.871 1280.22 288.402 1280.22 287.621V267.816C1280.22 266.976 1280.12 266.449 1279.93 266.234C1279.73 266.019 1279.38 265.902 1278.85 265.902H1278.01C1276.65 265.902 1275.57 266.585 1274.81 267.953C1274.05 269.32 1273.48 271.566 1273.09 274.73H1271.49L1271.98 264.378H1292.55L1293.05 274.73H1291.41C1291 271.488 1290.42 269.203 1289.67 267.874C1288.91 266.566 1287.82 265.902 1286.41 265.902H1285.94C1285.2 265.902 1284.73 266.038 1284.56 266.292C1284.38 266.546 1284.3 267.054 1284.3 267.816V287.621C1284.3 288.363 1284.46 288.851 1284.77 289.046C1285.08 289.242 1285.98 289.339 1287.47 289.339H1288.23ZM1298.52 267.054C1298.52 266.429 1298.39 266.019 1298.15 265.824C1297.9 265.628 1297.29 265.531 1296.35 265.531L1296.14 265.511C1296 265.511 1295.89 265.492 1295.77 265.492C1295.75 265.492 1295.67 265.511 1295.53 265.511C1295.4 265.531 1295.26 265.531 1295.12 265.531V263.929L1302.19 263.499V275.824C1302.97 274.613 1303.87 273.714 1304.93 273.109C1305.96 272.523 1307.15 272.21 1308.52 272.21C1310.44 272.21 1311.92 272.777 1312.97 273.89C1314.03 275.003 1314.56 276.585 1314.56 278.617V287.972C1314.56 288.558 1314.64 288.949 1314.81 289.144C1314.97 289.339 1315.34 289.437 1315.89 289.456L1317.6 289.535V291.214H1307.88V289.535L1309.6 289.456C1310.14 289.437 1310.49 289.32 1310.67 289.124C1310.83 288.929 1310.92 288.558 1310.92 287.972V278.46C1310.92 277.191 1310.61 276.253 1310.03 275.628C1309.44 275.003 1308.54 274.691 1307.33 274.691C1305.61 274.691 1304.32 275.257 1303.46 276.371C1302.6 277.484 1302.19 279.144 1302.19 281.371V287.972C1302.19 288.597 1302.27 288.988 1302.45 289.163C1302.62 289.339 1302.97 289.437 1303.52 289.456L1305.24 289.535V291.214H1295.47V289.535L1297.19 289.456C1297.74 289.437 1298.09 289.339 1298.27 289.144C1298.42 288.949 1298.52 288.558 1298.52 287.972V267.054ZM1322.31 289.535L1327.55 289.456C1328.05 289.456 1328.42 289.359 1328.62 289.163C1328.81 288.968 1328.91 288.578 1328.91 287.972V275.824C1328.91 275.218 1328.78 274.808 1328.52 274.593C1328.25 274.378 1327.78 274.261 1327.1 274.261H1322.74V272.699L1332.55 272.21V287.972C1332.55 288.597 1332.62 288.988 1332.82 289.183C1332.99 289.378 1333.37 289.456 1333.91 289.456L1339.03 289.535V291.214H1322.31V289.535ZM1332.97 264.652C1332.97 265.316 1332.74 265.863 1332.29 266.331C1331.82 266.8 1331.28 267.015 1330.63 267.015C1329.97 267.015 1329.4 266.8 1328.95 266.331C1328.48 265.863 1328.27 265.316 1328.27 264.652C1328.27 264.027 1328.48 263.46 1328.95 262.992C1329.42 262.523 1329.97 262.288 1330.63 262.288C1331.26 262.288 1331.8 262.523 1332.27 262.992C1332.74 263.46 1332.97 264.027 1332.97 264.652ZM1345.4 289.456C1345.94 289.437 1346.3 289.339 1346.47 289.144C1346.63 288.949 1346.72 288.558 1346.72 287.972V275.824C1346.72 275.199 1346.59 274.769 1346.31 274.574C1346.04 274.378 1345.46 274.261 1344.52 274.261H1343.97H1343.48V272.699L1350.16 272.21V276.058C1351.06 274.73 1352.04 273.753 1353.09 273.128C1354.13 272.523 1355.32 272.21 1356.69 272.21C1358.6 272.21 1360.08 272.777 1361.14 273.871C1362.19 274.984 1362.72 276.566 1362.72 278.617V287.972C1362.72 288.558 1362.8 288.949 1362.96 289.144C1363.11 289.339 1363.48 289.437 1364.05 289.456L1365.61 289.535V291.214H1356.12V289.535L1357.76 289.456C1358.31 289.437 1358.66 289.339 1358.81 289.144C1358.97 288.949 1359.07 288.558 1359.09 287.972V278.46C1359.09 277.269 1358.78 276.351 1358.15 275.687C1357.53 275.023 1356.63 274.691 1355.49 274.691C1353.78 274.691 1352.49 275.257 1351.63 276.371C1350.77 277.484 1350.36 279.144 1350.36 281.371V287.972C1350.36 288.597 1350.44 288.988 1350.61 289.163C1350.79 289.339 1351.14 289.437 1351.69 289.456L1353.37 289.535V291.214H1343.89V289.535L1345.4 289.456ZM1375.75 291.527C1374.83 291.663 1374.09 292.035 1373.5 292.64C1372.92 293.246 1372.62 293.968 1372.62 294.808C1372.62 295.746 1373.03 296.468 1373.89 296.937C1374.75 297.425 1376 297.66 1377.66 297.66C1380.12 297.66 1381.94 297.386 1383.11 296.8C1384.28 296.234 1384.87 295.355 1384.87 294.144C1384.87 293.226 1384.56 292.562 1383.93 292.152C1383.31 291.742 1382.23 291.527 1380.67 291.527H1375.75ZM1378.31 273.812C1376.9 273.812 1375.89 274.222 1375.22 275.003C1374.56 275.785 1374.22 277.015 1374.22 278.656C1374.22 280.238 1374.56 281.41 1375.22 282.191C1375.89 282.972 1376.92 283.343 1378.31 283.343C1379.71 283.343 1380.73 282.972 1381.39 282.191C1382.06 281.429 1382.39 280.218 1382.39 278.578C1382.39 276.956 1382.06 275.765 1381.39 274.984C1380.73 274.203 1379.69 273.812 1378.31 273.812ZM1384.03 273.089C1384.73 272.484 1385.36 272.054 1385.9 271.8C1386.45 271.546 1387 271.41 1387.58 271.41C1388.37 271.41 1388.95 271.624 1389.36 272.054C1389.77 272.484 1389.99 273.089 1389.99 273.89C1389.99 274.398 1389.81 274.828 1389.48 275.14C1389.15 275.453 1388.72 275.609 1388.19 275.609C1387.37 275.609 1386.82 275.257 1386.55 274.535C1386.28 273.831 1386.1 273.46 1386.06 273.46C1385.98 273.46 1385.89 273.499 1385.77 273.578C1385.65 273.656 1385.51 273.753 1385.36 273.89L1384.54 274.535C1385.03 275.081 1385.38 275.667 1385.61 276.292C1385.83 276.917 1385.94 277.64 1385.94 278.499C1385.94 280.609 1385.12 282.23 1383.52 283.363C1381.92 284.496 1379.6 285.062 1376.59 285.062C1375.16 285.062 1374.17 285.199 1373.62 285.472C1373.05 285.746 1372.78 286.214 1372.78 286.859C1372.78 287.406 1372.97 287.777 1373.4 288.011C1373.81 288.246 1374.56 288.343 1375.63 288.343H1376.02L1379.26 288.246H1381.43C1383.7 288.246 1385.34 288.636 1386.35 289.417C1387.35 290.199 1387.86 291.449 1387.86 293.167C1387.86 295.238 1386.96 296.8 1385.18 297.874C1383.4 298.968 1380.83 299.496 1377.47 299.496C1374.85 299.496 1372.8 299.144 1371.35 298.402C1369.91 297.66 1369.19 296.644 1369.19 295.335C1369.19 294.437 1369.54 293.656 1370.26 292.992C1370.96 292.328 1371.96 291.839 1373.23 291.566C1372.14 291.331 1371.35 290.921 1370.87 290.355C1370.38 289.788 1370.14 289.007 1370.14 288.011C1370.14 286.937 1370.47 286.038 1371.18 285.316C1371.88 284.613 1372.84 284.163 1374.07 283.968C1372.96 283.48 1372.12 282.777 1371.53 281.859C1370.94 280.941 1370.67 279.867 1370.67 278.617C1370.67 276.663 1371.35 275.081 1372.76 273.871C1374.17 272.66 1376 272.054 1378.31 272.054C1379.34 272.054 1380.28 272.191 1381.1 272.425C1381.92 272.679 1382.7 273.07 1383.42 273.578L1384.03 273.089ZM1397.8 289.984L1396.45 291.82H1395.12V283.89H1396.57C1397.06 285.882 1397.96 287.445 1399.26 288.558C1400.55 289.671 1402.14 290.218 1403.97 290.218C1405.34 290.218 1406.43 289.906 1407.27 289.281C1408.09 288.656 1408.52 287.835 1408.52 286.82C1408.52 285.374 1407.04 284.359 1404.11 283.792L1403.17 283.617C1399.97 282.992 1397.86 282.23 1396.86 281.331C1395.87 280.433 1395.38 279.163 1395.38 277.503C1395.38 275.843 1395.94 274.535 1397.1 273.558C1398.25 272.581 1399.81 272.093 1401.8 272.093C1402.92 272.093 1403.91 272.23 1404.81 272.464C1405.69 272.718 1406.55 273.109 1407.37 273.656L1408.52 272.249H1409.77V278.89H1408.52C1408.03 277.288 1407.21 276.058 1406.06 275.179C1404.89 274.3 1403.5 273.851 1401.88 273.851C1400.63 273.851 1399.62 274.085 1398.87 274.554C1398.13 275.023 1397.76 275.628 1397.76 276.371C1397.76 277.953 1399.34 279.007 1402.53 279.554L1403.78 279.769C1406.63 280.316 1408.56 281.038 1409.58 281.917C1410.59 282.796 1411.12 284.046 1411.12 285.687C1411.12 287.621 1410.46 289.144 1409.17 290.257C1407.86 291.39 1406.08 291.937 1403.81 291.937C1402.68 291.937 1401.61 291.781 1400.55 291.429C1399.5 291.078 1398.58 290.609 1397.8 289.984ZM1110.63 331.621C1110.63 332.734 1111.63 333.3 1113.66 333.32C1114.22 333.32 1114.67 333.339 1115.03 333.339V335.214H1102.78V333.339C1102.96 333.339 1103.21 333.339 1103.52 333.32C1105.53 333.32 1106.55 332.753 1106.55 331.621V311.972C1106.55 310.859 1105.55 310.292 1103.6 310.253H1102.78V308.378H1124.19L1124.64 317.929H1122.84C1122.37 314.765 1121.65 312.695 1120.67 311.679C1119.69 310.683 1117.29 310.175 1113.46 310.175C1112.23 310.175 1111.45 310.292 1111.12 310.527C1110.79 310.761 1110.63 311.191 1110.63 311.855V320.331H1111.39C1113.19 320.331 1114.46 319.98 1115.18 319.257C1115.89 318.535 1116.31 317.206 1116.47 315.253H1118.23V327.167H1116.47C1116.31 325.234 1115.89 323.906 1115.18 323.183C1114.46 322.46 1113.19 322.089 1111.39 322.089H1110.63V331.621ZM1132.78 326.249V326.894C1132.78 329.042 1133.29 330.703 1134.32 331.913C1135.36 333.124 1136.78 333.73 1138.62 333.73C1140.14 333.73 1141.51 333.378 1142.68 332.675C1143.85 331.972 1144.87 330.878 1145.73 329.413L1147.02 330.214C1146.04 332.089 1144.81 333.515 1143.29 334.453C1141.76 335.39 1139.97 335.859 1137.9 335.859C1135.12 335.859 1132.86 334.96 1131.12 333.124C1129.38 331.288 1128.52 328.906 1128.52 325.976C1128.52 323.046 1129.38 320.663 1131.12 318.828C1132.86 316.992 1135.12 316.054 1137.9 316.054C1140.67 316.054 1142.9 316.913 1144.56 318.593C1146.22 320.273 1147.06 322.558 1147.06 325.41C1147.06 325.507 1147.04 325.644 1147.04 325.839C1147.02 326.035 1147.02 326.171 1147.02 326.249H1132.78ZM1132.78 324.531H1141.18C1141.78 324.531 1142.19 324.453 1142.41 324.277C1142.6 324.101 1142.72 323.769 1142.72 323.3C1142.72 321.523 1142.31 320.136 1141.53 319.16C1140.75 318.183 1139.64 317.695 1138.21 317.695C1136.37 317.695 1135.05 318.242 1134.19 319.316C1133.33 320.41 1132.86 322.148 1132.78 324.531ZM1156.78 333.984L1155.44 335.82H1154.11V327.89H1155.55C1156.04 329.882 1156.94 331.445 1158.25 332.558C1159.54 333.671 1161.12 334.218 1162.96 334.218C1164.32 334.218 1165.42 333.906 1166.26 333.281C1167.08 332.656 1167.51 331.835 1167.51 330.82C1167.51 329.374 1166.02 328.359 1163.09 327.792L1162.15 327.617C1158.95 326.992 1156.84 326.23 1155.85 325.331C1154.85 324.433 1154.36 323.163 1154.36 321.503C1154.36 319.843 1154.93 318.535 1156.08 317.558C1157.23 316.581 1158.8 316.093 1160.79 316.093C1161.9 316.093 1162.9 316.23 1163.8 316.464C1164.67 316.718 1165.53 317.109 1166.35 317.656L1167.51 316.249H1168.76V322.89H1167.51C1167.02 321.288 1166.2 320.058 1165.05 319.179C1163.87 318.3 1162.49 317.851 1160.87 317.851C1159.62 317.851 1158.6 318.085 1157.86 318.554C1157.12 319.023 1156.74 319.628 1156.74 320.371C1156.74 321.953 1158.33 323.007 1161.51 323.554L1162.76 323.769C1165.61 324.316 1167.55 325.038 1168.56 325.917C1169.58 326.796 1170.1 328.046 1170.1 329.687C1170.1 331.621 1169.44 333.144 1168.15 334.257C1166.84 335.39 1165.06 335.937 1162.8 335.937C1161.67 335.937 1160.59 335.781 1159.54 335.429C1158.48 335.078 1157.56 334.609 1156.78 333.984ZM1180.73 328.085V318.456H1176.37V316.855H1176.69C1178.56 316.855 1180.01 316.171 1181 314.804C1182 313.437 1182.56 311.367 1182.7 308.574H1184.38V316.699H1192.7V318.456H1184.38V329.492C1184.38 330.839 1184.65 331.835 1185.2 332.46C1185.75 333.105 1186.59 333.417 1187.74 333.417C1189.28 333.417 1190.44 332.988 1191.2 332.128C1191.96 331.269 1192.41 329.882 1192.55 327.968H1193.97V328.984C1193.97 331.132 1193.29 332.831 1191.96 334.062C1190.63 335.292 1188.8 335.898 1186.45 335.898C1184.38 335.898 1182.92 335.351 1182.04 334.218C1181.16 333.085 1180.73 331.054 1180.73 328.085ZM1201.8 333.535L1207.04 333.456C1207.55 333.456 1207.92 333.359 1208.11 333.163C1208.31 332.968 1208.4 332.578 1208.4 331.972V319.824C1208.4 319.218 1208.27 318.808 1208.01 318.593C1207.74 318.378 1207.27 318.261 1206.59 318.261H1202.23V316.699L1212.04 316.21V331.972C1212.04 332.597 1212.12 332.988 1212.31 333.183C1212.49 333.378 1212.86 333.456 1213.4 333.456L1218.52 333.535V335.214H1201.8V333.535ZM1212.47 308.652C1212.47 309.316 1212.23 309.863 1211.78 310.331C1211.31 310.8 1210.77 311.015 1210.12 311.015C1209.46 311.015 1208.89 310.8 1208.44 310.331C1207.97 309.863 1207.76 309.316 1207.76 308.652C1207.76 308.027 1207.97 307.46 1208.44 306.992C1208.91 306.523 1209.46 306.288 1210.12 306.288C1210.75 306.288 1211.3 306.523 1211.76 306.992C1212.23 307.46 1212.47 308.027 1212.47 308.652ZM1226.78 319.98C1226.47 319.316 1226.14 318.886 1225.77 318.691C1225.4 318.496 1224.77 318.378 1223.89 318.378V316.699H1232.86V318.378C1231.82 318.417 1231.16 318.496 1230.89 318.613C1230.59 318.73 1230.46 318.964 1230.46 319.296C1230.46 319.394 1230.47 319.55 1230.55 319.746C1230.63 319.96 1230.75 320.234 1230.9 320.566L1235.22 330.527L1238.78 321.328C1238.91 320.976 1239.01 320.683 1239.09 320.41C1239.15 320.136 1239.19 319.921 1239.19 319.726C1239.19 319.316 1238.99 318.984 1238.62 318.73C1238.23 318.476 1237.72 318.339 1237.06 318.339C1237 318.339 1236.92 318.359 1236.8 318.359C1236.69 318.378 1236.61 318.378 1236.53 318.378V316.699H1244.3L1244.28 318.378C1243.44 318.417 1242.78 318.632 1242.29 319.023C1241.78 319.413 1241.33 320.136 1240.9 321.171L1234.93 335.859H1233.7L1226.78 319.98ZM1261.47 325.175C1258.46 325.585 1256.3 326.191 1254.97 327.011C1253.64 327.831 1252.99 328.964 1252.99 330.41C1252.99 331.581 1253.25 332.441 1253.76 332.968C1254.26 333.515 1255.06 333.769 1256.16 333.769C1257.8 333.769 1259.09 333.281 1260.05 332.265C1260.98 331.249 1261.47 329.843 1261.47 328.007V325.175ZM1265.12 321.972V331.249C1265.12 331.874 1265.24 332.324 1265.49 332.636C1265.75 332.949 1266.14 333.085 1266.65 333.085C1266.94 333.085 1267.27 333.007 1267.64 332.812C1267.99 332.636 1268.23 332.538 1268.33 332.538C1268.48 332.538 1268.6 332.597 1268.7 332.714C1268.78 332.831 1268.83 332.988 1268.83 333.183C1268.83 333.71 1268.44 334.238 1267.7 334.785C1266.96 335.331 1266.1 335.605 1265.16 335.605C1264.22 335.605 1263.46 335.351 1262.88 334.843C1262.29 334.335 1261.92 333.613 1261.76 332.656C1261.06 333.613 1260.03 334.394 1258.7 334.98C1257.37 335.566 1255.98 335.859 1254.56 335.859C1252.9 335.859 1251.57 335.429 1250.57 334.531C1249.58 333.652 1249.09 332.46 1249.09 330.976C1249.09 329.062 1250.05 327.519 1251.96 326.347C1253.87 325.175 1257.06 324.238 1261.47 323.535V320.663C1261.47 319.746 1261.1 319.042 1260.36 318.535C1259.62 318.027 1258.56 317.773 1257.19 317.773C1256.14 317.773 1255.26 317.929 1254.6 318.203C1253.93 318.476 1253.6 318.828 1253.6 319.218C1253.6 319.316 1253.76 319.57 1254.09 319.999C1254.42 320.429 1254.6 320.917 1254.6 321.445C1254.6 322.07 1254.4 322.578 1254.01 322.929C1253.62 323.281 1253.11 323.456 1252.49 323.456C1251.74 323.456 1251.16 323.261 1250.77 322.871C1250.36 322.48 1250.16 321.913 1250.16 321.171C1250.16 319.706 1250.87 318.496 1252.31 317.519C1253.74 316.542 1255.57 316.054 1257.84 316.054C1260.38 316.054 1262.23 316.523 1263.39 317.441C1264.54 318.359 1265.12 319.863 1265.12 321.972ZM1279.34 333.456C1279.85 333.456 1280.22 333.359 1280.42 333.163C1280.61 332.968 1280.71 332.578 1280.71 331.972V311.054C1280.71 310.449 1280.57 310.038 1280.32 309.843C1280.05 309.648 1279.52 309.531 1278.74 309.531H1278.64C1278.4 309.511 1278.17 309.492 1277.97 309.492C1277.92 309.492 1277.78 309.511 1277.56 309.511C1276.76 309.531 1276 309.531 1275.3 309.531V307.929L1284.34 307.499V331.972C1284.34 332.597 1284.42 332.988 1284.62 333.183C1284.79 333.378 1285.16 333.456 1285.71 333.456H1290.79V335.214H1274.15V333.456H1279.34ZM1338.74 335.214H1320.94V333.925C1322.58 331.855 1325.2 328.867 1328.81 324.98L1331.26 322.343C1332.62 320.82 1333.6 319.472 1334.15 318.3C1334.69 317.128 1334.99 315.859 1334.99 314.492C1334.99 312.89 1334.54 311.679 1333.64 310.839C1332.74 309.999 1331.43 309.57 1329.75 309.57C1328.19 309.57 1326.84 309.96 1325.75 310.742C1324.65 311.523 1324.11 312.363 1324.11 313.3C1324.11 313.769 1324.56 314.14 1325.47 314.433L1325.53 314.453C1326.1 314.648 1326.53 314.921 1326.82 315.292C1327.12 315.663 1327.27 316.132 1327.27 316.699C1327.27 317.343 1327.04 317.89 1326.57 318.359C1326.1 318.828 1325.51 319.062 1324.83 319.062C1323.83 319.062 1323.05 318.71 1322.49 318.007C1321.9 317.304 1321.63 316.328 1321.63 315.097C1321.63 313.027 1322.45 311.288 1324.11 309.882C1325.77 308.476 1327.9 307.773 1330.49 307.773C1333.21 307.773 1335.36 308.437 1336.92 309.746C1338.48 311.074 1339.26 312.851 1339.26 315.097C1339.26 316.64 1338.95 317.988 1338.35 319.121C1337.72 320.273 1336.53 321.621 1334.75 323.183L1333.85 323.886C1331.22 325.937 1328.72 328.085 1326.33 330.331L1325.1 331.503H1334.19C1335.53 331.503 1336.37 331.328 1336.69 330.937C1337 330.566 1337.33 329.453 1337.7 327.617L1337.9 326.621H1339.5L1338.74 335.214ZM1354.6 309.453C1352.84 309.453 1351.59 310.41 1350.83 312.285C1350.06 314.179 1349.69 317.343 1349.69 321.777C1349.69 326.191 1350.06 329.335 1350.83 331.21C1351.59 333.085 1352.84 334.023 1354.6 334.023C1356.35 334.023 1357.6 333.085 1358.37 331.191C1359.13 329.316 1359.52 326.171 1359.52 321.777C1359.52 317.343 1359.13 314.179 1358.37 312.285C1357.6 310.41 1356.35 309.453 1354.6 309.453ZM1345.32 321.777C1345.32 317.558 1346.18 314.14 1347.9 311.562C1349.62 308.984 1351.86 307.695 1354.6 307.695C1357.39 307.695 1359.64 308.984 1361.31 311.523C1362.99 314.081 1363.85 317.499 1363.85 321.777C1363.85 326.035 1362.99 329.453 1361.28 332.031C1359.56 334.609 1357.33 335.898 1354.6 335.898C1351.84 335.898 1349.62 334.609 1347.9 331.992C1346.18 329.394 1345.32 325.996 1345.32 321.777ZM1386.94 335.214H1369.15V333.925C1370.79 331.855 1373.4 328.867 1377.02 324.98L1379.46 322.343C1380.83 320.82 1381.8 319.472 1382.35 318.3C1382.9 317.128 1383.19 315.859 1383.19 314.492C1383.19 312.89 1382.74 311.679 1381.84 310.839C1380.94 309.999 1379.64 309.57 1377.96 309.57C1376.39 309.57 1375.05 309.96 1373.95 310.742C1372.86 311.523 1372.31 312.363 1372.31 313.3C1372.31 313.769 1372.76 314.14 1373.68 314.433L1373.74 314.453C1374.3 314.648 1374.73 314.921 1375.03 315.292C1375.32 315.663 1375.47 316.132 1375.47 316.699C1375.47 317.343 1375.24 317.89 1374.77 318.359C1374.3 318.828 1373.72 319.062 1373.03 319.062C1372.04 319.062 1371.26 318.71 1370.69 318.007C1370.1 317.304 1369.83 316.328 1369.83 315.097C1369.83 313.027 1370.65 311.288 1372.31 309.882C1373.97 308.476 1376.1 307.773 1378.7 307.773C1381.41 307.773 1383.56 308.437 1385.12 309.746C1386.69 311.074 1387.47 312.851 1387.47 315.097C1387.47 316.64 1387.15 317.988 1386.55 319.121C1385.92 320.273 1384.73 321.621 1382.96 323.183L1382.06 323.886C1379.42 325.937 1376.92 328.085 1374.54 330.331L1373.31 331.503H1382.39C1383.74 331.503 1384.58 331.328 1384.89 330.937C1385.2 330.566 1385.53 329.453 1385.9 327.617L1386.1 326.621H1387.7L1386.94 335.214ZM1404.05 314.257L1395.24 326.015H1404.05V314.257ZM1401.69 333.339H1402.17C1402.88 333.339 1403.35 333.242 1403.62 333.027C1403.87 332.831 1404.01 332.402 1404.01 331.777V328.3H1392.94V325.976L1406.33 307.773H1407.8V326.015H1412.56V328.3H1407.8V331.777C1407.8 332.421 1407.94 332.851 1408.23 333.046C1408.52 333.242 1409.17 333.339 1410.16 333.339H1411.88V335.214H1399.97V333.339H1401.69Z" fill="white"/>
</g>
<defs>
<clipPath id="clip0_862_95">
<rect width="1858" height="302" fill="white"/>
</clipPath>
</defs>
</svg>
