<svg width="378" height="392" viewBox="0 0 378 392" fill="none" xmlns="http://www.w3.org/2000/svg">
<g clip-path="url(#clip0_862_2)">
<path d="M55.067 0.546648V0.507267H39.3148V0.533521M39.3148 0.533521V0.494141C35.3899 0.494141 27.5007 0.494141 23.5626 0.494141V0.520394C23.3657 0.520394 23.1951 0.520394 23.0638 0.546648C18.942 0.809184 15.6865 4.20903 15.6865 8.37023C15.6865 10.2605 15.6865 10.2605 15.6865 8.37023C15.6865 12.7021 12.1554 16.2201 7.81045 16.2201V16.2857C-2.61225 16.6401 -2.61225 31.6178 7.81045 31.9723V32.0379C12.1554 32.0379 15.6865 35.5428 15.6865 39.8877C15.6865 39.8615 15.6865 39.8352 15.6865 39.809C15.634 43.9964 18.9157 47.4619 23.0638 47.7113C23.1951 47.7244 23.3526 47.7376 23.5495 47.7376V47.7638H31.4256L39.3017 47.8032C43.6467 47.8032 47.1778 51.3081 47.1778 55.653C47.1778 59.9849 43.6467 63.4898 39.3017 63.4898L31.4256 63.5291H23.5495C19.6377 63.5291 11.7222 63.5291 7.79732 63.5554C-2.63851 63.9098 -2.62538 78.9007 7.79732 79.242C14.8202 79.2813 24.4028 79.2813 31.4256 79.2813H39.3017C43.9355 79.3207 47.5191 75.2383 47.1778 70.6964C47.1778 70.7883 47.1778 71.0246 47.1778 71.4052C47.1778 67.0734 50.7089 63.5554 55.0539 63.5554V63.4898C65.4897 63.1222 65.4766 48.1576 55.0539 47.8032V47.7376C50.7089 47.7376 47.1778 44.2196 47.1778 39.8877C47.1778 40.1897 47.1778 40.3866 47.1778 40.4522C47.4666 35.9366 43.8698 31.9854 39.3017 32.0116H31.4256L23.5495 31.9854C19.1914 31.9854 15.6734 28.4674 15.6734 24.1356C15.6734 19.8037 19.1914 16.2595 23.5495 16.2595H31.4256C38.4353 16.2595 48.031 16.2595 55.0408 16.2595V16.2332C54.2269 16.2332 53.4393 16.1151 52.7042 15.8788C57.6399 17.4934 63.0219 13.5947 62.9169 8.38336C62.9169 4.05151 59.3989 0.533521 55.0408 0.533521" fill="white"/>
<path d="M228.289 24.1749C228.289 28.5068 231.833 32.051 236.165 32.051C236.217 32.051 236.27 32.051 236.309 32.051C240.615 32.0773 244.093 35.5821 244.093 39.8877C244.093 39.9927 244.093 40.1109 244.106 40.2159C244.106 40.1109 244.093 40.019 244.093 39.914V71.379C244.093 75.7108 247.677 79.2288 251.996 79.2288C256.314 79.2288 259.845 75.7108 259.845 71.379V55.6268L259.78 47.7769V39.9008C259.78 40.0059 259.78 40.0978 259.767 40.2028C259.767 40.0978 259.78 39.9665 259.78 39.8746C259.78 35.5427 256.236 32.0379 251.904 32.0379C247.572 32.0379 244.093 28.4543 244.093 24.1355V8.39647C244.093 4.06462 240.575 0.546631 236.243 0.546631C231.912 0.546631 228.275 4.09087 228.275 8.42273" fill="white"/>
<path d="M78.7872 32.5237C83.137 32.5237 86.6633 28.9974 86.6633 24.6476C86.6633 20.2977 83.137 16.7715 78.7872 16.7715C74.4373 16.7715 70.9111 20.2977 70.9111 24.6476C70.9111 28.9974 74.4373 32.5237 78.7872 32.5237Z" fill="white"/>
<path d="M78.7216 63.5818C74.3503 63.5818 70.8192 67.126 70.8192 71.4841C70.8192 75.8422 74.3503 79.3865 78.7216 79.3865C83.0928 79.3865 86.6108 75.8554 86.6108 71.4841C86.6108 67.1129 83.0797 63.5818 78.7216 63.5818Z" fill="white"/>
<path d="M78.7216 63.5162C83.0797 63.5162 86.6108 59.9851 86.6108 55.627C86.6108 51.2689 83.0797 47.7246 78.7216 47.7246C74.3635 47.7246 70.8192 51.2557 70.8192 55.627C70.8192 59.9982 74.3503 63.5162 78.7216 63.5162Z" fill="white"/>
<path d="M283.474 39.9798C283.421 44.2722 279.903 47.764 275.598 47.764H267.722V79.2683H283.474H292.859C296.43 80.0034 299.108 83.167 299.108 86.9607L299.226 95.0337H330.73V79.2815H307.102C303.676 79.2815 300.276 76.9449 299.331 73.0331V69.3576C300.04 66.4303 302.376 64.1462 305.33 63.5162H315.07V47.7902H307.102C303.216 47.7902 299.987 44.9417 299.37 41.2268L299.226 32.0249H283.474M305.356 47.764C305.356 47.764 305.277 47.764 305.238 47.7902C305.238 47.7902 305.317 47.7902 305.356 47.764ZM291.258 63.2667C287.451 63.2667 284.288 60.5626 283.566 56.979V53.8811C284.183 50.8356 286.545 48.4334 289.578 47.764H292.938C301.983 49.8905 300.644 63.0961 291.258 63.2667Z" fill="white"/>
<path d="M125.978 47.7377L118.102 32.0117H102.35L110.252 47.7377H125.978Z" fill="white"/>
<path d="M94.4738 63.516L102.376 79.2419H118.102L110.226 63.516H118.076L110.2 47.79H94.4606L102.35 63.516H94.4738Z" fill="white"/>
<path d="M141.717 63.5423H149.567L141.691 47.8032H125.939L133.841 63.5423H125.965L133.867 79.2682H149.593L141.717 63.5423Z" fill="white"/>
<path d="M173.222 63.5423H181.071L173.195 47.8032H157.443L165.345 63.5423H157.469L165.372 79.2682H181.098L173.222 63.5423Z" fill="white"/>
<path d="M157.469 47.7377L149.593 32.0117H133.854L141.743 47.7377H157.469Z" fill="white"/>
<path d="M200.788 63.5161C198.609 63.5161 196.85 65.2751 196.85 67.4542C196.85 69.6332 198.609 71.3922 200.788 71.3922C202.967 71.3922 204.726 69.6332 204.726 67.4542C204.726 65.2751 202.967 63.5161 200.788 63.5161Z" fill="white"/>
<path d="M192.912 63.5161C190.733 63.5161 188.974 65.2751 188.974 67.4542C188.974 69.6332 190.733 71.3922 192.912 71.3922C195.091 71.3922 196.85 69.6332 196.85 67.4542C196.85 65.2751 195.091 63.5161 192.912 63.5161Z" fill="white"/>
<path d="M188.974 75.3301C188.974 77.4829 190.706 79.2288 192.859 79.2682C190.706 79.2944 188.974 81.0403 188.974 83.2062C188.974 85.3853 190.733 87.1443 192.912 87.1443C195.091 87.1443 196.85 85.3853 196.85 83.2062C196.85 81.0534 195.117 79.3076 192.964 79.2682C195.117 79.2419 196.85 77.4961 196.85 75.3301C196.85 73.1642 195.091 71.3921 192.912 71.3921C190.733 71.3921 188.974 73.1511 188.974 75.3301Z" fill="white"/>
<path d="M200.735 79.2682C198.583 79.2944 196.85 81.0403 196.85 83.2062C196.85 85.3722 198.609 87.1443 200.788 87.1443C202.967 87.1443 204.726 85.3853 204.726 83.2062C204.726 81.0272 202.993 79.3076 200.84 79.2682C202.993 79.2419 204.726 77.4961 204.726 75.3301C204.726 73.1642 202.967 71.3921 200.788 71.3921C198.609 71.3921 196.85 73.1511 196.85 75.3301C196.85 77.5092 198.583 79.2288 200.735 79.2682Z" fill="white"/>
<path d="M216.54 71.3922C218.719 71.3922 220.478 69.6332 220.478 67.4542C220.478 65.2751 218.719 63.5161 216.54 63.5161C214.361 63.5161 212.602 65.2751 212.602 67.4542C212.602 69.6332 214.361 71.3922 216.54 71.3922Z" fill="white"/>
<path d="M208.664 63.5161C206.485 63.5161 204.726 65.2751 204.726 67.4542C204.726 69.6332 206.485 71.3922 208.664 71.3922C210.843 71.3922 212.602 69.6332 212.602 67.4542C212.602 65.2751 210.843 63.5161 208.664 63.5161Z" fill="white"/>
<path d="M204.726 75.3301C204.726 77.5092 206.485 79.2682 208.664 79.2682C210.843 79.2682 212.602 77.5092 212.602 75.3301C212.602 73.1511 210.843 71.3921 208.664 71.3921C206.485 71.3921 204.726 73.1511 204.726 75.3301Z" fill="white"/>
<path d="M216.54 79.2682C218.719 79.2682 220.478 77.5092 220.478 75.3301C220.478 73.1511 218.719 71.3921 216.54 71.3921C214.361 71.3921 212.602 73.1511 212.602 75.3301C212.602 77.5092 214.361 79.2682 216.54 79.2682Z" fill="white"/>
<path d="M232.292 55.64C234.471 55.64 236.23 53.881 236.23 51.702C236.23 49.5229 234.471 47.7639 232.292 47.7639C230.113 47.7639 228.354 49.5229 228.354 51.702C228.354 53.881 230.113 55.64 232.292 55.64Z" fill="white"/>
<path d="M228.354 51.702C228.354 49.5229 226.595 47.7639 224.416 47.7639C222.237 47.7639 220.478 49.5229 220.478 51.702C220.478 53.881 222.237 55.64 224.416 55.64C226.595 55.64 228.354 53.881 228.354 51.702Z" fill="white"/>
<path d="M224.416 55.6399C222.237 55.6399 220.478 57.3989 220.478 59.5779C220.478 61.757 222.237 63.516 224.416 63.516C226.595 63.516 228.354 61.757 228.354 59.5779C228.354 57.3989 226.595 55.6399 224.416 55.6399Z" fill="white"/>
<path d="M232.292 63.516C234.471 63.516 236.23 61.757 236.23 59.5779C236.23 57.3989 234.471 55.6399 232.292 55.6399C230.113 55.6399 228.354 57.3989 228.354 59.5779C228.354 61.757 230.113 63.516 232.292 63.516Z" fill="white"/>
<path d="M216.54 39.8878C218.719 39.8878 220.478 38.1288 220.478 35.9498C220.478 33.7707 218.719 32.0117 216.54 32.0117C214.361 32.0117 212.602 33.7707 212.602 35.9498C212.602 38.1288 214.361 39.8878 216.54 39.8878Z" fill="white"/>
<path d="M212.602 35.9498C212.602 33.7707 210.843 32.0117 208.664 32.0117C206.485 32.0117 204.726 33.7707 204.726 35.9498C204.726 38.1288 206.485 39.8878 208.664 39.8878C210.843 39.8878 212.602 38.1288 212.602 35.9498Z" fill="white"/>
<path d="M208.664 47.7638C210.839 47.7638 212.602 46.0007 212.602 43.8257C212.602 41.6508 210.839 39.8877 208.664 39.8877C206.489 39.8877 204.726 41.6508 204.726 43.8257C204.726 46.0007 206.489 47.7638 208.664 47.7638Z" fill="white"/>
<path d="M216.54 47.7638C218.719 47.7638 220.478 46.0048 220.478 43.8257C220.478 41.6467 218.719 39.8877 216.54 39.8877C214.361 39.8877 212.602 41.6467 212.602 43.8257C212.602 46.0048 214.361 47.7638 216.54 47.7638Z" fill="white"/>
<path d="M188.974 91.0823C188.974 93.2614 190.733 95.0204 192.912 95.0204C195.091 95.0204 196.85 93.2614 196.85 91.0823C196.85 88.9033 195.091 87.1443 192.912 87.1443C190.733 87.1443 188.974 88.9033 188.974 91.0823Z" fill="white"/>
<path d="M200.788 95.0204C202.967 95.0204 204.726 93.2614 204.726 91.0823C204.726 88.9033 202.967 87.1443 200.788 87.1443C198.609 87.1443 196.85 88.9033 196.85 91.0823C196.85 93.2614 198.609 95.0204 200.788 95.0204Z" fill="white"/>
<path d="M196.85 98.9586C196.85 101.138 198.609 102.897 200.788 102.897C202.967 102.897 204.726 101.138 204.726 98.9586C204.726 96.7795 202.967 95.0205 200.788 95.0205C198.609 95.0205 196.85 96.7795 196.85 98.9586Z" fill="white"/>
<path d="M192.912 95.0205C190.733 95.0205 188.974 96.7795 188.974 98.9586C188.974 101.138 190.733 102.897 192.912 102.897C195.091 102.897 196.85 101.138 196.85 98.9586C196.85 96.7795 195.091 95.0205 192.912 95.0205Z" fill="white"/>
<path d="M188.974 106.835C188.974 109.014 190.733 110.773 192.912 110.773C195.091 110.773 196.85 109.014 196.85 106.835C196.85 104.655 195.091 102.896 192.912 102.896C190.733 102.896 188.974 104.655 188.974 106.835Z" fill="white"/>
<path d="M200.788 110.773C202.967 110.773 204.726 109.014 204.726 106.835C204.726 104.655 202.967 102.896 200.788 102.896C198.609 102.896 196.85 104.655 196.85 106.835C196.85 109.014 198.609 110.773 200.788 110.773Z" fill="white"/>
<path d="M200.788 55.64C202.967 55.64 204.726 53.881 204.726 51.702C204.726 49.5229 202.967 47.7639 200.788 47.7639C198.609 47.7639 196.85 49.5229 196.85 51.702C196.85 53.881 198.609 55.64 200.788 55.64Z" fill="white"/>
<path d="M196.85 51.702C196.85 49.5229 195.091 47.7639 192.912 47.7639C190.733 47.7639 188.974 49.5229 188.974 51.702C188.974 53.881 190.733 55.64 192.912 55.64C195.091 55.64 196.85 53.881 196.85 51.702Z" fill="white"/>
<path d="M196.85 59.5779C196.85 57.3989 195.091 55.6399 192.912 55.6399C190.733 55.6399 188.974 57.3989 188.974 59.5779C188.974 61.757 190.733 63.516 192.912 63.516C195.091 63.516 196.85 61.757 196.85 59.5779Z" fill="white"/>
<path d="M200.788 63.516C202.967 63.516 204.726 61.757 204.726 59.5779C204.726 57.3989 202.967 55.6399 200.788 55.6399C198.609 55.6399 196.85 57.3989 196.85 59.5779C196.85 61.757 198.609 63.516 200.788 63.516Z" fill="white"/>
<path d="M90.4307 157.885C92.5984 157.885 94.3556 156.128 94.3556 153.96C94.3556 151.792 92.5984 150.035 90.4307 150.035C88.263 150.035 86.5058 151.792 86.5058 153.96C86.5058 156.128 88.263 157.885 90.4307 157.885Z" fill="white"/>
<path d="M82.5677 150.035C80.3887 150.035 78.6428 151.794 78.6428 153.96C78.6428 156.126 80.4018 157.885 82.5677 157.885C84.7336 157.885 86.4926 156.126 86.4926 153.96C86.4926 151.781 84.7336 150.035 82.5677 150.035Z" fill="white"/>
<path d="M78.6428 161.823C78.6428 163.989 80.4018 165.748 82.5677 165.748C84.7336 165.748 86.4926 163.989 86.4926 161.823C86.4926 159.657 84.7336 157.898 82.5677 157.898C80.4018 157.898 78.6428 159.657 78.6428 161.823Z" fill="white"/>
<path d="M90.4307 165.761C92.5966 165.761 94.3556 164.002 94.3556 161.836C94.3556 159.67 92.5966 157.911 90.4307 157.911C88.2648 157.911 86.5058 159.67 86.5058 161.836C86.5058 164.002 88.2648 165.761 90.4307 165.761Z" fill="white"/>
<path d="M78.6428 146.097C78.6428 148.263 80.4018 150.022 82.5677 150.022C84.7336 150.022 86.4926 148.263 86.4926 146.097C86.4926 143.931 84.7336 142.172 82.5677 142.172C80.4018 142.172 78.6428 143.931 78.6428 146.097Z" fill="white"/>
<path d="M90.4307 150.035C92.5966 150.035 94.3556 148.276 94.3556 146.11C94.3556 143.944 92.5966 142.185 90.4307 142.185C88.2648 142.185 86.5058 143.944 86.5058 146.11C86.5058 148.276 88.2648 150.035 90.4307 150.035Z" fill="white"/>
<path d="M82.594 102.87C84.7468 102.857 86.4926 101.098 86.4926 98.9454C86.4926 96.7926 84.7336 95.0205 82.5677 95.0205C80.4018 95.0205 78.6428 96.7795 78.6428 98.9454C78.6428 101.111 80.3887 102.857 82.5415 102.87C80.3755 102.883 78.6428 104.629 78.6428 106.795C78.6428 108.961 80.4018 110.72 82.5677 110.72C84.7336 110.72 86.4926 108.961 86.4926 106.795C86.4926 104.629 84.7468 102.883 82.594 102.87Z" fill="white"/>
<path d="M78.6428 114.658C78.6428 116.824 80.3887 118.57 82.5415 118.583C80.3755 118.596 78.6428 120.342 78.6428 122.508C78.6428 124.674 80.4018 126.433 82.5677 126.433C84.7336 126.433 86.4926 124.674 86.4926 122.508C86.4926 120.342 84.7468 118.596 82.594 118.583C84.7468 118.57 86.4926 116.811 86.4926 114.658C86.4926 112.505 84.7336 110.733 82.5677 110.733C80.4018 110.733 78.6428 112.492 78.6428 114.658Z" fill="white"/>
<path d="M90.4044 118.583C88.2385 118.596 86.5058 120.342 86.5058 122.508C86.5058 124.674 88.2648 126.433 90.4307 126.433C92.5966 126.433 94.3556 124.674 94.3556 122.508C94.3556 120.342 92.6097 118.596 90.4569 118.583C92.6097 118.57 94.3556 116.811 94.3556 114.658C94.3556 112.505 92.5966 110.733 90.4307 110.733C88.2648 110.733 86.5058 112.492 86.5058 114.658C86.5058 116.824 88.2516 118.57 90.4044 118.583Z" fill="white"/>
<path d="M78.6428 130.384C78.6428 132.55 80.3887 134.296 82.5415 134.309C80.3755 134.322 78.6428 136.068 78.6428 138.234C78.6428 140.4 80.4018 142.159 82.5677 142.159C84.7336 142.159 86.4926 140.4 86.4926 138.234C86.4926 136.068 84.7468 134.322 82.594 134.309C84.7468 134.296 86.4926 132.537 86.4926 130.384C86.4926 128.231 84.7336 126.459 82.5677 126.459C80.4018 126.459 78.6428 128.218 78.6428 130.384Z" fill="white"/>
<path d="M90.4044 134.309C88.2385 134.322 86.5058 136.068 86.5058 138.234C86.5058 140.4 88.2648 142.159 90.4307 142.159C92.5966 142.159 94.3556 140.4 94.3556 138.234C94.3556 136.068 92.6097 134.322 90.4569 134.309C92.6097 134.296 94.3556 132.537 94.3556 130.384C94.3556 128.231 92.5966 126.459 90.4307 126.459C88.2648 126.459 86.5058 128.218 86.5058 130.384C86.5058 132.55 88.2516 134.296 90.4044 134.309Z" fill="white"/>
<path d="M90.4307 95.0073C92.5966 95.0073 94.3556 93.2483 94.3556 91.0824C94.3556 88.9165 92.5966 87.1575 90.4307 87.1575C88.2648 87.1575 86.5058 88.9165 86.5058 91.0824C86.5058 93.2483 88.2648 95.0073 90.4307 95.0073Z" fill="white"/>
<path d="M86.5058 91.0824C86.5058 88.9033 84.7468 87.1575 82.5808 87.1575C80.4149 87.1575 78.6559 88.9165 78.6559 91.0824C78.6559 93.2483 80.4149 95.0073 82.5808 95.0073C84.7468 95.0073 86.5058 93.2483 86.5058 91.0824Z" fill="white"/>
<path d="M90.4044 102.87C88.2385 102.883 86.5058 104.629 86.5058 106.795C86.5058 108.961 88.2648 110.72 90.4307 110.72C92.5966 110.72 94.3556 108.961 94.3556 106.795C94.3556 104.629 92.6097 102.883 90.4569 102.87C92.6097 102.857 94.3556 101.098 94.3556 98.9454C94.3556 96.7926 92.5966 95.0205 90.4307 95.0205C88.2648 95.0205 86.5058 96.7795 86.5058 98.9454C86.5058 101.111 88.2516 102.857 90.4044 102.87Z" fill="white"/>
<path d="M106.143 95.0073C108.311 95.0073 110.068 93.2501 110.068 91.0824C110.068 88.9147 108.311 87.1575 106.143 87.1575C103.976 87.1575 102.219 88.9147 102.219 91.0824C102.219 93.2501 103.976 95.0073 106.143 95.0073Z" fill="white"/>
<path d="M102.219 91.0956C102.219 88.9165 100.46 87.1707 98.2937 87.1707C96.1277 87.1707 94.3687 88.9297 94.3687 91.0956C94.3687 93.2615 96.1277 95.0205 98.2937 95.0205C100.46 95.0205 102.219 93.2615 102.219 91.0956Z" fill="white"/>
<path d="M98.2937 95.0205C96.1146 95.0205 94.3687 96.7795 94.3687 98.9454C94.3687 101.111 96.1277 102.87 98.2937 102.87C100.46 102.87 102.219 101.111 102.219 98.9454C102.219 96.7795 100.46 95.0205 98.2937 95.0205Z" fill="white"/>
<path d="M106.143 95.0205C103.964 95.0205 102.219 96.7795 102.219 98.9454C102.219 101.111 103.978 102.87 106.143 102.87C108.309 102.87 110.068 101.111 110.068 98.9454C110.068 96.7795 108.309 95.0205 106.143 95.0205Z" fill="white"/>
<path d="M121.869 95.0073C124.037 95.0073 125.794 93.2501 125.794 91.0824C125.794 88.9147 124.037 87.1575 121.869 87.1575C119.702 87.1575 117.945 88.9147 117.945 91.0824C117.945 93.2501 119.702 95.0073 121.869 95.0073Z" fill="white"/>
<path d="M114.006 87.1575C111.827 87.1575 110.082 88.9165 110.082 91.0824C110.082 93.2483 111.841 95.0073 114.006 95.0073C116.172 95.0073 117.931 93.2483 117.931 91.0824C117.931 88.9033 116.172 87.1575 114.006 87.1575Z" fill="white"/>
<path d="M110.082 98.9454C110.082 101.111 111.841 102.87 114.006 102.87C116.172 102.87 117.931 101.111 117.931 98.9454C117.931 96.7795 116.172 95.0205 114.006 95.0205C111.841 95.0205 110.082 96.7795 110.082 98.9454Z" fill="white"/>
<path d="M121.869 102.884C124.035 102.884 125.794 101.125 125.794 98.9586C125.794 96.7927 124.035 95.0337 121.869 95.0337C119.704 95.0337 117.945 96.7927 117.945 98.9586C117.945 101.125 119.704 102.884 121.869 102.884Z" fill="white"/>
<path d="M74.7048 95.0205C76.8707 95.0205 78.6297 93.2615 78.6297 91.0956C78.6297 88.9297 76.8707 87.1707 74.7048 87.1707C72.5388 87.1707 70.7798 88.9297 70.7798 91.0956C70.7798 93.2615 72.5388 95.0205 74.7048 95.0205Z" fill="white"/>
<path d="M62.9169 91.0956C62.9169 93.2615 64.6759 95.0205 66.8418 95.0205C69.0077 95.0205 70.7667 93.2615 70.7667 91.0956C70.7667 88.9165 69.0077 87.1707 66.8418 87.1707C64.6759 87.1707 62.9169 88.9297 62.9169 91.0956Z" fill="white"/>
<path d="M66.8549 95.0205C64.6759 95.0205 62.93 96.7795 62.93 98.9454C62.93 101.111 64.689 102.87 66.8549 102.87C69.0208 102.87 70.7798 101.111 70.7798 98.9454C70.7798 96.7795 69.0208 95.0205 66.8549 95.0205Z" fill="white"/>
<path d="M74.7048 95.0205C72.5257 95.0205 70.7798 96.7795 70.7798 98.9454C70.7798 101.111 72.5388 102.87 74.7048 102.87C76.8707 102.87 78.6297 101.111 78.6297 98.9454C78.6297 96.7795 76.8707 95.0205 74.7048 95.0205Z" fill="white"/>
<path d="M58.9919 95.0073C61.1596 95.0073 62.9169 93.2501 62.9169 91.0824C62.9169 88.9147 61.1596 87.1575 58.9919 87.1575C56.8243 87.1575 55.067 88.9147 55.067 91.0824C55.067 93.2501 56.8243 95.0073 58.9919 95.0073Z" fill="white"/>
<path d="M55.0539 91.0956C55.0539 88.9165 53.2949 87.1707 51.129 87.1707C48.963 87.1707 47.204 88.9297 47.204 91.0956C47.204 93.2615 48.963 95.0205 51.129 95.0205C53.2949 95.0205 55.0539 93.2615 55.0539 91.0956Z" fill="white"/>
<path d="M51.129 95.0205C48.9499 95.0205 47.204 96.7795 47.204 98.9454C47.204 101.111 48.963 102.87 51.129 102.87C53.2949 102.87 55.0539 101.111 55.0539 98.9454C55.0539 96.7795 53.2949 95.0205 51.129 95.0205Z" fill="white"/>
<path d="M58.9919 95.0205C56.8129 95.0205 55.067 96.7795 55.067 98.9454C55.067 101.111 56.826 102.87 58.9919 102.87C61.1579 102.87 62.9169 101.111 62.9169 98.9454C62.9169 96.7795 61.1579 95.0205 58.9919 95.0205Z" fill="white"/>
<path d="M346.496 173.637C346.496 169.778 349.594 166.575 353.295 165.918H362.248V150.166L354.372 150.14C350 150.14 346.784 146.438 346.784 142.106C346.784 138.181 349.685 135.005 353.466 134.414H362.537H377.987V118.649H362.103H346.483V127.719C345.813 131.395 342.505 134.401 338.606 134.401L330.73 134.375V150.153H340.077C343.411 150.665 345.892 153.198 346.483 156.48V159.263C345.813 162.925 342.505 165.905 338.606 165.905H330.73V181.657H346.483" fill="white"/>
<path d="M212.707 150.048L220.596 165.748H236.296L228.433 150.048H212.707Z" fill="white"/>
<path d="M212.602 134.401L220.478 150.101H236.178L228.315 134.401H212.602Z" fill="white"/>
<path d="M244.146 150.048L252.035 165.748H267.735L259.872 150.048H244.146Z" fill="white"/>
<path d="M244.146 134.309L252.035 150.009H267.735L259.872 134.309H244.146Z" fill="white"/>
<path d="M244.146 134.283L236.296 118.596H220.57L228.446 134.283H244.146Z" fill="white"/>
<path d="M200.788 110.72C202.956 110.72 204.713 108.963 204.713 106.795C204.713 104.628 202.956 102.87 200.788 102.87C198.62 102.87 196.863 104.628 196.863 106.795C196.863 108.963 198.62 110.72 200.788 110.72Z" fill="white"/>
<path d="M192.938 102.857C190.759 102.857 189.013 104.616 189.013 106.782C189.013 108.948 190.772 110.707 192.938 110.707C195.104 110.707 196.863 108.948 196.863 106.782C196.863 104.603 195.104 102.857 192.938 102.857Z" fill="white"/>
<path d="M189 114.658C189 116.824 190.759 118.583 192.925 118.583C195.091 118.583 196.85 116.824 196.85 114.658C196.85 112.492 195.091 110.733 192.925 110.733C190.759 110.733 189 112.492 189 114.658Z" fill="white"/>
<path d="M200.788 118.583C202.954 118.583 204.713 116.824 204.713 114.658C204.713 112.492 202.954 110.733 200.788 110.733C198.622 110.733 196.863 112.492 196.863 114.658C196.863 116.824 198.622 118.583 200.788 118.583Z" fill="white"/>
<path d="M200.788 142.159C202.954 142.159 204.713 140.4 204.713 138.234C204.713 136.068 202.954 134.309 200.788 134.309C198.622 134.309 196.863 136.068 196.863 138.234C196.863 140.4 198.622 142.159 200.788 142.159Z" fill="white"/>
<path d="M192.938 134.296C190.759 134.296 189.013 136.055 189.013 138.221C189.013 140.387 190.772 142.146 192.938 142.146C195.104 142.146 196.863 140.387 196.863 138.221C196.863 136.042 195.104 134.296 192.938 134.296Z" fill="white"/>
<path d="M189 146.097C189 148.263 190.746 150.009 192.899 150.022C190.733 150.035 189 151.781 189 153.947C189 156.113 190.759 157.872 192.925 157.872C195.091 157.872 196.85 156.113 196.85 153.947C196.85 151.781 195.104 150.035 192.951 150.022C195.104 150.009 196.85 148.25 196.85 146.097C196.85 143.944 195.091 142.172 192.925 142.172C190.759 142.172 189 143.931 189 146.097Z" fill="white"/>
<path d="M200.762 150.022C198.596 150.035 196.863 151.781 196.863 153.947C196.863 156.113 198.622 157.872 200.788 157.872C202.954 157.872 204.713 156.113 204.713 153.947C204.713 151.781 202.967 150.035 200.814 150.022C202.967 150.009 204.713 148.25 204.713 146.097C204.713 143.944 202.954 142.172 200.788 142.172C198.622 142.172 196.863 143.931 196.863 146.097C196.863 148.263 198.609 150.009 200.762 150.022Z" fill="white"/>
<path d="M192.938 165.735C195.106 165.735 196.863 163.977 196.863 161.81C196.863 159.642 195.106 157.885 192.938 157.885C190.77 157.885 189.013 159.642 189.013 161.81C189.013 163.977 190.77 165.735 192.938 165.735Z" fill="white"/>
<path d="M200.788 165.735C202.956 165.735 204.713 163.977 204.713 161.81C204.713 159.642 202.956 157.885 200.788 157.885C198.62 157.885 196.863 159.642 196.863 161.81C196.863 163.977 198.62 165.735 200.788 165.735Z" fill="white"/>
<path d="M291.35 134.414H275.624V150.14H291.35V134.414Z" fill="white"/>
<path d="M322.867 134.401H307.141V150.127H322.867V134.401Z" fill="white"/>
<path d="M322.867 165.905H307.141V181.631H322.867V165.905Z" fill="white"/>
<path d="M307.102 181.671H291.376V197.397H307.102V181.671Z" fill="white"/>
<path d="M291.337 181.684H275.611V197.41H291.337V181.684Z" fill="white"/>
<path d="M299.239 118.649C294.894 118.649 291.363 122.167 291.363 126.525C291.363 130.883 294.894 134.401 299.239 134.401C303.584 134.401 307.115 130.87 307.115 126.525C307.115 122.18 303.584 118.649 299.239 118.649Z" fill="white"/>
<path d="M299.252 165.905C303.602 165.905 307.128 162.379 307.128 158.029C307.128 153.679 303.602 150.153 299.252 150.153C294.902 150.153 291.376 153.679 291.376 158.029C291.376 162.379 294.902 165.905 299.252 165.905Z" fill="white"/>
<path d="M133.841 149.943V165.905H149.58V158.069C149.58 157.99 149.58 157.924 149.58 157.859V142.054C149.58 138.352 152.14 135.254 155.566 134.414H159.333C162.773 135.254 165.319 138.352 165.319 142.054C165.319 141.975 165.319 141.909 165.319 141.844C165.319 141.923 165.319 141.988 165.319 142.054V157.859C165.319 157.78 165.319 157.714 165.319 157.649C165.319 157.727 165.319 157.793 165.319 157.859C165.319 157.924 165.319 158.003 165.319 158.069V165.918H181.045V158.082C181.045 158.003 181.045 157.937 181.045 157.872V142.067C181.045 141.988 181.045 141.923 181.045 141.857V134.453H175.151L173.182 134.427C168.837 134.427 165.306 130.594 165.306 126.249V118.334H157.43V118.307C153.085 118.307 149.554 114.776 149.554 110.431C149.554 110.51 149.554 110.576 149.554 110.641V87.1575H133.828V134.138V149.956L133.841 149.943Z" fill="white"/>
</g>
<path d="M80.9951 194.655C80.9951 195.267 81.543 195.579 82.6602 195.589C82.9717 195.589 83.2188 195.6 83.4121 195.6V196.631H76.6768V195.6C76.7734 195.6 76.9131 195.6 77.085 195.589C78.1914 195.589 78.75 195.278 78.75 194.655V183.848C78.75 183.236 78.2021 182.924 77.1279 182.903H76.6768V181.872H88.4502L88.6973 187.125H87.709C87.4512 185.384 87.0537 184.246 86.5166 183.687C85.9795 183.139 84.6582 182.86 82.5527 182.86C81.876 182.86 81.4463 182.924 81.2637 183.053C81.0811 183.182 80.9951 183.418 80.9951 183.784V188.446H81.4141C82.4023 188.446 83.1006 188.252 83.498 187.855C83.8848 187.458 84.1211 186.727 84.207 185.653H85.1738V192.206H84.207C84.1211 191.142 83.8848 190.412 83.498 190.014C83.1006 189.617 82.4023 189.413 81.4141 189.413H80.9951V194.655ZM93.1768 191.701V192.055C93.1768 193.237 93.4561 194.15 94.0254 194.816C94.5947 195.482 95.3789 195.815 96.3887 195.815C97.2266 195.815 97.9785 195.622 98.623 195.235C99.2676 194.848 99.8262 194.247 100.299 193.441L101.008 193.881C100.471 194.913 99.7939 195.697 98.9561 196.212C98.1182 196.728 97.1299 196.986 95.9912 196.986C94.4658 196.986 93.2197 196.492 92.2637 195.482C91.3076 194.472 90.835 193.162 90.835 191.55C90.835 189.939 91.3076 188.628 92.2637 187.619C93.2197 186.609 94.4658 186.093 95.9912 186.093C97.5166 186.093 98.7412 186.566 99.6543 187.49C100.567 188.414 101.029 189.67 101.029 191.239C101.029 191.292 101.019 191.368 101.019 191.475C101.008 191.583 101.008 191.658 101.008 191.701H93.1768ZM93.1768 190.755H97.7959C98.1289 190.755 98.3545 190.712 98.4727 190.616C98.5801 190.519 98.6445 190.336 98.6445 190.079C98.6445 189.101 98.4189 188.338 97.9893 187.801C97.5596 187.264 96.9473 186.996 96.1631 186.996C95.1533 186.996 94.4229 187.296 93.9502 187.887C93.4775 188.489 93.2197 189.445 93.1768 190.755ZM106.379 195.955L105.638 196.964H104.907V192.603H105.702C105.971 193.699 106.465 194.558 107.185 195.17C107.894 195.783 108.764 196.083 109.773 196.083C110.525 196.083 111.127 195.912 111.589 195.568C112.04 195.224 112.276 194.773 112.276 194.214C112.276 193.419 111.46 192.861 109.849 192.549L109.333 192.453C107.571 192.109 106.411 191.69 105.863 191.196C105.315 190.702 105.047 190.003 105.047 189.09C105.047 188.177 105.358 187.458 105.992 186.92C106.626 186.383 107.485 186.115 108.581 186.115C109.193 186.115 109.741 186.19 110.235 186.319C110.719 186.458 111.191 186.673 111.643 186.974L112.276 186.201H112.964V189.853H112.276C112.008 188.972 111.557 188.295 110.923 187.812C110.278 187.329 109.516 187.082 108.624 187.082C107.937 187.082 107.378 187.21 106.97 187.468C106.562 187.726 106.357 188.059 106.357 188.467C106.357 189.337 107.228 189.917 108.979 190.218L109.666 190.336C111.234 190.637 112.298 191.035 112.856 191.518C113.415 192.001 113.705 192.689 113.705 193.591C113.705 194.655 113.34 195.493 112.631 196.105C111.911 196.728 110.934 197.029 109.688 197.029C109.064 197.029 108.474 196.943 107.894 196.75C107.313 196.556 106.809 196.298 106.379 195.955ZM119.549 192.71V187.415H117.153V186.534H117.325C118.356 186.534 119.151 186.158 119.699 185.406C120.247 184.654 120.559 183.515 120.634 181.979H121.558V186.448H126.134V187.415H121.558V193.484C121.558 194.225 121.708 194.773 122.009 195.117C122.31 195.471 122.771 195.643 123.405 195.643C124.254 195.643 124.888 195.407 125.307 194.934C125.726 194.461 125.973 193.699 126.048 192.646H126.832V193.205C126.832 194.386 126.456 195.321 125.726 195.998C124.995 196.674 123.985 197.007 122.696 197.007C121.558 197.007 120.752 196.707 120.269 196.083C119.785 195.46 119.549 194.343 119.549 192.71ZM131.14 195.708L134.019 195.665C134.298 195.665 134.502 195.611 134.609 195.503C134.717 195.396 134.771 195.181 134.771 194.848V188.167C134.771 187.833 134.695 187.608 134.556 187.49C134.405 187.372 134.147 187.307 133.771 187.307H131.376V186.448L136.769 186.179V194.848C136.769 195.192 136.812 195.407 136.919 195.514C137.016 195.622 137.22 195.665 137.521 195.665L140.335 195.708V196.631H131.14V195.708ZM137.005 182.022C137.005 182.387 136.876 182.688 136.629 182.946C136.371 183.204 136.07 183.322 135.716 183.322C135.351 183.322 135.039 183.204 134.792 182.946C134.534 182.688 134.416 182.387 134.416 182.022C134.416 181.678 134.534 181.367 134.792 181.109C135.05 180.851 135.351 180.722 135.716 180.722C136.06 180.722 136.36 180.851 136.618 181.109C136.876 181.367 137.005 181.678 137.005 182.022ZM144.879 188.252C144.707 187.887 144.524 187.651 144.32 187.543C144.116 187.436 143.772 187.372 143.289 187.372V186.448H148.22V187.372C147.65 187.393 147.285 187.436 147.135 187.5C146.974 187.565 146.898 187.694 146.898 187.876C146.898 187.93 146.909 188.016 146.952 188.124C146.995 188.242 147.06 188.392 147.146 188.575L149.52 194.053L151.475 188.994C151.55 188.8 151.604 188.639 151.646 188.489C151.679 188.338 151.7 188.22 151.7 188.113C151.7 187.887 151.593 187.705 151.389 187.565C151.174 187.425 150.895 187.35 150.529 187.35C150.497 187.35 150.454 187.361 150.39 187.361C150.325 187.372 150.282 187.372 150.239 187.372V186.448H154.515L154.504 187.372C154.042 187.393 153.677 187.511 153.408 187.726C153.129 187.941 152.882 188.338 152.646 188.908L149.358 196.986H148.682L144.879 188.252ZM163.957 191.11C162.303 191.335 161.11 191.668 160.38 192.12C159.649 192.571 159.295 193.194 159.295 193.989C159.295 194.633 159.435 195.106 159.714 195.396C159.993 195.697 160.434 195.836 161.035 195.836C161.938 195.836 162.646 195.568 163.173 195.009C163.688 194.451 163.957 193.677 163.957 192.667V191.11ZM165.966 189.348V194.451C165.966 194.794 166.03 195.042 166.17 195.213C166.31 195.385 166.524 195.46 166.804 195.46C166.965 195.46 167.147 195.417 167.352 195.31C167.545 195.213 167.674 195.16 167.728 195.16C167.813 195.16 167.878 195.192 167.932 195.256C167.975 195.321 168.007 195.407 168.007 195.514C168.007 195.804 167.792 196.094 167.384 196.395C166.976 196.696 166.503 196.846 165.987 196.846C165.472 196.846 165.053 196.707 164.73 196.427C164.408 196.148 164.204 195.75 164.118 195.224C163.731 195.75 163.162 196.18 162.432 196.502C161.701 196.825 160.938 196.986 160.154 196.986C159.241 196.986 158.511 196.75 157.963 196.255C157.415 195.772 157.146 195.117 157.146 194.3C157.146 193.248 157.673 192.399 158.726 191.754C159.778 191.11 161.529 190.594 163.957 190.208V188.628C163.957 188.124 163.753 187.737 163.345 187.458C162.937 187.178 162.356 187.039 161.604 187.039C161.024 187.039 160.541 187.125 160.176 187.275C159.811 187.425 159.628 187.619 159.628 187.833C159.628 187.887 159.714 188.027 159.896 188.263C160.079 188.5 160.176 188.768 160.176 189.058C160.176 189.402 160.068 189.681 159.854 189.875C159.639 190.068 159.359 190.165 159.016 190.165C158.607 190.165 158.285 190.057 158.07 189.842C157.845 189.627 157.737 189.316 157.737 188.908C157.737 188.102 158.124 187.436 158.919 186.899C159.703 186.362 160.713 186.093 161.959 186.093C163.355 186.093 164.376 186.351 165.01 186.856C165.644 187.361 165.966 188.188 165.966 189.348ZM173.786 195.665C174.065 195.665 174.27 195.611 174.377 195.503C174.484 195.396 174.538 195.181 174.538 194.848V183.343C174.538 183.01 174.463 182.785 174.323 182.677C174.173 182.57 173.883 182.505 173.453 182.505H173.399C173.271 182.495 173.142 182.484 173.034 182.484C173.002 182.484 172.927 182.495 172.809 182.495C172.368 182.505 171.949 182.505 171.562 182.505V181.625L176.536 181.388V194.848C176.536 195.192 176.579 195.407 176.687 195.514C176.783 195.622 176.987 195.665 177.288 195.665H180.081V196.631H170.929V195.665H173.786ZM206.453 196.631H196.667V195.922C197.569 194.784 199.009 193.14 200.996 191.002L202.339 189.552C203.091 188.714 203.628 187.973 203.929 187.329C204.229 186.684 204.391 185.986 204.391 185.234C204.391 184.353 204.144 183.687 203.649 183.225C203.155 182.763 202.436 182.527 201.512 182.527C200.652 182.527 199.911 182.742 199.31 183.171C198.708 183.601 198.407 184.063 198.407 184.579C198.407 184.836 198.654 185.041 199.159 185.202L199.191 185.212C199.503 185.32 199.739 185.47 199.9 185.674C200.062 185.878 200.147 186.136 200.147 186.448C200.147 186.802 200.019 187.103 199.761 187.361C199.503 187.619 199.181 187.748 198.805 187.748C198.257 187.748 197.827 187.554 197.516 187.167C197.193 186.781 197.043 186.244 197.043 185.567C197.043 184.428 197.494 183.472 198.407 182.699C199.32 181.925 200.491 181.539 201.92 181.539C203.413 181.539 204.595 181.904 205.454 182.624C206.313 183.354 206.743 184.332 206.743 185.567C206.743 186.416 206.571 187.157 206.238 187.78C205.895 188.414 205.239 189.155 204.262 190.014L203.768 190.401C202.317 191.529 200.942 192.71 199.632 193.946L198.955 194.59H203.95C204.691 194.59 205.153 194.494 205.325 194.279C205.497 194.075 205.68 193.462 205.884 192.453L205.991 191.905H206.872L206.453 196.631ZM215.176 182.462C214.209 182.462 213.521 182.989 213.103 184.02C212.684 185.062 212.479 186.802 212.479 189.241C212.479 191.668 212.684 193.398 213.103 194.429C213.521 195.46 214.209 195.976 215.176 195.976C216.143 195.976 216.83 195.46 217.249 194.418C217.668 193.387 217.883 191.658 217.883 189.241C217.883 186.802 217.668 185.062 217.249 184.02C216.83 182.989 216.143 182.462 215.176 182.462ZM210.073 189.241C210.073 186.92 210.546 185.041 211.491 183.623C212.437 182.205 213.672 181.496 215.176 181.496C216.712 181.496 217.947 182.205 218.871 183.601C219.795 185.008 220.268 186.888 220.268 189.241C220.268 191.583 219.795 193.462 218.85 194.88C217.904 196.298 216.68 197.007 215.176 197.007C213.661 197.007 212.437 196.298 211.491 194.859C210.546 193.43 210.073 191.561 210.073 189.241ZM232.965 196.631H223.179V195.922C224.081 194.784 225.521 193.14 227.508 191.002L228.851 189.552C229.603 188.714 230.14 187.973 230.44 187.329C230.741 186.684 230.902 185.986 230.902 185.234C230.902 184.353 230.655 183.687 230.161 183.225C229.667 182.763 228.947 182.527 228.023 182.527C227.164 182.527 226.423 182.742 225.821 183.171C225.22 183.601 224.919 184.063 224.919 184.579C224.919 184.836 225.166 185.041 225.671 185.202L225.703 185.212C226.015 185.32 226.251 185.47 226.412 185.674C226.573 185.878 226.659 186.136 226.659 186.448C226.659 186.802 226.53 187.103 226.272 187.361C226.015 187.619 225.692 187.748 225.316 187.748C224.769 187.748 224.339 187.554 224.027 187.167C223.705 186.781 223.555 186.244 223.555 185.567C223.555 184.428 224.006 183.472 224.919 182.699C225.832 181.925 227.003 181.539 228.432 181.539C229.925 181.539 231.106 181.904 231.966 182.624C232.825 183.354 233.255 184.332 233.255 185.567C233.255 186.416 233.083 187.157 232.75 187.78C232.406 188.414 231.751 189.155 230.773 190.014L230.279 190.401C228.829 191.529 227.454 192.71 226.144 193.946L225.467 194.59H230.462C231.203 194.59 231.665 194.494 231.837 194.279C232.009 194.075 232.191 193.462 232.396 192.453L232.503 191.905H233.384L232.965 196.631ZM242.375 185.105L237.53 191.572H242.375V185.105ZM241.075 195.6H241.344C241.73 195.6 241.988 195.546 242.139 195.428C242.278 195.321 242.354 195.084 242.354 194.741V192.829H236.263V191.55L243.632 181.539H244.438V191.572H247.059V192.829H244.438V194.741C244.438 195.095 244.513 195.332 244.674 195.439C244.835 195.546 245.189 195.6 245.737 195.6H246.683V196.631H240.13V195.6H241.075Z" fill="white"/>
<defs>
<clipPath id="clip0_862_2">
<rect width="378" height="196.902" fill="white" transform="translate(0 0.507324)"/>
</clipPath>
</defs>
</svg>
