<svg width="114" height="60" viewBox="0 0 114 60" fill="none" xmlns="http://www.w3.org/2000/svg">
<g clip-path="url(#clip0_719_5606)">
<path d="M113.987 20.2262C113.987 24.1059 113.954 27.9855 113.999 31.8639C114.029 34.505 113.051 36.6738 111.425 38.611C110.061 40.2359 108.286 41.092 106.379 41.7695C103.603 42.7566 100.848 43.8046 98.0842 44.8275C94.6828 46.0859 91.2827 47.3429 87.8826 48.6039C85.3011 49.5606 82.7222 50.5252 80.1407 51.4819C76.2983 52.9044 72.4546 54.3242 68.6109 55.7427C67.3538 56.2071 66.0916 56.6584 64.8344 57.1241C62.3011 58.0623 59.7691 59.0058 57.2383 59.9532C57.0723 60.0154 56.9342 60.0114 56.7682 59.9492C54.885 59.2505 52.9954 58.5664 51.1123 57.8678C49.333 57.2075 47.5601 56.5327 45.7821 55.8697C43.89 55.1645 42.0017 54.4486 40.1021 53.7711C38.2138 53.0976 36.3306 52.4082 34.4538 51.7056C32.0738 50.8137 29.6888 49.9377 27.3101 49.0446C24.7654 48.0892 22.2156 47.1484 19.6658 46.2049C17.2947 45.3276 14.9198 44.4596 12.5487 43.5823C10.3665 42.7752 8.1728 41.9971 6.00954 41.1397C4.07439 40.3722 2.63856 38.9365 1.50434 37.1594C0.441082 35.4988 -0.00627011 33.6661 6.63181e-05 31.6641C0.025412 23.734 0.0102046 15.804 0.0102046 7.87528C0.0102046 7.16074 0.0127391 7.1753 0.699608 7.05224C2.80711 6.67247 4.91334 6.27551 7.02083 5.8931C9.46289 5.45114 11.9075 5.01978 14.3495 4.57914C17.1769 4.0697 20.0029 3.55497 22.8302 3.04289C26.7322 2.33761 30.6354 1.63498 34.5374 0.927061C36.1976 0.626691 37.8577 0.318381 39.5166 0.0100709C39.7574 -0.0349185 39.9614 0.0563835 40.168 0.158271C42.259 1.197 44.35 2.2344 46.4385 3.27577C48.3559 4.23114 50.2695 5.19312 52.1856 6.15113C53.6836 6.90007 55.1828 7.64769 56.6782 8.4006C56.9012 8.51307 57.104 8.51439 57.327 8.4006C59.3775 7.36849 61.428 6.3377 63.4822 5.31618C65.3451 4.38992 67.222 3.49146 69.076 2.54536C69.8212 2.16559 70.56 1.76069 71.3077 1.39548C72.2405 0.940293 73.1605 0.450703 74.1122 0.0365353C74.2757 -0.0349185 74.4367 0.0140405 74.5963 0.0431513C76.951 0.469228 79.3056 0.90192 81.6615 1.32535C85.3581 1.98961 89.0548 2.64724 92.7515 3.3115C94.0036 3.53645 95.2531 3.77992 96.5052 4.00619C99.0943 4.47196 101.685 4.9245 104.274 5.39292C107.361 5.95132 110.445 6.52692 113.534 7.08003C113.894 7.14486 113.998 7.30365 113.996 7.67812C113.984 11.8595 113.989 16.0422 113.989 20.2236L113.987 20.2262ZM45.464 34.595C46.6121 34.595 47.5575 34.595 48.5016 34.595C48.9934 34.595 49.0314 34.5514 49.0352 34.026C49.0352 33.9599 49.0314 33.8937 49.0352 33.8289C49.0554 33.5192 48.93 33.3896 48.622 33.3618C47.9542 33.3009 47.7463 33.1117 47.7223 32.3972C47.6792 31.111 47.5917 29.8142 47.773 28.5373C47.939 27.3716 48.5789 26.5565 49.5852 26.4519C50.8335 26.3209 51.1642 26.6028 51.2225 27.8321C51.2947 29.3538 51.2567 30.8821 51.2377 32.4064C51.2288 33.0866 51.0362 33.2956 50.3836 33.3512C50.0249 33.3816 49.9248 33.5391 49.9552 33.8725C49.9666 34.0035 49.9603 34.1359 49.9578 34.2669C49.9527 34.4971 50.0528 34.5964 50.2784 34.595C51.6508 34.5897 53.0233 34.5924 54.3971 34.5924C54.4984 34.5924 54.6226 34.5963 54.6619 34.4852C54.7709 34.1809 54.738 33.8593 54.6911 33.5523C54.6531 33.3062 54.4072 33.3843 54.2475 33.3538C53.6063 33.2348 53.4327 33.1051 53.4225 32.4951C53.401 31.2076 53.3668 29.9148 53.4466 28.6313C53.5378 27.1784 54.7785 26.1794 56.0116 26.4546C56.5438 26.5737 56.8594 26.9164 56.8923 27.4788C56.9874 29.0547 56.9202 30.6333 56.9304 32.2106C56.9367 33.0799 56.7872 33.2506 55.9457 33.3737C55.7277 33.4055 55.6301 33.5047 55.6339 33.7283C55.6365 33.8858 55.639 34.0446 55.6327 34.202C55.6213 34.4892 55.7543 34.599 56.023 34.5977C57.4715 34.5924 58.92 34.5897 60.3685 34.5977C60.6182 34.5977 60.7031 34.4892 60.6942 34.243C60.6663 33.4848 60.8197 33.3261 59.9566 33.3671C59.9199 33.3684 59.8819 33.3605 59.8439 33.3552C59.3788 33.2824 59.1583 33.0455 59.1126 32.5573C59.0962 32.3747 59.0924 32.1894 59.0924 32.0055C59.0886 30.5724 59.0911 29.1394 59.0835 27.705C59.081 27.2565 59.048 26.8066 58.8528 26.3977C58.2813 25.1922 56.8467 24.6801 55.582 25.1777C54.8013 25.486 54.2057 26.0298 53.643 26.6398C53.3858 26.919 53.3249 26.9045 53.1754 26.5618C52.538 25.0996 50.9044 24.5478 49.5446 25.31C48.9439 25.6461 48.4535 26.1039 48.0074 26.6266C47.9516 26.6928 47.8971 26.796 47.7996 26.7695C47.6842 26.7378 47.7311 26.6134 47.7261 26.53C47.7083 26.2415 47.6982 25.9531 47.6944 25.6633C47.6918 25.4397 47.6031 25.3206 47.3788 25.3206C46.2953 25.3206 45.213 25.3206 44.1295 25.3206C43.9914 25.3206 43.9001 25.3616 43.8684 25.5349C43.7278 26.2918 43.8583 26.4758 44.5807 26.4983C44.6187 26.4983 44.6567 26.4996 44.6935 26.5022C45.2688 26.5406 45.5451 26.7788 45.5552 27.3782C45.5882 29.1129 45.6135 30.849 45.5413 32.5837C45.5223 33.0297 45.3208 33.2374 44.8988 33.33C44.5122 33.4134 44.1194 33.4015 43.7328 33.3538C43.0612 33.2718 42.8407 33.0164 42.7913 32.3098C42.7798 32.1391 42.7836 31.9684 42.7836 31.7977C42.7799 30.4044 42.7925 29.011 42.7697 27.619C42.7482 26.313 42.1335 25.5191 40.9157 25.1869C40.0425 24.9488 39.1554 24.8852 38.2556 24.999C37.2798 25.1221 36.356 25.3166 35.716 26.2349C35.3713 26.7298 35.2091 27.4496 35.4613 28.0398C35.6856 28.5651 36.2178 28.8721 36.8629 28.8483C37.4674 28.8245 37.9515 28.409 38.0136 27.8612C38.0922 27.1665 37.8564 26.8396 37.1404 26.6345C37.0542 26.6094 36.9072 26.6584 36.8984 26.5102C36.892 26.3937 37.015 26.3461 37.0999 26.2971C37.9337 25.8181 38.8082 25.834 39.6965 26.0814C39.9677 26.1569 40.2123 26.2733 40.3872 26.5274C41.0247 27.4496 40.685 28.6128 39.6573 28.9925C39.3962 29.0891 39.1313 29.1725 38.8639 29.2466C37.878 29.5165 36.8756 29.7388 36.0011 30.3263C35.5373 30.6386 35.1457 31.0223 34.9835 31.5993C34.5007 33.3247 35.4955 34.6943 37.1189 34.9033C38.4293 35.0714 39.585 34.6665 40.4683 33.5854C40.6064 33.416 40.7382 33.3261 40.8688 33.5854C41.1666 34.1782 41.6824 34.4323 42.2755 34.5249C43.4021 34.7022 44.5388 34.5434 45.4665 34.599L45.464 34.595ZM78.5059 29.8605C78.4375 27.3014 77.0321 25.5283 74.6863 25.0559C73.5635 24.8297 72.4546 24.8972 71.38 25.3153C70.536 25.6421 69.8415 26.186 69.3219 26.9614C68.7909 27.754 68.5362 28.6392 68.4779 29.5999C68.3904 31.0448 68.7339 32.3363 69.697 33.4028C71.1886 35.0542 73.7282 35.254 75.6026 34.517C77.6872 33.6966 78.5275 31.856 78.5059 29.8605ZM30.8369 30.0974C31.7684 30.0974 32.6999 30.0881 33.6313 30.1027C33.9798 30.108 34.1053 29.977 34.0698 29.6118C34.0267 29.1672 34.0014 28.7226 33.9114 28.2846C33.6921 27.2035 33.2042 26.2812 32.3323 25.6461C31.4719 25.0189 30.4796 24.8773 29.4467 24.9594C27.7258 25.097 26.4319 25.9372 25.6715 27.5555C25.1101 28.7504 25.0581 30.0273 25.3395 31.324C25.6069 32.5586 26.2101 33.5537 27.2493 34.2179C28.2289 34.8438 29.3263 35.037 30.4479 34.898C32.0206 34.7035 33.2156 33.9189 33.7973 32.2979C34.123 31.3915 34.0685 31.3359 33.1599 31.3214C32.7024 31.3134 32.4895 31.4815 32.3615 31.9314C32.1004 32.851 31.4528 33.3075 30.5632 33.4385C29.4036 33.6079 28.4608 33.1408 28.0552 32.159C27.8449 31.6509 27.7258 31.1136 27.6675 30.5605C27.632 30.2271 27.7384 30.0855 28.0806 30.0921C28.9994 30.1106 29.9182 30.0987 30.8369 30.0974ZM93.0341 30.0974C93.9782 30.0974 94.9223 30.0908 95.8652 30.1014C96.1795 30.1053 96.2821 29.973 96.2733 29.6515C96.2581 29.0693 96.1719 28.4963 96.0249 27.9419C95.7043 26.7351 95.0592 25.7917 93.9098 25.2915C93.1824 24.9752 92.4309 24.9104 91.654 24.9646C90.5325 25.0427 89.5275 25.4278 88.7317 26.2561C87.1425 27.9101 87.0221 30.767 88.0232 32.6764C89.2766 35.0687 92.4169 35.377 94.1683 34.4561C95.1783 33.9242 95.8386 33.0839 96.0984 31.9221C96.2124 31.414 96.1516 31.3373 95.6637 31.3306C95.5002 31.328 95.3342 31.3452 95.1733 31.3267C94.8526 31.2896 94.7196 31.4219 94.6359 31.758C94.3749 32.7994 93.7336 33.3314 92.6932 33.4465C91.5906 33.5695 90.7631 33.2017 90.2955 32.2304C90.0344 31.6892 89.9609 31.107 89.8722 30.5235C89.8228 30.1953 89.9685 30.0868 90.279 30.0921C91.1978 30.1067 92.1166 30.0974 93.0354 30.0961L93.0341 30.0974ZM80.3891 25.3179C79.81 25.3179 79.2308 25.3179 78.6504 25.3179C77.8431 25.3179 77.814 25.355 77.8621 26.1794C77.8735 26.3871 77.9166 26.4599 78.1511 26.4599C78.715 26.4599 79.1383 26.7378 79.3449 27.3094C79.54 27.8506 79.7339 28.3918 79.9139 28.9369C80.507 30.7378 81.095 32.5401 81.683 34.3423C81.74 34.5156 81.8389 34.5963 82.0163 34.5937C82.6208 34.5884 83.2253 34.5911 83.8298 34.5924C83.9679 34.5924 84.1175 34.5461 84.1238 34.4032C84.1403 34.0287 84.3785 33.7535 84.4875 33.4213C85.1338 31.459 85.7865 29.498 86.4619 27.5462C86.6622 26.968 87.0069 26.4969 87.6861 26.4943C87.9485 26.4943 88.0448 26.3527 88.027 26.0947C88.0207 25.9901 88.0156 25.883 88.027 25.7797C88.0739 25.404 87.9028 25.3087 87.5683 25.3126C86.4353 25.3272 85.3011 25.3232 84.1682 25.3126C83.8589 25.31 83.6726 25.355 83.6828 25.7572C83.6993 26.4731 83.6777 26.4744 84.1453 26.4969C84.9539 26.5366 85.1642 26.8224 84.9095 27.6336C84.4558 29.0812 83.9717 30.5182 83.4978 31.9579C83.4661 32.0544 83.4331 32.1854 83.3229 32.196C83.167 32.2093 83.1721 32.0412 83.1379 31.9406C82.7906 30.9125 82.4332 29.8883 82.1164 28.8509C81.9643 28.3521 81.74 27.8731 81.6843 27.3425C81.6272 26.7933 81.7704 26.5525 82.2913 26.5207C82.6715 26.4983 82.7729 26.3328 82.7298 25.9809C82.7184 25.8909 82.7196 25.7956 82.7298 25.7056C82.7577 25.4106 82.6246 25.3113 82.3534 25.3153C81.6982 25.3259 81.043 25.3193 80.3891 25.3193V25.3179ZM21.3881 29.6554C21.3881 28.749 21.3944 27.8413 21.3843 26.9349C21.3805 26.6306 21.4806 26.5168 21.7834 26.5313C22.3613 26.5578 22.9405 26.5446 23.5196 26.5512C23.801 26.5538 23.9404 26.4149 23.9328 26.1185C23.9302 26.0007 23.9264 25.8816 23.934 25.7639C23.9568 25.4463 23.8276 25.3074 23.5171 25.3153C22.9886 25.3285 22.4589 25.3021 21.9317 25.3246C21.5541 25.3418 21.4248 25.1989 21.4349 24.7992C21.459 23.9193 21.4425 23.038 21.4425 22.1581C21.4425 21.6275 21.4286 21.6156 20.9065 21.6103C20.8558 21.6103 20.8051 21.6143 20.7557 21.609C20.4553 21.5719 20.3109 21.7148 20.2919 22.0258C20.2678 22.4479 20.155 22.8528 20.0549 23.2603C19.7811 24.3718 19.0664 25.0229 18.0336 25.3074C17.7826 25.3762 17.7155 25.4913 17.7129 25.7387C17.7015 26.5724 17.6952 26.5724 18.491 26.5512C18.5785 26.5485 18.6685 26.5485 18.7546 26.5327C19.1082 26.4718 19.2235 26.6372 19.221 26.9945C19.2109 28.5585 19.2185 30.1225 19.2172 31.6853C19.2172 32.0677 19.2185 32.4501 19.2945 32.8232C19.5518 34.0948 19.9129 34.7049 21.2512 34.8928C22.5666 35.078 23.7135 34.3052 23.9771 33.0958C24.1368 32.3628 24.2116 31.6244 24.1913 30.8715C24.1736 30.235 24.1837 30.2562 23.5589 30.2297C23.1711 30.2125 23.0495 30.3581 23.0659 30.7511C23.0926 31.369 23.0545 31.987 22.9101 32.5903C22.8074 33.0164 22.4855 33.2268 22.0559 33.1964C21.6555 33.1673 21.4717 32.9714 21.4159 32.4938C21.3957 32.3244 21.3931 32.1524 21.3931 31.983C21.3906 31.2076 21.3931 30.4322 21.3919 29.6568L21.3881 29.6554ZM66.0307 34.595C66.8241 34.595 67.6174 34.595 68.4107 34.5924C68.5603 34.5924 68.7212 34.6122 68.8074 34.4349C69.0659 33.899 68.7681 33.3724 68.2105 33.3816C67.4856 33.3935 67.1738 33.1038 67.1675 32.3575C67.1599 31.5304 67.1447 30.7034 67.1371 29.8764C67.1168 27.5502 67.127 25.224 67.1244 22.8978C67.1244 22.477 67.146 22.0575 67.1599 21.6367C67.1675 21.425 67.0775 21.3218 66.8697 21.3218C65.7608 21.3245 64.6532 21.3218 63.5443 21.3218C63.4037 21.3218 63.3124 21.3668 63.2769 21.5322C63.1198 22.2878 63.2769 22.5114 64.0006 22.5418C64.7039 22.5709 64.9333 22.8052 64.9358 23.5739C64.9447 26.4797 64.9447 29.3868 64.9358 32.2926C64.9333 33.0667 64.6735 33.3446 63.9334 33.3658C63.2364 33.3856 63.2706 33.3049 63.2706 34.1345C63.2706 34.161 63.2731 34.1875 63.2706 34.2139C63.244 34.5064 63.372 34.603 63.6483 34.599C64.4416 34.5858 65.2349 34.5937 66.0282 34.5937L66.0307 34.595ZM98.3719 23.0447C98.3795 22.4016 97.8118 21.9861 97.2592 22.2401C97.1148 22.3063 96.9639 22.3963 96.8626 22.518C96.713 22.6993 96.6281 22.6318 96.5052 22.4968C96.3658 22.3447 96.2086 22.2071 95.9932 22.1859C95.6472 22.1515 95.3393 22.2216 95.1365 22.5524C94.9426 22.8687 94.9933 23.3159 95.2037 23.6666C95.5471 24.2382 96.1846 24.4803 96.5533 25.0215C96.6497 25.1618 96.7789 25.0758 96.8727 24.9673C97.1274 24.6722 97.448 24.4578 97.7332 24.2011C98.069 23.8981 98.3706 23.5581 98.3719 23.046V23.0447Z" fill="black"/>
<path d="M40.624 30.5544C40.6278 31.2279 40.6126 31.8909 40.2388 32.4863C39.7978 33.1889 38.8143 33.574 38.0451 33.3252C37.2797 33.0778 37.0427 31.9372 37.6155 31.2584C37.8614 30.9673 38.1807 30.7727 38.5077 30.61C39.097 30.3149 39.704 30.0595 40.2996 29.7803C40.5328 29.6705 40.6874 29.6348 40.6278 30.004C40.5987 30.1826 40.6228 30.3705 40.6228 30.5544H40.624Z" fill="black"/>
<path d="M70.9415 29.7684C70.9327 29.2908 70.9732 28.5749 71.2089 27.8789C71.5739 26.8005 72.3178 26.2447 73.4419 26.2394C74.6129 26.2341 75.3808 26.7449 75.723 27.8551C76.1704 29.3093 76.2084 30.786 75.6432 32.2137C75.1287 33.5118 73.9754 33.8122 72.7385 33.537C71.7678 33.3213 71.3813 32.5379 71.1075 31.6567C70.9415 31.1234 70.9466 30.569 70.9415 29.7671V29.7684Z" fill="black"/>
<path d="M29.7382 28.8131C29.2098 28.8131 28.6813 28.8131 28.1528 28.8131C27.9298 28.8131 27.7194 28.7655 27.7942 28.4624C27.9551 27.8061 28.073 27.126 28.6091 26.6457C29.1553 26.1561 29.7902 26.033 30.4479 26.2394C31.0841 26.4392 31.411 26.995 31.5264 27.6473C31.7583 28.9613 31.8723 28.78 30.6456 28.7946C30.344 28.7985 30.0411 28.7946 29.7395 28.7946C29.7395 28.7999 29.7395 28.8065 29.7395 28.8118L29.7382 28.8131Z" fill="black"/>
<path d="M91.9152 28.7959C91.3867 28.7959 90.8595 28.8025 90.3311 28.7932C89.9788 28.788 89.8977 28.6755 89.9965 28.3288C90.1258 27.8776 90.2474 27.4224 90.506 27.0228C90.9153 26.3876 91.4945 26.0859 92.2079 26.1389C92.9645 26.1958 93.4486 26.6576 93.6729 27.4118C93.773 27.7505 93.8465 28.0946 93.8782 28.4505C93.9036 28.7324 93.7946 28.8224 93.5373 28.8171C92.9975 28.8052 92.4563 28.8131 91.9165 28.8131C91.9165 28.8065 91.9165 28.8012 91.9165 28.7946L91.9152 28.7959Z" fill="black"/>
</g>
<defs>
<clipPath id="clip0_719_5606">
<rect width="114" height="60" fill="black"/>
</clipPath>
</defs>
</svg>
