<?xml version="1.0" standalone="no"?>
<!DOCTYPE svg PUBLIC "-//W3C//DTD SVG 1.1//EN" "http://www.w3.org/Graphics/SVG/1.1/DTD/svg11.dtd" >
<svg xmlns="http://www.w3.org/2000/svg" xmlns:xlink="http://www.w3.org/1999/xlink" version="1.1">
<metadata>
Created by FontForge 20170731 at Tue Aug 28 02:47:18 2018
 By Aleksey,,,
Copyright (c) 2017 by Adrien Midzic. All rights reserved.
</metadata>
<defs>
<font id="Metal-Reg-1" horiz-adv-x="1365" >
  <font-face 
    font-family="Metal Reg-1"
    font-weight="400"
    font-stretch="ultra-condensed"
    units-per-em="2048"
    panose-1="0 0 5 8 0 0 0 0 0 0"
    ascent="1638"
    descent="-410"
    x-height="870"
    cap-height="1097"
    bbox="-834 -442 2476 1565"
    underline-thickness="155"
    underline-position="-414"
    unicode-range="U+000D-FB02"
  />
<missing-glyph horiz-adv-x="600" 
 />
    <glyph glyph-name="fi" unicode="fi" horiz-adv-x="1280" 
d="M757 930q-188 0 -265 -54.5t-84 -193.5h755v-682h-176v520h-580v-520h-176v520h-181v162h182q8 235 127.5 329t405.5 94h398v-175h-406z" />
    <glyph glyph-name="fl" unicode="fl" horiz-adv-x="1435" 
d="M1250 481q0 -172 11 -222q17 -73 75 -90q25 -7 59 -7v-162q-158 0 -239.5 77.5t-81.5 250.5v607h-309q-195 0 -272.5 -53t-84.5 -200h481v-162h-482v-520h-176v520h-181v162h182q8 233 127 324t406 91h484z" />
    <glyph glyph-name="f_f" unicode="ff" horiz-adv-x="1943" 
d="M1581 935q-195 0 -272.5 -53t-84.5 -200h549v-162h-550v-520h-176v520h-640v-520h-176v520h-181v162h182q8 233 127 324t406 91h269v-162h-269q-195 0 -272.5 -53t-84.5 -200h640q8 233 127 324t406 91h309v-162h-309z" />
    <glyph glyph-name=".notdef" horiz-adv-x="600" 
 />
    <glyph glyph-name=".null" horiz-adv-x="0" 
 />
    <glyph glyph-name="nonmarkingreturn" horiz-adv-x="682" 
 />
    <glyph glyph-name="CR" unicode="&#xd;" horiz-adv-x="766" 
 />
    <glyph glyph-name="space" unicode=" " horiz-adv-x="506" 
 />
    <glyph glyph-name="exclam" unicode="!" horiz-adv-x="450" 
d="M163 342l-46 756h209l-45 -756h-118zM220 -10q-63 0 -87.5 27.5t-24.5 97.5t24.5 97.5t87.5 27.5t88 -27.5t25 -97.5t-25 -97.5t-88 -27.5z" />
    <glyph glyph-name="quotedbl" unicode="&#x22;" horiz-adv-x="748" 
d="M210 1097q62 0 87.5 -27.5t25.5 -95.5h1q0 -167 -150 -323h-96l105 197q-46 5 -65.5 33.5t-19.5 90.5q0 70 24.5 97.5t87.5 27.5zM669 974h1q0 -167 -150 -323h-96l105 197q-46 5 -65.5 33.5t-19.5 90.5q0 70 24.5 97.5t87.5 27.5q62 0 87.5 -27.5t25.5 -95.5z" />
    <glyph glyph-name="numbersign" unicode="#" horiz-adv-x="1425" 
d="M1339 637h-256l-69 -150h276l-93 -171h-262l-145 -316h-187l145 316h-282l-145 -316h-188l145 316h-278l86 171h271l69 150h-287l86 171h280l133 289h187l-133 -289h282l133 289h188l-133 -289h263zM827 487l69 150h-282l-69 -150h282z" />
    <glyph glyph-name="dollar" unicode="$" horiz-adv-x="1312" 
d="M1234 301q0 -163 -121.5 -236t-362.5 -83v-93h-162v92q-253 10 -381.5 109t-128.5 270h184q0 -52 27 -91.5t74.5 -63.5t103 -36.5t121.5 -16.5v317l-139 11q-187 14 -266.5 89t-79.5 228q0 306 485 325v98h162v-101q222 -17 338 -116.5t116 -262.5h-184q0 94 -74.5 144.5
t-195.5 63.5v-308l138 -11q102 -8 170.5 -33t106.5 -68.5t53.5 -97.5t15.5 -129zM449 663l139 -11v300q-301 -13 -301 -156q0 -66 40.5 -96.5t121.5 -36.5zM750 152q165 8 233 46.5t68 117.5q0 67 -41.5 95.5t-121.5 34.5l-138 11v-305z" />
    <glyph glyph-name="percent" unicode="%" horiz-adv-x="1760" 
d="M430 486q-102 0 -171.5 21.5t-108.5 64.5t-55.5 99t-16.5 134t16.5 133.5t55.5 98.5t108.5 64.5t171.5 21.5v-132q-69 0 -112 -12.5t-63 -40t-26 -56.5t-6 -77t6 -77t26 -56.5t63 -40t112 -12.5v-133zM431 486l-1 133q68 0 111 12.5t63 39.5t26.5 56.5t6.5 77.5
t-6.5 77.5t-26.5 56.5t-63 39.5t-111 12.5l1 132q101 0 170.5 -21.5t108.5 -64.5t55.5 -98.5t16.5 -133.5t-16.5 -134t-55.5 -99t-108.5 -64.5t-170.5 -21.5zM389 -8l791 1105h173l-791 -1105h-173zM1330 -20q-102 0 -171.5 21.5t-108.5 64.5t-55.5 99t-16.5 134t16.5 133.5
t55.5 98.5t108.5 64.5t171.5 21.5v-132q-69 0 -112 -12.5t-63 -40t-26 -56.5t-6 -77t6 -77t26 -56.5t63 -40t112 -12.5v-133zM1331 -20l-1 133q68 0 111 12.5t63 39.5t26.5 56.5t6.5 77.5t-6.5 77.5t-26.5 56.5t-63 39.5t-111 12.5l1 132q101 0 170.5 -21.5t108.5 -64.5
t55.5 -98.5t16.5 -133.5t-16.5 -134t-55.5 -99t-108.5 -64.5t-170.5 -21.5z" />
    <glyph glyph-name="ampersand" unicode="&#x26;" horiz-adv-x="1278" 
d="M1237 167v-178l-207 123q-63 -63 -168.5 -91.5t-265.5 -28.5q-285 0 -401.5 75.5t-116.5 271.5q0 64 19 120t65 106t116 81q-24 56 -24 130q0 164 97.5 249t322.5 85q242 0 338 -84.5t96 -295.5h-184q0 129 -55 180t-195 51q-131 0 -183.5 -41t-52.5 -144q0 -46 13 -81
t53.5 -71t63.5 -51.5t94 -58.5q9 -6 14 -9q178 -106 271 -163q14 67 14 180h184q0 -173 -36 -278zM596 142q107 0 173 13.5t107 48.5q-178 106 -266 160q-170 103 -235 159q-58 -27 -85.5 -77t-27.5 -107q0 -113 75.5 -155t258.5 -42z" />
    <glyph glyph-name="quotesingle" unicode="'" horiz-adv-x="402" 
d="M323 974h1q0 -167 -150 -323h-96l105 197q-46 5 -65.5 33.5t-19.5 90.5q0 70 24.5 97.5t87.5 27.5q62 0 87.5 -27.5t25.5 -95.5z" />
    <glyph glyph-name="parenleft" unicode="(" horiz-adv-x="489" 
d="M284 -195q-92 143 -149 322t-57 360q0 179 56.5 351t149.5 316h166q-89 -126 -141.5 -315t-52.5 -352q0 -162 52.5 -360t141.5 -322h-166z" />
    <glyph glyph-name="parenright" unicode=")" horiz-adv-x="489" 
d="M205 -195h-166q89 124 141.5 322t52.5 360q0 163 -52.5 352t-141.5 315h166q93 -144 149.5 -316t56.5 -351q0 -181 -57 -360t-149 -322z" />
    <glyph glyph-name="asterisk" unicode="*" horiz-adv-x="674" 
d="M224 601l-79 62l123 150l-190 61l32 94l183 -69l-4 198h99l-6 -195l184 66l30 -94l-179 -57l120 -154l-85 -62l-111 161z" />
    <glyph glyph-name="plus" unicode="+" horiz-adv-x="1098" 
d="M458 0v355h-419v171h419v342h176v-342h425v-171h-425v-355h-176z" />
    <glyph glyph-name="comma" unicode="," horiz-adv-x="480" 
d="M362 123h1q0 -167 -150 -323h-96l105 197q-46 5 -65.5 33.5t-19.5 90.5q0 70 24.5 97.5t87.5 27.5q62 0 87.5 -27.5t25.5 -95.5z" />
    <glyph glyph-name="hyphen" unicode="-" horiz-adv-x="792" 
d="M117 380v170h558v-170h-558z" />
    <glyph glyph-name="period" unicode="." horiz-adv-x="459" 
d="M229 -10q-63 0 -87.5 27.5t-24.5 97.5t24.5 97.5t87.5 27.5t88 -27.5t25 -97.5t-25 -97.5t-88 -27.5z" />
    <glyph glyph-name="slash" unicode="/" horiz-adv-x="1002" 
d="M40 -88l764 1271h180l-764 -1271h-180z" />
    <glyph glyph-name="zero" unicode="0" horiz-adv-x="1282" 
d="M641 1123q128 0 224.5 -26t160.5 -73t104 -118.5t57 -156t17 -192.5t-17 -192.5t-57 -155.5t-104 -118t-160.5 -73t-224.5 -26t-224.5 26t-160.5 73t-104 118t-57 155.5t-17 192.5t17 192.5t57 156t104 118.5t160.5 73t224.5 26zM641 162q100 0 170 19.5t110 51t62.5 85
t29 107t6.5 132.5q0 56 -3 96.5t-12.5 84.5t-26 74t-45 58.5t-68 45.5t-95.5 27t-128 10t-128.5 -10t-96 -27t-68 -45.5t-45 -59t-26 -74t-12.5 -84.5t-3 -96q0 -79 6.5 -132t29 -107t63 -85.5t110.5 -51t170 -19.5z" />
    <glyph glyph-name="one" unicode="1" horiz-adv-x="1043" 
d="M638 170h327v-170h-846v170h351v732h-353v133l521 71v-936z" />
    <glyph glyph-name="two" unicode="2" horiz-adv-x="1248" 
d="M415 155q55 13 78 13l677 2v-170h-1063v181q340 110 374 122q297 105 410 211q96 90 96 201q0 136 -91 187t-288 51q-96 0 -162.5 -16t-102 -48t-50.5 -72t-15 -95l-184 21q0 111 36 187t107 117.5t159.5 58.5t211.5 17q135 0 235 -20.5t162 -55.5t99.5 -88.5
t51.5 -111.5t14 -132q0 -69 -30.5 -132t-87 -115.5t-125 -97.5t-159 -85t-173 -70t-180.5 -60z" />
    <glyph glyph-name="three" unicode="3" horiz-adv-x="1283" 
d="M1007 562q103 -35 150.5 -96.5t47.5 -157.5q0 -168 -135 -241.5t-453 -74.5q-291 0 -415 88t-124 292h184q0 -113 81 -161.5t274 -48.5q219 1 311.5 35t92.5 111q0 81 -49.5 116.5t-164.5 35.5h-215v150h152q124 0 180 41.5t56 124.5q0 88 -76 126t-256 38
q-181 0 -257.5 -48.5t-76.5 -161.5h-184q0 204 119 292t399 88q278 0 397 -77t119 -257q0 -142 -157 -214z" />
    <glyph glyph-name="four" unicode="4" horiz-adv-x="1238" 
d="M1199 418v-168h-236v-250h-183v250h-741v148l701 712h223v-692h236zM523 418h257v501l-490 -511q115 10 233 10z" />
    <glyph glyph-name="five" unicode="5" horiz-adv-x="1279" 
d="M645 773q153 0 261.5 -27t172.5 -80.5t93 -125t29 -168.5q0 -89 -27 -156t-88 -119t-166.5 -78.5t-253.5 -26.5q-153 0 -261.5 21t-173 63t-96.5 96t-41 128h188q25 -75 119 -106.5t265 -31.5q177 0 264 48t87 162q0 128 -92 179.5t-280 51.5q-115 0 -206.5 -29.5
t-115.5 -93.5h-194l166 620h868v-170h-720l-62 -232q104 75 264 75z" />
    <glyph glyph-name="six" unicode="6" horiz-adv-x="1267" 
d="M651 669q131 0 227.5 -18t155.5 -47.5t94.5 -75.5t48 -95t12.5 -112q0 -93 -39.5 -160t-114.5 -106t-174.5 -57t-229.5 -18q-115 0 -201.5 13.5t-147.5 42t-101 67t-62.5 95.5t-31.5 120t-9 148q0 154 24 267.5t68.5 188.5t116 119.5t157 63t199.5 18.5
q155 0 262.5 -26.5t168 -79.5t86.5 -122.5t26 -164.5h-184q0 121 -86 172t-273 51q-107 -1 -175 -23t-109.5 -76t-60 -129.5t-27.5 -197.5q43 70 146 105.5t234 36.5zM631 150q197 0 285.5 42t88.5 129q0 95 -87 136.5t-287 41.5q-192 -1 -274.5 -37t-83.5 -119
q-1 -98 83.5 -145t274.5 -48z" />
    <glyph glyph-name="seven" unicode="7" horiz-adv-x="1140" 
d="M55 1097h1030v-163l-604 -934h-217l469 713q48 72 142 216h-243h-577v168z" />
    <glyph glyph-name="eight" unicode="8" horiz-adv-x="1266" 
d="M922 588q137 -30 201.5 -96t64.5 -170q0 -178 -130.5 -260t-424.5 -82t-424.5 82t-130.5 260q0 104 64.5 170t201.5 96q-183 59 -183 229q0 163 110 234.5t362 71.5t362 -71.5t110 -234.5q0 -170 -183 -229zM633 953q-154 0 -221 -36.5t-67 -121.5q0 -74 67.5 -106.5
t220.5 -32.5t220.5 32.5t67.5 106.5q0 85 -67 121.5t-221 36.5zM633 150q371 0 371 172q0 97 -88 143.5t-283 46.5t-283 -46.5t-88 -143.5q0 -172 371 -172z" />
    <glyph glyph-name="nine" unicode="9" horiz-adv-x="1267" 
d="M636 1121q115 0 201.5 -13.5t147.5 -42t101 -67t62.5 -95.5t31.5 -120t9 -148q0 -154 -24 -267.5t-68.5 -188.5t-116 -119.5t-157 -63t-199.5 -18.5q-155 0 -262.5 26.5t-168 79.5t-86.5 122.5t-26 164.5h184q0 -121 86 -172t273 -51q107 1 175 23t109.5 76t60 129.5
t27.5 197.5q-43 -70 -146 -105.5t-234 -36.5q-131 0 -227.5 18t-155.5 47.5t-94.5 75.5t-48 95t-12.5 112q0 93 39.5 160t114.5 106t174.5 57t229.5 18zM994 758q1 98 -83.5 145t-274.5 48q-197 0 -285.5 -42t-88.5 -129q0 -95 87 -136.5t287 -41.5q192 1 274.5 37t83.5 119
z" />
    <glyph glyph-name="colon" unicode=":" horiz-adv-x="459" 
d="M229 636q-63 0 -87.5 27t-24.5 97t25 98t87 28q63 0 88 -28t25 -98t-25 -97t-88 -27zM229 -10q-63 0 -87.5 27.5t-24.5 97.5t24.5 97.5t87.5 27.5t88 -27.5t25 -97.5t-25 -97.5t-88 -27.5z" />
    <glyph glyph-name="semicolon" unicode=";" horiz-adv-x="480" 
d="M246 636q-63 0 -87.5 27.5t-24.5 96.5q0 70 25 98t87 28q63 0 88 -28t25 -98t-25 -97t-88 -27zM362 123h1q0 -167 -150 -323h-96l105 197q-46 5 -65.5 33.5t-19.5 90.5q0 70 24.5 97.5t87.5 27.5q62 0 87.5 -27.5t25.5 -95.5z" />
    <glyph glyph-name="less" unicode="&#x3c;" horiz-adv-x="1075" 
d="M997 885v-186l-647 -223l647 -221v-186l-919 344v126z" />
    <glyph glyph-name="equal" unicode="=" horiz-adv-x="973" 
d="M78 529v170h817v-170h-817zM78 207v170h817v-170h-817z" />
    <glyph glyph-name="greater" unicode="&#x3e;" horiz-adv-x="1075" 
d="M78 885l919 -346v-126l-919 -344v186l647 221l-647 223v186z" />
    <glyph glyph-name="question" unicode="?" horiz-adv-x="1250" 
d="M626 1105q292 0 419 -89.5t127 -294.5q0 -208 -101 -297t-332 -90h-332v170h332q130 0 189.5 54t59.5 163q0 108 -86.5 161t-275.5 53q-192 0 -278 -61t-86 -187h-184q0 207 131 312.5t417 105.5zM517 240q63 0 88 -27.5t25 -97.5t-25 -97.5t-88 -27.5t-87.5 27.5
t-24.5 97.5t24.5 97.5t87.5 27.5z" />
    <glyph glyph-name="at" unicode="@" horiz-adv-x="1330" 
d="M535 971q172 0 296 -25.5t205.5 -73t129.5 -127t67 -176.5t19 -232q-2 -136 -27 -209t-74.5 -101.5t-139.5 -28.5q-146 0 -209 85q-84 -89 -327 -91q-191 0 -274.5 52t-83.5 172q0 110 83 158t272 48q212 0 283 -74q-1 42 -5 66t-17 47t-39 34t-68.5 17.5t-107.5 6.5
h-378v162h428q195 0 279 -82t84 -247q0 -87 9.5 -134.5t26 -63t45.5 -15.5q41 0 52.5 36t11.5 162q0 142 -29.5 233t-98 144.5t-165.5 74t-248 20.5h-405v162h405zM505 140q54 0 84 0.5t62.5 2.5t48.5 6.5t30 12t19 18.5t5 27t-4.5 27.5t-19.5 19t-30 11.5t-48 6t-61.5 2.5
t-83.5 0.5q-69 0 -100 -1t-62.5 -6.5t-41.5 -17.5t-10 -34q0 -49 44 -62t168 -13z" />
    <glyph glyph-name="A" unicode="A" 
d="M1147 0l-120 249h-689l-120 -249h-198l548 1097h230l547 -1097h-198zM420 419h525l-262 544z" />
    <glyph glyph-name="B" unicode="B" horiz-adv-x="1249" 
d="M1032 559q170 -72 170 -266q0 -158 -107 -225.5t-313 -67.5h-665v1097h624q205 0 312 -67.5t107 -224.5q0 -169 -128 -246zM781 927h-480v-298h480q101 0 148 33t47 119q0 82 -47.5 114t-147.5 32zM822 170q99 0 147.5 31.5t48.5 115.5t-47.5 117.5t-148.5 33.5h-521
v-298h521z" />
    <glyph glyph-name="C" unicode="C" horiz-adv-x="1378" 
d="M750 149q76 0 141 11.5t119.5 35.5t86 66.5t31.5 99.5h183q0 -177 -144.5 -280t-416.5 -103q-150 0 -265.5 26.5t-192 74.5t-125 120t-69 157.5t-20.5 193.5q0 136 34 237.5t110 178.5t208.5 116.5t319.5 39.5q272 0 416.5 -103t144.5 -280h-183q0 76 -56 125.5
t-137 68.5t-185 19q-269 0 -378.5 -90t-109.5 -312q0 -219 109 -310.5t379 -91.5z" />
    <glyph glyph-name="D" unicode="D" horiz-adv-x="1352" 
d="M745 1097q142 4 245 -32.5t164.5 -110t90.5 -173.5t29 -232q0 -268 -124.5 -408t-399.5 -141h-633v1097h628zM750 170q188 0 264 84t76 295q0 210 -76.5 294t-268.5 84h-444v-757h449z" />
    <glyph glyph-name="E" unicode="E" horiz-adv-x="1158" 
d="M117 0v1097h952v-170h-768v-269h726v-170h-726v-318h779v-170h-963z" />
    <glyph glyph-name="F" unicode="F" horiz-adv-x="1144" 
d="M117 0v1097h949v-170h-765v-280h736v-170h-736v-477h-184z" />
    <glyph glyph-name="G" unicode="G" horiz-adv-x="1420" 
d="M808 418v170h495v-588h-180v144q-118 -164 -379 -164q-185 0 -316 39t-206.5 115t-109.5 176.5t-34 235.5t34 237.5t109.5 180.5t206.5 118.5t316 40.5q269 0 414 -103.5t145 -279.5h-183q0 57 -33 100t-88.5 66.5t-119.5 35t-135 11.5q-263 0 -372.5 -94t-109.5 -313
q0 -217 108.5 -306.5t373.5 -89.5q60 0 109.5 4.5t101.5 18t87.5 36t58 61t22.5 90.5v58h-315z" />
    <glyph glyph-name="H" unicode="H" horiz-adv-x="1404" 
d="M1103 1097h184v-1097h-184v489h-802v-489h-184v1097h184v-438h802v438z" />
    <glyph glyph-name="I" unicode="I" horiz-adv-x="418" 
d="M117 0v1097h184v-1097h-184z" />
    <glyph glyph-name="J" unicode="J" horiz-adv-x="1214" 
d="M1120 1097v-696q0 -85 -13 -146.5t-48 -116t-94.5 -87.5t-154 -52t-225.5 -19t-226 19t-154.5 52t-94 87t-47.5 116t-13 147h184q0 -56 8 -94t30 -69.5t61.5 -50t101 -28t150.5 -9.5q110 0 179.5 14t107.5 47t51.5 76.5t13.5 113.5v525h-522v171h705z" />
    <glyph glyph-name="K" unicode="K" horiz-adv-x="1303" 
d="M1066 0l-477 508l-288 -243v-265h-184v1097h184v-627l739 627h246l-566 -478l592 -619h-246z" />
    <glyph glyph-name="L" unicode="L" horiz-adv-x="1078" 
d="M117 0v1097h184v-927h737v-170h-921z" />
    <glyph glyph-name="M" unicode="M" horiz-adv-x="1550" 
d="M1161 1097h272v-1097h-184v916l-358 -622h-234l-356 597v-891h-184v1097h260l396 -667z" />
    <glyph glyph-name="N" unicode="N" horiz-adv-x="1394" 
d="M1093 1097h184v-1097h-247l-729 889v-889h-184v1097h239l737 -902v902z" />
    <glyph glyph-name="O" unicode="O" horiz-adv-x="1434" 
d="M718 1120q148 0 258.5 -26t182.5 -73t116.5 -119.5t62.5 -157t18 -193.5t-18 -193.5t-62.5 -157.5t-116.5 -120t-182.5 -73.5t-258.5 -26.5q-149 0 -260 26.5t-183 73.5t-116.5 120t-62.5 157.5t-18 193.5t18 193.5t62.5 157t116.5 119.5t183 73t260 26zM718 150
q251 0 352.5 91.5t101.5 309.5t-101.5 308.5t-352.5 90.5q-253 0 -354.5 -90.5t-101.5 -308.5q0 -219 102 -310t354 -91z" />
    <glyph glyph-name="P" unicode="P" horiz-adv-x="1227" 
d="M712 1097q246 -1 353 -89t107 -290q0 -204 -107.5 -292t-355.5 -88h-408v-338h-184v1097h595zM751 508q131 0 184 48t53 162q0 113 -53 161t-184 48h-450v-419h450z" />
    <glyph glyph-name="Q" unicode="Q" horiz-adv-x="1434" 
d="M1356 551q0 -307 -159 -442l111 -111l-125 -125l-149 149q-131 -42 -316 -42q-149 0 -260 26.5t-183 73.5t-116.5 120t-62.5 157.5t-18 193.5t18 193.5t62.5 157t116.5 119.5t183 73t260 26q148 0 258.5 -26t182.5 -73t116.5 -119.5t62.5 -157t18 -193.5zM718 150
q104 0 174 14l-136 136l128 124l184 -185q104 90 104 312q0 218 -101.5 308.5t-352.5 90.5q-253 0 -354.5 -90.5t-101.5 -308.5q0 -219 102 -310t354 -91z" />
    <glyph glyph-name="R" unicode="R" horiz-adv-x="1288" 
d="M1198 225q0 -145 30 -225h-193q-20 74 -20 225q0 100 -44 137t-157 37h-513v-399h-184v1097h668q222 -1 317 -78t95 -266q0 -106 -36 -166t-116 -89q82 -25 117.5 -88t35.5 -185zM301 570h513q112 0 156 40.5t44 142.5q0 97 -44 135.5t-156 38.5h-513v-357z" />
    <glyph glyph-name="S" unicode="S" horiz-adv-x="1312" 
d="M646 -20q-281 0 -424.5 100t-143.5 280h184q0 -58 33 -100.5t90 -65.5t122 -33.5t139 -10.5q225 0 315 38t90 128q0 67 -41.5 95.5t-121.5 34.5l-439 34q-187 14 -266.5 89t-79.5 228q0 326 554 326q266 0 406.5 -101.5t140.5 -281.5h-184q0 58 -30 101t-83 66.5
t-115 34.5t-135 11q-370 0 -370 -157q0 -66 40.5 -96.5t121.5 -36.5l439 -34q102 -8 170.5 -33t106.5 -68.5t53.5 -97.5t15.5 -129q0 -93 -39.5 -156.5t-118.5 -99t-182.5 -50.5t-247.5 -15z" />
    <glyph glyph-name="T" unicode="T" horiz-adv-x="1176" 
d="M495 0v927h-476v170h1138v-170h-479v-927h-183z" />
    <glyph glyph-name="U" unicode="U" horiz-adv-x="1308" 
d="M654 -20q-131 0 -228.5 18.5t-160.5 52.5t-101.5 87t-54 116t-15.5 147v696h184v-696q0 -91 32 -144t114.5 -80t229.5 -27t229.5 27.5t114.5 80t32 143.5v696h184v-696q0 -105 -25.5 -179t-87.5 -130.5t-173 -84t-274 -27.5z" />
    <glyph glyph-name="V" unicode="V" horiz-adv-x="1290" 
d="M1062 1097h208l-498 -1097h-253l-499 1097h208l417 -949z" />
    <glyph glyph-name="W" unicode="W" horiz-adv-x="1824" 
d="M1602 1097h202l-373 -1097h-238l-281 912l-282 -912h-238l-372 1097h201l288 -910l287 910h232l287 -910z" />
    <glyph glyph-name="X" unicode="X" horiz-adv-x="1245" 
d="M1214 0h-220l-371 437l-372 -437h-220l482 567l-451 530h220l341 -401l340 401h220l-450 -530z" />
    <glyph glyph-name="Y" unicode="Y" horiz-adv-x="1314" 
d="M1067 1097h227l-546 -614v-483h-183v483l-545 614h227l410 -459z" />
    <glyph glyph-name="Z" unicode="Z" horiz-adv-x="1107" 
d="M1049 1097v-170l-781 -765q57 11 189 11h571v-173h-970v173l766 763q-81 -9 -248 -9h-447v170h920z" />
    <glyph glyph-name="bracketleft" unicode="[" horiz-adv-x="587" 
d="M117 -195v1347h431v-162h-255v-1023h255v-162h-431z" />
    <glyph glyph-name="backslash" unicode="\" horiz-adv-x="1002" 
d="M962 -88h-180l-764 1271h180z" />
    <glyph glyph-name="bracketright" unicode="]" horiz-adv-x="587" 
d="M39 -195v162h255v1023h-255v162h431v-1347h-431z" />
    <glyph glyph-name="asciicircum" unicode="^" horiz-adv-x="796" 
d="M834 1231h-176l-202 150l-202 -150h-176l279 251h198z" />
    <glyph glyph-name="underscore" unicode="_" horiz-adv-x="799" 
d="M0 -162v155h799v-155h-799z" />
    <glyph glyph-name="grave" unicode="`" horiz-adv-x="563" 
d="M485 1231h-156l-251 251h238z" />
    <glyph glyph-name="a" unicode="a" horiz-adv-x="1322" 
d="M1137 451q1 -47 1 -74t2 -59.5t3.5 -48.5t6 -36t9 -28t13.5 -18.5t18 -13.5t24.5 -6.5t30 -4t37.5 -0.5v-162q-124 0 -191 24.5t-98 96.5q-45 -73 -148 -106.5t-274 -33.5q-267 0 -380 65.5t-113 229.5q0 153 115.5 222t377.5 69q293 0 389 -96q-2 81 -14.5 129
t-48.5 82.5t-98.5 47.5t-165.5 13q-129 0 -205 -14.5t-109 -58.5h-190q64 135 171.5 185t332.5 50q149 0 246 -25.5t154 -83.5t80 -139.5t24 -205.5zM571 136q213 0 301 33.5t88 109.5t-86.5 106.5t-302.5 30.5q-171 0 -244 -34.5t-73 -105.5q0 -81 69 -110.5t248 -29.5z
" />
    <glyph glyph-name="b" unicode="b" horiz-adv-x="1335" 
d="M686 905q305 0 438 -107t133 -352q0 -246 -133.5 -356t-437.5 -110q-291 0 -393 166v-146h-176v1097h176v-354q101 162 393 162zM686 142q218 0 306 69t88 235q0 165 -87.5 231t-306.5 66q-212 0 -302 -72.5t-90 -220.5q0 -150 91 -229t301 -79z" />
    <glyph glyph-name="c" unicode="c" horiz-adv-x="1239" 
d="M651 142q188 0 264.5 53.5t76.5 176.5h176q0 -212 -119 -302t-398 -90q-311 0 -442 104t-131 354q0 258 130.5 363.5t442.5 105.5q282 0 399.5 -85t117.5 -295h-176q0 122 -75.5 170t-265.5 48q-220 0 -308.5 -69t-88.5 -238q0 -161 89 -228.5t308 -67.5z" />
    <glyph glyph-name="d" unicode="d" horiz-adv-x="1335" 
d="M1042 1097h176v-1097h-176v146q-102 -166 -393 -166q-304 0 -437.5 110t-133.5 356q0 245 133 352t438 107q292 0 393 -162v354zM649 142q210 0 301 79t91 229q0 148 -90 220.5t-302 72.5q-219 0 -306.5 -66t-87.5 -231q0 -166 88 -235t306 -69z" />
    <glyph glyph-name="e" unicode="e" horiz-adv-x="1246" 
d="M1168 523v-162h-905q18 -125 102.5 -172t270.5 -47q260 0 322 81h189q-63 -135 -176 -189t-335 -54q-295 0 -426.5 114.5t-131.5 358.5q0 228 142.5 340t415.5 112q271 0 401.5 -100t130.5 -282zM636 743q-204 0 -283 -44t-92 -176h731q0 117 -82.5 168.5t-273.5 51.5z
" />
    <glyph glyph-name="f" unicode="f" horiz-adv-x="1088" 
d="M407 661v-10h490v-162h-490v-489h-176l1 489h-182v162h182v9q2 249 100 348t340 99q180 0 272 -53.5t124 -183.5h-190q-11 47 -62 61t-144 14q-61 0 -104 -6t-73 -22t-47 -35t-26 -55t-12 -71.5t-3 -94.5z" />
    <glyph glyph-name="g" unicode="g" horiz-adv-x="1232" 
d="M962 870h176v-550q0 -124 -50.5 -197t-167.5 -108t-318 -35q-230 0 -339.5 49.5t-172.5 181.5h213q33 -43 102 -56t197 -13q142 0 220.5 18.5t109 56t30.5 103.5v95q-100 -103 -391 -103q-264 0 -378.5 72t-114.5 238q0 152 114.5 218.5t378.5 66.5q292 0 391 -103v66z
M571 474q217 0 303 30t86 106t-86 105.5t-303 29.5q-176 0 -246.5 -27.5t-70.5 -95.5q0 -82 70.5 -115t246.5 -33z" />
    <glyph glyph-name="h" unicode="h" horiz-adv-x="1270" 
d="M694 907q186 0 291 -47.5t148 -144.5t43 -265v-450h-176v450q0 161 -69.5 228t-250.5 67q-195 0 -291 -75t-96 -229v-441h-176v1097h176v-376q106 186 401 186z" />
    <glyph glyph-name="i" unicode="i" horiz-adv-x="410" 
d="M205 1002q-64 0 -89 22.5t-25 79.5t25 80t89 23q63 0 88 -23t25 -80t-25 -79.5t-88 -22.5zM117 0v870h176v-870h-176z" />
    <glyph glyph-name="j" unicode="j" horiz-adv-x="760" 
d="M578 1002q-64 0 -89 22.5t-25 79.5t25 80t89 23q63 0 88 -23t25 -80t-25 -79.5t-88 -22.5zM326 -19q-163 0 -237 57t-89 214h183q9 -70 39.5 -89.5t103.5 -19.5q84 0 120.5 47t36.5 155l-1 525h184v-548q0 -182 -79 -261.5t-261 -79.5z" />
    <glyph glyph-name="k" unicode="k" horiz-adv-x="1143" 
d="M909 0l-405 417l-211 -150v-267h-176v1097h176v-643l589 416h258l-493 -351l500 -519h-238z" />
    <glyph glyph-name="l" unicode="l" horiz-adv-x="410" 
d="M117 0v1097h176v-1097h-176z" />
    <glyph glyph-name="m" unicode="m" horiz-adv-x="1996" 
d="M1445 905q252 0 354.5 -104t102.5 -351v-450h-176v450q0 160 -62 226.5t-219 66.5q-173 0 -260 -64.5t-87 -206.5v-472h-176v450q0 160 -62 226.5t-219 66.5q-180 0 -264 -70.5t-84 -231.5v-441h-176v870h176v-134q92 169 348 169q171 0 270 -46t144 -147
q106 193 390 193z" />
    <glyph glyph-name="n" unicode="n" horiz-adv-x="1270" 
d="M694 905q140 0 232 -24.5t148 -81t79 -140t23 -209.5v-450h-176v450q0 161 -69.5 227t-250.5 66q-196 0 -291.5 -74.5t-95.5 -227.5v-441h-176v870h176v-150q105 185 401 185z" />
    <glyph glyph-name="o" unicode="o" horiz-adv-x="1297" 
d="M649 905q304 0 437 -107.5t133 -353.5t-133 -355t-437 -109q-305 0 -438 109t-133 355t133 353.5t438 107.5zM649 142q218 0 306 68t88 234q0 165 -88 232t-306 67q-219 0 -307 -67t-88 -232q0 -166 88 -234t307 -68z" />
    <glyph glyph-name="p" unicode="p" horiz-adv-x="1254" 
d="M683 905q264 0 378.5 -83.5t114.5 -277.5q0 -208 -114.5 -298t-378.5 -90q-156 0 -249.5 29t-140.5 98v-283h-176v870h176v-90q47 68 140.5 96.5t249.5 28.5zM683 318q176 0 246.5 50t70.5 176q0 112 -70 155.5t-247 43.5q-88 0 -147.5 -5t-108.5 -18.5t-76.5 -37.5
t-42 -60.5t-14.5 -89.5q0 -127 86.5 -170.5t302.5 -43.5z" />
    <glyph glyph-name="q" unicode="q" horiz-adv-x="1254" 
d="M961 870h176v-870h-176v283q-47 -69 -140.5 -98t-249.5 -29q-264 0 -378.5 90t-114.5 298q0 194 114.5 277.5t378.5 83.5q156 0 249.5 -28.5t140.5 -96.5v90zM571 318q216 0 302.5 43.5t86.5 170.5q0 53 -14.5 89.5t-42 60.5t-76.5 37.5t-108.5 18.5t-147.5 5
q-177 0 -247 -43.5t-70 -155.5q0 -126 70.5 -176t246.5 -50z" />
    <glyph glyph-name="r" unicode="r" horiz-adv-x="1138" 
d="M677 905q201 0 316 -95t115 -283h-175q0 100 -74.5 158t-208.5 58q-84 0 -147 -19.5t-102.5 -53.5t-64 -85.5t-34 -110t-9.5 -133.5v-341h-176v870h176v-155q101 190 384 190z" />
    <glyph glyph-name="s" unicode="s" horiz-adv-x="1151" 
d="M565 -20q-240 0 -371.5 84t-131.5 227h184q0 -38 31.5 -68t81 -47t102.5 -25.5t104 -8.5q189 0 265 23t76 82q0 91 -163 106l-310 28q-187 18 -266.5 74.5t-79.5 185.5q0 131 128.5 198.5t360.5 67.5q226 0 354.5 -84.5t128.5 -226.5h-184q0 38 -28.5 68.5t-74.5 47
t-96 25t-100 8.5q-162 0 -233.5 -22t-71.5 -73q0 -45 42 -66t120 -28l310 -27q103 -9 173 -33.5t107 -65t51.5 -87t14.5 -109.5q0 -60 -25.5 -104.5t-69.5 -73t-111.5 -45.5t-143.5 -24t-174 -7z" />
    <glyph glyph-name="t" unicode="t" horiz-adv-x="927" 
d="M704 212h183q-16 -124 -92 -177.5t-234 -53.5q-182 0 -261 79.5t-79 261.5v386h-181v162h181v227h184v-227h424v-162h-425v-363q0 -108 36.5 -155t120.5 -47q67 0 100 16t43 53z" />
    <glyph glyph-name="u" unicode="u" horiz-adv-x="1200" 
d="M930 870h176v-870h-176v167q-101 -187 -363 -187q-259 0 -366 105t-107 352v433h176v-433q0 -162 60 -228.5t223 -66.5q178 0 277.5 82t99.5 234v412z" />
    <glyph glyph-name="v" unicode="v" horiz-adv-x="1205" 
d="M966 870h200l-444 -870h-239l-444 870h200l364 -725z" />
    <glyph glyph-name="w" unicode="w" horiz-adv-x="1878" 
d="M1640 870h199l-341 -870h-238l-321 738l-322 -738h-238l-340 870h200l260 -705l314 705h252l314 -706z" />
    <glyph glyph-name="x" unicode="x" horiz-adv-x="1179" 
d="M1159 0h-231l-344 342l-333 -342h-231l447 459l-413 411h230l297 -295l287 295h231l-401 -412z" />
    <glyph glyph-name="y" unicode="y" horiz-adv-x="1227" 
d="M957 870h176v-550q0 -77 -11.5 -129t-42 -94.5t-85 -67t-138 -37t-204.5 -12.5q-239 0 -380.5 51.5t-201.5 179.5h213q32 -42 128.5 -55.5t240.5 -13.5q83 0 138.5 6.5t88.5 18t50 34t22.5 46.5t5.5 65h-457q-220 0 -307.5 70t-87.5 247v241h176v-241q0 -86 45.5 -120.5
t159.5 -34.5h471v396z" />
    <glyph glyph-name="z" unicode="z" horiz-adv-x="1119" 
d="M1041 870v-156l-700 -552h697v-162h-960v156l700 552h-657v162h920z" />
    <glyph glyph-name="braceleft" unicode="{" horiz-adv-x="651" 
d="M533 -198q-107 0 -184 56q-78 57 -78 232v81q0 119 -45 169q-45 49 -152 49h-16q-8 -1 -19 -1v178h19q7 -1 16 -1q107 0 152 49q45 50 45 169v80q0 173 78 231q77 58 184 58h99v-154h-29q-102 0 -138 -38q-36 -39 -36 -160v-56q0 -132 -34 -187q-35 -55 -120 -81
q85 -24 120 -80q34 -56 34 -189v-55q0 -121 36 -160q35 -38 132 -38q9 0 17 1t18 1v-154h-99z" />
    <glyph glyph-name="bar" unicode="|" horiz-adv-x="365" 
d="M117 -156v1370h131v-1370h-131z" />
    <glyph glyph-name="braceright" unicode="}" horiz-adv-x="651" 
d="M19 -198v154q10 0 18 -1t17 -1q97 0 133 38q35 40 35 160v55q0 130 33 187q33 56 120 82q-84 25 -119 81q-34 55 -34 187v56q0 121 -36 160q-36 38 -138 38h-29v154h99q107 0 184 -58q78 -58 78 -231v-80q0 -119 45 -168q44 -50 152 -50q9 0 17 1h18v-178q-11 0 -18 1
h-17q-107 0 -152 -49q-45 -50 -45 -169v-81q0 -175 -78 -232q-79 -56 -184 -56h-99z" />
    <glyph glyph-name="asciitilde" unicode="~" horiz-adv-x="848" 
d="M537 349q-50 0 -125.5 38t-115.5 38q-59 0 -104 -75h-114q25 93 83.5 148t151.5 55q49 0 122 -37t119 -37q61 0 103 73h113q-62 -203 -233 -203z" />
    <glyph glyph-name="exclamdown" unicode="&#xa1;" horiz-adv-x="450" 
d="M220 917q63 0 88 -27.5t25 -97.5t-25 -97.5t-88 -27.5t-87.5 27.5t-24.5 97.5t24.5 97.5t87.5 27.5zM163 565h118l45 -756h-209z" />
    <glyph glyph-name="cent" unicode="&#xa2;" horiz-adv-x="1239" 
d="M751 256q130 13 185.5 67t55.5 159h176q0 -192 -97 -283.5t-320 -105.5v-89h-162v87q-276 9 -393.5 114t-117.5 343q0 245 117.5 352t393.5 116v84h162v-86q224 -13 320.5 -99.5t96.5 -277.5h-176q0 105 -54.5 154.5t-186.5 59.5v-595zM254 548q0 -149 76 -217.5
t259 -77.5v601q-184 -9 -259.5 -79t-75.5 -227z" />
    <glyph glyph-name="sterling" unicode="&#xa3;" horiz-adv-x="1389" 
d="M452 243q38 -9 115.5 -27.5t115 -27t94 -19.5t100.5 -15.5t86 -4.5l16 -170q-210 0 -598 120q-31 -41 -65.5 -66.5t-74.5 -36t-69 -13.5t-75 -3h-19v156q130 13 178.5 73.5t48.5 201.5q0 5 -0.5 12.5t-1.5 22t-2 28.5h-190v162h177q-8 102 -8 166q0 78 24.5 135.5
t66 92.5t105 56.5t132.5 29t158 7.5q481 0 481 -395h-185q0 128 -77 180.5t-219 52.5q-1 3 -1 70v-70q-92 0 -152.5 -11.5t-91.5 -35.5t-43 -53t-12 -71q0 -66 7 -154h344v-162h-333q2 -69 -9 -133q-10 -54 -23 -98zM1123 315h188q0 -177 -76.5 -256.5t-255.5 -79.5l-15 170
q89 0 124 37.5t35 128.5z" />
    <glyph glyph-name="currency" unicode="&#xa4;" horiz-adv-x="1051" 
d="M203 115l-125 124l103 103q-73 73 -73 218q0 146 76 219l-106 106l125 125l154 -154q71 13 170 13t168 -13l154 154l124 -125l-105 -105q76 -73 76 -220q0 -145 -74 -218l103 -103l-124 -124l-149 149q-78 -14 -173 -14q-98 0 -174 14zM527 385q138 0 198 40.5t60 134.5
t-60 134t-198 40q-139 0 -199.5 -40t-60.5 -134t60.5 -134.5t199.5 -40.5z" />
    <glyph glyph-name="yen" unicode="&#xa5;" horiz-adv-x="1314" 
d="M1294 1097l-545 -613h404v-170h-405v-314h-183v314h-413v170h412l-544 613h227l410 -459l410 459h227z" />
    <glyph glyph-name="brokenbar" unicode="&#xa6;" horiz-adv-x="365" 
d="M117 643v571h131v-571h-131zM117 -156v552h131v-552h-131z" />
    <glyph glyph-name="section" unicode="&#xa7;" horiz-adv-x="1261" 
d="M1057 391q87 -55 87 -179q0 -64 -37 -107.5t-109 -67.5t-162 -34.5t-213 -10.5q-243 0 -374.5 73t-131.5 196h184q0 -33 32 -58.5t82 -40t103.5 -22t104.5 -7.5q182 0 260 21.5t78 67.5q0 23 -12.5 38.5t-38 24t-50 12.5t-62.5 7l-310 24q-193 15 -269.5 69t-76.5 165
q0 97 94 150q-94 53 -94 176q0 220 487 222q228 0 356.5 -73t128.5 -196h-184q0 44 -50 74.5t-115.5 42.5t-135.5 12q-107 0 -177 -12t-98 -29.5t-28 -40.5q0 -40 42.5 -58t119.5 -24l310 -23q103 -8 172 -27.5t106.5 -51.5t52.5 -71t15 -94q0 -97 -87 -148zM729 461
q117 -9 174.5 18.5t57.5 70.5q0 22 -14 38.5t-41.5 26t-56.5 16t-72 9t-74.5 3.5t-76.5 1q-300 -2 -300 -83q0 -37 40.5 -56t121.5 -25z" />
    <glyph glyph-name="dieresis" unicode="&#xa8;" horiz-adv-x="734" 
d="M192 1232q-64 0 -89 22.5t-25 79.5t25 80t89 23q63 0 88 -23t25 -80t-25 -79.5t-88 -22.5zM543 1232q-64 0 -89 22.5t-25 79.5t25 80t89 23q63 0 88 -23t25 -80t-25 -79.5t-88 -22.5z" />
    <glyph glyph-name="copyright" unicode="&#xa9;" horiz-adv-x="1391" 
d="M700 1097q174 0 288 -26.5t188 -91t105.5 -167.5t31.5 -261q0 -211 -59 -334t-192 -180t-362 -57q-233 0 -368 57t-194.5 180t-59.5 334q0 158 31.5 261t106.5 167.5t190.5 91t293.5 26.5zM700 101q266 0 374.5 102.5t108.5 347.5q0 124 -24.5 204.5t-83.5 130t-148.5 70
t-226.5 20.5q-141 0 -232.5 -20.5t-151 -70.5t-84.5 -130t-25 -204q0 -245 110 -347.5t383 -102.5zM700 705q-133 -2 -176.5 -31.5t-43.5 -115.5q0 -81 44 -109t176 -30q117 0 156 23t39 94h126q4 -133 -67.5 -184t-253.5 -51q-191 2 -268.5 58.5t-77.5 198.5
q0 148 77 207.5t269 58.5q182 0 254 -54t67 -182h-126q0 72 -39.5 94.5t-155.5 22.5z" />
    <glyph glyph-name="ordfeminine" unicode="&#xaa;" horiz-adv-x="1074" 
d="M891 813v-76.5t2.5 -61.5t9.5 -47t18.5 -33t30.5 -19t47 -6v-120q-161 0 -214 102q-63 -108 -319 -108q-196 0 -281 53.5t-85 175.5q0 113 85 162.5t281 49.5q222 0 289 -83q-3 122 -50 159t-193 37q-113 0 -162.5 -9t-70.5 -37h-141q47 99 127 135.5t247 35.5
q202 0 290.5 -72t88.5 -238zM466 569q161 0 225.5 20t63.5 76q1 55 -63 75t-226 20q-133 -1 -181.5 -18.5t-48.5 -68.5q0 -60 49.5 -82t180.5 -22z" />
    <glyph glyph-name="guillemotleft" unicode="&#xab;" horiz-adv-x="1032" 
d="M381 47l-342 394l342 380h192l-338 -380l338 -394h-192zM801 47l-342 394l342 380h192l-338 -380l338 -394h-192z" />
    <glyph glyph-name="logicalnot" unicode="&#xac;" horiz-adv-x="980" 
d="M902 562v-562h-184v392h-640v170h824z" />
    <glyph glyph-name="uni00AD" unicode="&#xad;" horiz-adv-x="792" 
d="M117 380v170h558v-170h-558z" />
    <glyph glyph-name="registered" unicode="&#xae;" horiz-adv-x="973" 
d="M179 741q0 -154 67.5 -215t237.5 -62v-93q-118 0 -198.5 25t-125.5 75.5t-63.5 115t-18.5 154.5t18.5 154t63.5 114.5t125.5 75.5t198.5 25v-93q-170 -1 -237.5 -62t-67.5 -214zM487 1110q118 0 199 -25t126 -75t64 -114.5t19 -154.5t-19 -155t-64 -115t-126 -75
t-199 -25q-1 0 -1 46.5t1 46.5q171 0 239 61.5t68 215.5q0 153 -68 214.5t-239 61.5q-1 0 -1 46.5t1 46.5zM594 635q0 24 -6.5 34t-25.5 11h-174v-111h-94v341h270q64 0 93 -20t28 -77q-1 -67 -52 -80q34 -10 43 -30t9 -68q0 -33 15 -66h-97q-9 28 -9 66zM557 770
q37 0 37 25q0 26 -37 26h-169v-51h169z" />
    <glyph glyph-name="macron" unicode="&#xaf;" horiz-adv-x="652" 
d="M78 1232v145h496v-145h-496z" />
    <glyph glyph-name="degree" unicode="&#xb0;" horiz-adv-x="751" 
d="M375 1110q60 0 109.5 -12.5t93.5 -41t69 -83.5t25 -132q0 -54 -13.5 -98t-45.5 -83.5t-92.5 -61.5t-145.5 -22t-145.5 22t-92.5 61.5t-45.5 83.5t-13.5 98q0 77 25 132t69 83.5t93.5 41t109.5 12.5zM375 705q66 0 109 31t43 106q0 138 -152 138t-152 -138q0 -75 43 -106
t109 -31z" />
    <glyph glyph-name="plusminus" unicode="&#xb1;" horiz-adv-x="1176" 
d="M497 312v199h-419v171h419v186h176v-186h425v-171h-425v-199h-176zM78 0v171h1020v-171h-1020z" />
    <glyph glyph-name="uni00B2" unicode="&#xb2;" horiz-adv-x="810" 
d="M732 900q6 -94 -79.5 -171t-266.5 -142l346 1v-121h-630v128l10 -1q21 7 62 20q63 20 94.5 30.5t85 30t81.5 33t64.5 34t55 39.5t33 44t16.5 52q3 74 -41.5 104t-161.5 31q-100 -1 -141 -32t-37 -102l-129 15q-3 123 67.5 180.5t226.5 59.5h11h12q163 -2 240 -58t81 -175
z" />
    <glyph glyph-name="uni00B3" unicode="&#xb3;" horiz-adv-x="816" 
d="M738 655q0 -101 -77.5 -145t-254.5 -46q-179 -2 -255.5 53t-72.5 185h128q-5 -64 36.5 -91t147.5 -28q120 1 170 17.5t50 54.5q0 39 -23 56t-81 18h-138v107h80l-1 2q4 0 12.5 -0.5t12.5 -1.5q60 1 88 21t28 61q0 43 -37.5 61.5t-127.5 19.5h-7h-17q-94 -1 -131 -27.5
t-33 -90.5h-128q-3 125 65 180.5t227 57.5h16h8q155 -2 223.5 -48.5t68.5 -152.5q0 -77 -72 -119q95 -42 95 -144z" />
    <glyph glyph-name="acute" unicode="&#xb4;" horiz-adv-x="563" 
d="M78 1231l169 251h238l-251 -251h-156z" />
    <glyph glyph-name="uni00B5" unicode="&#xb5;" horiz-adv-x="1293" 
d="M1106 419q6 -154 12 -185q11 -50 51 -63q27 -9 84 -9v-162q-72 0 -118.5 6t-89.5 23.5t-68 52.5t-36 90q-45 -94 -129 -137t-214 -43q-127 0 -208 41t-126 129l-17 -162h-153v868h176v-410q0 -153 81 -228.5t247 -75.5q319 0 334 275l-2 439h176v-449z" />
    <glyph glyph-name="paragraph" unicode="&#xb6;" horiz-adv-x="1278" 
d="M1198 927h-149v-610q4 -93 33 -124t114 -31v-162q-100 0 -165.5 20.5t-98.5 62t-45 89t-12 117.5v32l-1 606h-156v-927h-177v338q-248 0 -355.5 88t-107.5 292q0 203 107.5 291t355.5 88h657v-170z" />
    <glyph glyph-name="periodcentered" unicode="&#xb7;" horiz-adv-x="597" 
d="M298 340q-63 0 -87.5 27.5t-24.5 97.5t24.5 97.5t87.5 27.5t88 -27.5t25 -97.5t-25 -97.5t-88 -27.5z" />
    <glyph glyph-name="cedilla" unicode="&#xb8;" horiz-adv-x="544" 
d="M275 -363q-62 0 -197 34v90q129 -27 192 -27q41 0 56 10t15 31q0 30 -19 41.5t-62 11.5q-102 0 -107 -1v214h120v-124h17q97 0 136.5 -30t39.5 -108q0 -82 -44.5 -112t-146.5 -30z" />
    <glyph glyph-name="uni00B9" unicode="&#xb9;" horiz-adv-x="698" 
d="M436 587h184v-120h-502v120h200v390h-201v98l319 43v-531z" />
    <glyph glyph-name="ordmasculine" unicode="&#xba;" horiz-adv-x="1047" 
d="M522 1123q228 0 326.5 -78.5t98.5 -260.5t-98 -261t-327 -79q-227 1 -324.5 79.5t-97.5 260.5q0 181 98 259.5t324 79.5zM522 570q164 0 226.5 46t62.5 168t-62.5 168t-226.5 46q-162 -1 -224 -47t-62 -167q0 -122 61.5 -167.5t224.5 -46.5z" />
    <glyph glyph-name="guillemotright" unicode="&#xbb;" horiz-adv-x="1032" 
d="M231 47h-192l338 394l-338 380h192l342 -380zM651 47h-192l338 394l-338 380h192l342 -380z" />
    <glyph glyph-name="questiondown" unicode="&#xbf;" horiz-adv-x="1250" 
d="M710 665q-63 0 -88 27.5t-25 97.5t25 97.5t88 27.5t87.5 -27.5t24.5 -97.5t-24.5 -97.5t-87.5 -27.5zM988 218h184q0 -207 -131 -312.5t-417 -105.5q-292 0 -419 89.5t-127 294.5q0 208 101 297t332 90h332v-170h-332q-130 0 -189.5 -54t-59.5 -163q0 -108 86.5 -161
t275.5 -53q192 0 278 61t86 187z" />
    <glyph glyph-name="Agrave" unicode="&#xc0;" 
d="M766 1231h-156l-251 251h238zM1147 0l-120 249h-689l-120 -249h-198l548 1097h230l547 -1097h-198zM420 419h525l-262 544z" />
    <glyph glyph-name="Aacute" unicode="&#xc1;" 
d="M1001 1482l-251 -251h-156l169 251h238zM1147 0l-120 249h-689l-120 -249h-198l548 1097h230l547 -1097h-198zM420 419h525l-262 544z" />
    <glyph glyph-name="Acircumflex" unicode="&#xc2;" 
d="M682 1381l-202 -150h-176l279 251h198l279 -251h-176zM1147 0l-120 249h-689l-120 -249h-198l548 1097h230l547 -1097h-198zM420 419h525l-262 544z" />
    <glyph glyph-name="Atilde" unicode="&#xc3;" 
d="M554 1307q-59 0 -104 -75h-114q25 93 83.5 148t151.5 55q49 0 122 -37t119 -37q61 0 103 73h113q-62 -203 -233 -203q-50 0 -125.5 38t-115.5 38zM1147 0l-120 249h-689l-120 -249h-198l548 1097h230l547 -1097h-198zM420 419h525l-262 544z" />
    <glyph glyph-name="Adieresis" unicode="&#xc4;" 
d="M507 1232q-64 0 -89 22.5t-25 79.5t25 80t89 23q63 0 88 -23t25 -80t-25 -79.5t-88 -22.5zM858 1232q-64 0 -89 22.5t-25 79.5t25 80t89 23q63 0 88 -23t25 -80t-25 -79.5t-88 -22.5zM1147 0l-120 249h-689l-120 -249h-198l548 1097h230l547 -1097h-198zM420 419h525
l-262 544z" />
    <glyph glyph-name="Aring" unicode="&#xc5;" 
d="M683 1232q-102 0 -144 46.5t-42 118.5q0 168 186 168q185 0 185 -168q0 -165 -185 -165zM683 1455q-64 0 -64 -57q0 -56 64 -56q62 0 62 56q0 57 -62 57zM1147 0l-120 249h-689l-120 -249h-198l548 1097h230l547 -1097h-198zM420 419h525l-262 544z" />
    <glyph glyph-name="AE" unicode="&#xc6;" horiz-adv-x="1705" 
d="M1260 170h367v-170h-480l-120 249h-689l-120 -249h-198l548 1097h1048v-170h-733l134 -269h559v-171h-474zM420 419h525l-262 544z" />
    <glyph glyph-name="Ccedilla" unicode="&#xc7;" horiz-adv-x="1378" 
d="M750 149q76 0 141 11.5t119.5 35.5t86 66.5t31.5 99.5h183q0 -168 -131 -270t-379 -112v-84h17q97 0 136.5 -30t39.5 -108q0 -82 -44.5 -112t-146.5 -30q-62 0 -197 34v90q129 -27 192 -27q41 0 56 10t15 31q0 30 -19 41.5t-62 11.5q-102 0 -107 -1v174q-167 7 -286 50
t-187.5 119.5t-99 174.5t-30.5 227q0 136 34 237.5t110 178.5t208.5 116.5t319.5 39.5q272 0 416.5 -103t144.5 -280h-183q0 76 -56 125.5t-137 68.5t-185 19q-269 0 -378.5 -90t-109.5 -312q0 -219 109 -310.5t379 -91.5z" />
    <glyph glyph-name="Egrave" unicode="&#xc8;" horiz-adv-x="1158" 
d="M703 1231h-156l-251 251h238zM117 0v1097h952v-170h-768v-269h726v-170h-726v-318h779v-170h-963z" />
    <glyph glyph-name="Eacute" unicode="&#xc9;" horiz-adv-x="1158" 
d="M531 1231l169 251h238l-251 -251h-156zM117 0v1097h952v-170h-768v-269h726v-170h-726v-318h779v-170h-963z" />
    <glyph glyph-name="Ecircumflex" unicode="&#xca;" horiz-adv-x="1158" 
d="M619 1381l-202 -150h-176l279 251h198l279 -251h-176zM301 170h779v-170h-963v1097h952v-170h-768v-269h726v-170h-726v-318z" />
    <glyph glyph-name="Edieresis" unicode="&#xcb;" horiz-adv-x="1158" 
d="M444 1232q-64 0 -89 22.5t-25 79.5t25 80t89 23q63 0 88 -23t25 -80t-25 -79.5t-88 -22.5zM795 1232q-64 0 -89 22.5t-25 79.5t25 80t89 23q63 0 88 -23t25 -80t-25 -79.5t-88 -22.5zM117 0v1097h952v-170h-768v-269h726v-170h-726v-318h779v-170h-963z" />
    <glyph glyph-name="Igrave" unicode="&#xcc;" horiz-adv-x="418" 
d="M293 1231h-156l-251 251h238zM117 0v1097h184v-1097h-184z" />
    <glyph glyph-name="Iacute" unicode="&#xcd;" horiz-adv-x="418" 
d="M121 1231l169 251h238l-251 -251h-156zM117 0v1097h184v-1097h-184z" />
    <glyph glyph-name="Icircumflex" unicode="&#xce;" horiz-adv-x="418" 
d="M308 1482l279 -251h-176l-202 150l-202 -150h-176l279 251h198zM117 0v1097h184v-1097h-184z" />
    <glyph glyph-name="Idieresis" unicode="&#xcf;" horiz-adv-x="418" 
d="M34 1232q-64 0 -89 22.5t-25 79.5t25 80t89 23q63 0 88 -23t25 -80t-25 -79.5t-88 -22.5zM385 1232q-64 0 -89 22.5t-25 79.5t25 80t89 23q63 0 88 -23t25 -80t-25 -79.5t-88 -22.5zM117 0v1097h184v-1097h-184z" />
    <glyph glyph-name="Eth" unicode="&#xd0;" horiz-adv-x="1352" 
d="M745 1097q142 4 245 -32.5t164.5 -110t90.5 -173.5t29 -232q0 -268 -124.5 -408t-399.5 -141h-633v455h-123v170h123v472h628zM750 170q188 0 264 84t76 295q0 210 -76.5 294t-268.5 84h-444v-302h487v-170h-487v-285h449z" />
    <glyph glyph-name="Ntilde" unicode="&#xd1;" horiz-adv-x="1394" 
d="M569 1307q-59 0 -104 -75h-114q25 93 83.5 148t151.5 55q48 0 122 -37t119 -37q61 0 103 73h113q-62 -203 -233 -203q-50 0 -125.5 38t-115.5 38zM1093 1097h184v-1097h-247l-729 889v-889h-184v1097h239l737 -902v902z" />
    <glyph glyph-name="Ograve" unicode="&#xd2;" horiz-adv-x="1434" 
d="M801 1231h-156l-251 251h238zM718 1120q148 0 258.5 -26t182.5 -73t116.5 -119.5t62.5 -157t18 -193.5t-18 -193.5t-62.5 -157.5t-116.5 -120t-182.5 -73.5t-258.5 -26.5q-149 0 -260 26.5t-183 73.5t-116.5 120t-62.5 157.5t-18 193.5t18 193.5t62.5 157t116.5 119.5
t183 73t260 26zM718 150q251 0 352.5 91.5t101.5 309.5t-101.5 308.5t-352.5 90.5q-253 0 -354.5 -90.5t-101.5 -308.5q0 -219 102 -310t354 -91z" />
    <glyph glyph-name="Oacute" unicode="&#xd3;" horiz-adv-x="1434" 
d="M1094 1482l-251 -251h-156l169 251h238zM718 1120q148 0 258.5 -26t182.5 -73t116.5 -119.5t62.5 -157t18 -193.5t-18 -193.5t-62.5 -157.5t-116.5 -120t-182.5 -73.5t-258.5 -26.5q-149 0 -260 26.5t-183 73.5t-116.5 120t-62.5 157.5t-18 193.5t18 193.5t62.5 157
t116.5 119.5t183 73t260 26zM718 150q251 0 352.5 91.5t101.5 309.5t-101.5 308.5t-352.5 90.5q-253 0 -354.5 -90.5t-101.5 -308.5q0 -219 102 -310t354 -91z" />
    <glyph glyph-name="Ocircumflex" unicode="&#xd4;" horiz-adv-x="1434" 
d="M717 1381l-202 -150h-176l279 251h198l279 -251h-176zM718 1120q148 0 258.5 -26t182.5 -73t116.5 -119.5t62.5 -157t18 -193.5t-18 -193.5t-62.5 -157.5t-116.5 -120t-182.5 -73.5t-258.5 -26.5q-149 0 -260 26.5t-183 73.5t-116.5 120t-62.5 157.5t-18 193.5t18 193.5
t62.5 157t116.5 119.5t183 73t260 26zM718 150q251 0 352.5 91.5t101.5 309.5t-101.5 308.5t-352.5 90.5q-253 0 -354.5 -90.5t-101.5 -308.5q0 -219 102 -310t354 -91z" />
    <glyph glyph-name="Otilde" unicode="&#xd5;" horiz-adv-x="1434" 
d="M589 1307q-59 0 -104 -75h-114q25 93 83.5 148t151.5 55q48 0 122 -37t119 -37q61 0 103 73h113q-62 -203 -233 -203q-50 0 -125.5 38t-115.5 38zM718 1120q148 0 258.5 -26t182.5 -73t116.5 -119.5t62.5 -157t18 -193.5t-18 -193.5t-62.5 -157.5t-116.5 -120
t-182.5 -73.5t-258.5 -26.5q-149 0 -260 26.5t-183 73.5t-116.5 120t-62.5 157.5t-18 193.5t18 193.5t62.5 157t116.5 119.5t183 73t260 26zM718 150q251 0 352.5 91.5t101.5 309.5t-101.5 308.5t-352.5 90.5q-253 0 -354.5 -90.5t-101.5 -308.5q0 -219 102 -310t354 -91z
" />
    <glyph glyph-name="Odieresis" unicode="&#xd6;" horiz-adv-x="1434" 
d="M542 1232q-64 0 -89 22.5t-25 79.5t25 80t89 23q63 0 88 -23t25 -80t-25 -79.5t-88 -22.5zM893 1232q-64 0 -89 22.5t-25 79.5t25 80t89 23q63 0 88 -23t25 -80t-25 -79.5t-88 -22.5zM718 1120q148 0 258.5 -26t182.5 -73t116.5 -119.5t62.5 -157t18 -193.5t-18 -193.5
t-62.5 -157.5t-116.5 -120t-182.5 -73.5t-258.5 -26.5q-149 0 -260 26.5t-183 73.5t-116.5 120t-62.5 157.5t-18 193.5t18 193.5t62.5 157t116.5 119.5t183 73t260 26zM718 150q251 0 352.5 91.5t101.5 309.5t-101.5 308.5t-352.5 90.5q-253 0 -354.5 -90.5t-101.5 -308.5
q0 -219 102 -310t354 -91z" />
    <glyph glyph-name="multiply" unicode="&#xd7;" horiz-adv-x="1062" 
d="M984 768l-323 -323l323 -323l-130 -130l-323 323l-323 -323l-130 130l323 323l-323 323l130 131l323 -323l323 323z" />
    <glyph glyph-name="Oslash" unicode="&#xd8;" horiz-adv-x="1434" 
d="M718 1120q148 0 258.5 -26t182.5 -73t116.5 -119.5t62.5 -157t18 -193.5t-18 -193.5t-62.5 -157.5t-116.5 -120t-182.5 -73.5t-258.5 -26.5q-149 0 -260 26.5t-183 73.5t-116.5 120t-62.5 157.5t-18 193.5t18 193.5t62.5 157t116.5 119.5t183 73t260 26zM262 551
q0 -130 33.5 -212.5t109.5 -126.5l450 730q-55 8 -137 8q-253 0 -354.5 -90.5t-101.5 -308.5zM718 150q251 0 352.5 91.5t101.5 309.5q0 128 -32.5 209t-104.5 126l-449 -729q56 -7 132 -7z" />
    <glyph glyph-name="Ugrave" unicode="&#xd9;" horiz-adv-x="1308" 
d="M735 1231h-156l-251 251h238zM654 -20q-131 0 -228.5 18.5t-160.5 52.5t-101.5 87t-54 116t-15.5 147v696h184v-696q0 -91 32 -144t114.5 -80t229.5 -27t229.5 27.5t114.5 80t32 143.5v696h184v-696q0 -105 -25.5 -179t-87.5 -130.5t-173 -84t-274 -27.5z" />
    <glyph glyph-name="Uacute" unicode="&#xda;" horiz-adv-x="1308" 
d="M563 1231l169 251h238l-251 -251h-156zM654 -20q-131 0 -228.5 18.5t-160.5 52.5t-101.5 87t-54 116t-15.5 147v696h184v-696q0 -91 32 -144t114.5 -80t229.5 -27t229.5 27.5t114.5 80t32 143.5v696h184v-696q0 -105 -25.5 -179t-87.5 -130.5t-173 -84t-274 -27.5z" />
    <glyph glyph-name="Ucircumflex" unicode="&#xdb;" horiz-adv-x="1308" 
d="M651 1381l-202 -150h-176l279 251h198l279 -251h-176zM1030 1097h184v-696q0 -105 -25.5 -179t-87.5 -130.5t-173 -84t-274 -27.5q-131 0 -228.5 18.5t-160.5 52.5t-101.5 87t-54 116t-15.5 147v696h184v-696q0 -91 32 -144t114.5 -80t229.5 -27t229.5 27.5t114.5 80
t32 143.5v696z" />
    <glyph glyph-name="Udieresis" unicode="&#xdc;" horiz-adv-x="1308" 
d="M476 1232q-64 0 -89 22.5t-25 79.5t25 80t89 23q63 0 88 -23t25 -80t-25 -79.5t-88 -22.5zM827 1232q-64 0 -89 22.5t-25 79.5t25 80t89 23q63 0 88 -23t25 -80t-25 -79.5t-88 -22.5zM654 -20q-131 0 -228.5 18.5t-160.5 52.5t-101.5 87t-54 116t-15.5 147v696h184v-696
q0 -91 32 -144t114.5 -80t229.5 -27t229.5 27.5t114.5 80t32 143.5v696h184v-696q0 -105 -25.5 -179t-87.5 -130.5t-173 -84t-274 -27.5z" />
    <glyph glyph-name="Yacute" unicode="&#xdd;" horiz-adv-x="1314" 
d="M976 1482l-251 -251h-156l169 251h238zM1067 1097h227l-546 -614v-483h-183v483l-545 614h227l410 -459z" />
    <glyph glyph-name="Thorn" unicode="&#xde;" horiz-adv-x="1227" 
d="M712 928q246 0 353 -88.5t107 -290.5q0 -204 -107.5 -292t-355.5 -88h-408v-169h-184v1097h184v-169h411zM751 339q131 0 184 48t53 162q0 113 -53 161t-184 48h-450v-419h450z" />
    <glyph glyph-name="germandbls" unicode="&#xdf;" horiz-adv-x="1487" 
d="M1101 556q177 0 261.5 -70.5t84.5 -239.5q0 -144 -115.5 -199t-354.5 -55q-150 0 -248 18t-154.5 58.5t-78.5 96t-22 138.5h184q0 -86 74.5 -117.5t244.5 -31.5q165 0 226 24.5t61 80.5q0 75 -41.5 98.5t-121.5 23.5h-60q-191 0 -274 59t-83 211q0 56 -1 90t-5 69.5
t-12 54t-20.5 36.5t-32.5 25.5t-46.5 12t-63.5 4.5q-121 0 -165.5 -70.5t-44.5 -232.5v-640h-176v640q0 256 91.5 360.5t294.5 104.5q51 0 93 -4t75.5 -14t60 -22t46.5 -31.5t35 -39.5t24.5 -50.5t15.5 -58.5t9.5 -69t4.5 -78t1 -88q0 -24 9.5 -42t24.5 -27.5t39 -15.5
t46.5 -7.5t53.5 -1.5h60z" />
    <glyph glyph-name="agrave" unicode="&#xe0;" horiz-adv-x="1322" 
d="M722 1001h-156l-251 251h238zM1137 451q1 -47 1 -74t2 -59.5t3.5 -48.5t6 -36t9 -28t13.5 -18.5t18 -13.5t24.5 -6.5t30 -4t37.5 -0.5v-162q-124 0 -191 24.5t-98 96.5q-45 -73 -148 -106.5t-274 -33.5q-267 0 -380 65.5t-113 229.5q0 153 115.5 222t377.5 69
q293 0 389 -96q-2 81 -14.5 129t-48.5 82.5t-98.5 47.5t-165.5 13q-129 0 -205 -14.5t-109 -58.5h-190q64 135 171.5 185t332.5 50q149 0 246 -25.5t154 -83.5t80 -139.5t24 -205.5zM571 136q213 0 301 33.5t88 109.5t-86.5 106.5t-302.5 30.5q-171 0 -244 -34.5t-73 -105.5
q0 -81 69 -110.5t248 -29.5z" />
    <glyph glyph-name="aacute" unicode="&#xe1;" horiz-adv-x="1322" 
d="M957 1252l-251 -251h-156l169 251h238zM1137 451q1 -47 1 -74t2 -59.5t3.5 -48.5t6 -36t9 -28t13.5 -18.5t18 -13.5t24.5 -6.5t30 -4t37.5 -0.5v-162q-124 0 -191 24.5t-98 96.5q-45 -73 -148 -106.5t-274 -33.5q-267 0 -380 65.5t-113 229.5q0 153 115.5 222t377.5 69
q293 0 389 -96q-2 81 -14.5 129t-48.5 82.5t-98.5 47.5t-165.5 13q-129 0 -205 -14.5t-109 -58.5h-190q64 135 171.5 185t332.5 50q149 0 246 -25.5t154 -83.5t80 -139.5t24 -205.5zM571 136q213 0 301 33.5t88 109.5t-86.5 106.5t-302.5 30.5q-171 0 -244 -34.5t-73 -105.5
q0 -81 69 -110.5t248 -29.5z" />
    <glyph glyph-name="acircumflex" unicode="&#xe2;" horiz-adv-x="1322" 
d="M638 1151l-202 -150h-176l279 251h198l279 -251h-176zM1137 451q1 -47 1 -74t2 -59.5t3.5 -48.5t6 -36t9 -28t13.5 -18.5t18 -13.5t24.5 -6.5t30 -4t37.5 -0.5v-162q-124 0 -191 24.5t-98 96.5q-45 -73 -148 -106.5t-274 -33.5q-267 0 -380 65.5t-113 229.5
q0 153 115.5 222t377.5 69q293 0 389 -96q-2 81 -14.5 129t-48.5 82.5t-98.5 47.5t-165.5 13q-129 0 -205 -14.5t-109 -58.5h-190q64 135 171.5 185t332.5 50q149 0 246 -25.5t154 -83.5t80 -139.5t24 -205.5zM571 136q213 0 301 33.5t88 109.5t-86.5 106.5t-302.5 30.5
q-171 0 -244 -34.5t-73 -105.5q0 -81 69 -110.5t248 -29.5z" />
    <glyph glyph-name="atilde" unicode="&#xe3;" horiz-adv-x="1322" 
d="M510 1077q-59 0 -104 -75h-114q25 93 83.5 148t151.5 55q49 0 122 -37t119 -37q61 0 103 73h113q-62 -203 -233 -203q-50 0 -125.5 38t-115.5 38zM1137 451q1 -47 1 -74t2 -59.5t3.5 -48.5t6 -36t9 -28t13.5 -18.5t18 -13.5t24.5 -6.5t30 -4t37.5 -0.5v-162
q-124 0 -191 24.5t-98 96.5q-45 -73 -148 -106.5t-274 -33.5q-267 0 -380 65.5t-113 229.5q0 153 115.5 222t377.5 69q293 0 389 -96q-2 81 -14.5 129t-48.5 82.5t-98.5 47.5t-165.5 13q-129 0 -205 -14.5t-109 -58.5h-190q64 135 171.5 185t332.5 50q149 0 246 -25.5
t154 -83.5t80 -139.5t24 -205.5zM571 136q213 0 301 33.5t88 109.5t-86.5 106.5t-302.5 30.5q-171 0 -244 -34.5t-73 -105.5q0 -81 69 -110.5t248 -29.5z" />
    <glyph glyph-name="adieresis" unicode="&#xe4;" horiz-adv-x="1322" 
d="M463 1002q-64 0 -89 22.5t-25 79.5t25 80t89 23q63 0 88 -23t25 -80t-25 -79.5t-88 -22.5zM814 1002q-64 0 -89 22.5t-25 79.5t25 80t89 23q63 0 88 -23t25 -80t-25 -79.5t-88 -22.5zM1137 451q1 -47 1 -74t2 -59.5t3.5 -48.5t6 -36t9 -28t13.5 -18.5t18 -13.5t24.5 -6.5
t30 -4t37.5 -0.5v-162q-124 0 -191 24.5t-98 96.5q-45 -73 -148 -106.5t-274 -33.5q-267 0 -380 65.5t-113 229.5q0 153 115.5 222t377.5 69q293 0 389 -96q-2 81 -14.5 129t-48.5 82.5t-98.5 47.5t-165.5 13q-129 0 -205 -14.5t-109 -58.5h-190q64 135 171.5 185t332.5 50
q149 0 246 -25.5t154 -83.5t80 -139.5t24 -205.5zM571 136q213 0 301 33.5t88 109.5t-86.5 106.5t-302.5 30.5q-171 0 -244 -34.5t-73 -105.5q0 -81 69 -110.5t248 -29.5z" />
    <glyph glyph-name="aring" unicode="&#xe5;" horiz-adv-x="1322" 
d="M639 1002q-102 0 -144 46.5t-42 118.5q0 168 186 168q185 0 185 -168q0 -165 -185 -165zM639 1225q-64 0 -64 -57q0 -56 64 -56q62 0 62 56q0 57 -62 57zM1137 451q1 -47 1 -74t2 -59.5t3.5 -48.5t6 -36t9 -28t13.5 -18.5t18 -13.5t24.5 -6.5t30 -4t37.5 -0.5v-162
q-124 0 -191 24.5t-98 96.5q-45 -73 -148 -106.5t-274 -33.5q-267 0 -380 65.5t-113 229.5q0 153 115.5 222t377.5 69q293 0 389 -96q-2 81 -14.5 129t-48.5 82.5t-98.5 47.5t-165.5 13q-129 0 -205 -14.5t-109 -58.5h-190q64 135 171.5 185t332.5 50q149 0 246 -25.5
t154 -83.5t80 -139.5t24 -205.5zM571 136q213 0 301 33.5t88 109.5t-86.5 106.5t-302.5 30.5q-171 0 -244 -34.5t-73 -105.5q0 -81 69 -110.5t248 -29.5z" />
    <glyph glyph-name="ae" unicode="&#xe6;" horiz-adv-x="2112" 
d="M2034 534v-162h-909q16 -119 102.5 -168.5t274.5 -49.5q134 0 212 13t110 56h190q-43 -90 -104.5 -139.5t-157 -70.5t-250.5 -21q-192 0 -299.5 42t-154.5 135q-84 -178 -493 -178q-264 0 -378.5 72t-114.5 238q0 152 114.5 219t378.5 67q291 0 390 -103q-1 62 -9 102
t-28 73t-57 50.5t-93.5 26.5t-140.5 9q-133 0 -207 -13t-107 -56h-190q63 134 170 182.5t334 48.5q195 0 293 -48.5t133 -155.5q47 104 156 154t303 50q527 0 532 -373zM1502 745q-181 0 -267.5 -48t-106.5 -163h731q-2 117 -83.5 164t-273.5 47zM555 154q217 0 303 30
t86 105q0 76 -86 105.5t-303 29.5q-177 0 -247 -27.5t-70 -95.5q0 -82 70.5 -114.5t246.5 -32.5z" />
    <glyph glyph-name="ccedilla" unicode="&#xe7;" horiz-adv-x="1239" 
d="M651 142q188 0 264.5 53.5t76.5 176.5h176q0 -202 -107.5 -293t-356.5 -98v-72h17q97 0 136.5 -30t39.5 -108q0 -82 -44.5 -112t-146.5 -30q-62 0 -197 34v90q129 -27 192 -27q41 0 56 10t15 31q0 30 -19 41.5t-62 11.5q-102 0 -107 -1v162q-273 11 -389.5 116
t-116.5 341q0 258 130.5 363.5t442.5 105.5q282 0 399.5 -85t117.5 -295h-176q0 122 -75.5 170t-265.5 48q-220 0 -308.5 -69t-88.5 -238q0 -161 89 -228.5t308 -67.5z" />
    <glyph glyph-name="egrave" unicode="&#xe8;" horiz-adv-x="1246" 
d="M707 1001h-156l-251 251h238zM1168 523v-162h-905q18 -125 102.5 -172t270.5 -47q260 0 322 81h189q-63 -135 -176 -189t-335 -54q-295 0 -426.5 114.5t-131.5 358.5q0 228 142.5 340t415.5 112q271 0 401.5 -100t130.5 -282zM636 743q-204 0 -283 -44t-92 -176h731
q0 117 -82.5 168.5t-273.5 51.5z" />
    <glyph glyph-name="eacute" unicode="&#xe9;" horiz-adv-x="1246" 
d="M942 1252l-251 -251h-156l169 251h238zM1168 523v-162h-905q18 -125 102.5 -172t270.5 -47q260 0 322 81h189q-63 -135 -176 -189t-335 -54q-295 0 -426.5 114.5t-131.5 358.5q0 228 142.5 340t415.5 112q271 0 401.5 -100t130.5 -282zM636 743q-204 0 -283 -44t-92 -176
h731q0 117 -82.5 168.5t-273.5 51.5z" />
    <glyph glyph-name="ecircumflex" unicode="&#xea;" horiz-adv-x="1246" 
d="M623 1151l-202 -150h-176l279 251h198l279 -251h-176zM1168 523v-162h-905q18 -125 102.5 -172t270.5 -47q260 0 322 81h189q-63 -135 -176 -189t-335 -54q-295 0 -426.5 114.5t-131.5 358.5q0 228 142.5 340t415.5 112q271 0 401.5 -100t130.5 -282zM636 743
q-204 0 -283 -44t-92 -176h731q0 117 -82.5 168.5t-273.5 51.5z" />
    <glyph glyph-name="edieresis" unicode="&#xeb;" horiz-adv-x="1246" 
d="M448 1002q-64 0 -89 22.5t-25 79.5t25 80t89 23q63 0 88 -23t25 -80t-25 -79.5t-88 -22.5zM799 1002q-64 0 -89 22.5t-25 79.5t25 80t89 23q63 0 88 -23t25 -80t-25 -79.5t-88 -22.5zM1168 523v-162h-905q18 -125 102.5 -172t270.5 -47q260 0 322 81h189
q-63 -135 -176 -189t-335 -54q-295 0 -426.5 114.5t-131.5 358.5q0 228 142.5 340t415.5 112q271 0 401.5 -100t130.5 -282zM636 743q-204 0 -283 -44t-92 -176h731q0 117 -82.5 168.5t-273.5 51.5z" />
    <glyph glyph-name="igrave" unicode="&#xec;" horiz-adv-x="410" 
d="M289 1001h-156l-251 251h238zM117 0v870h176v-870h-176z" />
    <glyph glyph-name="iacute" unicode="&#xed;" horiz-adv-x="410" 
d="M117 1001l169 251h238l-251 -251h-156zM117 0v870h176v-870h-176z" />
    <glyph glyph-name="icircumflex" unicode="&#xee;" horiz-adv-x="410" 
d="M304 1252l279 -251h-176l-202 150l-202 -150h-176l279 251h198zM117 0v870h176v-870h-176z" />
    <glyph glyph-name="idieresis" unicode="&#xef;" horiz-adv-x="410" 
d="M30 1002q-64 0 -89 22.5t-25 79.5t25 80t89 23q63 0 88 -23t25 -80t-25 -79.5t-88 -22.5zM381 1002q-64 0 -89 22.5t-25 79.5t25 80t89 23q63 0 88 -23t25 -80t-25 -79.5t-88 -22.5zM117 0v870h176v-870h-176z" />
    <glyph glyph-name="eth" unicode="&#xf0;" horiz-adv-x="1144" 
d="M719 1019q347 -149 347 -553q0 -127 -22 -211.5t-78.5 -146t-155 -89t-248.5 -27.5q-144 0 -244.5 23t-155.5 68.5t-78.5 102.5t-23.5 135q0 77 26.5 138t83.5 109t156.5 74.5t236.5 26.5q205 0 320 -71q-34 194 -236 275l-56 -112l-152 75l41 83q-132 24 -333 24
l119 154q158 0 288 -27l46 93l154 -74zM562 162q78 0 133.5 7.5t102 26.5t69.5 55.5t23 91.5q0 83 -76 119.5t-251 36.5q-177 0 -256.5 -45t-79.5 -141q0 -83 79 -117t256 -34z" />
    <glyph glyph-name="ntilde" unicode="&#xf1;" horiz-adv-x="1270" 
d="M507 1077q-59 0 -104 -75h-114q25 93 83.5 148t151.5 55q48 0 122 -37t119 -37q61 0 103 73h113q-62 -203 -233 -203q-50 0 -125.5 38t-115.5 38zM694 905q140 0 232 -24.5t148 -81t79 -140t23 -209.5v-450h-176v450q0 161 -69.5 227t-250.5 66q-196 0 -291.5 -74.5
t-95.5 -227.5v-441h-176v870h176v-150q105 185 401 185z" />
    <glyph glyph-name="ograve" unicode="&#xf2;" horiz-adv-x="1297" 
d="M732 1001h-156l-251 251h238zM649 905q304 0 437 -107.5t133 -353.5t-133 -355t-437 -109q-305 0 -438 109t-133 355t133 353.5t438 107.5zM649 142q218 0 306 68t88 234q0 165 -88 232t-306 67q-219 0 -307 -67t-88 -232q0 -166 88 -234t307 -68z" />
    <glyph glyph-name="oacute" unicode="&#xf3;" horiz-adv-x="1297" 
d="M1025 1252l-251 -251h-156l169 251h238zM649 905q304 0 437 -107.5t133 -353.5t-133 -355t-437 -109q-305 0 -438 109t-133 355t133 353.5t438 107.5zM649 142q218 0 306 68t88 234q0 165 -88 232t-306 67q-219 0 -307 -67t-88 -232q0 -166 88 -234t307 -68z" />
    <glyph glyph-name="ocircumflex" unicode="&#xf4;" horiz-adv-x="1297" 
d="M648 1151l-202 -150h-176l279 251h198l279 -251h-176zM649 905q304 0 437 -107.5t133 -353.5t-133 -355t-437 -109q-305 0 -438 109t-133 355t133 353.5t438 107.5zM649 142q218 0 306 68t88 234q0 165 -88 232t-306 67q-219 0 -307 -67t-88 -232q0 -166 88 -234t307 -68
z" />
    <glyph glyph-name="otilde" unicode="&#xf5;" horiz-adv-x="1297" 
d="M520 1077q-59 0 -104 -75h-114q25 93 83.5 148t151.5 55q49 0 122 -37t119 -37q61 0 103 73h113q-62 -203 -233 -203q-50 0 -125.5 38t-115.5 38zM649 905q304 0 437 -107.5t133 -353.5t-133 -355t-437 -109q-305 0 -438 109t-133 355t133 353.5t438 107.5zM649 142
q218 0 306 68t88 234q0 165 -88 232t-306 67q-219 0 -307 -67t-88 -232q0 -166 88 -234t307 -68z" />
    <glyph glyph-name="odieresis" unicode="&#xf6;" horiz-adv-x="1297" 
d="M473 1002q-64 0 -89 22.5t-25 79.5t25 80t89 23q63 0 88 -23t25 -80t-25 -79.5t-88 -22.5zM824 1002q-64 0 -89 22.5t-25 79.5t25 80t89 23q63 0 88 -23t25 -80t-25 -79.5t-88 -22.5zM649 905q304 0 437 -107.5t133 -353.5t-133 -355t-437 -109q-305 0 -438 109t-133 355
t133 353.5t438 107.5zM649 142q218 0 306 68t88 234q0 165 -88 232t-306 67q-219 0 -307 -67t-88 -232q0 -166 88 -234t307 -68z" />
    <glyph glyph-name="divide" unicode="&#xf7;" horiz-adv-x="973" 
d="M486 626q-63 0 -87.5 27.5t-24.5 97.5t24.5 97.5t87.5 27.5t88 -27.5t25 -97.5t-25 -97.5t-88 -27.5zM78 391v171h817v-171h-817zM486 6q-63 0 -87.5 27.5t-24.5 97.5t24.5 97.5t87.5 27.5t88 -27.5t25 -97.5t-25 -97.5t-88 -27.5z" />
    <glyph glyph-name="oslash" unicode="&#xf8;" horiz-adv-x="1297" 
d="M649 905q304 0 437 -107.5t133 -353.5t-133 -355t-437 -109q-305 0 -438 109t-133 355t133 353.5t438 107.5zM649 743q-219 0 -307 -67t-88 -232q0 -101 30.5 -164t99.5 -96l343 557q-48 2 -78 2zM649 142q218 0 306 68t88 234q0 99 -30 161t-97 95l-342 -556
q48 -2 75 -2z" />
    <glyph glyph-name="ugrave" unicode="&#xf9;" horiz-adv-x="1200" 
d="M684 1001h-156l-251 251h238zM930 870h176v-870h-176v167q-101 -187 -363 -187q-259 0 -366 105t-107 352v433h176v-433q0 -162 60 -228.5t223 -66.5q178 0 277.5 82t99.5 234v412z" />
    <glyph glyph-name="uacute" unicode="&#xfa;" horiz-adv-x="1200" 
d="M919 1252l-251 -251h-156l169 251h238zM930 870h176v-870h-176v167q-101 -187 -363 -187q-259 0 -366 105t-107 352v433h176v-433q0 -162 60 -228.5t223 -66.5q178 0 277.5 82t99.5 234v412z" />
    <glyph glyph-name="ucircumflex" unicode="&#xfb;" horiz-adv-x="1200" 
d="M600 1151l-202 -150h-176l279 251h198l279 -251h-176zM930 870h176v-870h-176v167q-101 -187 -363 -187q-259 0 -366 105t-107 352v433h176v-433q0 -162 60 -228.5t223 -66.5q178 0 277.5 82t99.5 234v412z" />
    <glyph glyph-name="udieresis" unicode="&#xfc;" horiz-adv-x="1200" 
d="M425 1002q-64 0 -89 22.5t-25 79.5t25 80t89 23q63 0 88 -23t25 -80t-25 -79.5t-88 -22.5zM776 1002q-64 0 -89 22.5t-25 79.5t25 80t89 23q63 0 88 -23t25 -80t-25 -79.5t-88 -22.5zM930 870h176v-870h-176v167q-101 -187 -363 -187q-259 0 -366 105t-107 352v433h176
v-433q0 -162 60 -228.5t223 -66.5q178 0 277.5 82t99.5 234v412z" />
    <glyph glyph-name="yacute" unicode="&#xfd;" horiz-adv-x="1227" 
d="M933 1252l-251 -251h-156l169 251h238zM957 870h176v-550q0 -77 -11.5 -129t-42 -94.5t-85 -67t-138 -37t-204.5 -12.5q-239 0 -380.5 51.5t-201.5 179.5h213q32 -42 128.5 -55.5t240.5 -13.5q83 0 138.5 6.5t88.5 18t50 34t22.5 46.5t5.5 65h-457q-220 0 -307.5 70
t-87.5 247v241h176v-241q0 -86 45.5 -120.5t159.5 -34.5h471v396z" />
    <glyph glyph-name="thorn" unicode="&#xfe;" horiz-adv-x="1254" 
d="M683 907q264 0 378.5 -84.5t114.5 -278.5q0 -208 -114.5 -298t-378.5 -90q-151 0 -245.5 27t-144.5 91v-274h-176v1097h176v-308q50 64 144.5 91t245.5 27zM683 318q176 0 246.5 50t70.5 176q0 112 -70 156.5t-247 44.5q-217 0 -303 -43t-86 -170t86.5 -170.5
t302.5 -43.5z" />
    <glyph glyph-name="ydieresis" unicode="&#xff;" horiz-adv-x="1227" 
d="M439 1002q-64 0 -89 22.5t-25 79.5t25 80t89 23q63 0 88 -23t25 -80t-25 -79.5t-88 -22.5zM790 1002q-64 0 -89 22.5t-25 79.5t25 80t89 23q63 0 88 -23t25 -80t-25 -79.5t-88 -22.5zM957 870h176v-550q0 -77 -11.5 -129t-42 -94.5t-85 -67t-138 -37t-204.5 -12.5
q-239 0 -380.5 51.5t-201.5 179.5h213q32 -42 128.5 -55.5t240.5 -13.5q83 0 138.5 6.5t88.5 18t50 34t22.5 46.5t5.5 65h-457q-220 0 -307.5 70t-87.5 247v241h176v-241q0 -86 45.5 -120.5t159.5 -34.5h471v396z" />
    <glyph glyph-name="Amacron" unicode="&#x100;" 
d="M930 1377v-145h-496v145h496zM1147 0l-120 249h-689l-120 -249h-198l548 1097h230l547 -1097h-198zM420 419h525l-262 544z" />
    <glyph glyph-name="amacron" unicode="&#x101;" horiz-adv-x="1322" 
d="M886 1147v-145h-496v145h496zM1137 451q1 -47 1 -74t2 -59.5t3.5 -48.5t6 -36t9 -28t13.5 -18.5t18 -13.5t24.5 -6.5t30 -4t37.5 -0.5v-162q-124 0 -191 24.5t-98 96.5q-45 -73 -148 -106.5t-274 -33.5q-267 0 -380 65.5t-113 229.5q0 153 115.5 222t377.5 69
q293 0 389 -96q-2 81 -14.5 129t-48.5 82.5t-98.5 47.5t-165.5 13q-129 0 -205 -14.5t-109 -58.5h-190q64 135 171.5 185t332.5 50q149 0 246 -25.5t154 -83.5t80 -139.5t24 -205.5zM571 136q213 0 301 33.5t88 109.5t-86.5 106.5t-302.5 30.5q-171 0 -244 -34.5t-73 -105.5
q0 -81 69 -110.5t248 -29.5z" />
    <glyph glyph-name="Abreve" unicode="&#x102;" 
d="M682 1232q-50 0 -90 10t-76 33.5t-62.5 66.5t-42.5 105h158q27 -84 113 -84t113 84h158q-31 -120 -99.5 -167.5t-171.5 -47.5zM1147 0l-120 249h-689l-120 -249h-198l548 1097h230l547 -1097h-198zM420 419h525l-262 544z" />
    <glyph glyph-name="abreve" unicode="&#x103;" horiz-adv-x="1322" 
d="M638 1002q-50 0 -90 10t-76 33.5t-62.5 66.5t-42.5 105h158q27 -84 113 -84t113 84h158q-31 -120 -99.5 -167.5t-171.5 -47.5zM1137 451q1 -47 1 -74t2 -59.5t3.5 -48.5t6 -36t9 -28t13.5 -18.5t18 -13.5t24.5 -6.5t30 -4t37.5 -0.5v-162q-124 0 -191 24.5t-98 96.5
q-45 -73 -148 -106.5t-274 -33.5q-267 0 -380 65.5t-113 229.5q0 153 115.5 222t377.5 69q293 0 389 -96q-2 81 -14.5 129t-48.5 82.5t-98.5 47.5t-165.5 13q-129 0 -205 -14.5t-109 -58.5h-190q64 135 171.5 185t332.5 50q149 0 246 -25.5t154 -83.5t80 -139.5t24 -205.5z
M571 136q213 0 301 33.5t88 109.5t-86.5 106.5t-302.5 30.5q-171 0 -244 -34.5t-73 -105.5q0 -81 69 -110.5t248 -29.5z" />
    <glyph glyph-name="Aogonek" unicode="&#x104;" 
d="M1306 -265h80v-169h-78q-166 0 -229.5 40.5t-63.5 123.5q0 141 173 270h-41l-120 249h-689l-120 -249h-198l548 1097h230l547 -1097q-77 -70 -106 -114t-29 -79q0 -41 23.5 -56.5t72.5 -15.5zM420 419h525l-262 544z" />
    <glyph glyph-name="aogonek" unicode="&#x105;" horiz-adv-x="1322" 
d="M1243 -265h80v-169h-78q-166 0 -229.5 40.5t-63.5 123.5q0 146 188 281q-109 21 -147 110q-45 -73 -148 -106.5t-274 -33.5q-267 0 -380 65.5t-113 229.5q0 153 115.5 222t377.5 69q293 0 389 -96q-2 81 -14.5 129t-48.5 82.5t-98.5 47.5t-165.5 13q-129 0 -205 -14.5
t-109 -58.5h-190q64 135 171.5 185t332.5 50q149 0 246 -25.5t154 -83.5t80 -139.5t24 -205.5q1 -47 1 -74t2 -59.5t3.5 -48.5t6 -36t9 -28t13.5 -18.5t18 -13.5t24.5 -6.5t30 -4t37.5 -0.5v-162q-77 -70 -106 -114t-29 -79q0 -41 23.5 -56.5t72.5 -15.5zM571 136
q213 0 301 33.5t88 109.5t-86.5 106.5t-302.5 30.5q-171 0 -244 -34.5t-73 -105.5q0 -81 69 -110.5t248 -29.5z" />
    <glyph glyph-name="Cacute" unicode="&#x106;" horiz-adv-x="1378" 
d="M1009 1482l-251 -251h-156l169 251h238zM750 149q76 0 141 11.5t119.5 35.5t86 66.5t31.5 99.5h183q0 -177 -144.5 -280t-416.5 -103q-150 0 -265.5 26.5t-192 74.5t-125 120t-69 157.5t-20.5 193.5q0 136 34 237.5t110 178.5t208.5 116.5t319.5 39.5q272 0 416.5 -103
t144.5 -280h-183q0 76 -56 125.5t-137 68.5t-185 19q-269 0 -378.5 -90t-109.5 -312q0 -219 109 -310.5t379 -91.5z" />
    <glyph glyph-name="cacute" unicode="&#x107;" horiz-adv-x="1239" 
d="M970 1252l-251 -251h-156l169 251h238zM651 142q188 0 264.5 53.5t76.5 176.5h176q0 -212 -119 -302t-398 -90q-311 0 -442 104t-131 354q0 258 130.5 363.5t442.5 105.5q282 0 399.5 -85t117.5 -295h-176q0 122 -75.5 170t-265.5 48q-220 0 -308.5 -69t-88.5 -238
q0 -161 89 -228.5t308 -67.5z" />
    <glyph glyph-name="Cdotaccent" unicode="&#x10a;" horiz-adv-x="1378" 
d="M690 1232q-64 0 -89 22.5t-25 79.5t25 80t89 23q63 0 88 -23t25 -80t-25 -79.5t-88 -22.5zM750 149q76 0 141 11.5t119.5 35.5t86 66.5t31.5 99.5h183q0 -177 -144.5 -280t-416.5 -103q-150 0 -265.5 26.5t-192 74.5t-125 120t-69 157.5t-20.5 193.5q0 136 34 237.5
t110 178.5t208.5 116.5t319.5 39.5q272 0 416.5 -103t144.5 -280h-183q0 76 -56 125.5t-137 68.5t-185 19q-269 0 -378.5 -90t-109.5 -312q0 -219 109 -310.5t379 -91.5z" />
    <glyph glyph-name="cdotaccent" unicode="&#x10b;" horiz-adv-x="1239" 
d="M651 1002q-64 0 -89 22.5t-25 79.5t25 80t89 23q63 0 88 -23t25 -80t-25 -79.5t-88 -22.5zM651 142q188 0 264.5 53.5t76.5 176.5h176q0 -212 -119 -302t-398 -90q-311 0 -442 104t-131 354q0 258 130.5 363.5t442.5 105.5q282 0 399.5 -85t117.5 -295h-176
q0 122 -75.5 170t-265.5 48q-220 0 -308.5 -69t-88.5 -238q0 -161 89 -228.5t308 -67.5z" />
    <glyph glyph-name="Ccaron" unicode="&#x10c;" horiz-adv-x="1378" 
d="M789 1231h-198l-279 251h176l202 -150l202 150h176zM750 149q76 0 141 11.5t119.5 35.5t86 66.5t31.5 99.5h183q0 -177 -144.5 -280t-416.5 -103q-150 0 -265.5 26.5t-192 74.5t-125 120t-69 157.5t-20.5 193.5q0 136 34 237.5t110 178.5t208.5 116.5t319.5 39.5
q272 0 416.5 -103t144.5 -280h-183q0 76 -56 125.5t-137 68.5t-185 19q-269 0 -378.5 -90t-109.5 -312q0 -219 109 -310.5t379 -91.5z" />
    <glyph glyph-name="ccaron" unicode="&#x10d;" horiz-adv-x="1239" 
d="M750 1001h-198l-279 251h176l202 -150l202 150h176zM651 142q188 0 264.5 53.5t76.5 176.5h176q0 -212 -119 -302t-398 -90q-311 0 -442 104t-131 354q0 258 130.5 363.5t442.5 105.5q282 0 399.5 -85t117.5 -295h-176q0 122 -75.5 170t-265.5 48q-220 0 -308.5 -69
t-88.5 -238q0 -161 89 -228.5t308 -67.5z" />
    <glyph glyph-name="Dcaron" unicode="&#x10e;" horiz-adv-x="1352" 
d="M775 1231h-198l-279 251h176l202 -150l202 150h176zM745 1097q142 4 245 -32.5t164.5 -110t90.5 -173.5t29 -232q0 -268 -124.5 -408t-399.5 -141h-633v1097h628zM750 170q188 0 264 84t76 295q0 210 -76.5 294t-268.5 84h-444v-757h449z" />
    <glyph glyph-name="dcaron" unicode="&#x10f;" horiz-adv-x="1649" 
d="M1427 1098h238l-251 -251h-156zM1042 743v354h176v-1097h-176v146q-102 -166 -393 -166q-304 0 -437.5 110t-133.5 356q0 245 133 352t438 107q292 0 393 -162zM649 142q210 0 301 79t91 229q0 148 -90 220.5t-302 72.5q-219 0 -306.5 -66t-87.5 -231q0 -166 88 -235
t306 -69z" />
    <glyph glyph-name="Dcroat" unicode="&#x110;" horiz-adv-x="1352" 
d="M745 1097q142 4 245 -32.5t164.5 -110t90.5 -173.5t29 -232q0 -268 -124.5 -408t-399.5 -141h-633v455h-123v170h123v472h628zM750 170q188 0 264 84t76 295q0 210 -76.5 294t-268.5 84h-444v-302h487v-170h-487v-285h449z" />
    <glyph glyph-name="dcroat" unicode="&#x111;" horiz-adv-x="1335" 
d="M1315 1027v-158h-97v-869h-176v146q-102 -166 -393 -166q-304 0 -437.5 110t-133.5 356q0 245 133 352t438 107q134 0 222 -32v154h171v70h176v-70h97zM1042 743v126h-159q106 -41 159 -126zM649 142q210 0 301 79t91 229q0 148 -90 220.5t-302 72.5q-219 0 -306.5 -66
t-87.5 -231q0 -166 88 -235t306 -69z" />
    <glyph glyph-name="Emacron" unicode="&#x112;" horiz-adv-x="1158" 
d="M371 1232v145h496v-145h-496zM117 0v1097h952v-170h-768v-269h726v-170h-726v-318h779v-170h-963z" />
    <glyph glyph-name="emacron" unicode="&#x113;" horiz-adv-x="1246" 
d="M871 1147v-145h-496v145h496zM1168 523v-162h-905q18 -125 102.5 -172t270.5 -47q260 0 322 81h189q-63 -135 -176 -189t-335 -54q-295 0 -426.5 114.5t-131.5 358.5q0 228 142.5 340t415.5 112q271 0 401.5 -100t130.5 -282zM636 743q-204 0 -283 -44t-92 -176h731
q0 117 -82.5 168.5t-273.5 51.5z" />
    <glyph glyph-name="Edotaccent" unicode="&#x116;" horiz-adv-x="1158" 
d="M619 1232q-64 0 -89 22.5t-25 79.5t25 80t89 23q63 0 88 -23t25 -80t-25 -79.5t-88 -22.5zM117 0v1097h952v-170h-768v-269h726v-170h-726v-318h779v-170h-963z" />
    <glyph glyph-name="edotaccent" unicode="&#x117;" horiz-adv-x="1246" 
d="M623 1002q-64 0 -89 22.5t-25 79.5t25 80t89 23q63 0 88 -23t25 -80t-25 -79.5t-88 -22.5zM1168 523v-162h-905q18 -125 102.5 -172t270.5 -47q260 0 322 81h189q-63 -135 -176 -189t-335 -54q-295 0 -426.5 114.5t-131.5 358.5q0 228 142.5 340t415.5 112
q271 0 401.5 -100t130.5 -282zM636 743q-204 0 -283 -44t-92 -176h731q0 117 -82.5 168.5t-273.5 51.5z" />
    <glyph glyph-name="Eogonek" unicode="&#x118;" horiz-adv-x="1158" 
d="M1041 -265h80v-169h-78q-166 0 -229.5 40.5t-63.5 123.5q0 141 173 270h-806v1097h952v-170h-768v-269h726v-170h-726v-318h779v-170q-77 -70 -106 -114t-29 -79q0 -41 23.5 -56.5t72.5 -15.5z" />
    <glyph glyph-name="eogonek" unicode="&#x119;" horiz-adv-x="1246" 
d="M1168 523v-162h-905q18 -125 102.5 -172t270.5 -47q260 0 322 81h189q-55 -119 -147.5 -174t-259.5 -66q-117 -111 -117 -176q0 -41 23.5 -56.5t72.5 -15.5h80v-169h-78q-166 0 -229.5 40.5t-63.5 123.5q0 131 149 251q-264 11 -381.5 125.5t-117.5 346.5
q0 228 142.5 340t415.5 112q271 0 401.5 -100t130.5 -282zM636 743q-204 0 -283 -44t-92 -176h731q0 117 -82.5 168.5t-273.5 51.5z" />
    <glyph glyph-name="Ecaron" unicode="&#x11a;" horiz-adv-x="1158" 
d="M718 1231h-198l-279 251h176l202 -150l202 150h176zM301 170h779v-170h-963v1097h952v-170h-768v-269h726v-170h-726v-318z" />
    <glyph glyph-name="ecaron" unicode="&#x11b;" horiz-adv-x="1246" 
d="M722 1001h-198l-279 251h176l202 -150l202 150h176zM1168 523v-162h-905q18 -125 102.5 -172t270.5 -47q260 0 322 81h189q-63 -135 -176 -189t-335 -54q-295 0 -426.5 114.5t-131.5 358.5q0 228 142.5 340t415.5 112q271 0 401.5 -100t130.5 -282zM636 743
q-204 0 -283 -44t-92 -176h731q0 117 -82.5 168.5t-273.5 51.5z" />
    <glyph glyph-name="Gbreve" unicode="&#x11e;" horiz-adv-x="1420" 
d="M710 1232q-50 0 -90 10t-76 33.5t-62.5 66.5t-42.5 105h158q27 -84 113 -84t113 84h158q-31 -120 -99.5 -167.5t-171.5 -47.5zM808 418v170h495v-588h-180v144q-118 -164 -379 -164q-185 0 -316 39t-206.5 115t-109.5 176.5t-34 235.5t34 237.5t109.5 180.5t206.5 118.5
t316 40.5q269 0 414 -103.5t145 -279.5h-183q0 57 -33 100t-88.5 66.5t-119.5 35t-135 11.5q-263 0 -372.5 -94t-109.5 -313q0 -217 108.5 -306.5t373.5 -89.5q60 0 109.5 4.5t101.5 18t87.5 36t58 61t22.5 90.5v58h-315z" />
    <glyph glyph-name="gbreve" unicode="&#x11f;" horiz-adv-x="1232" 
d="M636 1002q-50 0 -90 10t-76 33.5t-62.5 66.5t-42.5 105h158q27 -84 113 -84t113 84h158q-31 -120 -99.5 -167.5t-171.5 -47.5zM962 870h176v-550q0 -124 -50.5 -197t-167.5 -108t-318 -35q-230 0 -339.5 49.5t-172.5 181.5h213q33 -43 102 -56t197 -13q142 0 220.5 18.5
t109 56t30.5 103.5v95q-100 -103 -391 -103q-264 0 -378.5 72t-114.5 238q0 152 114.5 218.5t378.5 66.5q292 0 391 -103v66zM571 474q217 0 303 30t86 106t-86 105.5t-303 29.5q-176 0 -246.5 -27.5t-70.5 -95.5q0 -82 70.5 -115t246.5 -33z" />
    <glyph glyph-name="Gdotaccent" unicode="&#x120;" horiz-adv-x="1420" 
d="M710 1232q-64 0 -89 22.5t-25 79.5t25 80t89 23q63 0 88 -23t25 -80t-25 -79.5t-88 -22.5zM808 418v170h495v-588h-180v144q-118 -164 -379 -164q-185 0 -316 39t-206.5 115t-109.5 176.5t-34 235.5t34 237.5t109.5 180.5t206.5 118.5t316 40.5q269 0 414 -103.5
t145 -279.5h-183q0 57 -33 100t-88.5 66.5t-119.5 35t-135 11.5q-263 0 -372.5 -94t-109.5 -313q0 -217 108.5 -306.5t373.5 -89.5q60 0 109.5 4.5t101.5 18t87.5 36t58 61t22.5 90.5v58h-315z" />
    <glyph glyph-name="gdotaccent" unicode="&#x121;" horiz-adv-x="1232" 
d="M636 1002q-64 0 -89 22.5t-25 79.5t25 80t89 23q63 0 88 -23t25 -80t-25 -79.5t-88 -22.5zM962 870h176v-550q0 -124 -50.5 -197t-167.5 -108t-318 -35q-230 0 -339.5 49.5t-172.5 181.5h213q33 -43 102 -56t197 -13q142 0 220.5 18.5t109 56t30.5 103.5v95
q-100 -103 -391 -103q-264 0 -378.5 72t-114.5 238q0 152 114.5 218.5t378.5 66.5q292 0 391 -103v66zM571 474q217 0 303 30t86 106t-86 105.5t-303 29.5q-176 0 -246.5 -27.5t-70.5 -95.5q0 -82 70.5 -115t246.5 -33z" />
    <glyph glyph-name="uni0122" unicode="&#x122;" horiz-adv-x="1420" 
d="M808 418v170h495v-588h-180v144q-118 -164 -379 -164q-185 0 -316 39t-206.5 115t-109.5 176.5t-34 235.5t34 237.5t109.5 180.5t206.5 118.5t316 40.5q269 0 414 -103.5t145 -279.5h-183q0 57 -33 100t-88.5 66.5t-119.5 35t-135 11.5q-263 0 -372.5 -94t-109.5 -313
q0 -217 108.5 -306.5t373.5 -89.5q60 0 109.5 4.5t101.5 18t87.5 36t58 61t22.5 90.5v58h-315zM466 -342l169 251h238l-251 -251h-156z" />
    <glyph glyph-name="uni0123" unicode="&#x123;" horiz-adv-x="1232" 
d="M872 1253l-169 -251h-238l251 251h156zM962 870h176v-550q0 -124 -50.5 -197t-167.5 -108t-318 -35q-230 0 -339.5 49.5t-172.5 181.5h213q33 -43 102 -56t197 -13q142 0 220.5 18.5t109 56t30.5 103.5v95q-100 -103 -391 -103q-264 0 -378.5 72t-114.5 238
q0 152 114.5 218.5t378.5 66.5q292 0 391 -103v66zM571 474q217 0 303 30t86 106t-86 105.5t-303 29.5q-176 0 -246.5 -27.5t-70.5 -95.5q0 -82 70.5 -115t246.5 -33z" />
    <glyph glyph-name="Hbar" unicode="&#x126;" horiz-adv-x="1404" 
d="M1401 964v-170h-114v-794h-184v489h-802v-489h-184v794h-102v170h102v133h184v-133h802v133h184v-133h114zM1103 659v135h-802v-135h802z" />
    <glyph glyph-name="hbar" unicode="&#x127;" horiz-adv-x="1270" 
d="M694 907q186 0 291 -47.5t148 -144.5t43 -265v-450h-176v450q0 161 -69.5 228t-250.5 67q-195 0 -291 -75t-96 -229v-441h-176v834h-119v162h119v101h176v-101h145v-139q101 50 256 50zM293 721q39 68 104 113h-104v-113z" />
    <glyph glyph-name="Imacron" unicode="&#x12a;" horiz-adv-x="418" 
d="M1 1232v145h416v-145h-416zM117 0v1097h184v-1097h-184z" />
    <glyph glyph-name="imacron" unicode="&#x12b;" horiz-adv-x="410" 
d="M-43 1002v145h496v-145h-496zM117 0v870h176v-870h-176z" />
    <glyph glyph-name="Iogonek" unicode="&#x12e;" horiz-adv-x="418" 
d="M262 -265h80v-169h-78q-166 0 -229.5 40.5t-63.5 123.5q0 141 173 270h-27v1097h184v-1097q-77 -70 -106 -114t-29 -79q0 -41 23.5 -56.5t72.5 -15.5z" />
    <glyph glyph-name="iogonek" unicode="&#x12f;" horiz-adv-x="410" 
d="M254 -265h80v-169h-78q-166 0 -229.5 40.5t-63.5 123.5q0 141 173 270h-19v870h176v-870q-77 -70 -106 -114t-29 -79q0 -41 23.5 -56.5t72.5 -15.5z" />
    <glyph glyph-name="Idotaccent" unicode="&#x130;" horiz-adv-x="418" 
d="M209 1232q-64 0 -89 22.5t-25 79.5t25 80t89 23q63 0 88 -23t25 -80t-25 -79.5t-88 -22.5zM117 0v1097h184v-1097h-184z" />
    <glyph glyph-name="dotlessi" unicode="&#x131;" horiz-adv-x="410" 
d="M117 0v870h176v-870h-176z" />
    <glyph glyph-name="IJ" unicode="&#x132;" horiz-adv-x="1128" 
d="M1034 1097v-735q0 -130 -42 -209t-143.5 -120t-274.5 -41h-457v170h447q159 0 222.5 46.5t64.5 163.5v555h-396v170h579zM301 1097v-803h-184v803h184z" />
    <glyph glyph-name="ij" unicode="&#x133;" horiz-adv-x="774" 
d="M206 1002q-64 0 -89 22.5t-25 79.5t25 80t89 23q63 0 88 -23t25 -80t-25 -79.5t-88 -22.5zM592 1002q-64 0 -89 22.5t-25 79.5t25 80t89 23q63 0 88 -23t25 -80t-25 -79.5t-88 -22.5zM117 260v610h176v-610h-176zM117 0v162h239q85 0 116 54t31 179v475h177v-475
q0 -118 -19 -195t-61 -121t-100 -61.5t-144 -17.5h-239z" />
    <glyph glyph-name="uni0136" unicode="&#x136;" horiz-adv-x="1303" 
d="M720 619l592 -619h-246l-477 508l-288 -243v-265h-184v1097h184v-627l739 627h246zM374 -342l169 251h238l-251 -251h-156z" />
    <glyph glyph-name="uni0137" unicode="&#x137;" horiz-adv-x="1143" 
d="M647 519l500 -519h-238l-405 417l-211 -150v-267h-176v1097h176v-643l589 416h258zM294 -342l169 251h238l-251 -251h-156z" />
    <glyph glyph-name="Lacute" unicode="&#x139;" horiz-adv-x="1078" 
d="M121 1231l169 251h238l-251 -251h-156zM117 0v1097h184v-927h737v-170h-921z" />
    <glyph glyph-name="lacute" unicode="&#x13a;" horiz-adv-x="410" 
d="M117 1198l169 251h238l-251 -251h-156zM117 0v1097h176v-1097h-176z" />
    <glyph glyph-name="uni013B" unicode="&#x13b;" horiz-adv-x="1078" 
d="M117 0v1097h184v-927h737v-170h-921zM298 -342l169 251h238l-251 -251h-156z" />
    <glyph glyph-name="uni013C" unicode="&#x13c;" horiz-adv-x="410" 
d="M117 0v1097h176v-1097h-176zM-71 -342l169 251h238l-251 -251h-156z" />
    <glyph glyph-name="Lcaron" unicode="&#x13d;" horiz-adv-x="1078" 
d="M587 1482l-279 -251h-198l-279 251h176l202 -150l202 150h176zM301 170h737v-170h-921v1097h184v-927z" />
    <glyph glyph-name="lcaron" unicode="&#x13e;" horiz-adv-x="410" 
d="M407 1449h176l-279 -251h-198l-279 251h176l202 -150zM117 0v1097h176v-1097h-176z" />
    <glyph glyph-name="Ldotaccent" unicode="&#x13f;" horiz-adv-x="1078" 
d="M117 0v1097h184v-927h737v-170h-921zM648 439q-63 0 -87.5 27.5t-24.5 97.5t24.5 97.5t87.5 27.5t88 -27.5t25 -97.5t-25 -97.5t-88 -27.5z" />
    <glyph glyph-name="ldotaccent" unicode="&#x140;" horiz-adv-x="638" 
d="M117 0v1097h176v-1097h-176zM488 438q-63 0 -87.5 27.5t-24.5 97.5t24.5 97.5t87.5 27.5t88 -27.5t25 -97.5t-25 -97.5t-88 -27.5z" />
    <glyph glyph-name="Lslash" unicode="&#x141;" horiz-adv-x="1078" 
d="M301 170h737v-170h-921v403l-99 -69l-91 129l190 133v501h184v-372l100 70l91 -130l-191 -133v-362z" />
    <glyph glyph-name="lslash" unicode="&#x142;" horiz-adv-x="565" 
d="M543 665l-174 -122v-543h-176v421l-124 -87l-91 129l215 151v483h176v-360l83 58z" />
    <glyph glyph-name="Nacute" unicode="&#x143;" horiz-adv-x="1394" 
d="M1016 1482l-251 -251h-156l169 251h238zM1093 1097h184v-1097h-247l-729 889v-889h-184v1097h239l737 -902v902z" />
    <glyph glyph-name="nacute" unicode="&#x144;" horiz-adv-x="1270" 
d="M954 1252l-251 -251h-156l169 251h238zM694 905q140 0 232 -24.5t148 -81t79 -140t23 -209.5v-450h-176v450q0 161 -69.5 227t-250.5 66q-196 0 -291.5 -74.5t-95.5 -227.5v-441h-176v870h176v-150q105 185 401 185z" />
    <glyph glyph-name="uni0145" unicode="&#x145;" horiz-adv-x="1394" 
d="M1093 1097h184v-1097h-247l-729 889v-889h-184v1097h239l737 -902v902zM419 -342l169 251h238l-251 -251h-156z" />
    <glyph glyph-name="uni0146" unicode="&#x146;" horiz-adv-x="1270" 
d="M694 905q140 0 232 -24.5t148 -81t79 -140t23 -209.5v-450h-176v450q0 161 -69.5 227t-250.5 66q-196 0 -291.5 -74.5t-95.5 -227.5v-441h-176v870h176v-150q105 185 401 185zM357 -342l169 251h238l-251 -251h-156z" />
    <glyph glyph-name="Ncaron" unicode="&#x147;" horiz-adv-x="1394" 
d="M796 1231h-198l-279 251h176l202 -150l202 150h176zM1093 1097h184v-1097h-247l-729 889v-889h-184v1097h239l737 -902v902z" />
    <glyph glyph-name="ncaron" unicode="&#x148;" horiz-adv-x="1270" 
d="M734 1001h-198l-279 251h176l202 -150l202 150h176zM694 905q140 0 232 -24.5t148 -81t79 -140t23 -209.5v-450h-176v450q0 161 -69.5 227t-250.5 66q-196 0 -291.5 -74.5t-95.5 -227.5v-441h-176v870h176v-150q105 185 401 185z" />
    <glyph glyph-name="Eng" unicode="&#x14a;" horiz-adv-x="1329" 
d="M1051 1100h184v-697q0 -85 -13 -146.5t-48 -116t-94.5 -87.5t-154.5 -52t-226 -19h-125v170h125q224 0 295 57l-693 705v-914h-184v1097h235l699 -720v723z" />
    <glyph glyph-name="eng" unicode="&#x14b;" horiz-adv-x="1271" 
d="M1000 871h177v-496q0 -94 -13.5 -160.5t-38 -108.5t-66 -65.5t-90.5 -32.5t-119 -9h-276v162h276q87 0 118.5 46.5t31.5 167.5v66h-1q0 154 -82 229t-251 75q-174 0 -273.5 -77t-99.5 -227v-441h-176v868h176v-154q109 193 373 193q131 0 213.5 -47t120.5 -157v168z" />
    <glyph glyph-name="Omacron" unicode="&#x14c;" horiz-adv-x="1434" 
d="M965 1377v-145h-496v145h496zM718 1120q148 0 258.5 -26t182.5 -73t116.5 -119.5t62.5 -157t18 -193.5t-18 -193.5t-62.5 -157.5t-116.5 -120t-182.5 -73.5t-258.5 -26.5q-149 0 -260 26.5t-183 73.5t-116.5 120t-62.5 157.5t-18 193.5t18 193.5t62.5 157t116.5 119.5
t183 73t260 26zM718 150q251 0 352.5 91.5t101.5 309.5t-101.5 308.5t-352.5 90.5q-253 0 -354.5 -90.5t-101.5 -308.5q0 -219 102 -310t354 -91z" />
    <glyph glyph-name="omacron" unicode="&#x14d;" horiz-adv-x="1297" 
d="M896 1147v-145h-496v145h496zM649 905q304 0 437 -107.5t133 -353.5t-133 -355t-437 -109q-305 0 -438 109t-133 355t133 353.5t438 107.5zM649 142q218 0 306 68t88 234q0 165 -88 232t-306 67q-219 0 -307 -67t-88 -232q0 -166 88 -234t307 -68z" />
    <glyph glyph-name="Ohungarumlaut" unicode="&#x150;" horiz-adv-x="1434" 
d="M998 1233h-156l169 251h238zM860 1482l-251 -251h-156l169 251h238zM718 1120q148 0 258.5 -26t182.5 -73t116.5 -119.5t62.5 -157t18 -193.5t-18 -193.5t-62.5 -157.5t-116.5 -120t-182.5 -73.5t-258.5 -26.5q-149 0 -260 26.5t-183 73.5t-116.5 120t-62.5 157.5
t-18 193.5t18 193.5t62.5 157t116.5 119.5t183 73t260 26zM718 150q251 0 352.5 91.5t101.5 309.5t-101.5 308.5t-352.5 90.5q-253 0 -354.5 -90.5t-101.5 -308.5q0 -219 102 -310t354 -91z" />
    <glyph glyph-name="ohungarumlaut" unicode="&#x151;" horiz-adv-x="1297" 
d="M929 1003h-156l169 251h238zM791 1252l-251 -251h-156l169 251h238zM649 905q304 0 437 -107.5t133 -353.5t-133 -355t-437 -109q-305 0 -438 109t-133 355t133 353.5t438 107.5zM649 142q218 0 306 68t88 234q0 165 -88 232t-306 67q-219 0 -307 -67t-88 -232
q0 -166 88 -234t307 -68z" />
    <glyph glyph-name="OE" unicode="&#x152;" horiz-adv-x="2207" 
d="M1350 172h779v-170h-963v83q-153 -105 -448 -105q-149 0 -260 26.5t-183 73.5t-116.5 120t-62.5 157.5t-18 193.5t18 193.5t62.5 157t116.5 119.5t183 73t260 26q294 0 448 -104v83h952v-170h-768v-261q0 -2 0.5 -4t0.5 -4h725v-170h-722q-2 -38 -4 -56v-262zM718 150
q220 0 323.5 69t124.5 229v206q-21 159 -124.5 227.5t-323.5 68.5q-253 0 -354.5 -90.5t-101.5 -308.5q0 -219 102 -310t354 -91z" />
    <glyph glyph-name="oe" unicode="&#x153;" horiz-adv-x="2211" 
d="M2133 534v-162h-909q16 -119 102.5 -168.5t274.5 -49.5q134 0 212 13t110 56h190q-43 -90 -104.5 -139.5t-157 -70.5t-250.5 -21q-210 0 -320 50.5t-151 164.5q-44 -114 -156.5 -164.5t-324.5 -50.5q-306 0 -438.5 106.5t-132.5 351.5t132.5 351t438.5 106
q217 0 330 -52.5t155 -170.5q44 114 154.5 168.5t312.5 54.5q527 0 532 -373zM649 154q219 0 306.5 65.5t87.5 230.5q0 164 -87.5 229.5t-306.5 65.5q-220 0 -307.5 -65.5t-87.5 -229.5q0 -165 87.5 -230.5t307.5 -65.5zM1601 745q-181 0 -267.5 -48t-106.5 -163h731
q-2 117 -83.5 164t-273.5 47z" />
    <glyph glyph-name="Racute" unicode="&#x154;" horiz-adv-x="1288" 
d="M963 1482l-251 -251h-156l169 251h238zM1198 225q0 -145 30 -225h-193q-20 74 -20 225q0 100 -44 137t-157 37h-513v-399h-184v1097h668q222 -1 317 -78t95 -266q0 -106 -36 -166t-116 -89q82 -25 117.5 -88t35.5 -185zM301 570h513q112 0 156 40.5t44 142.5
q0 97 -44 135.5t-156 38.5h-513v-357z" />
    <glyph glyph-name="racute" unicode="&#x155;" horiz-adv-x="1138" 
d="M956 1252l-251 -251h-156l169 251h238zM677 905q201 0 316 -95t115 -283h-175q0 100 -74.5 158t-208.5 58q-84 0 -147 -19.5t-102.5 -53.5t-64 -85.5t-34 -110t-9.5 -133.5v-341h-176v870h176v-155q101 190 384 190z" />
    <glyph glyph-name="uni0156" unicode="&#x156;" horiz-adv-x="1288" 
d="M1198 225q0 -145 30 -225h-193q-20 74 -20 225q0 100 -44 137t-157 37h-513v-399h-184v1097h668q222 -1 317 -78t95 -266q0 -106 -36 -166t-116 -89q82 -25 117.5 -88t35.5 -185zM301 570h513q112 0 156 40.5t44 142.5q0 97 -44 135.5t-156 38.5h-513v-357zM366 -342
l169 251h238l-251 -251h-156z" />
    <glyph glyph-name="uni0157" unicode="&#x157;" horiz-adv-x="1138" 
d="M677 905q201 0 316 -95t115 -283h-175q0 100 -74.5 158t-208.5 58q-84 0 -147 -19.5t-102.5 -53.5t-64 -85.5t-34 -110t-9.5 -133.5v-341h-176v870h176v-155q101 190 384 190zM-79 -342l169 251h238l-251 -251h-156z" />
    <glyph glyph-name="Rcaron" unicode="&#x158;" horiz-adv-x="1288" 
d="M743 1231h-198l-279 251h176l202 -150l202 150h176zM1198 225q0 -145 30 -225h-193q-20 74 -20 225q0 100 -44 137t-157 37h-513v-399h-184v1097h668q222 -1 317 -78t95 -266q0 -106 -36 -166t-116 -89q82 -25 117.5 -88t35.5 -185zM301 570h513q112 0 156 40.5t44 142.5
q0 97 -44 135.5t-156 38.5h-513v-357z" />
    <glyph glyph-name="rcaron" unicode="&#x159;" horiz-adv-x="1138" 
d="M776 1001h-198l-279 251h176l202 -150l202 150h176zM677 905q201 0 316 -95t115 -283h-175q0 100 -74.5 158t-208.5 58q-84 0 -147 -19.5t-102.5 -53.5t-64 -85.5t-34 -110t-9.5 -133.5v-341h-176v870h176v-155q101 190 384 190z" />
    <glyph glyph-name="Sacute" unicode="&#x15a;" horiz-adv-x="1312" 
d="M568 1231l169 251h238l-251 -251h-156zM646 -20q-281 0 -424.5 100t-143.5 280h184q0 -58 33 -100.5t90 -65.5t122 -33.5t139 -10.5q225 0 315 38t90 128q0 67 -41.5 95.5t-121.5 34.5l-439 34q-187 14 -266.5 89t-79.5 228q0 326 554 326q266 0 406.5 -101.5
t140.5 -281.5h-184q0 58 -30 101t-83 66.5t-115 34.5t-135 11q-370 0 -370 -157q0 -66 40.5 -96.5t121.5 -36.5l439 -34q102 -8 170.5 -33t106.5 -68.5t53.5 -97.5t15.5 -129q0 -93 -39.5 -156.5t-118.5 -99t-182.5 -50.5t-247.5 -15z" />
    <glyph glyph-name="sacute" unicode="&#x15b;" horiz-adv-x="1151" 
d="M488 1001l169 251h238l-251 -251h-156zM565 -20q-240 0 -371.5 84t-131.5 227h184q0 -38 31.5 -68t81 -47t102.5 -25.5t104 -8.5q189 0 265 23t76 82q0 91 -163 106l-310 28q-187 18 -266.5 74.5t-79.5 185.5q0 131 128.5 198.5t360.5 67.5q226 0 354.5 -84.5
t128.5 -226.5h-184q0 38 -28.5 68.5t-74.5 47t-96 25t-100 8.5q-162 0 -233.5 -22t-71.5 -73q0 -45 42 -66t120 -28l310 -27q103 -9 173 -33.5t107 -65t51.5 -87t14.5 -109.5q0 -60 -25.5 -104.5t-69.5 -73t-111.5 -45.5t-143.5 -24t-174 -7z" />
    <glyph glyph-name="Scedilla" unicode="&#x15e;" horiz-adv-x="1312" 
d="M1234 301q0 -87 -35 -148.5t-105.5 -97.5t-163.5 -53.5t-221 -20.5v-85h17q97 0 136.5 -30t39.5 -108q0 -82 -44.5 -112t-146.5 -30q-62 0 -197 34v90q129 -27 192 -27q41 0 56 10t15 31q0 30 -19 41.5t-62 11.5q-102 0 -107 -1v175q-253 10 -382 109t-129 270h184
q0 -58 33 -100.5t90 -65.5t122 -33.5t139 -10.5q225 0 315 38t90 128q0 67 -41.5 95.5t-121.5 34.5l-439 34q-187 14 -266.5 89t-79.5 228q0 326 554 326q266 0 406.5 -101.5t140.5 -281.5h-184q0 58 -30 101t-83 66.5t-115 34.5t-135 11q-370 0 -370 -157q0 -66 40.5 -96.5
t121.5 -36.5l439 -34q102 -8 170.5 -33t106.5 -68.5t53.5 -97.5t15.5 -129z" />
    <glyph glyph-name="scedilla" unicode="&#x15f;" horiz-adv-x="1151" 
d="M1089 234q0 -69 -32.5 -118t-95.5 -77t-143.5 -41.5t-188.5 -16.5v-85h17q97 0 136.5 -30t39.5 -108q0 -82 -44.5 -112t-146.5 -30q-62 0 -197 34v90q129 -27 192 -27q41 0 56 10t15 31q0 30 -19 41.5t-62 11.5q-102 0 -107 -1v175q-214 10 -330.5 93t-116.5 217h184
q0 -38 31.5 -68t81 -47t102.5 -25.5t104 -8.5q189 0 265 23t76 82q0 91 -163 106l-310 28q-187 18 -266.5 74.5t-79.5 185.5q0 131 128.5 198.5t360.5 67.5q226 0 354.5 -84.5t128.5 -226.5h-184q0 38 -28.5 68.5t-74.5 47t-96 25t-100 8.5q-162 0 -233.5 -22t-71.5 -73
q0 -45 42 -66t120 -28l310 -27q103 -9 173 -33.5t107 -65t51.5 -87t14.5 -109.5z" />
    <glyph glyph-name="Scaron" unicode="&#x160;" horiz-adv-x="1312" 
d="M755 1231h-198l-279 251h176l202 -150l202 150h176zM888 629q102 -8 170.5 -33t106.5 -68.5t53.5 -97.5t15.5 -129q0 -93 -39.5 -156.5t-118.5 -99t-182.5 -50.5t-247.5 -15q-281 0 -424.5 100t-143.5 280h184q0 -58 33 -100.5t90 -65.5t122 -33.5t139 -10.5
q225 0 315 38t90 128q0 67 -41.5 95.5t-121.5 34.5l-439 34q-187 14 -266.5 89t-79.5 228q0 326 554 326q266 0 406.5 -101.5t140.5 -281.5h-184q0 58 -30 101t-83 66.5t-115 34.5t-135 11q-370 0 -370 -157q0 -66 40.5 -96.5t121.5 -36.5z" />
    <glyph glyph-name="scaron" unicode="&#x161;" horiz-adv-x="1151" 
d="M675 1001h-198l-279 251h176l202 -150l202 150h176zM743 529q103 -9 173 -33.5t107 -65t51.5 -87t14.5 -109.5q0 -60 -25.5 -104.5t-69.5 -73t-111.5 -45.5t-143.5 -24t-174 -7q-240 0 -371.5 84t-131.5 227h184q0 -38 31.5 -68t81 -47t102.5 -25.5t104 -8.5
q189 0 265 23t76 82q0 91 -163 106l-310 28q-187 18 -266.5 74.5t-79.5 185.5q0 131 128.5 198.5t360.5 67.5q226 0 354.5 -84.5t128.5 -226.5h-184q0 38 -28.5 68.5t-74.5 47t-96 25t-100 8.5q-162 0 -233.5 -22t-71.5 -73q0 -45 42 -66t120 -28z" />
    <glyph glyph-name="uni0162" unicode="&#x162;" horiz-adv-x="1176" 
d="M678 0h-37v-104h17q97 0 136.5 -30t39.5 -108q0 -82 -44.5 -112t-146.5 -30q-62 0 -197 34v90q129 -27 192 -27q41 0 56 10t15 31q0 30 -19 41.5t-62 11.5q-102 0 -107 -1v194h-26v927h-476v170h1138v-170h-479v-927z" />
    <glyph glyph-name="uni0163" unicode="&#x163;" horiz-adv-x="927" 
d="M887 212q-14 -113 -78.5 -167.5t-194.5 -61.5v-87h17q97 0 136.5 -30t39.5 -108q0 -82 -44.5 -112t-146.5 -30q-62 0 -197 34v90q129 -27 192 -27q41 0 56 10t15 31q0 30 -19 41.5t-62 11.5q-102 0 -107 -1v178q-145 13 -209 93t-64 245v386h-181v162h181v227h184v-227
h424v-162h-425v-363q0 -108 36.5 -155t120.5 -47q67 0 100 16t43 53h183z" />
    <glyph glyph-name="Tcaron" unicode="&#x164;" horiz-adv-x="1176" 
d="M687 1231h-198l-279 251h176l202 -150l202 150h176zM19 1097h1138v-170h-479v-927h-183v927h-476v170z" />
    <glyph glyph-name="tcaron" unicode="&#x165;" horiz-adv-x="927" 
d="M704 212h183q-16 -124 -92 -177.5t-234 -53.5q-182 0 -261 79.5t-79 261.5v386h-181v162h181v227h184v-227h85l151 224h238l-224 -224h174v-162h-425v-363q0 -108 36.5 -155t120.5 -47q67 0 100 16t43 53z" />
    <glyph glyph-name="Tbar" unicode="&#x166;" horiz-adv-x="1176" 
d="M1157 927h-479v-260h239v-170h-239v-497h-183v497h-236v170h236v260h-476v170h1138v-170z" />
    <glyph glyph-name="tbar" unicode="&#x167;" horiz-adv-x="927" 
d="M704 212h183q-16 -124 -92 -177.5t-234 -53.5q-182 0 -261 79.5t-79 261.5v121h-182v162h182v103h-181v162h181v227h184v-227h424v-162h-425v-103h425v-162h-425v-98q0 -108 36.5 -155t120.5 -47q67 0 100 16t43 53z" />
    <glyph glyph-name="Umacron" unicode="&#x16a;" horiz-adv-x="1308" 
d="M403 1232v145h496v-145h-496zM654 -20q-131 0 -228.5 18.5t-160.5 52.5t-101.5 87t-54 116t-15.5 147v696h184v-696q0 -91 32 -144t114.5 -80t229.5 -27t229.5 27.5t114.5 80t32 143.5v696h184v-696q0 -105 -25.5 -179t-87.5 -130.5t-173 -84t-274 -27.5z" />
    <glyph glyph-name="umacron" unicode="&#x16b;" horiz-adv-x="1200" 
d="M848 1147v-145h-496v145h496zM930 870h176v-870h-176v167q-101 -187 -363 -187q-259 0 -366 105t-107 352v433h176v-433q0 -162 60 -228.5t223 -66.5q178 0 277.5 82t99.5 234v412z" />
    <glyph glyph-name="Uring" unicode="&#x16e;" horiz-adv-x="1308" 
d="M652 1232q-102 0 -144 46.5t-42 118.5q0 168 186 168q185 0 185 -168q0 -165 -185 -165zM652 1455q-64 0 -64 -57q0 -56 64 -56q62 0 62 56q0 57 -62 57zM1030 1097h184v-696q0 -105 -25.5 -179t-87.5 -130.5t-173 -84t-274 -27.5q-131 0 -228.5 18.5t-160.5 52.5
t-101.5 87t-54 116t-15.5 147v696h184v-696q0 -91 32 -144t114.5 -80t229.5 -27t229.5 27.5t114.5 80t32 143.5v696z" />
    <glyph glyph-name="uring" unicode="&#x16f;" horiz-adv-x="1200" 
d="M601 1002q-102 0 -144 46.5t-42 118.5q0 168 186 168q185 0 185 -168q0 -165 -185 -165zM601 1225q-64 0 -64 -57q0 -56 64 -56q62 0 62 56q0 57 -62 57zM930 870h176v-870h-176v167q-101 -187 -363 -187q-259 0 -366 105t-107 352v433h176v-433q0 -162 60 -228.5
t223 -66.5q178 0 277.5 82t99.5 234v412z" />
    <glyph glyph-name="Uhungarumlaut" unicode="&#x170;" horiz-adv-x="1308" 
d="M776 1233l169 251h238l-251 -251h-156zM387 1231l169 251h238l-251 -251h-156zM654 -20q-131 0 -228.5 18.5t-160.5 52.5t-101.5 87t-54 116t-15.5 147v696h184v-696q0 -91 32 -144t114.5 -80t229.5 -27t229.5 27.5t114.5 80t32 143.5v696h184v-696q0 -105 -25.5 -179
t-87.5 -130.5t-173 -84t-274 -27.5z" />
    <glyph glyph-name="uhungarumlaut" unicode="&#x171;" horiz-adv-x="1200" 
d="M881 1003h-156l169 251h238zM743 1252l-251 -251h-156l169 251h238zM930 458v412h176v-870h-176v167q-101 -187 -363 -187q-259 0 -366 105t-107 352v433h176v-433q0 -162 60 -228.5t223 -66.5q178 0 277.5 82t99.5 234z" />
    <glyph glyph-name="Uogonek" unicode="&#x172;" horiz-adv-x="1308" 
d="M1030 1097h184v-696q0 -96 -21.5 -166t-72.5 -125.5t-142 -87t-224 -39.5q-71 -66 -98 -108t-27 -76q0 -43 28 -62.5t88 -19.5h60v-159h-78q-154 0 -218.5 41.5t-64.5 122.5q0 72 38 131.5t119 127.5q-147 4 -247.5 33.5t-156.5 85.5t-79.5 128t-23.5 173v696h184v-696
q0 -91 32 -144t114.5 -80t229.5 -27t229.5 27.5t114.5 80t32 143.5v696z" />
    <glyph glyph-name="uogonek" unicode="&#x173;" horiz-adv-x="1200" 
d="M1067 -265h80v-169h-78q-166 0 -229.5 40.5t-63.5 123.5q0 141 173 270h-19v167q-101 -187 -363 -187q-259 0 -366 105t-107 352v433h176v-433q0 -162 60 -228.5t223 -66.5q178 0 277.5 82t99.5 234v412h176v-870q-77 -70 -106 -114t-29 -79q0 -41 23.5 -56.5t72.5 -15.5
z" />
    <glyph glyph-name="Wcircumflex" unicode="&#x174;" horiz-adv-x="1824" 
d="M912 1381l-202 -150h-176l279 251h198l279 -251h-176zM1602 1097h202l-373 -1097h-238l-281 912l-282 -912h-238l-372 1097h201l288 -910l287 910h232l287 -910z" />
    <glyph glyph-name="wcircumflex" unicode="&#x175;" horiz-adv-x="1878" 
d="M939 1151l-202 -150h-176l279 251h198l279 -251h-176zM1640 870h199l-341 -870h-238l-321 738l-322 -738h-238l-340 870h200l260 -705l314 705h252l314 -706z" />
    <glyph glyph-name="Ycircumflex" unicode="&#x176;" horiz-adv-x="1314" 
d="M657 1381l-202 -150h-176l279 251h198l279 -251h-176zM1067 1097h227l-546 -614v-483h-183v483l-545 614h227l410 -459z" />
    <glyph glyph-name="ycircumflex" unicode="&#x177;" horiz-adv-x="1227" 
d="M614 1151l-202 -150h-176l279 251h198l279 -251h-176zM957 870h176v-550q0 -77 -11.5 -129t-42 -94.5t-85 -67t-138 -37t-204.5 -12.5q-239 0 -380.5 51.5t-201.5 179.5h213q32 -42 128.5 -55.5t240.5 -13.5q83 0 138.5 6.5t88.5 18t50 34t22.5 46.5t5.5 65h-457
q-220 0 -307.5 70t-87.5 247v241h176v-241q0 -86 45.5 -120.5t159.5 -34.5h471v396z" />
    <glyph glyph-name="Ydieresis" unicode="&#x178;" horiz-adv-x="1314" 
d="M482 1232q-64 0 -89 22.5t-25 79.5t25 80t89 23q63 0 88 -23t25 -80t-25 -79.5t-88 -22.5zM833 1232q-64 0 -89 22.5t-25 79.5t25 80t89 23q63 0 88 -23t25 -80t-25 -79.5t-88 -22.5zM1067 1097h227l-546 -614v-483h-183v483l-545 614h227l410 -459z" />
    <glyph glyph-name="Zacute" unicode="&#x179;" horiz-adv-x="1107" 
d="M872 1482l-251 -251h-156l169 251h238zM1049 1097v-170l-781 -765q57 11 189 11h571v-173h-970v173l766 763q-81 -9 -248 -9h-447v170h920z" />
    <glyph glyph-name="zacute" unicode="&#x17a;" horiz-adv-x="1119" 
d="M849 1252l-251 -251h-156l169 251h238zM1041 870v-156l-700 -552h697v-162h-960v156l700 552h-657v162h920z" />
    <glyph glyph-name="Zdotaccent" unicode="&#x17b;" horiz-adv-x="1107" 
d="M553 1232q-64 0 -89 22.5t-25 79.5t25 80t89 23q63 0 88 -23t25 -80t-25 -79.5t-88 -22.5zM1049 1097v-170l-781 -765q57 11 189 11h571v-173h-970v173l766 763q-81 -9 -248 -9h-447v170h920z" />
    <glyph glyph-name="zdotaccent" unicode="&#x17c;" horiz-adv-x="1119" 
d="M570 1002q-64 0 -89 22.5t-25 79.5t25 80t89 23q63 0 88 -23t25 -80t-25 -79.5t-88 -22.5zM1041 870v-156l-700 -552h697v-162h-960v156l700 552h-657v162h920z" />
    <glyph glyph-name="Zcaron" unicode="&#x17d;" horiz-adv-x="1107" 
d="M652 1231h-198l-279 251h176l202 -150l202 150h176zM1049 1097v-170l-781 -765q57 11 189 11h571v-173h-970v173l766 763q-81 -9 -248 -9h-447v170h920z" />
    <glyph glyph-name="zcaron" unicode="&#x17e;" horiz-adv-x="1119" 
d="M669 1001h-198l-279 251h176l202 -150l202 150h176zM1041 870v-156l-700 -552h697v-162h-960v156l700 552h-657v162h920z" />
    <glyph glyph-name="florin" unicode="&#x192;" horiz-adv-x="1319" 
d="M1048 1105q114 0 184 -65t71 -172h-190q-1 75 -108 75q-89 0 -132.5 -51t-89.5 -208h295v-162h-338q-31 -114 -56 -190t-56 -138t-62 -96.5t-76 -58t-95.5 -31.5t-123.5 -8q-253 0 -255 237h190q1 -75 108 -75q42 0 70.5 10t52.5 30.5t44.5 65.5t39 102t43.5 152h-249
v162h293q39 134 74.5 212t87.5 127t115 65.5t163 16.5z" />
    <glyph glyph-name="uni0218" unicode="&#x218;" horiz-adv-x="1312" 
d="M646 -20q-281 0 -424.5 100t-143.5 280h184q0 -58 33 -100.5t90 -65.5t122 -33.5t139 -10.5q225 0 315 38t90 128q0 67 -41.5 95.5t-121.5 34.5l-439 34q-187 14 -266.5 89t-79.5 228q0 326 554 326q266 0 406.5 -101.5t140.5 -281.5h-184q0 58 -30 101t-83 66.5
t-115 34.5t-135 11q-370 0 -370 -157q0 -66 40.5 -96.5t121.5 -36.5l439 -34q102 -8 170.5 -33t106.5 -68.5t53.5 -97.5t15.5 -129q0 -93 -39.5 -156.5t-118.5 -99t-182.5 -50.5t-247.5 -15zM378 -342l169 251h238l-251 -251h-156z" />
    <glyph glyph-name="uni0219" unicode="&#x219;" horiz-adv-x="1151" 
d="M565 -20q-240 0 -371.5 84t-131.5 227h184q0 -38 31.5 -68t81 -47t102.5 -25.5t104 -8.5q189 0 265 23t76 82q0 91 -163 106l-310 28q-187 18 -266.5 74.5t-79.5 185.5q0 131 128.5 198.5t360.5 67.5q226 0 354.5 -84.5t128.5 -226.5h-184q0 38 -28.5 68.5t-74.5 47
t-96 25t-100 8.5q-162 0 -233.5 -22t-71.5 -73q0 -45 42 -66t120 -28l310 -27q103 -9 173 -33.5t107 -65t51.5 -87t14.5 -109.5q0 -60 -25.5 -104.5t-69.5 -73t-111.5 -45.5t-143.5 -24t-174 -7zM298 -342l169 251h238l-251 -251h-156z" />
    <glyph glyph-name="uni021A" unicode="&#x21a;" horiz-adv-x="1176" 
d="M495 0v927h-476v170h1138v-170h-479v-927h-183zM310 -342l169 251h238l-251 -251h-156z" />
    <glyph glyph-name="uni021B" unicode="&#x21b;" horiz-adv-x="927" 
d="M704 212h183q-16 -124 -92 -177.5t-234 -53.5q-182 0 -261 79.5t-79 261.5v386h-181v162h181v227h184v-227h424v-162h-425v-363q0 -108 36.5 -155t120.5 -47q67 0 100 16t43 53zM283 -342l169 251h238l-251 -251h-156z" />
    <glyph glyph-name="uni0237" unicode="&#x237;" horiz-adv-x="760" 
d="M326 -19q-163 0 -237 57t-89 214h183q9 -70 39.5 -89.5t103.5 -19.5q84 0 120.5 47t36.5 155l-1 525h184v-548q0 -182 -79 -261.5t-261 -79.5z" />
    <glyph glyph-name="uni02BC" unicode="&#x2bc;" horiz-adv-x="402" 
d="M323 974h1q0 -167 -150 -323h-96l105 197q-46 5 -65.5 33.5t-19.5 90.5q0 70 24.5 97.5t87.5 27.5q62 0 87.5 -27.5t25.5 -95.5z" />
    <glyph glyph-name="circumflex" unicode="&#x2c6;" horiz-adv-x="912" 
d="M834 1231h-176l-202 150l-202 -150h-176l279 251h198z" />
    <glyph glyph-name="caron" unicode="&#x2c7;" horiz-adv-x="912" 
d="M658 1482h176l-279 -251h-198l-279 251h176l202 -150z" />
    <glyph glyph-name="breve" unicode="&#x2d8;" horiz-adv-x="698" 
d="M349 1232q-50 0 -90 10t-76 33.5t-62.5 66.5t-42.5 105h158q27 -84 113 -84t113 84h158q-31 -120 -99.5 -167.5t-171.5 -47.5z" />
    <glyph glyph-name="dotaccent" unicode="&#x2d9;" horiz-adv-x="383" 
d="M192 1232q-64 0 -89 22.5t-25 79.5t25 80t89 23q63 0 88 -23t25 -80t-25 -79.5t-88 -22.5z" />
    <glyph glyph-name="ring" unicode="&#x2da;" horiz-adv-x="527" 
d="M264 1565q185 0 185 -168q0 -165 -185 -165q-102 0 -144 46.5t-42 118.5q0 168 186 168zM264 1342q62 0 62 56q0 57 -62 57q-64 0 -64 -57q0 -56 64 -56z" />
    <glyph glyph-name="ogonek" unicode="&#x2db;" horiz-adv-x="527" 
d="M371 -434q-166 0 -229.5 40.5t-63.5 123.5q0 151 201 290l129 -20q-77 -70 -106 -114t-29 -79q0 -41 23.5 -56.5t72.5 -15.5h80v-169h-78z" />
    <glyph glyph-name="tilde" unicode="&#x2dc;" horiz-adv-x="848" 
d="M537 1231q-50 0 -125.5 38t-115.5 38q-59 0 -104 -75h-114q25 93 83.5 148t151.5 55q49 0 122 -37t119 -37q61 0 103 73h113q-62 -203 -233 -203z" />
    <glyph glyph-name="hungarumlaut" unicode="&#x2dd;" horiz-adv-x="836" 
d="M467 1233l169 251h238l-251 -251h-156zM78 1231l169 251h238l-251 -251h-156z" />
    <glyph glyph-name="gravecomb" unicode="&#x300;" horiz-adv-x="0" 
d="M-78 1231h-156l-251 251h238z" />
    <glyph glyph-name="acutecomb" unicode="&#x301;" horiz-adv-x="0" 
d="M-485 1231l169 251h238l-251 -251h-156z" />
    <glyph glyph-name="uni0302" unicode="&#x302;" horiz-adv-x="0" 
d="M-78 1231h-176l-202 158l-202 -158h-176l279 251h198z" />
    <glyph glyph-name="tildecomb" unicode="&#x303;" horiz-adv-x="0" 
d="M-311 1232q-50 0 -125.5 33t-115.5 33q-65 0 -104 -65h-114q25 95 84 154t151 59q49 0 122 -34.5t119 -34.5q64 0 103 68h113q-65 -213 -233 -213z" />
    <glyph glyph-name="uni0304" unicode="&#x304;" horiz-adv-x="0" 
d="M-694 1232v165h616v-165h-616z" />
    <glyph glyph-name="uni0306" unicode="&#x306;" horiz-adv-x="0" 
d="M-349 1232q-50 0 -90 10t-76 33.5t-62.5 66.5t-42.5 105h158q27 -84 113 -84t113 84h158q-31 -120 -99.5 -167.5t-171.5 -47.5z" />
    <glyph glyph-name="uni0307" unicode="&#x307;" horiz-adv-x="0" 
d="M-191 1232q-64 0 -89 22.5t-25 79.5t25 80t89 23q63 0 88 -23t25 -80t-25 -79.5t-88 -22.5z" />
    <glyph glyph-name="uni0308" unicode="&#x308;" horiz-adv-x="0" 
d="M-542 1232q-64 0 -89 22.5t-25 79.5t25 80t89 23q63 0 88 -23t25 -80t-25 -79.5t-88 -22.5zM-191 1232q-64 0 -89 22.5t-25 79.5t25 80t89 23q63 0 88 -23t25 -80t-25 -79.5t-88 -22.5z" />
    <glyph glyph-name="uni030A" unicode="&#x30a;" horiz-adv-x="0" 
d="M-263 1565q185 0 185 -168q0 -165 -185 -165q-102 0 -144 46.5t-42 118.5q0 168 186 168zM-263 1342q62 0 62 56q0 57 -62 57q-64 0 -64 -57q0 -56 64 -56z" />
    <glyph glyph-name="uni030B" unicode="&#x30b;" horiz-adv-x="0" 
d="M-369 1233l169 251h238l-251 -251h-156zM-758 1231l169 251h238l-251 -251h-156z" />
    <glyph glyph-name="uni030C" unicode="&#x30c;" horiz-adv-x="0" 
d="M-254 -134h176l-279 -251h-198l-279 251h176l202 -150z" />
    <glyph glyph-name="uni0312" unicode="&#x312;" horiz-adv-x="0" 
d="M-78 1483l-169 -251h-238l251 251h156z" />
    <glyph glyph-name="uni0326" unicode="&#x326;" horiz-adv-x="0" 
d="M-485 -271l169 251h238l-251 -251h-156z" />
    <glyph glyph-name="uni0327" unicode="&#x327;" horiz-adv-x="0" 
d="M-269 -363q-62 0 -197 34v90q129 -27 192 -27q41 0 56 10t15 31q0 30 -19 41.5t-62 11.5q-102 0 -107 -1v204h120v-114h17q97 0 136.5 -30t39.5 -108q0 -82 -44.5 -112t-146.5 -30z" />
    <glyph glyph-name="uni0328" unicode="&#x328;" horiz-adv-x="0" 
d="M-156 -434q-166 0 -229.5 40.5t-63.5 123.5q0 73 44 134t137 136h149q-77 -70 -106 -114t-29 -79q0 -41 23.5 -56.5t72.5 -15.5h80v-169h-78z" />
    <glyph glyph-name="uni0394" unicode="&#x394;" 
d="M798 1097l547 -1097h-1325l548 1097h230zM300 170h765l-382 791z" />
    <glyph glyph-name="uni0394" unicode="&#x3b4;" 
d="M798 1097l547 -1097h-1325l548 1097h230zM300 170h765l-382 791z" />
    <glyph glyph-name="uni03A9" unicode="&#x3a9;" horiz-adv-x="1429" 
d="M1351 551q0 -256 -185 -384h185v-170h-501v171q174 18 245.5 106t71.5 277q0 218 -98.5 303.5t-353.5 85.5t-354 -85.5t-99 -303.5q0 -191 72 -278t245 -105v-171h-501v170h194q-194 123 -194 384q0 109 17.5 192t61 154t115 116.5t182.5 71t261 25.5q149 0 260 -25.5
t182.5 -71t115 -116.5t61 -154t17.5 -192z" />
    <glyph glyph-name="uni03A9" unicode="&#x3c9;" horiz-adv-x="1429" 
d="M1351 551q0 -256 -185 -384h185v-170h-501v171q174 18 245.5 106t71.5 277q0 218 -98.5 303.5t-353.5 85.5t-354 -85.5t-99 -303.5q0 -191 72 -278t245 -105v-171h-501v170h194q-194 123 -194 384q0 109 17.5 192t61 154t115 116.5t182.5 71t261 25.5q149 0 260 -25.5
t182.5 -71t115 -116.5t61 -154t17.5 -192z" />
    <glyph glyph-name="uni03BC" unicode="&#x3bc;" horiz-adv-x="1293" 
d="M1106 419q6 -154 12 -185q11 -50 51 -63q27 -9 84 -9v-162q-72 0 -118.5 6t-89.5 23.5t-68 52.5t-36 90q-45 -94 -129 -137t-214 -43q-127 0 -208 41t-126 129l-17 -162h-153v868h176v-410q0 -153 81 -228.5t247 -75.5q319 0 334 275l-2 439h176v-449z" />
    <glyph glyph-name="pi" unicode="&#x3c0;" horiz-adv-x="1266" 
d="M1039 419q6 -154 12 -184q11 -50 49 -64q28 -9 86 -9v-162q-68 0 -112.5 5t-87.5 20.5t-67.5 44.5t-39 77.5t-14.5 118.5l3 33l-3 -2l-1 411h-485v-708h-176v708h-98v162h1063v-162h-129v-289z" />
    <glyph glyph-name="uni0400" unicode="&#x400;" horiz-adv-x="1158" 
d="M823 1231h-156l-251 251h238zM117 0v1097h952v-170h-768v-269h726v-170h-726v-318h779v-170h-963z" />
    <glyph glyph-name="uni0401" unicode="&#x401;" horiz-adv-x="1158" 
d="M444 1232q-64 0 -89 22.5t-25 79.5t25 80t89 23q63 0 88 -23t25 -80t-25 -79.5t-88 -22.5zM795 1232q-64 0 -89 22.5t-25 79.5t25 80t89 23q63 0 88 -23t25 -80t-25 -79.5t-88 -22.5zM117 0v1097h952v-170h-768v-269h726v-170h-726v-318h779v-170h-963z" />
    <glyph glyph-name="uni0402" unicode="&#x402;" horiz-adv-x="1512" 
d="M975 736q235 -3 347 -91.5t112 -281.5q0 -199 -75 -285t-247 -86q-145 0 -217.5 57.5t-84.5 179.5h189q4 -43 32 -59t81 -16q78 0 112 48t34 158q0 111 -66 161t-219 52h-18q-197 0 -299 -75.5t-102 -227.5v-270h-176v927h-339v170h830v-170h-315v-379q107 188 402 188
h19z" />
    <glyph glyph-name="uni0403" unicode="&#x403;" horiz-adv-x="1032" 
d="M862 1445l-251 -251h-156l169 251h238zM1013 1097v-170h-712v-927h-184v1097h896z" />
    <glyph glyph-name="uni0404" unicode="&#x404;" horiz-adv-x="1277" 
d="M689 162q327 8 327 210h183q0 -371 -505 -380h-27q-219 0 -347.5 57.5t-185 178t-56.5 323.5t56.5 323.5t185 178t347.5 57.5h28q251 -5 377.5 -98.5t126.5 -281.5h-183q0 202 -326 210h-23q-200 0 -291.5 -66t-108.5 -227h494v-170h-496q13 -173 104.5 -244t297.5 -71
h22z" />
    <glyph glyph-name="uni0405" unicode="&#x405;" horiz-adv-x="1312" 
d="M646 -20q-281 0 -424.5 100t-143.5 280h184q0 -58 33 -100.5t90 -65.5t122 -33.5t139 -10.5q225 0 315 38t90 128q0 67 -41.5 95.5t-121.5 34.5l-439 34q-187 14 -266.5 89t-79.5 228q0 326 554 326q266 0 406.5 -101.5t140.5 -281.5h-184q0 58 -30 101t-83 66.5
t-115 34.5t-135 11q-370 0 -370 -157q0 -66 40.5 -96.5t121.5 -36.5l439 -34q102 -8 170.5 -33t106.5 -68.5t53.5 -97.5t15.5 -129q0 -93 -39.5 -156.5t-118.5 -99t-182.5 -50.5t-247.5 -15z" />
    <glyph glyph-name="uni0406" unicode="&#x406;" horiz-adv-x="418" 
d="M117 0v1097h184v-1097h-184z" />
    <glyph glyph-name="uni0407" unicode="&#x407;" horiz-adv-x="418" 
d="M34 1232q-64 0 -89 22.5t-25 79.5t25 80t89 23q63 0 88 -23t25 -80t-25 -79.5t-88 -22.5zM385 1232q-64 0 -89 22.5t-25 79.5t25 80t89 23q63 0 88 -23t25 -80t-25 -79.5t-88 -22.5zM117 0v1097h184v-1097h-184z" />
    <glyph glyph-name="uni0408" unicode="&#x408;" horiz-adv-x="1214" 
d="M1120 1097v-696q0 -85 -13 -146.5t-48 -116t-94.5 -87.5t-154 -52t-225.5 -19t-226 19t-154.5 52t-94 87t-47.5 116t-13 147h184q0 -56 8 -94t30 -69.5t61.5 -50t101 -28t150.5 -9.5q110 0 179.5 14t107.5 47t51.5 76.5t13.5 113.5v525h-522v171h705z" />
    <glyph glyph-name="uni0409" unicode="&#x409;" horiz-adv-x="2007" 
d="M1532 639q234 0 327 -71.5t93 -250.5q0 -77 -17 -132t-49 -91t-85 -57t-116.5 -29t-152.5 -8h-584v927h-512l-74 -599q-40 -328 -352 -328v162q99 0 137 59q30 47 49 189q3 20 8 63l1 8l77 616h850v-458h400zM1588 170q96 0 138 30.5t42 116.5q0 89 -43 120t-137 31h-456
v-298h456z" />
    <glyph glyph-name="uni040A" unicode="&#x40a;" horiz-adv-x="1888" 
d="M1413 639q234 0 327 -71.5t93 -250.5q0 -77 -17 -132t-49 -91t-85 -57t-116.5 -29t-152.5 -8h-520v489h-592v-489h-184v1097h184v-438h592v438h184v-458h336zM1469 170q96 0 138 30.5t42 116.5q0 88 -42 119.5t-138 31.5h-392v-298h392z" />
    <glyph glyph-name="uni040B" unicode="&#x40b;" horiz-adv-x="1531" 
d="M966 736q261 -4 366 -109.5t105 -348.5v-278h-177v278q0 107 -23.5 168t-85.5 93t-175 34h-21q-197 0 -299 -75.5t-102 -227.5v-270h-176v927h-339v170h830v-170h-315v-371q101 180 387 180h25z" />
    <glyph glyph-name="uni040C" unicode="&#x40c;" horiz-adv-x="1273" 
d="M990 1482l-251 -251h-156l169 251h238zM1282 0h-246l-529 487h-206v-487h-184v1097h184v-439h216l481 439h246l-577 -529z" />
    <glyph glyph-name="uni040D" unicode="&#x40d;" horiz-adv-x="1394" 
d="M901 1231h-156l-251 251h238zM1038 1097h239v-1097h-184v889l-729 -889h-247v1097h184v-902z" />
    <glyph glyph-name="uni040E" unicode="&#x40e;" horiz-adv-x="1165" 
d="M583 1232q-50 0 -90 10t-76 33.5t-62.5 66.5t-42.5 105h158q27 -84 113 -84t113 84h158q-31 -120 -99.5 -167.5t-171.5 -47.5zM895 1097h176v-765q0 -77 -11.5 -129t-42 -94.5t-85 -67t-138 -37t-204.5 -12.5q-156 0 -251.5 21t-156.5 70.5t-104 139.5h213
q33 -43 101.5 -56t197.5 -13q85 0 141 7t89 18.5t49.5 35.5t21 49t4.5 68v66h-356q-228 0 -327 82.5t-99 272.5v344h176v-344q0 -104 54.5 -148.5t181.5 -44.5h370v537z" />
    <glyph glyph-name="uni040F" unicode="&#x40f;" horiz-adv-x="1260" 
d="M960 1097h183v-868h-387v-229h-170v229h-469v868h184v-698h659v698z" />
    <glyph glyph-name="uni0410" unicode="&#x410;" 
d="M1147 0l-120 249h-689l-120 -249h-198l548 1097h230l547 -1097h-198zM420 419h525l-262 544z" />
    <glyph glyph-name="uni0411" unicode="&#x411;" horiz-adv-x="1176" 
d="M701 638q234 0 327 -71t93 -250q0 -77 -17 -132t-49 -91t-85 -57t-116.5 -29t-152.5 -8h-584v1097h896v-170h-712v-289h400zM747 170q97 0 143.5 31t46.5 116q0 88 -47 119.5t-143 31.5h-446v-298h446z" />
    <glyph glyph-name="uni0412" unicode="&#x412;" horiz-adv-x="1249" 
d="M1032 559q170 -72 170 -266q0 -158 -107 -225.5t-313 -67.5h-665v1097h624q205 0 312 -67.5t107 -224.5q0 -169 -128 -246zM781 927h-480v-298h480q101 0 148 33t47 119q0 82 -47.5 114t-147.5 32zM822 170q99 0 147.5 31.5t48.5 115.5t-47.5 117.5t-148.5 33.5h-521
v-298h521z" />
    <glyph glyph-name="uni0413" unicode="&#x413;" horiz-adv-x="1032" 
d="M1013 1097v-170h-712v-927h-184v1097h896z" />
    <glyph glyph-name="uni0414" unicode="&#x414;" horiz-adv-x="1324" 
d="M1113 349h149v-349h-182v179h-834v-179h-184v349h162l95 748h794v-748zM931 927h-450l-73 -578h523v578z" />
    <glyph glyph-name="uni0415" unicode="&#x415;" horiz-adv-x="1158" 
d="M117 0v1097h952v-170h-768v-269h726v-170h-726v-318h779v-170h-963z" />
    <glyph glyph-name="uni0416" unicode="&#x416;" horiz-adv-x="1728" 
d="M1737 0h-236l-382 487h-143v-487h-184v487h-143l-382 -487h-236l474 578l-436 519h236l355 -439h132v439h184v-439h132l355 439h236l-436 -519z" />
    <glyph glyph-name="uni0417" unicode="&#x417;" horiz-adv-x="1252" 
d="M1007 562q103 -35 150.5 -96.5t47.5 -157.5q0 -168 -135 -241.5t-453 -74.5q-291 0 -415 88t-124 292h184q0 -113 81 -161.5t274 -48.5q219 1 311.5 35t92.5 111q0 81 -49.5 116.5t-164.5 35.5h-215v150h152q124 0 180 41.5t56 124.5q0 88 -76 126t-256 38
q-181 0 -257.5 -48.5t-76.5 -161.5h-184q0 204 119 292t399 88q278 0 397 -77t119 -257q0 -142 -157 -214z" />
    <glyph glyph-name="uni0418" unicode="&#x418;" horiz-adv-x="1394" 
d="M1038 1097h239v-1097h-184v889l-729 -889h-247v1097h184v-902z" />
    <glyph glyph-name="uni0419" unicode="&#x419;" horiz-adv-x="1394" 
d="M697 1232q-50 0 -90 10t-76 33.5t-62.5 66.5t-42.5 105h158q27 -84 113 -84t113 84h158q-31 -120 -99.5 -167.5t-171.5 -47.5zM1038 1097h239v-1097h-184v889l-729 -889h-247v1097h184v-902z" />
    <glyph glyph-name="uni041A" unicode="&#x41a;" horiz-adv-x="1273" 
d="M1282 0h-246l-529 487h-206v-487h-184v1097h184v-439h216l481 439h246l-577 -529z" />
    <glyph glyph-name="uni041B" unicode="&#x41b;" horiz-adv-x="1328" 
d="M1211 1097v-1097h-183v927h-592l-74 -599q-22 -172 -111.5 -250t-240.5 -78v162q99 0 137 59q30 47 49 189q3 20 8 63l1 8l77 616h929z" />
    <glyph glyph-name="uni041C" unicode="&#x41c;" horiz-adv-x="1550" 
d="M1161 1097h272v-1097h-184v916l-358 -622h-234l-356 597v-891h-184v1097h260l396 -667z" />
    <glyph glyph-name="uni041D" unicode="&#x41d;" horiz-adv-x="1404" 
d="M1103 1097h184v-1097h-184v489h-802v-489h-184v1097h184v-438h802v438z" />
    <glyph glyph-name="uni041E" unicode="&#x41e;" horiz-adv-x="1434" 
d="M718 1120q148 0 258.5 -26t182.5 -73t116.5 -119.5t62.5 -157t18 -193.5t-18 -193.5t-62.5 -157.5t-116.5 -120t-182.5 -73.5t-258.5 -26.5q-149 0 -260 26.5t-183 73.5t-116.5 120t-62.5 157.5t-18 193.5t18 193.5t62.5 157t116.5 119.5t183 73t260 26zM718 150
q251 0 352.5 91.5t101.5 309.5t-101.5 308.5t-352.5 90.5q-253 0 -354.5 -90.5t-101.5 -308.5q0 -219 102 -310t354 -91z" />
    <glyph glyph-name="uni041F" unicode="&#x41f;" horiz-adv-x="1372" 
d="M1255 1097v-1097h-182v927h-772v-927h-184v1097h1138z" />
    <glyph glyph-name="uni0420" unicode="&#x420;" horiz-adv-x="1227" 
d="M712 1097q246 -1 353 -89t107 -290q0 -204 -107.5 -292t-355.5 -88h-408v-338h-184v1097h595zM751 508q131 0 184 48t53 162q0 113 -53 161t-184 48h-450v-419h450z" />
    <glyph glyph-name="uni0421" unicode="&#x421;" horiz-adv-x="1378" 
d="M750 149q76 0 141 11.5t119.5 35.5t86 66.5t31.5 99.5h183q0 -177 -144.5 -280t-416.5 -103q-150 0 -265.5 26.5t-192 74.5t-125 120t-69 157.5t-20.5 193.5q0 136 34 237.5t110 178.5t208.5 116.5t319.5 39.5q272 0 416.5 -103t144.5 -280h-183q0 76 -56 125.5
t-137 68.5t-185 19q-269 0 -378.5 -90t-109.5 -312q0 -219 109 -310.5t379 -91.5z" />
    <glyph glyph-name="uni0422" unicode="&#x422;" horiz-adv-x="1176" 
d="M495 0v927h-476v170h1138v-170h-479v-927h-183z" />
    <glyph glyph-name="uni0423" unicode="&#x423;" horiz-adv-x="1165" 
d="M895 1097h176v-765q0 -77 -11.5 -129t-42 -94.5t-85 -67t-138 -37t-204.5 -12.5q-156 0 -251.5 21t-156.5 70.5t-104 139.5h213q33 -43 101.5 -56t197.5 -13q85 0 141 7t89 18.5t49.5 35.5t21 49t4.5 68v66h-356q-228 0 -327 82.5t-99 272.5v344h176v-344
q0 -104 54.5 -148.5t181.5 -44.5h370v537z" />
    <glyph glyph-name="uni0424" unicode="&#x424;" horiz-adv-x="1574" 
d="M1496 622q0 -153 -59.5 -240.5t-192.5 -127t-365 -39.5v-223h-184v223q-232 0 -365 39.5t-192.5 127t-59.5 240.5q0 150 59.5 235.5t192.5 124t366 38.5v194h184v-194q232 0 364.5 -38.5t192 -124t59.5 -235.5zM262 622q0 -74 18.5 -118t69 -71.5t131 -37.5t214.5 -10
l1 465q-178 0 -268.5 -19.5t-128 -67t-37.5 -141.5zM879 385q134 0 214.5 10t131 37.5t69 71.5t18.5 118q0 94 -37.5 141.5t-127.5 67t-267 19.5z" />
    <glyph glyph-name="uni0425" unicode="&#x425;" horiz-adv-x="1245" 
d="M1214 0h-220l-371 437l-372 -437h-220l482 567l-451 530h220l341 -401l340 401h220l-450 -530z" />
    <glyph glyph-name="uni0426" unicode="&#x426;" horiz-adv-x="1441" 
d="M1073 170h329v-170h-1285v1097h184v-927h589v927h183v-927z" />
    <glyph glyph-name="uni0427" unicode="&#x427;" horiz-adv-x="1330" 
d="M1029 1097h184v-1097h-184v398h-509q-228 0 -327 82.5t-99 272.5v344h183v-344q0 -104 51.5 -148.5t177.5 -44.5h523v537z" />
    <glyph glyph-name="uni0428" unicode="&#x428;" horiz-adv-x="1849" 
d="M1550 1097h182v-1097h-1615v1097h184v-927h531v927h184v-927h534v927z" />
    <glyph glyph-name="uni0429" unicode="&#x429;" horiz-adv-x="2100" 
d="M1732 170h329v-170h-1944v1097h184v-927h531v927h184v-927h534v927h182v-927z" />
    <glyph glyph-name="uni042A" unicode="&#x42a;" horiz-adv-x="1440" 
d="M948 639q234 0 327 -71.5t93 -250.5q0 -77 -17 -132t-49 -91t-85 -57t-116.5 -29t-152.5 -8h-584v927h-325v170h509v-458h400zM1004 170q96 0 138 30.5t42 116.5q0 89 -43 120t-137 31h-456v-298h456z" />
    <glyph glyph-name="uni042B" unicode="&#x42b;" horiz-adv-x="1562" 
d="M701 639q234 0 327 -71.5t93 -250.5q0 -77 -17 -132t-49 -91t-85 -57t-116.5 -29t-152.5 -8h-584v1097h184v-458h400zM1261 1097h184v-1097h-184v1097zM757 170q96 0 138 30.5t42 116.5q0 89 -43 120t-137 31h-456v-298h456z" />
    <glyph glyph-name="uni042C" unicode="&#x42c;" horiz-adv-x="1176" 
d="M701 639q234 0 327 -71.5t93 -250.5q0 -77 -17 -132t-49 -91t-85 -57t-116.5 -29t-152.5 -8h-584v1097h184v-458h400zM757 170q96 0 138 30.5t42 116.5q0 89 -43 120t-137 31h-456v-298h456z" />
    <glyph glyph-name="uni042D" unicode="&#x42d;" horiz-adv-x="1277" 
d="M610 1110q219 0 347.5 -57.5t185 -178t56.5 -323.5t-56.5 -323.5t-185 -178t-347.5 -57.5h-27q-505 9 -505 380h183q0 -202 327 -210h22q206 0 297.5 71t104.5 244h-496v170h494q-17 161 -108.5 227t-291.5 66h-23q-326 -8 -326 -210h-183q0 188 126.5 281.5t377.5 98.5
h28z" />
    <glyph glyph-name="uni042E" unicode="&#x42e;" horiz-adv-x="2260" 
d="M1544 1117q148 0 258.5 -26t182.5 -73t116.5 -119.5t62.5 -157t18 -193.5t-18 -193.5t-62.5 -157.5t-116.5 -120t-182.5 -73.5t-258.5 -26.5q-169 0 -290 33t-193.5 98.5t-108.5 151t-45 202.5h-606v-464h-184v1097h184v-462h606q9 117 44.5 202.5t108 150.5t193.5 98
t291 33zM1544 147q251 0 352.5 91.5t101.5 309.5t-101.5 308.5t-352.5 90.5q-253 0 -354.5 -90.5t-101.5 -308.5q0 -219 102 -310t354 -91z" />
    <glyph glyph-name="uni042F" unicode="&#x42f;" horiz-adv-x="1288" 
d="M503 1097h668v-1097h-184v399h-513q-113 0 -157 -37t-44 -137q0 -151 -20 -225h-193q30 80 30 225q0 122 35.5 185t117.5 88q-80 29 -116 89t-36 166q0 189 95 266t317 78zM987 570v357h-513q-112 0 -156 -38.5t-44 -135.5q0 -102 44 -142.5t156 -40.5h513z" />
    <glyph glyph-name="uni0430" unicode="&#x430;" horiz-adv-x="1322" 
d="M1137 451q1 -47 1 -74t2 -59.5t3.5 -48.5t6 -36t9 -28t13.5 -18.5t18 -13.5t24.5 -6.5t30 -4t37.5 -0.5v-162q-124 0 -191 24.5t-98 96.5q-45 -73 -148 -106.5t-274 -33.5q-267 0 -380 65.5t-113 229.5q0 153 115.5 222t377.5 69q293 0 389 -96q-2 81 -14.5 129
t-48.5 82.5t-98.5 47.5t-165.5 13q-129 0 -205 -14.5t-109 -58.5h-190q64 135 171.5 185t332.5 50q149 0 246 -25.5t154 -83.5t80 -139.5t24 -205.5zM571 136q213 0 301 33.5t88 109.5t-86.5 106.5t-302.5 30.5q-171 0 -244 -34.5t-73 -105.5q0 -81 69 -110.5t248 -29.5z
" />
    <glyph glyph-name="uni0431" unicode="&#x431;" horiz-adv-x="1178" 
d="M1100 321q1 -172 -122.5 -256t-380.5 -85q-281 0 -400 111t-119 375q0 279 111.5 401.5t350.5 122.5q60 0 105.5 4.5t87 15t64.5 33t26 54.5h189q-29 -142 -129.5 -204.5t-295.5 -64.5q-185 0 -256 -58.5t-75 -217.5q43 55 135.5 86t205.5 31q271 -1 386.5 -81.5
t116.5 -266.5zM597 142q181 1 254 40.5t73 130.5q0 104 -78.5 148.5t-249.5 45.5q-177 1 -259.5 -37.5t-82.5 -126.5q0 -107 80.5 -154.5t262.5 -46.5z" />
    <glyph glyph-name="uni0432" unicode="&#x432;" horiz-adv-x="1191" 
d="M962 438q151 -29 151 -172q0 -142 -88 -207t-269 -63l-639 4v870h597q95 0 158 -10.5t110 -37.5t68.5 -75.5t21.5 -122.5q0 -145 -110 -186zM755 708h-462v-188l462 -3q76 -1 108.5 16.5t32.5 69.5q0 58 -34 81.5t-107 23.5zM796 158q72 -1 106.5 21.5t34.5 81.5
q0 107 -141 109l-503 4v-212z" />
    <glyph glyph-name="uni0433" unicode="&#x433;" horiz-adv-x="1043" 
d="M1013 870v-162h-720v-708h-176v870h896z" />
    <glyph glyph-name="uni0434" unicode="&#x434;" horiz-adv-x="1324" 
d="M1107 309h147v-309h-174v147h-834v-147h-176v309h158l91 561h788v-561zM931 708h-462l-65 -399h527v399z" />
    <glyph glyph-name="uni0435" unicode="&#x435;" horiz-adv-x="1246" 
d="M1168 523v-162h-905q18 -125 102.5 -172t270.5 -47q260 0 322 81h189q-63 -135 -176 -189t-335 -54q-295 0 -426.5 114.5t-131.5 358.5q0 228 142.5 340t415.5 112q271 0 401.5 -100t130.5 -282zM636 743q-204 0 -283 -44t-92 -176h731q0 117 -82.5 168.5t-273.5 51.5z
" />
    <glyph glyph-name="uni0436" unicode="&#x436;" horiz-adv-x="1921" 
d="M1655 0l-411 377h-194v-377h-176v377h-192l-416 -382h-246l508 459l-491 416h251l377 -331h209v331h176v-331h202l381 331h251l-491 -411l508 -459h-246z" />
    <glyph glyph-name="uni0437" unicode="&#x437;" horiz-adv-x="1261" 
d="M978 463q109 -17 157 -64.5t48 -137.5q0 -92 -55.5 -152t-188.5 -94t-349 -35q-269 0 -390.5 96.5t-121.5 295.5h176q0 -120 75.5 -174t260.5 -54q159 0 252 14.5t129 41.5t36 71q0 60 -61 83t-184 23h-239v162h239q113 0 158.5 22.5t45.5 74.5q0 57 -79.5 83t-264.5 26
q-208 0 -288.5 -49.5t-79.5 -168.5h-176q0 205 124.5 292.5t419.5 87.5q284 0 402 -61.5t118 -197.5q0 -133 -164 -185z" />
    <glyph glyph-name="uni0438" unicode="&#x438;" horiz-adv-x="1316" 
d="M984 870h215v-870h-176v681l-689 -681h-217v870h176v-685z" />
    <glyph glyph-name="uni0439" unicode="&#x439;" horiz-adv-x="1316" 
d="M658 981q-50 0 -90 10t-76 33.5t-62.5 66.5t-42.5 105h158q27 -84 113 -84t113 84h158q-31 -120 -99.5 -167.5t-171.5 -47.5zM984 870h215v-870h-176v681l-689 -681h-217v870h176v-685z" />
    <glyph glyph-name="uni043A" unicode="&#x43a;" horiz-adv-x="1258" 
d="M973 0l-533 377h-147v-377h-175l-1 870h175v-331h179l488 331h281l-620 -412l638 -458h-285z" />
    <glyph glyph-name="uni043B" unicode="&#x43b;" horiz-adv-x="1241" 
d="M1124 870v-870h-176v708h-519q-27 -149 -67 -380q-31 -174 -117 -251t-235 -77v162q54 0 87 12.5t55.5 58t31 79.5t26.5 129q2 8 3 13t2.5 13t2.5 14q30 155 64 389h842z" />
    <glyph glyph-name="uni043C" unicode="&#x43c;" horiz-adv-x="1550" 
d="M1161 870h272v-870h-176v729l-376 -661h-214l-374 642v-710h-176v870h260l396 -651z" />
    <glyph glyph-name="uni043D" unicode="&#x43d;" horiz-adv-x="1349" 
d="M1056 870h176v-870h-176v371h-763v-371h-176v870h176v-329h763v329z" />
    <glyph glyph-name="uni043E" unicode="&#x43e;" horiz-adv-x="1297" 
d="M649 905q304 0 437 -107.5t133 -353.5t-133 -355t-437 -109q-305 0 -438 109t-133 355t133 353.5t438 107.5zM649 142q218 0 306 68t88 234q0 165 -88 232t-306 67q-219 0 -307 -67t-88 -232q0 -166 88 -234t307 -68z" />
    <glyph glyph-name="uni043F" unicode="&#x43f;" horiz-adv-x="1264" 
d="M1147 870v-870h-176v708h-678v-708h-176v870h1030z" />
    <glyph glyph-name="uni0440" unicode="&#x440;" horiz-adv-x="1254" 
d="M683 905q264 0 378.5 -83.5t114.5 -277.5q0 -208 -114.5 -298t-378.5 -90q-156 0 -249.5 29t-140.5 98v-283h-176v870h176v-90q47 68 140.5 96.5t249.5 28.5zM683 318q176 0 246.5 50t70.5 176q0 112 -70 155.5t-247 43.5q-88 0 -147.5 -5t-108.5 -18.5t-76.5 -37.5
t-42 -60.5t-14.5 -89.5q0 -127 86.5 -170.5t302.5 -43.5z" />
    <glyph glyph-name="uni0441" unicode="&#x441;" horiz-adv-x="1239" 
d="M651 142q188 0 264.5 53.5t76.5 176.5h176q0 -212 -119 -302t-398 -90q-311 0 -442 104t-131 354q0 258 130.5 363.5t442.5 105.5q282 0 399.5 -85t117.5 -295h-176q0 122 -75.5 170t-265.5 48q-220 0 -308.5 -69t-88.5 -238q0 -161 89 -228.5t308 -67.5z" />
    <glyph glyph-name="uni0442" unicode="&#x442;" horiz-adv-x="1082" 
d="M458 0v708h-428v162h1022v-162h-418v-708h-176z" />
    <glyph glyph-name="uni0443" unicode="&#x443;" horiz-adv-x="1227" 
d="M957 870h176v-550q0 -77 -11.5 -129t-42 -94.5t-85 -67t-138 -37t-204.5 -12.5q-239 0 -380.5 51.5t-201.5 179.5h213q32 -42 128.5 -55.5t240.5 -13.5q83 0 138.5 6.5t88.5 18t50 34t22.5 46.5t5.5 65h-457q-220 0 -307.5 70t-87.5 247v241h176v-241q0 -86 45.5 -120.5
t159.5 -34.5h471v396z" />
    <glyph glyph-name="uni0444" unicode="&#x444;" horiz-adv-x="1757" 
d="M1266 803q221 0 317 -84t96 -277q0 -208 -96 -298t-317 -90q-220 0 -299 118v-172h-176v172q-79 -118 -299 -118q-222 0 -318 90t-96 298q0 194 96 277.5t318 83.5q220 0 299 -118v185h176v-185q79 118 299 118zM492 216q160 0 229.5 49.5t69.5 164.5q0 113 -69.5 162
t-229.5 49q-127 0 -182 -46.5t-55 -152.5q0 -121 55 -173.5t182 -52.5zM1266 216q127 0 182 52.5t55 173.5q0 106 -55 152.5t-182 46.5q-160 0 -229.5 -49t-69.5 -162q0 -115 69.5 -164.5t229.5 -49.5z" />
    <glyph glyph-name="uni0445" unicode="&#x445;" horiz-adv-x="1179" 
d="M1159 0h-231l-344 342l-333 -342h-231l447 459l-413 411h230l297 -295l287 295h231l-401 -412z" />
    <glyph glyph-name="uni0446" unicode="&#x446;" horiz-adv-x="1341" 
d="M1073 170h229v-170h-1185v868h176v-698h604v698h176v-698z" />
    <glyph glyph-name="uni0447" unicode="&#x447;" horiz-adv-x="1178" 
d="M885 870h176v-870h-176v368h-379q-228 0 -327 74.5t-99 244.5v183h176v-183q0 -83 55 -120t181 -37h393v340z" />
    <glyph glyph-name="uni0448" unicode="&#x448;" horiz-adv-x="1597" 
d="M1474 870l6 -870h-1363v870h176v-708h414v708h176v-708h415v708h176z" />
    <glyph glyph-name="uni0449" unicode="&#x449;" horiz-adv-x="1749" 
d="M1479 162h231v-162h-1593v870h176v-708h414v708h176v-708h415v708h176z" />
    <glyph glyph-name="uni044A" unicode="&#x44a;" horiz-adv-x="1348" 
d="M860 539q166 0 257 -27.5t127 -84.5t36 -160q0 -82 -22.5 -134t-76 -81.5t-128 -40.5t-193.5 -11h-584v708h-244v162h420v-331h408zM916 162q97 0 138.5 21t41.5 84q0 67 -42.5 88.5t-137.5 21.5h-464v-215h464z" />
    <glyph glyph-name="uni044B" unicode="&#x44b;" horiz-adv-x="1484" 
d="M658 539q166 0 257 -27.5t127 -84.5t36 -160q0 -82 -22.5 -134t-76 -81.5t-128 -40.5t-193.5 -11h-541v870h176v-331h365zM1191 870h176v-870h-176v870zM714 162q97 0 138.5 21t41.5 84q0 67 -42.5 88.5t-137.5 21.5h-421v-215h421z" />
    <glyph glyph-name="uni044C" unicode="&#x44c;" horiz-adv-x="1199" 
d="M701 539q166 0 257 -27.5t127 -84.5t36 -160q0 -82 -22.5 -134t-76 -81.5t-128 -40.5t-193.5 -11h-584v870h176v-331h408zM757 162q97 0 138.5 21t41.5 84q0 67 -42.5 88.5t-137.5 21.5h-464v-215h464z" />
    <glyph glyph-name="uni044D" unicode="&#x44d;" horiz-adv-x="1214" 
d="M594 905q290 0 416 -108t126 -365q0 -248 -125.5 -350t-416.5 -102q-139 0 -231.5 16t-159 56t-96 109t-29.5 174h176q0 -61 16.5 -98t59.5 -58.5t103 -29t161 -7.5q165 0 249 44t107 146h-449v162h456q-14 134 -99 191.5t-264 57.5q-183 0 -261.5 -63t-78.5 -190h-176
q0 213 125 314t391 101z" />
    <glyph glyph-name="uni044E" unicode="&#x44e;" horiz-adv-x="1886" 
d="M1238 905q304 0 437 -107.5t133 -353.5t-133 -355t-437 -109q-282 0 -416.5 93t-151.5 300h-377v-373h-176v870h176v-335h379q22 195 156 282.5t410 87.5zM1238 142q218 0 306 68t88 234q0 165 -88 232t-306 67q-219 0 -307 -67t-88 -232q0 -166 88 -234t307 -68z" />
    <glyph glyph-name="uni044F" unicode="&#x44f;" horiz-adv-x="1252" 
d="M1135 0h-178v316h-526q-86 1 -121 -36t-35 -133q0 -91 -15 -147h-182q22 58 22 147q0 116 30.5 171t116.5 77q-147 61 -147 214q0 70 29 121.5t81.5 81t116 44t140.5 14.5h666zM453 464h504v244h-504q-92 0 -134.5 -23t-43.5 -89q1 -50 13 -76t51 -41t114 -15z" />
    <glyph glyph-name="uni0450" unicode="&#x450;" horiz-adv-x="1246" 
d="M827 1001h-156l-251 251h238zM1168 523v-162h-905q18 -125 102.5 -172t270.5 -47q260 0 322 81h189q-63 -135 -176 -189t-335 -54q-295 0 -426.5 114.5t-131.5 358.5q0 228 142.5 340t415.5 112q271 0 401.5 -100t130.5 -282zM636 743q-204 0 -283 -44t-92 -176h731
q0 117 -82.5 168.5t-273.5 51.5z" />
    <glyph glyph-name="uni0451" unicode="&#x451;" horiz-adv-x="1246" 
d="M448 1002q-64 0 -89 22.5t-25 79.5t25 80t89 23q63 0 88 -23t25 -80t-25 -79.5t-88 -22.5zM799 1002q-64 0 -89 22.5t-25 79.5t25 80t89 23q63 0 88 -23t25 -80t-25 -79.5t-88 -22.5zM1168 523v-162h-905q18 -125 102.5 -172t270.5 -47q260 0 322 81h189
q-63 -135 -176 -189t-335 -54q-295 0 -426.5 114.5t-131.5 358.5q0 228 142.5 340t415.5 112q271 0 401.5 -100t130.5 -282zM636 743q-204 0 -283 -44t-92 -176h731q0 117 -82.5 168.5t-273.5 51.5z" />
    <glyph glyph-name="uni0452" unicode="&#x452;" horiz-adv-x="1284" 
d="M787 619q224 0 330.5 -75t106.5 -245q0 -147 -75 -223t-248 -76h-114v162h114q75 0 111 39.5t36 93.5q0 83 -60 122.5t-202 39.5q-200 0 -290 -71t-90 -233v-153h-176v708h-190v162h190v227h176v-227h423v-162h-423v-273q104 184 381 184z" />
    <glyph glyph-name="uni0453" unicode="&#x453;" horiz-adv-x="1043" 
d="M801 1243l-251 -251h-156l169 251h238zM1013 870v-162h-720v-708h-176v870h896z" />
    <glyph glyph-name="uni0454" unicode="&#x454;" horiz-adv-x="1214" 
d="M620 142q101 0 161 7.5t103 29t59.5 58.5t16.5 98h176q0 -105 -29.5 -174t-96 -109t-159 -56t-231.5 -16q-291 0 -416.5 102t-125.5 350q0 257 126 365t416 108q266 0 391 -101t125 -314h-176q0 127 -78.5 190t-261.5 63q-179 0 -264 -57.5t-99 -191.5h456v-162h-449
q23 -102 107 -146t249 -44z" />
    <glyph glyph-name="uni0455" unicode="&#x455;" horiz-adv-x="1151" 
d="M565 -20q-240 0 -371.5 84t-131.5 227h184q0 -38 31.5 -68t81 -47t102.5 -25.5t104 -8.5q189 0 265 23t76 82q0 91 -163 106l-310 28q-187 18 -266.5 74.5t-79.5 185.5q0 131 128.5 198.5t360.5 67.5q226 0 354.5 -84.5t128.5 -226.5h-184q0 38 -28.5 68.5t-74.5 47
t-96 25t-100 8.5q-162 0 -233.5 -22t-71.5 -73q0 -45 42 -66t120 -28l310 -27q103 -9 173 -33.5t107 -65t51.5 -87t14.5 -109.5q0 -60 -25.5 -104.5t-69.5 -73t-111.5 -45.5t-143.5 -24t-174 -7z" />
    <glyph glyph-name="uni0456" unicode="&#x456;" horiz-adv-x="410" 
d="M205 1002q-64 0 -89 22.5t-25 79.5t25 80t89 23q63 0 88 -23t25 -80t-25 -79.5t-88 -22.5zM117 0v870h176v-870h-176z" />
    <glyph glyph-name="uni0457" unicode="&#x457;" horiz-adv-x="410" 
d="M30 1002q-64 0 -89 22.5t-25 79.5t25 80t89 23q63 0 88 -23t25 -80t-25 -79.5t-88 -22.5zM381 1002q-64 0 -89 22.5t-25 79.5t25 80t89 23q63 0 88 -23t25 -80t-25 -79.5t-88 -22.5zM117 0v870h176v-870h-176z" />
    <glyph glyph-name="uni0458" unicode="&#x458;" horiz-adv-x="760" 
d="M578 1002q-64 0 -89 22.5t-25 79.5t25 80t89 23q63 0 88 -23t25 -80t-25 -79.5t-88 -22.5zM326 -19q-163 0 -237 57t-89 214h183q9 -70 39.5 -89.5t103.5 -19.5q84 0 120.5 47t36.5 155l-1 525h184v-548q0 -182 -79 -261.5t-261 -79.5z" />
    <glyph glyph-name="uni0459" unicode="&#x459;" horiz-adv-x="1860" 
d="M1362 539q166 0 257 -27.5t127 -84.5t36 -160q0 -82 -22.5 -134t-76 -81.5t-128 -40.5t-193.5 -11h-514v708h-419q-27 -149 -67 -380q-31 -174 -117 -251t-235 -77v162q54 0 87 12.5t55.5 58t31 79.5t26.5 129q2 8 3 13t2.5 13t2.5 14q30 155 64 389h742v-331h338z
M1418 162q97 0 138.5 21t41.5 84q0 67 -42.5 88.5t-137.5 21.5h-394v-215h394z" />
    <glyph glyph-name="uni045A" unicode="&#x45a;" horiz-adv-x="1249" 
d="M956 870h176v-870h-176v371h-663v-371h-176v870h176v-329h663v329z" />
    <glyph glyph-name="uni045B" unicode="&#x45b;" horiz-adv-x="1264" 
d="M755 620q128 0 213.5 -25t138.5 -81.5t75 -140.5t22 -210v-163h-176v163q0 158 -69 227t-227 68q-186 0 -267 -71t-81 -234v-153h-176v708h-168v162h168v227h176v-227h445v-162h-445v-268q101 179 371 179v1z" />
    <glyph glyph-name="uni045C" unicode="&#x45c;" horiz-adv-x="1258" 
d="M909 1239l-251 -251h-156l169 251h238zM973 0l-533 377h-147v-377h-175l-1 870h175v-331h179l488 331h281l-620 -412l638 -458h-285z" />
    <glyph glyph-name="uni045D" unicode="&#x45d;" horiz-adv-x="1316" 
d="M862 980h-156l-251 251h238zM984 870h215v-870h-176v681l-689 -681h-217v870h176v-685z" />
    <glyph glyph-name="uni045E" unicode="&#x45e;" horiz-adv-x="1227" 
d="M614 1002q-50 0 -90 10t-76 33.5t-62.5 66.5t-42.5 105h158q27 -84 113 -84t113 84h158q-31 -120 -99.5 -167.5t-171.5 -47.5zM957 870h176v-550q0 -77 -11.5 -129t-42 -94.5t-85 -67t-138 -37t-204.5 -12.5q-239 0 -380.5 51.5t-201.5 179.5h213q32 -42 128.5 -55.5
t240.5 -13.5q83 0 138.5 6.5t88.5 18t50 34t22.5 46.5t5.5 65h-457q-220 0 -307.5 70t-87.5 247v241h176v-241q0 -86 45.5 -120.5t159.5 -34.5h471v396z" />
    <glyph glyph-name="uni045F" unicode="&#x45f;" horiz-adv-x="1238" 
d="M945 870h176v-641h-375v-228h-176v228h-453v641h176v-479h652v479z" />
    <glyph glyph-name="uni0490" unicode="&#x490;" horiz-adv-x="1032" 
d="M829 1301h184v-374h-712v-927h-184v1097h712v204z" />
    <glyph glyph-name="uni0491" unicode="&#x491;" horiz-adv-x="1043" 
d="M837 1097h176v-389h-720v-708h-176v870h720v227z" />
    <glyph glyph-name="Wgrave" unicode="&#x1e80;" horiz-adv-x="1824" 
d="M996 1231h-156l-251 251h238zM1602 1097h202l-373 -1097h-238l-281 912l-282 -912h-238l-372 1097h201l288 -910l287 910h232l287 -910z" />
    <glyph glyph-name="wgrave" unicode="&#x1e81;" horiz-adv-x="1878" 
d="M1023 1001h-156l-251 251h238zM1640 870h199l-341 -870h-238l-321 738l-322 -738h-238l-340 870h200l260 -705l314 705h252l314 -706z" />
    <glyph glyph-name="Wacute" unicode="&#x1e82;" horiz-adv-x="1824" 
d="M1231 1482l-251 -251h-156l169 251h238zM1602 1097h202l-373 -1097h-238l-281 912l-282 -912h-238l-372 1097h201l288 -910l287 910h232l287 -910z" />
    <glyph glyph-name="wacute" unicode="&#x1e83;" horiz-adv-x="1878" 
d="M1258 1252l-251 -251h-156l169 251h238zM1640 870h199l-341 -870h-238l-321 738l-322 -738h-238l-340 870h200l260 -705l314 705h252l314 -706z" />
    <glyph glyph-name="Wdieresis" unicode="&#x1e84;" horiz-adv-x="1824" 
d="M737 1232q-64 0 -89 22.5t-25 79.5t25 80t89 23q63 0 88 -23t25 -80t-25 -79.5t-88 -22.5zM1088 1232q-64 0 -89 22.5t-25 79.5t25 80t89 23q63 0 88 -23t25 -80t-25 -79.5t-88 -22.5zM1602 1097h202l-373 -1097h-238l-281 912l-282 -912h-238l-372 1097h201l288 -910
l287 910h232l287 -910z" />
    <glyph glyph-name="wdieresis" unicode="&#x1e85;" horiz-adv-x="1878" 
d="M764 1002q-64 0 -89 22.5t-25 79.5t25 80t89 23q63 0 88 -23t25 -80t-25 -79.5t-88 -22.5zM1115 1002q-64 0 -89 22.5t-25 79.5t25 80t89 23q63 0 88 -23t25 -80t-25 -79.5t-88 -22.5zM1640 870h199l-341 -870h-238l-321 738l-322 -738h-238l-340 870h200l260 -705
l314 705h252l314 -706z" />
    <glyph glyph-name="Ygrave" unicode="&#x1ef2;" horiz-adv-x="1314" 
d="M741 1231h-156l-251 251h238zM1067 1097h227l-546 -614v-483h-183v483l-545 614h227l410 -459z" />
    <glyph glyph-name="ygrave" unicode="&#x1ef3;" horiz-adv-x="1227" 
d="M698 1001h-156l-251 251h238zM957 870h176v-550q0 -77 -11.5 -129t-42 -94.5t-85 -67t-138 -37t-204.5 -12.5q-239 0 -380.5 51.5t-201.5 179.5h213q32 -42 128.5 -55.5t240.5 -13.5q83 0 138.5 6.5t88.5 18t50 34t22.5 46.5t5.5 65h-457q-220 0 -307.5 70t-87.5 247v241
h176v-241q0 -86 45.5 -120.5t159.5 -34.5h471v396z" />
    <glyph glyph-name="endash" unicode="&#x2013;" horiz-adv-x="917" 
d="M117 380v170h683v-170h-683z" />
    <glyph glyph-name="emdash" unicode="&#x2014;" horiz-adv-x="1512" 
d="M117 384v162h1278v-162h-1278z" />
    <glyph glyph-name="quoteleft" unicode="&#x2018;" horiz-adv-x="402" 
d="M219 900q46 -5 65.5 -33.5t19.5 -90.5q0 -70 -24.5 -97.5t-87.5 -27.5q-62 0 -87.5 27.5t-25.5 95.5h-1q0 167 150 323h96z" />
    <glyph glyph-name="quoteright" unicode="&#x2019;" horiz-adv-x="402" 
d="M323 974h1q0 -167 -150 -323h-96l105 197q-46 5 -65.5 33.5t-19.5 90.5q0 70 24.5 97.5t87.5 27.5q62 0 87.5 -27.5t25.5 -95.5z" />
    <glyph glyph-name="quotesinglbase" unicode="&#x201a;" horiz-adv-x="402" 
d="M323 123h1q0 -167 -150 -323h-96l105 197q-46 5 -65.5 33.5t-19.5 90.5q0 70 24.5 97.5t87.5 27.5q62 0 87.5 -27.5t25.5 -95.5z" />
    <glyph glyph-name="quotedblleft" unicode="&#x201c;" horiz-adv-x="748" 
d="M228 1097h96l-105 -197q46 -5 65.5 -33.5t19.5 -90.5q0 -70 -24.5 -97.5t-87.5 -27.5q-62 0 -87.5 27.5t-25.5 95.5h-1q0 167 150 323zM565 900q46 -5 65.5 -33.5t19.5 -90.5q0 -70 -24.5 -97.5t-87.5 -27.5q-62 0 -87.5 27.5t-25.5 95.5h-1q0 167 150 323h96z" />
    <glyph glyph-name="quotedblright" unicode="&#x201d;" horiz-adv-x="748" 
d="M210 1097q62 0 87.5 -27.5t25.5 -95.5h1q0 -167 -150 -323h-96l105 197q-46 5 -65.5 33.5t-19.5 90.5q0 70 24.5 97.5t87.5 27.5zM669 974h1q0 -167 -150 -323h-96l105 197q-46 5 -65.5 33.5t-19.5 90.5q0 70 24.5 97.5t87.5 27.5q62 0 87.5 -27.5t25.5 -95.5z" />
    <glyph glyph-name="quotedblbase" unicode="&#x201e;" horiz-adv-x="748" 
d="M210 246q62 0 87.5 -27.5t25.5 -95.5h1q0 -167 -150 -323h-96l105 197q-46 5 -65.5 33.5t-19.5 90.5q0 70 24.5 97.5t87.5 27.5zM669 123h1q0 -167 -150 -323h-96l105 197q-46 5 -65.5 33.5t-19.5 90.5q0 70 24.5 97.5t87.5 27.5q62 0 87.5 -27.5t25.5 -95.5z" />
    <glyph glyph-name="dagger" unicode="&#x2020;" horiz-adv-x="729" 
d="M651 995v-132h-221v-345h-131v345h-220v132h220v219h131v-219h221z" />
    <glyph glyph-name="daggerdbl" unicode="&#x2021;" horiz-adv-x="728" 
d="M650 910h-221v-71h221v-132h-221v-189h-131v189h-220v132h220v71h-220v131h220v173h131v-173h221v-131z" />
    <glyph glyph-name="bullet" unicode="&#x2022;" horiz-adv-x="942" 
d="M470 363q-128 0 -179 51t-51 180q0 128 51.5 179t180.5 51q128 0 179 -51t51 -179q0 -129 -51.5 -180t-180.5 -51z" />
    <glyph glyph-name="ellipsis" unicode="&#x2026;" horiz-adv-x="1351" 
d="M229 -10q-63 0 -87.5 27.5t-24.5 97.5t24.5 97.5t87.5 27.5t88 -27.5t25 -97.5t-25 -97.5t-88 -27.5zM675 -10q-63 0 -87.5 27.5t-24.5 97.5t24.5 97.5t87.5 27.5t88 -27.5t25 -97.5t-25 -97.5t-88 -27.5zM1121 -10q-63 0 -87.5 27.5t-24.5 97.5t24.5 97.5t87.5 27.5
t88 -27.5t25 -97.5t-25 -97.5t-88 -27.5z" />
    <glyph glyph-name="perthousand" unicode="&#x2030;" horiz-adv-x="2554" 
d="M430 486q-102 0 -171.5 21.5t-108.5 64.5t-55.5 99t-16.5 134t16.5 133.5t55.5 98.5t108.5 64.5t171.5 21.5v-132q-69 0 -112 -12.5t-63 -40t-26 -56.5t-6 -77t6 -77t26 -56.5t63 -40t112 -12.5v-133zM431 486l-1 133q68 0 111 12.5t63 39.5t26.5 56.5t6.5 77.5
t-6.5 77.5t-26.5 56.5t-63 39.5t-111 12.5l1 132q101 0 170.5 -21.5t108.5 -64.5t55.5 -98.5t16.5 -133.5t-16.5 -134t-55.5 -99t-108.5 -64.5t-170.5 -21.5zM389 -8l791 1105h173l-791 -1105h-173zM1330 -20q-102 0 -171.5 21.5t-108.5 64.5t-55.5 99t-16.5 134t16.5 133.5
t55.5 98.5t108.5 64.5t171.5 21.5v-132q-69 0 -112 -12.5t-63 -40t-26 -56.5t-6 -77t6 -77t26 -56.5t63 -40t112 -12.5v-133zM1331 -20l-1 133q68 0 111 12.5t63 39.5t26.5 56.5t6.5 77.5t-6.5 77.5t-26.5 56.5t-63 39.5t-111 12.5l1 132q101 0 170.5 -21.5t108.5 -64.5
t55.5 -98.5t16.5 -133.5t-16.5 -134t-55.5 -99t-108.5 -64.5t-170.5 -21.5zM2124 -20q-102 0 -171.5 21.5t-108.5 64.5t-55.5 99t-16.5 134t16.5 133.5t55.5 98.5t108.5 64.5t171.5 21.5v-132q-69 0 -112 -12.5t-63 -40t-26 -56.5t-6 -77t6 -77t26 -56.5t63 -40t112 -12.5
v-133zM2125 -20l-1 133q68 0 111 12.5t63 39.5t26.5 56.5t6.5 77.5t-6.5 77.5t-26.5 56.5t-63 39.5t-111 12.5l1 132q101 0 170.5 -21.5t108.5 -64.5t55.5 -98.5t16.5 -133.5t-16.5 -134t-55.5 -99t-108.5 -64.5t-170.5 -21.5z" />
    <glyph glyph-name="guilsinglleft" unicode="&#x2039;" horiz-adv-x="612" 
d="M381 47l-342 394l342 380h192l-338 -380l338 -394h-192z" />
    <glyph glyph-name="guilsinglright" unicode="&#x203a;" horiz-adv-x="612" 
d="M231 47h-192l338 394l-338 380h192l342 -380z" />
    <glyph glyph-name="fraction" unicode="&#x2044;" horiz-adv-x="1002" 
d="M40 -88l764 1271h180l-764 -1271h-180z" />
    <glyph glyph-name="Euro" unicode="&#x20ac;" horiz-adv-x="1533" 
d="M905 149q76 0 141 11.5t119.5 35.5t86 66.5t31.5 99.5h183q0 -177 -144.5 -280t-416.5 -103q-284 0 -438.5 90t-205.5 262h-181v171h154q-1 16 -1 49q0 23 1 34h-156v162h177q45 184 200.5 280t449.5 96q272 0 416.5 -103t144.5 -280h-183q0 76 -56 125.5t-137 68.5
t-185 19q-201 0 -309.5 -48t-149.5 -158h654v-162h-682q-1 -11 -1 -34q0 -33 1 -49h682v-171h-644q46 -96 153 -139t296 -43z" />
    <glyph glyph-name="uni20BD" unicode="&#x20bd;" horiz-adv-x="1227" 
d="M712 1097q247 -1 353.5 -76t106.5 -249t-107.5 -249.5t-355.5 -75.5h-369v-80h366v-170h-366v-197h-184v197h-117v170h117v730h556zM751 617q132 0 184 34.5t52 120.5q0 87 -52 121t-184 34h-411v-310h411z" />
    <glyph glyph-name="trademark" unicode="&#x2122;" horiz-adv-x="1492" 
d="M78 1011v86h517v-86h-213v-470h-92v470h-212zM1278 1097h136v-556h-93v467l-213 -317h-129l-211 305v-455h-93v556h130l239 -336z" />
    <glyph glyph-name="partialdiff" unicode="&#x2202;" horiz-adv-x="1200" 
d="M364 1097q183 0 324 -36.5t241.5 -111.5t147 -197.5t32.5 -285.5q-21 -246 -148.5 -360t-396.5 -114q-134 0 -230 23.5t-150.5 68t-77.5 103t-16 134.5q7 77 39 138t93 109t163 74.5t239 26.5q205 0 313 -71q-7 82 -45.5 142.5t-99.5 99t-150.5 62t-187.5 32.5t-222 9z
M922 343q8 83 -65 119.5t-248 36.5q-177 0 -260.5 -45t-91.5 -141q-7 -81 77.5 -116t244.5 -35q327 0 343 181z" />
    <glyph glyph-name="emptyset" unicode="&#x2205;" horiz-adv-x="1282" 
d="M1204 557q0 -348 -194 -477l101 -168h-180l-64 106q-98 -26 -226 -26t-224.5 26t-160.5 73t-104 118t-57 155.5t-17 192.5q0 340 183 470l-94 156h180l54 -90q101 30 240 30q128 0 224.5 -26t160.5 -73t104 -118.5t57 -156t17 -192.5zM641 953q-80 0 -148 -13l426 -708
q60 47 80 125t20 200q0 56 -3 96.5t-12.5 84.5t-26 74t-45 58.5t-68 45.5t-95.5 27t-128 10zM641 162q70 0 133 10l-421 702q-54 -48 -72.5 -124t-18.5 -193q0 -79 6.5 -132t29 -107t63 -85.5t110.5 -51t170 -19.5z" />
    <glyph glyph-name="product" unicode="&#x220f;" horiz-adv-x="1296" 
d="M1228 1097v-170h-180v-929h-183v929h-434v-929h-184v929h-179v170h1160z" />
    <glyph glyph-name="summation" unicode="&#x2211;" horiz-adv-x="1054" 
d="M521 170h477v-170h-920v170l445 420l-445 337v170h890v-170h-447h-173l386 -301v-67l-400 -389h187z" />
    <glyph glyph-name="minus" unicode="&#x2212;" horiz-adv-x="973" 
d="M78 392v170h817v-170h-817z" />
    <glyph glyph-name="radical" unicode="&#x221a;" horiz-adv-x="1251" 
d="M1029 1097h202l-485 -1097h-238l-310 698h-198v170h324l303 -693z" />
    <glyph glyph-name="infinity" unicode="&#x221e;" horiz-adv-x="1891" 
d="M1341 828q262 0 367 -84t105 -294t-105 -294t-367 -84q-109 0 -219 50t-177 135q-66 -85 -176 -135t-219 -50q-262 0 -367 84t-105 294q0 211 104.5 294.5t367.5 83.5q109 0 219 -50t177 -135q66 85 176 135t219 50zM550 218q48 0 103.5 17t105.5 46t83.5 74t33.5 95
q0 65 -56 120.5t-130.5 83.5t-139.5 28q-164 0 -229.5 -51.5t-65.5 -180.5t65.5 -180.5t229.5 -51.5zM1341 218q164 0 229.5 51.5t65.5 180.5t-65.5 180.5t-229.5 51.5q-65 0 -139.5 -28t-130.5 -83.5t-56 -120.5t56 -120.5t130 -83.5t140 -28z" />
    <glyph glyph-name="integral" unicode="&#x222b;" horiz-adv-x="734" 
d="M282 565q31 117 56 195.5t55 142.5t60.5 100t73 60.5t91 33t116.5 8.5v-162q-41 0 -70 -5.5t-54.5 -24t-43 -42.5t-36.5 -70.5t-34.5 -98.5t-37.5 -137q-32 -124 -58 -206t-57 -149.5t-61 -104.5t-73.5 -62.5t-92 -34t-117.5 -8.5v162q36 0 62.5 5.5t49.5 15.5t41 33
t33 49.5t31.5 74t31 97t34.5 128.5z" />
    <glyph glyph-name="approxequal" unicode="&#x2248;" horiz-adv-x="848" 
d="M537 498q-50 0 -125.5 38t-115.5 38q-59 0 -104 -75h-114q25 93 83.5 148t151.5 55q49 0 122 -37t119 -37q61 0 103 73h113q-62 -203 -233 -203zM537 194q-50 0 -125.5 38t-115.5 38q-59 0 -104 -75h-114q25 93 83.5 148t151.5 55q49 0 122 -37t119 -37q61 0 103 73h113
q-62 -203 -233 -203z" />
    <glyph glyph-name="notequal" unicode="&#x2260;" horiz-adv-x="973" 
d="M895 529h-269l-76 -151h345v-170h-432l-105 -208h-182l105 208h-203v170h290l76 151h-366v170h452l86 169h182l-86 -169h183v-170z" />
    <glyph glyph-name="lessequal" unicode="&#x2264;" horiz-adv-x="1075" 
d="M997 885v-186l-672 -114l672 -119v-187l-919 219v174zM78 0v171h919v-171h-919z" />
    <glyph glyph-name="greaterequal" unicode="&#x2265;" horiz-adv-x="1075" 
d="M78 885l919 -213v-174l-919 -219v187l672 119l-672 114v186zM78 0v171h919v-171h-919z" />
    <glyph glyph-name="lozenge" unicode="&#x25ca;" horiz-adv-x="1246" 
d="M750 1097l418 -538l-418 -559h-253l-419 559l419 538h253zM623 107l338 452l-338 439l-338 -439z" />
    <glyph glyph-name="A.ss01" horiz-adv-x="1310" 
d="M655 1108q161 0 270.5 -29.5t176 -93.5t95 -155t28.5 -223v-607h-184v363h-772v-363h-184v607q0 132 28.5 223t95 155t176 93.5t270.5 29.5zM269 534h772v113q0 163 -83.5 227t-302.5 64q-220 0 -303 -64t-83 -227v-113z" />
    <glyph glyph-name="Aacute.ss01" horiz-adv-x="1310" 
d="M974 1440l-251 -251h-156l169 251h238zM655 1108q161 0 270.5 -29.5t176 -93.5t95 -155t28.5 -223v-607h-184v363h-772v-363h-184v607q0 132 28.5 223t95 155t176 93.5t270.5 29.5zM269 534h772v113q0 163 -83.5 227t-302.5 64q-220 0 -303 -64t-83 -227v-113z" />
    <glyph glyph-name="Abreve.ss01" horiz-adv-x="1310" 
d="M655 1190q-50 0 -90 10t-76 33.5t-62.5 66.5t-42.5 105h158q27 -84 113 -84t113 84h158q-31 -120 -99.5 -167.5t-171.5 -47.5zM655 1108q161 0 270.5 -29.5t176 -93.5t95 -155t28.5 -223v-607h-184v363h-772v-363h-184v607q0 132 28.5 223t95 155t176 93.5t270.5 29.5z
M269 534h772v113q0 163 -83.5 227t-302.5 64q-220 0 -303 -64t-83 -227v-113z" />
    <glyph glyph-name="Acircumflex.ss01" horiz-adv-x="1310" 
d="M655 1339l-202 -150h-176l279 251h198l279 -251h-176zM655 1108q161 0 270.5 -29.5t176 -93.5t95 -155t28.5 -223v-607h-184v363h-772v-363h-184v607q0 132 28.5 223t95 155t176 93.5t270.5 29.5zM269 534h772v113q0 163 -83.5 227t-302.5 64q-220 0 -303 -64t-83 -227
v-113z" />
    <glyph glyph-name="Adieresis.ss01" horiz-adv-x="1310" 
d="M480 1190q-64 0 -89 22.5t-25 79.5t25 80t89 23q63 0 88 -23t25 -80t-25 -79.5t-88 -22.5zM831 1190q-64 0 -89 22.5t-25 79.5t25 80t89 23q63 0 88 -23t25 -80t-25 -79.5t-88 -22.5zM655 1108q161 0 270.5 -29.5t176 -93.5t95 -155t28.5 -223v-607h-184v363h-772v-363
h-184v607q0 132 28.5 223t95 155t176 93.5t270.5 29.5zM269 534h772v113q0 163 -83.5 227t-302.5 64q-220 0 -303 -64t-83 -227v-113z" />
    <glyph glyph-name="Agrave.ss01" horiz-adv-x="1310" 
d="M739 1189h-156l-251 251h238zM655 1108q161 0 270.5 -29.5t176 -93.5t95 -155t28.5 -223v-607h-184v363h-772v-363h-184v607q0 132 28.5 223t95 155t176 93.5t270.5 29.5zM269 534h772v113q0 163 -83.5 227t-302.5 64q-220 0 -303 -64t-83 -227v-113z" />
    <glyph glyph-name="Amacron.ss01" horiz-adv-x="1310" 
d="M903 1335v-145h-496v145h496zM655 1108q161 0 270.5 -29.5t176 -93.5t95 -155t28.5 -223v-607h-184v363h-772v-363h-184v607q0 132 28.5 223t95 155t176 93.5t270.5 29.5zM269 534h772v113q0 163 -83.5 227t-302.5 64q-220 0 -303 -64t-83 -227v-113z" />
    <glyph glyph-name="Aogonek.ss01" horiz-adv-x="1310" 
d="M1186 -265h80v-169h-78q-166 0 -229.5 40.5t-63.5 123.5q0 141 173 270h-27v363h-772v-363h-184v607q0 132 28.5 223t95 155t176 93.5t270.5 29.5t270.5 -29.5t176 -93.5t95 -155t28.5 -223v-607q-77 -70 -106 -114t-29 -79q0 -41 23.5 -56.5t72.5 -15.5zM269 534h772
v113q0 163 -83.5 227t-302.5 64q-220 0 -303 -64t-83 -227v-113z" />
    <glyph glyph-name="Aring.ss01" horiz-adv-x="1310" 
d="M656 1190q-102 0 -144 46.5t-42 118.5q0 168 186 168q185 0 185 -168q0 -165 -185 -165zM656 1413q-64 0 -64 -57q0 -56 64 -56q62 0 62 56q0 57 -62 57zM655 1108q161 0 270.5 -29.5t176 -93.5t95 -155t28.5 -223v-607h-184v363h-772v-363h-184v607q0 132 28.5 223
t95 155t176 93.5t270.5 29.5zM269 534h772v113q0 163 -83.5 227t-302.5 64q-220 0 -303 -64t-83 -227v-113z" />
    <glyph glyph-name="Atilde.ss01" horiz-adv-x="1310" 
d="M527 1265q-59 0 -104 -75h-114q25 93 83.5 148t151.5 55q48 0 122 -37t119 -37q61 0 103 73h113q-62 -203 -233 -203q-50 0 -125.5 38t-115.5 38zM655 1108q161 0 270.5 -29.5t176 -93.5t95 -155t28.5 -223v-607h-184v363h-772v-363h-184v607q0 132 28.5 223t95 155
t176 93.5t270.5 29.5zM269 534h772v113q0 163 -83.5 227t-302.5 64q-220 0 -303 -64t-83 -227v-113z" />
    <glyph glyph-name="I.ss01" horiz-adv-x="1016" 
d="M931 927h-331v-757h331v-170h-846v170h332v757h-332v170h846v-170z" />
    <glyph glyph-name="Iacute.ss01" horiz-adv-x="1016" 
d="M421 1251l169 251h238l-251 -251h-156zM931 927h-331v-757h331v-170h-846v170h332v757h-332v170h846v-170z" />
    <glyph glyph-name="Icircumflex.ss01" horiz-adv-x="1016" 
d="M509 1401l-202 -150h-176l279 251h198l279 -251h-176zM931 927h-331v-757h331v-170h-846v170h332v757h-332v170h846v-170z" />
    <glyph glyph-name="Idieresis.ss01" horiz-adv-x="1016" 
d="M334 1252q-64 0 -89 22.5t-25 79.5t25 80t89 23q63 0 88 -23t25 -80t-25 -79.5t-88 -22.5zM685 1252q-64 0 -89 22.5t-25 79.5t25 80t89 23q63 0 88 -23t25 -80t-25 -79.5t-88 -22.5zM931 927h-331v-757h331v-170h-846v170h332v757h-332v170h846v-170z" />
    <glyph glyph-name="Idotaccent.ss01" horiz-adv-x="1016" 
d="M509 1252q-64 0 -89 22.5t-25 79.5t25 80t89 23q63 0 88 -23t25 -80t-25 -79.5t-88 -22.5zM931 927h-331v-757h331v-170h-846v170h332v757h-332v170h846v-170z" />
    <glyph glyph-name="Igrave.ss01" horiz-adv-x="1016" 
d="M593 1251h-156l-251 251h238zM931 927h-331v-757h331v-170h-846v170h332v757h-332v170h846v-170z" />
    <glyph glyph-name="Imacron.ss01" horiz-adv-x="1016" 
d="M261 1252v145h496v-145h-496zM931 927h-331v-757h331v-170h-846v170h332v757h-332v170h846v-170z" />
    <glyph glyph-name="Iogonek.ss01" horiz-adv-x="1016" 
d="M892 -265h80v-169h-78q-166 0 -229.5 40.5t-63.5 123.5q0 141 173 270h-689v170h332v757h-332v170h846v-170h-331v-757h331v-170q-77 -70 -106 -114t-29 -79q0 -41 23.5 -56.5t72.5 -15.5z" />
    <glyph glyph-name="A.ss02" 
d="M1147 0l-122 249h-686l-121 -249h-198l548 1097h230l547 -1097h-198zM423 420h519l-258 528h-4z" />
    <glyph glyph-name="Aacute.ss02" 
d="M1002 1445l-251 -251h-156l169 251h238zM1147 0l-122 249h-686l-121 -249h-198l548 1097h230l547 -1097h-198zM423 420h519l-258 528h-4z" />
    <glyph glyph-name="Abreve.ss02" 
d="M683 1195q-50 0 -90 10t-76 33.5t-62.5 66.5t-42.5 105h158q27 -84 113 -84t113 84h158q-31 -120 -99.5 -167.5t-171.5 -47.5zM1147 0l-122 249h-686l-121 -249h-198l548 1097h230l547 -1097h-198zM423 420h519l-258 528h-4z" />
    <glyph glyph-name="Acircumflex.ss02" 
d="M683 1344l-202 -150h-176l279 251h198l279 -251h-176zM1147 0l-122 249h-686l-121 -249h-198l548 1097h230l547 -1097h-198zM423 420h519l-258 528h-4z" />
    <glyph glyph-name="Adieresis.ss02" 
d="M508 1195q-64 0 -89 22.5t-25 79.5t25 80t89 23q63 0 88 -23t25 -80t-25 -79.5t-88 -22.5zM859 1195q-64 0 -89 22.5t-25 79.5t25 80t89 23q63 0 88 -23t25 -80t-25 -79.5t-88 -22.5zM1147 0l-122 249h-686l-121 -249h-198l548 1097h230l547 -1097h-198zM423 420h519
l-258 528h-4z" />
    <glyph glyph-name="Agrave.ss02" 
d="M767 1194h-156l-251 251h238zM1147 0l-122 249h-686l-121 -249h-198l548 1097h230l547 -1097h-198zM423 420h519l-258 528h-4z" />
    <glyph glyph-name="Amacron.ss02" 
d="M931 1340v-145h-496v145h496zM1147 0l-122 249h-686l-121 -249h-198l548 1097h230l547 -1097h-198zM423 420h519l-258 528h-4z" />
    <glyph glyph-name="Aogonek.ss02" 
d="M1306 -265h80v-169h-78q-166 0 -229.5 40.5t-63.5 123.5q0 141 173 270h-41l-122 249h-686l-121 -249h-198l548 1097h230l547 -1097q-77 -70 -106 -114t-29 -79q0 -41 23.5 -56.5t72.5 -15.5zM423 420h519l-258 528h-4z" />
    <glyph glyph-name="Aring.ss02" 
d="M684 1195q-102 0 -144 46.5t-42 118.5q0 168 186 168q185 0 185 -168q0 -165 -185 -165zM684 1418q-64 0 -64 -57q0 -56 64 -56q62 0 62 56q0 57 -62 57zM1147 0l-122 249h-686l-121 -249h-198l548 1097h230l547 -1097h-198zM423 420h519l-258 528h-4z" />
    <glyph glyph-name="Atilde.ss02" 
d="M555 1270q-59 0 -104 -75h-114q25 93 83.5 148t151.5 55q48 0 122 -37t119 -37q61 0 103 73h113q-62 -203 -233 -203q-50 0 -125.5 38t-115.5 38zM1147 0l-122 249h-686l-121 -249h-198l548 1097h230l547 -1097h-198zM423 420h519l-258 528h-4z" />
    <glyph glyph-name="i.loclTRK" horiz-adv-x="410" 
d="M205 1002q-64 0 -89 22.5t-25 79.5t25 80t89 23q63 0 88 -23t25 -80t-25 -79.5t-88 -22.5zM117 0v870h176v-870h-176z" />
    <glyph glyph-name="f.001" horiz-adv-x="1127" 
d="M765 935q-195 0 -272.5 -53t-84.5 -200h549v-162h-550v-520h-176v520h-181v162h182q8 233 127 324t406 91h309v-162h-309z" />
    <glyph glyph-name="T_h" horiz-adv-x="2269" 
d="M1693 907q186 0 291 -47.5t148 -144.5t43 -265v-450h-176v450q0 161 -69.5 228t-250.5 67q-195 0 -291 -75t-96 -229v-441h-176v927h-438v-927h-183v927h-476v170h1273v-376q106 186 401 186z" />
    <glyph glyph-name="c_t" horiz-adv-x="2063" 
d="M1840 212h183q-16 -124 -92 -177.5t-234 -53.5q-182 0 -261 79.5t-79 261.5v386h-706q-224 -2 -310.5 -63t-86.5 -227q0 -158 86.5 -217t310.5 -59q188 0 264.5 53.5t76.5 176.5h176q0 -212 -119 -302t-398 -90q-159 0 -264.5 21.5t-176.5 72.5t-101.5 134.5t-30.5 209.5
q0 255 128.5 352.5t444.5 99.5h706v227h184v-227h424v-162h-425v-363q0 -108 36.5 -155t120.5 -47q67 0 100 16t43 53z" />
    <glyph glyph-name="s_t" horiz-adv-x="1942" 
d="M1719 212h183q-16 -124 -92 -177.5t-234 -53.5q-182 0 -261 79.5t-79 261.5v386h-660q-173 0 -239 -14.5t-66 -63.5q0 -21 10.5 -35t36 -21.5t48.5 -10.5t67 -7l310 -27q103 -9 173 -33.5t107 -65t51.5 -87t14.5 -109.5q0 -60 -25.5 -104.5t-69.5 -73t-111.5 -45.5
t-143.5 -24t-174 -7q-240 0 -371.5 84t-131.5 227h184q0 -38 31.5 -68t81 -47t102.5 -25.5t104 -8.5q189 0 265 23t76 82q0 91 -163 106l-310 28q-185 18 -265.5 71.5t-80.5 168.5q0 62 22.5 106.5t61 72t102.5 43.5t134.5 21.5t168.5 5.5h660v227h184v-227h424v-162h-425
v-363q0 -108 36.5 -155t120.5 -47q67 0 100 16t43 53z" />
    <glyph glyph-name="uni0414.loclBGR" horiz-adv-x="1354" 
d="M1143 309h149v-309h-182v139h-864v-139h-184v309h161l96 788h824v-788zM961 927h-479l-75 -618h554v618z" />
    <glyph glyph-name="uni0416.loclBGR" horiz-adv-x="1728" 
d="M1737 0h-236l-382 487h-143v-487h-184v487h-143l-382 -487h-236l474 578l-436 519h236l355 -439h132v439h184v-439h132l355 439h236l-436 -519z" />
    <glyph glyph-name="uni041A.loclBGR" horiz-adv-x="1303" 
d="M1066 0l-477 508l-288 -243v-265h-184v1097h184v-627l739 627h246l-566 -478l592 -619h-246z" />
    <glyph glyph-name="uni041B.loclBGR" horiz-adv-x="1368" 
d="M1345 0h-200l-462 952l-463 -952h-200l548 1097h230z" />
    <glyph glyph-name="uni0424.loclBGR" horiz-adv-x="1617" 
d="M1496 622q0 -153 -59.5 -240.5t-192.5 -127t-365 -39.5v-223h-184v223q-232 0 -365 39.5t-192.5 127t-59.5 240.5q0 150 59.5 235.5t192.5 124t366 38.5v194h184v-194q232 0 364.5 -38.5t192 -124t59.5 -235.5zM262 622q0 -74 18.5 -118t69 -71.5t131 -37.5t214.5 -10
l1 465q-178 0 -268.5 -19.5t-128 -67t-37.5 -141.5zM879 385q134 0 214.5 10t131 37.5t69 71.5t18.5 118q0 94 -37.5 141.5t-127.5 67t-267 19.5z" />
    <glyph glyph-name="uni0410.ss01" horiz-adv-x="1310" 
d="M655 1108q161 0 270.5 -29.5t176 -93.5t95 -155t28.5 -223v-607h-184v363h-772v-363h-184v607q0 132 28.5 223t95 155t176 93.5t270.5 29.5zM269 534h772v113q0 163 -83.5 227t-302.5 64q-220 0 -303 -64t-83 -227v-113z" />
    <glyph glyph-name="uni041B.ss01" 
d="M1345 0h-208l-454 923l-455 -923h-208l548 1097h230z" />
    <glyph glyph-name="uni0406.ss01" horiz-adv-x="1016" 
d="M931 927h-331v-757h331v-170h-846v170h332v757h-332v170h846v-170z" />
    <glyph glyph-name="uni04E4.ss01" horiz-adv-x="1016" 
d="M334 1252q-64 0 -89 22.5t-25 79.5t25 80t89 23q63 0 88 -23t25 -80t-25 -79.5t-88 -22.5zM685 1252q-64 0 -89 22.5t-25 79.5t25 80t89 23q63 0 88 -23t25 -80t-25 -79.5t-88 -22.5zM931 927h-331v-757h331v-170h-846v170h332v757h-332v170h846v-170z" />
    <glyph glyph-name="uni0410.ss02" 
d="M1147 0l-122 249h-686l-121 -249h-198l548 1097h230l547 -1097h-198zM423 420h519l-258 528h-4z" />
    <glyph glyph-name="uni0432.loclBGR" horiz-adv-x="1191" 
d="M962 438q151 -29 151 -172q0 -142 -88 -207t-269 -63l-639 4v870h597q95 0 158 -10.5t110 -37.5t68.5 -75.5t21.5 -122.5q0 -145 -110 -186zM755 708h-462v-188l462 -3q76 -1 108.5 16.5t32.5 69.5q0 58 -34 81.5t-107 23.5zM796 158q72 -1 106.5 21.5t34.5 81.5
q0 107 -141 109l-503 4v-212z" />
    <glyph glyph-name="uni0433.loclBGR" horiz-adv-x="1043" 
d="M1013 870v-162h-720v-708h-176v870h896z" />
    <glyph glyph-name="uni0434.loclBGR" horiz-adv-x="1310" 
d="M1105 309h143v-309h-176v147h-834v-147h-176v309h161l91 561h791v-561zM929 708h-460l-65 -399h525v399z" />
    <glyph glyph-name="uni0436.loclBGR" horiz-adv-x="1921" 
d="M1655 0l-411 377h-194v-377h-176v377h-192l-416 -382h-246l508 459l-491 416h251l377 -331h209v331h176v-331h202l381 331h251l-491 -411l508 -459h-246z" />
    <glyph glyph-name="uni0437.loclBGR" horiz-adv-x="1261" 
d="M978 463q109 -17 157 -64.5t48 -137.5q0 -92 -55.5 -152t-188.5 -94t-349 -35q-269 0 -390.5 96.5t-121.5 295.5h176q0 -120 75.5 -174t260.5 -54q159 0 252 14.5t129 41.5t36 71q0 60 -61 83t-184 23h-239v162h239q113 0 158.5 22.5t45.5 74.5q0 57 -79.5 83t-264.5 26
q-208 0 -288.5 -49.5t-79.5 -168.5h-176q0 205 124.5 292.5t419.5 87.5q284 0 402 -61.5t118 -197.5q0 -133 -164 -185z" />
    <glyph glyph-name="uni0438.loclBGR" horiz-adv-x="1316" 
d="M984 870h215v-870h-176v681l-689 -681h-217v870h176v-685z" />
    <glyph glyph-name="uni0439.loclBGR" horiz-adv-x="1316" 
d="M658 981q-50 0 -90 10t-76 33.5t-62.5 66.5t-42.5 105h158q27 -84 113 -84t113 84h158q-31 -120 -99.5 -167.5t-171.5 -47.5zM984 870h215v-870h-176v681l-689 -681h-217v870h176v-685z" />
    <glyph glyph-name="uni045D.loclBGR" horiz-adv-x="1316" 
d="M862 980h-156l-251 251h238zM984 870h215v-870h-176v681l-689 -681h-217v870h176v-685z" />
    <glyph glyph-name="uni043A.loclBGR" horiz-adv-x="1258" 
d="M973 0l-533 377h-147v-377h-175l-1 870h175v-331h179l488 331h281l-620 -412l638 -458h-285z" />
    <glyph glyph-name="uni043B.loclBGR" horiz-adv-x="1241" 
d="M1124 870v-870h-176v708h-519q-27 -149 -67 -380q-31 -174 -117 -251t-235 -77v162q54 0 87 12.5t55.5 58t31 79.5t26.5 129q2 8 3 13t2.5 13t2.5 14q30 155 64 389h842z" />
    <glyph glyph-name="uni043D.loclBGR" horiz-adv-x="1349" 
d="M1056 870h176v-870h-176v371h-763v-371h-176v870h176v-329h763v329z" />
    <glyph glyph-name="uni043F.loclBGR" horiz-adv-x="1264" 
d="M1147 870v-870h-176v708h-678v-708h-176v870h1030z" />
    <glyph glyph-name="uni0442.loclBGR" horiz-adv-x="1082" 
d="M458 0v708h-428v162h1022v-162h-418v-708h-176z" />
    <glyph glyph-name="uni0447.loclBGR" horiz-adv-x="1178" 
d="M885 870h176v-870h-176v333h-379q-222 0 -324 89.5t-102 264.5v183h176v-183q0 -88 57.5 -140t178.5 -52h393v375z" />
    <glyph glyph-name="uni0446.loclBGR" horiz-adv-x="1238" 
d="M945 870h176v-641h-375v-228h-176v228h-453v641h176v-479h652v479z" />
    <glyph glyph-name="uni0448.loclBGR" horiz-adv-x="1597" 
d="M1474 870l6 -870h-1363v870h176v-708h414v708h176v-708h415v708h176z" />
    <glyph glyph-name="uni0449.loclBGR" horiz-adv-x="1749" 
d="M1479 162h231v-162h-1593v870h176v-708h414v708h176v-708h415v708h176z" />
    <glyph glyph-name="uni044C.loclBGR" horiz-adv-x="1199" 
d="M701 539q166 0 257 -27.5t127 -84.5t36 -160q0 -82 -22.5 -134t-76 -81.5t-128 -40.5t-193.5 -11h-584v870h176v-331h408zM757 162q97 0 138.5 21t41.5 84q0 67 -42.5 88.5t-137.5 21.5h-464v-215h464z" />
    <glyph glyph-name="uni044A.loclBGR" horiz-adv-x="1348" 
d="M860 539q166 0 257 -27.5t127 -84.5t36 -160q0 -82 -22.5 -134t-76 -81.5t-128 -40.5t-193.5 -11h-584v708h-244v162h420v-331h408zM916 162q97 0 138.5 21t41.5 84q0 67 -42.5 88.5t-137.5 21.5h-464v-215h464z" />
    <glyph glyph-name="uni044E.loclBGR" horiz-adv-x="1886" 
d="M1238 905q304 0 437 -107.5t133 -353.5t-133 -355t-437 -109q-282 0 -416.5 93t-151.5 300h-377v-373h-176v870h176v-335h379q22 195 156 282.5t410 87.5zM1238 142q218 0 306 68t88 234q0 165 -88 232t-306 67q-219 0 -307 -67t-88 -232q0 -166 88 -234t307 -68z" />
    <glyph glyph-name="uni0431.loclSRB" horiz-adv-x="1178" 
d="M1100 321q1 -172 -122.5 -256t-380.5 -85q-281 0 -400 111t-119 375q0 279 111.5 401.5t350.5 122.5q60 0 105.5 4.5t87 15t64.5 33t26 54.5h189q-29 -142 -129.5 -204.5t-295.5 -64.5q-185 0 -256 -58.5t-75 -217.5q43 55 135.5 86t205.5 31q271 -1 386.5 -81.5
t116.5 -266.5zM597 142q181 1 254 40.5t73 130.5q0 104 -78.5 148.5t-249.5 45.5q-177 1 -259.5 -37.5t-82.5 -126.5q0 -107 80.5 -154.5t262.5 -46.5z" />
    <glyph glyph-name="uni0433.loclSRB" horiz-adv-x="1043" 
d="M1013 870v-162h-720v-708h-176v870h896z" />
    <glyph glyph-name="uni0434.loclSRB" horiz-adv-x="1324" 
d="M1107 309h147v-309h-174v147h-834v-147h-176v309h158l91 561h788v-561zM931 708h-462l-65 -399h527v399z" />
    <glyph glyph-name="uni043F.loclSRB" horiz-adv-x="1264" 
d="M1147 870v-870h-176v708h-678v-708h-176v870h1030z" />
    <glyph glyph-name="uni0442.loclSRB" horiz-adv-x="1082" 
d="M458 0v708h-428v162h1022v-162h-418v-708h-176z" />
    <glyph glyph-name="uni0448.loclSRB" horiz-adv-x="1597" 
d="M1474 870l6 -870h-1363v870h176v-708h414v708h176v-708h415v708h176z" />
    <glyph glyph-name="uni043B.ss01" horiz-adv-x="1325" 
d="M1305 0h-198l-444 731l-445 -731h-198l528 870h230z" />
    <glyph glyph-name="uni0459.ss01" horiz-adv-x="1628" 
d="M1139 539q166 0 257 -27.5t127 -84.5t36 -160q0 -82 -22.5 -134t-76 -81.5t-128 -40.5t-193.5 -11h-514v634l-495 -634h-210l693 870l12 -1v1h176v-331h338zM1195 162q97 0 138.5 21t41.5 84q0 67 -42.5 88.5t-137.5 21.5h-394v-215h394z" />
    <glyph glyph-name="uni043B.loclBGR.ss01" horiz-adv-x="1325" 
d="M1305 0h-198l-444 735l-445 -735h-198l528 870h230z" />
    <glyph glyph-name="uni0430043B" horiz-adv-x="2513" 
d="M2396 870v-870h-176v708h-519q-27 -149 -67 -380q-31 -174 -117 -251t-235 -77q-124 0 -191 24.5t-98 96.5q-45 -73 -148 -106.5t-274 -33.5q-267 0 -380 65.5t-113 229.5q0 153 115.5 222t377.5 69q293 0 389 -96q-2 81 -14.5 129t-48.5 82.5t-98.5 47.5t-165.5 13
q-129 0 -205 -14.5t-109 -58.5h-190q64 135 171.5 185t332.5 50q149 0 246 -25.5t154 -83.5t80 -139.5t24 -205.5q1 -47 1 -74t2 -59.5t3.5 -48.5t6 -36t9 -28t13.5 -18.5t18 -13.5t24.5 -6.5t30 -4t37.5 -0.5q54 0 87 12.5t55.5 58t31 79.5t26.5 129q2 8 3 13t2.5 13
t2.5 14q30 155 64 389h842zM571 136q213 0 301 33.5t88 109.5t-86.5 106.5t-302.5 30.5q-171 0 -244 -34.5t-73 -105.5q0 -81 69 -110.5t248 -29.5z" />
    <glyph glyph-name="uni0445043B" horiz-adv-x="2268" 
d="M2151 870v-870h-176v708h-519q-27 -149 -67 -380q-31 -174 -117 -251t-235 -77h-109l-344 342l-333 -342h-231l447 459l-413 411h230l297 -295l287 295h231l-401 -411l299 -297h40q54 0 87 12.5t55.5 58t31 79.5t26.5 129q2 8 3 13t2.5 13t2.5 14q30 155 64 389h842z" />
    <glyph glyph-name="zero.ss01" horiz-adv-x="1282" 
d="M641 1123q128 0 224.5 -26t160.5 -73t104 -118.5t57 -156t17 -192.5t-17 -192.5t-57 -155.5t-104 -118t-160.5 -73t-224.5 -26t-224.5 26t-160.5 73t-104 118t-57 155.5t-17 192.5t17 192.5t57 156t104 118.5t160.5 73t224.5 26zM641 953q-72 0 -128.5 -10t-96 -27
t-68 -45.5t-45 -59t-26 -74t-12.5 -84.5t-3 -96q0 -115 18 -190.5t70 -123.5l430 698q-58 12 -139 12zM641 162q100 0 170 19.5t110 51t62.5 85t29 107t6.5 132.5q0 108 -15.5 180.5t-59.5 121.5l-424 -689q58 -8 121 -8z" />
    <glyph glyph-name="parenleft.case" horiz-adv-x="500" 
d="M254 -87q-79 122 -127.5 297t-48.5 339q0 165 48.5 340t127.5 297h198q-87 -126 -140.5 -300.5t-53.5 -336.5q0 -163 53.5 -338t140.5 -298h-198z" />
    <glyph glyph-name="parenright.case" horiz-adv-x="500" 
d="M246 -87h-198q87 123 140.5 298t53.5 338q0 162 -53.5 336.5t-140.5 300.5h198q79 -122 127.5 -297t48.5 -340q0 -164 -48.5 -339t-127.5 -297z" />
    <glyph glyph-name="braceleft.case" horiz-adv-x="671" 
d="M533 -198q-131 0 -196.5 68t-65.5 220v81q0 150 -38.5 205.5t-158.5 55.5h-35v176h35q112 0 154.5 61t42.5 176v79q0 138 60 214t202 76h99v-154h-29q-67 0 -102 -13.5t-53.5 -56.5t-18.5 -128v-56q0 -44 -2 -74t-11 -68t-24.5 -63t-45 -47.5t-71.5 -34.5
q43 -12 71 -30.5t44.5 -41t25 -61t11 -77t2.5 -102.5v-55q0 -56 5.5 -89t22.5 -60t51 -38t89 -11q10 0 18 1t17 1v-154h-99z" />
    <glyph glyph-name="braceright.case" horiz-adv-x="671" 
d="M39 -198v154q11 0 18 -1q8 -1 17 -1q57 0 91.5 12t51 40.5t21 59.5t4.5 86v55q0 64 2.5 102.5t11 77t25 61t44.5 41t70 30.5q-51 15 -83.5 43t-47 71t-18.5 80t-4 93v56q0 56 -5.5 89.5t-23.5 60t-53 37.5t-92 11h-29v154h99q130 0 196 -69t66 -221v-79q0 -115 42.5 -176
t154.5 -61h35v-176h-35q-119 0 -158 -55t-39 -206v-81q0 -138 -59 -213t-203 -75h-99z" />
    <glyph glyph-name="bracketleft.case" horiz-adv-x="556" 
d="M117 -195v1489h431v-163h-255v-1164h255v-162h-431z" />
    <glyph glyph-name="bracketright.case" horiz-adv-x="587" 
d="M439 -195h-431v162h255v1164h-255v163h431v-1489z" />
    <glyph glyph-name="hyphen.case" horiz-adv-x="792" 
d="M117 458v170h558v-170h-558z" />
    <glyph glyph-name="uni00AD.case" horiz-adv-x="792" 
d="M117 458v170h558v-170h-558z" />
    <glyph glyph-name="endash.case" horiz-adv-x="917" 
d="M117 458v170h683v-170h-683z" />
    <glyph glyph-name="emdash.case" horiz-adv-x="1512" 
d="M117 458v170h1278v-170h-1278z" />
    <glyph glyph-name="guillemotleft.case" horiz-adv-x="1032" 
d="M381 112l-342 440l342 428h192l-338 -428l338 -440h-192zM801 112l-342 440l342 428h192l-338 -428l338 -440h-192z" />
    <glyph glyph-name="guillemotright.case" horiz-adv-x="1032" 
d="M39 112l339 440l-339 428h193l341 -428l-341 -440h-193zM459 112l339 440l-339 428h193l341 -428l-341 -440h-193z" />
    <glyph glyph-name="guilsinglleft.case" horiz-adv-x="612" 
d="M381 112l-342 440l342 428h192l-338 -428l338 -440h-192z" />
    <glyph glyph-name="guilsinglright.case" horiz-adv-x="612" 
d="M39 112l339 440l-339 428h193l341 -428l-341 -440h-193z" />
    <glyph glyph-name="quotesinglbase.ss03" horiz-adv-x="410" 
d="M205 -8q-71 0 -99 28t-28 99t28 99t99 28t99 -28t28 -99t-28 -99t-99 -28z" />
    <glyph glyph-name="quotedblbase.ss03" horiz-adv-x="750" 
d="M205 -8q-71 0 -99 28t-28 99t28 99t99 28t99 -28t28 -99t-28 -99t-99 -28zM545 -8q-71 0 -99 28t-28 99t28 99t99 28t99 -28t28 -99t-28 -99t-99 -28z" />
    <glyph glyph-name="quotedblleft.ss03" horiz-adv-x="750" 
d="M205 1097q71 0 99 -28t28 -99q0 -70 -28 -98.5t-99 -28.5t-99 28.5t-28 98.5t28 98.5t99 28.5zM545 1097q71 0 99 -28t28 -99q0 -70 -28 -98.5t-99 -28.5t-99 28.5t-28 98.5t28 98.5t99 28.5z" />
    <glyph glyph-name="quotedblright.ss03" horiz-adv-x="750" 
d="M205 843q-71 0 -99 28.5t-28 98.5t28 98.5t99 28.5t99 -28t28 -99q0 -70 -28 -98.5t-99 -28.5zM545 843q-71 0 -99 28.5t-28 98.5t28 98.5t99 28.5t99 -28t28 -99q0 -70 -28 -98.5t-99 -28.5z" />
    <glyph glyph-name="quoteleft.ss03" horiz-adv-x="410" 
d="M205 843q-71 0 -99 28.5t-28 98.5t28 98.5t99 28.5t99 -28t28 -99q0 -70 -28 -98.5t-99 -28.5z" />
    <glyph glyph-name="quoteright.ss03" horiz-adv-x="410" 
d="M205 843q-71 0 -99 28.5t-28 98.5t28 98.5t99 28.5t99 -28t28 -99q0 -70 -28 -98.5t-99 -28.5z" />
    <glyph glyph-name="quotedbl.ss03" horiz-adv-x="750" 
d="M205 843q-71 0 -99 28.5t-28 98.5t28 98.5t99 28.5t99 -28t28 -99q0 -70 -28 -98.5t-99 -28.5zM545 843q-71 0 -99 28.5t-28 98.5t28 98.5t99 28.5t99 -28t28 -99q0 -70 -28 -98.5t-99 -28.5z" />
    <glyph glyph-name="quotesingle.ss03" horiz-adv-x="410" 
d="M205 843q-71 0 -99 28.5t-28 98.5t28 98.5t99 28.5t99 -28t28 -99q0 -70 -28 -98.5t-99 -28.5z" />
    <glyph glyph-name="uni20BD.ss01" horiz-adv-x="1301" 
d="M1290 378l86 -147l-406 -239l-85 148l130 76v9q0 100 -44 137t-157 37h-513v-399h-184v1097h668q222 -1 317 -78t95 -266q0 -105 -36 -165.5t-115 -89.5q64 -20 99 -62t46 -116zM301 927v-357h513q112 0 156 40.5t44 142.5q0 97 -44 135.5t-156 38.5h-513z" />
    <glyph glyph-name="plus.case" horiz-adv-x="1207" 
d="M512 0v461h-473v171h473v465h177v-465h479v-171h-479v-461h-177z" />
    <glyph glyph-name="multiply.case" horiz-adv-x="1051" 
d="M973 885l-323 -323l323 -323l-124 -124l-323 323l-323 -323l-125 124l323 323l-323 323l125 125l323 -323l323 323z" />
    <glyph glyph-name="equal.case" horiz-adv-x="973" 
d="M78 637v171h817v-171h-817zM78 316v171h817v-171h-817z" />
    <glyph glyph-name="notequal.case" horiz-adv-x="973" 
d="M895 637h-269l-76 -150h345v-171h-432l-105 -207h-182l105 207h-203v171h290l76 150h-366v171h452l86 169h182l-86 -169h183v-171z" />
    <glyph glyph-name="ampersand.ss01" horiz-adv-x="1276" 
d="M1246 654v-170h-129q-4 -263 -127.5 -377.5t-404.5 -115.5q-284 0 -407 74t-123 243q0 224 185 281q-97 64 -97 221q0 106 42.5 166.5t146.5 90.5t287 30q184 0 288.5 -33t147.5 -100t43 -182h-184q0 54 -24 84.5t-88.5 45.5t-182.5 15q-117 0 -181 -13.5t-87.5 -41
t-23.5 -76.5q0 -76 45.5 -109t149.5 -33h724zM585 161q178 0 258.5 75t87.5 248h-496q-105 -8 -150.5 -45.5t-45.5 -116.5q0 -86 80 -123.5t266 -37.5z" />
    <glyph glyph-name="macron.001" horiz-adv-x="572" 
d="M78 1232v145h416v-145h-416z" />
    <glyph glyph-name="ogonek.U" horiz-adv-x="517" 
d="M361 -434q-154 0 -218.5 41.5t-64.5 122.5q0 75 41 136.5t130 133.5h149q-77 -70 -106 -114t-29 -79q0 -43 28 -62.5t88 -19.5h60v-159h-78z" />
    <glyph glyph-name="brevecombcy" horiz-adv-x="0" 
d="M-349 1232q-50 0 -90 10t-76 33.5t-62.5 66.5t-42.5 105h158q27 -84 113 -84t113 84h158q-31 -120 -99.5 -167.5t-171.5 -47.5z" />
    </font>
</defs>
</svg>
