<svg id="Layer_1" data-name="Layer 1" xmlns="http://www.w3.org/2000/svg" viewBox="0 0 1691.97 1436.58"><defs><style>.cls-1{fill:none;stroke:#000;stroke-miterlimit:10;stroke-width:3px;}</style></defs><path id="Path_382" data-name="Path 382" class="cls-1" d="M1506.48,197H1015.84a15.52,15.52,0,0,1-13-7c-14.35-22-24.22-76.44-77.21-76.44H721.15c-29.43,0-64.4,20.15-66.39,67.84h0A15.59,15.59,0,0,1,639.17,197H134.1a15.59,15.59,0,0,0-15.59,15.59V1307.46a15.59,15.59,0,0,0,15.59,15.59H1557.87a15.59,15.59,0,0,0,15.59-15.59V212.54A15.59,15.59,0,0,0,1557.87,197Z"/></svg>