<svg id="Layer_1" data-name="Layer 1" xmlns="http://www.w3.org/2000/svg" viewBox="0 0 1691.97 1436.58"><defs><style>.cls-1{fill:none;stroke:#000;stroke-miterlimit:10;stroke-width:3px;}</style></defs><path class="cls-1" d="M716.64,157.3c-.15-.22-.28-.45-.41-.68-26.6-48.63-45-42.56-78.77-42.56h-187A62.46,62.46,0,0,0,388,176.52h0a20.74,20.74,0,0,1-20.74,20.74h-228A20.75,20.75,0,0,0,118.49,218V1302a20.75,20.75,0,0,0,20.75,20.74H1552.73a20.74,20.74,0,0,0,20.74-20.74V218a20.74,20.74,0,0,0-20.74-20.75H779.19c-8.38,0-19.28.91-27-2.38h0c-12.71-5.43-19.81-11.28-26.44-23.31-.11-.21-.24-.42-.37-.62Z"/></svg>